<?xml version="1.0" encoding="utf-8"?>
<!-- Generator: Adobe Illustrator 23.0.2, SVG Export Plug-In . SVG Version: 6.00 Build 0)  -->
<svg version="1.1" id="Layer_5" xmlns="http://www.w3.org/2000/svg" xmlns:xlink="http://www.w3.org/1999/xlink" x="0px" y="0px"
	 viewBox="0 0 1224 792" style="enable-background:new 0 0 1224 792;" xml:space="preserve">
<style type="text/css">
	.st0{fill:#E92E35;}
	.st1{fill:#282561;}
	.st2{fill:none;stroke:#282561;stroke-width:1.5272;stroke-miterlimit:10;}
	.st3{fill:none;stroke:#282561;stroke-width:1.1934;stroke-miterlimit:10;}
</style>
<rect x="-8.5" y="-8.5" class="st0" width="1242" height="810"/>
<g>
	<g>
		<g>
			<path class="st1" d="M551.1,107.3c22.5-2.3,45-4.1,67.6-3.7c11.1,0.2,22.2,0.9,33.3,1.9c10.3,0.9,22.8,3.3,32.9,0.6
				c2.8-0.7,3.2-5.7,0-6.1c-5.1-0.7-10.3-0.2-15.4-0.5c-5.8-0.3-11.7-0.9-17.5-1.4c-11.4-1-22.8-1.6-34.3-1.7
				c-22.5-0.3-45.2,1-67.4,4.9C546.9,101.9,547.7,107.7,551.1,107.3L551.1,107.3z"/>
		</g>
	</g>
	<g>
		<g>
			<g>
				<g>
					<path class="st1" d="M586.3,223.7c11.3,0,22.6-0.5,33.9-0.4c2.4,0,5.2-0.7,6.3,1.5c1,1.9,0.7,6.1,0.9,8.3
						c0.7,5.6,1.7,11.1,3.3,16.4c1.1-1.4,2.2-2.9,3.3-4.3c-19,0.3-39.6-4.1-58.3,1.5c1.4,1.4,2.7,2.7,4.1,4.1
						c2.8-9.4,6.3-18.5,9.4-27.8c1.3-4.1-5-5.7-6.4-1.8c-3.2,9.2-5.9,18.7-9.4,27.8c-0.7,1.9,1.2,4.4,3.2,4.2
						c9.6-1.1,18.8-2.4,28.5-2.4c9.6,0,19.3,0.4,28.8,1.2c2.3,0.2,3.7-2.3,3.3-4.3c-1.5-7.3-3.2-14.6-4.2-22.1
						c-0.6-4.2-1.5-7.9-6.3-8.6c-6.3-1-13.6-0.1-19.9,0.5c-7.2,0.7-14,1.8-21,3.7C584.7,221.8,585,223.7,586.3,223.7L586.3,223.7z"
						/>
				</g>
			</g>
			<g>
				<g>
					<path class="st1" d="M579.3,242.2c8.2,1.7,17.3,0.9,25.7,0.8c8.9-0.1,18.1,0.3,26.9-0.7c4.2-0.5,4.5-6.7,0-6.8
						c-8.9-0.2-18,0.9-26.9,1.2c-8.4,0.2-17.4-0.6-25.7,0.9C577,237.9,577.1,241.7,579.3,242.2L579.3,242.2z"/>
				</g>
			</g>
			<g>
				<g>
					<path class="st1" d="M585.4,239.6c-0.7,1.9-1.3,4.3-2.4,6c-1,1.6,0,3.8,1.8,4.3c1.8,0.5,3.9-0.9,3.7-2.8
						c-0.1-2.3,0.3-4.7,0.3-7C588.9,238,586.1,237.8,585.4,239.6L585.4,239.6z"/>
				</g>
			</g>
			<g>
				<g>
					<path class="st1" d="M592.3,239.7c-0.8,0.9-1.1,2.1-1.5,3.2c-0.4,1.2-0.8,2.3-1.2,3.5c-0.6,1.6,0.8,3.3,2.4,3.5
						c1.7,0.2,3.2-1.1,3.2-2.8c0-1.1,0-2.2,0.1-3.4c0-1.1,0.2-2.3-0.2-3.3C594.5,239.3,593.2,238.7,592.3,239.7L592.3,239.7z"/>
				</g>
			</g>
			<g>
				<g>
					<path class="st1" d="M600.2,240.4c-0.2,1.8-0.9,3.5-1.4,5.3c-0.3,1.3,0.4,2.7,1.8,3.1c1.2,0.3,2.9-0.4,3.1-1.7
						c0.2-1.3,0.2-2.4,0-3.8c-0.2-1.1-0.5-2.2-0.9-3.2C602.3,238.7,600.4,238.9,600.2,240.4L600.2,240.4z"/>
				</g>
			</g>
			<g>
				<g>
					<path class="st1" d="M606.6,240.3c-1,2-0.8,4.3-0.7,6.5c0.1,1.5,1.3,2.7,2.9,2.5c1.7-0.2,2.4-1.7,2.1-3.2
						c-0.3-1.9-0.5-4.2-1.7-5.8C608.7,239.5,607.2,239.2,606.6,240.3L606.6,240.3z"/>
				</g>
			</g>
			<g>
				<g>
					<path class="st1" d="M613.4,240.5c-0.8,1.2-1,3.1-0.9,4.5c0.1,1.6-0.2,3.5,1.1,4.6c2.9,2.6,6.5-2,3.3-4.3
						c-0.1,0-0.1-0.1-0.2-0.1c0.4,0.5,0.8,1.1,1.2,1.6c-0.7-2.3-0.5-4.9-2.2-6.7C615,239.5,613.9,239.7,613.4,240.5L613.4,240.5z"/>
				</g>
			</g>
			<g>
				<g>
					<path class="st1" d="M620.3,239.7c-0.7,1.6-0.3,3.4-0.1,5.1c0.3,1.8,0.1,3.7,1.4,5.1c1.2,1.2,3.1,0.9,4-0.5
						c1.1-1.7,0.3-3.9-0.2-5.7c-0.4-1.6-1.1-3.7-2.6-4.6C622.1,238.5,620.7,238.7,620.3,239.7L620.3,239.7z"/>
				</g>
			</g>
			<g>
				<g>
					<path class="st1" d="M596.2,228.2c-1.6-0.2-2.8,1.6-2.3,3.1c0.6,1.8,2.6,2,4.1,1.5c0.7-0.2,1.4-0.9,1.3-1.7c0-0.1,0-0.1,0-0.2
						c0,0.1,0,0.1,0,0c0-0.2,0.1-0.3,0.1-0.5c-0.2,0.3-0.3,0.6-0.5,0.9c0,0,0.1-0.1,0.1-0.1c0.7-0.7,0.7-1.7,0.3-2.5
						c-0.5-1-1.3-1.4-2.4-1.5c-1-0.1-2,0.8-2.2,1.7c-0.2,1,0.2,2.1,1.1,2.6c0.9,0.6,1.8,0.5,2.8,0c-0.8-0.1-1.7-0.2-2.5-0.3
						c0,0,0.1,0.1,0.1,0.1c-0.2-0.3-0.3-0.6-0.5-0.9c0.1,0.2,0.1,0.3,0.1,0.5c0.1,0.3,0-0.4,0,0.2c0.4-0.6,0.9-1.1,1.3-1.7
						c0,0-0.5,0.1-0.5,0.1c0-0.1,0.5,0.1,0.4,0.1c0,0,0.1,0.1,0.1,0.1c-0.3-0.3-0.2-0.1,0.2,0.7c-0.1,0.3-0.2,0.6-0.3,0.9
						c-0.2,0.2-0.5,0.3-0.8,0.3c0.9,0,1.8-0.8,1.7-1.7C597.9,228.9,597.2,228.4,596.2,228.2L596.2,228.2z"/>
				</g>
			</g>
			<g>
				<g>
					<path class="st1" d="M600.8,227.7c0.3-1.9-1.6-2.6-3.2-2.9c-1.9-0.3-4,0.1-5.6,1.3c-3.4,2.6-3.5,8.2,0.1,10.6
						c3.5,2.4,9.7,1.6,11.8-2.3c1.9-3.4-0.4-12.6-5.7-10.4c-1.8,0.7-2.5,3.2-0.6,4.3c1,0.5,1.3,0.6,1.6,1.8c0.1,0.6,0.4,1.5-0.1,2.1
						c-0.8,0.9-3.5,0.9-4.3,0.1c-1-1-0.6-2.7,0.5-3.5c1.6-1.2,3.2-0.2,4.8-0.5C600.4,228.3,600.7,227.9,600.8,227.7L600.8,227.7z"/>
				</g>
			</g>
			<g>
				<g>
					<path class="st1" d="M612.7,228.7c-0.8,1.3-0.1,3.2,1.4,3.5c1.8,0.4,3.5-1.4,2.8-3.2c-0.3-0.8-1-1.3-1.8-1.2
						c-0.9,0.1-1.3,0.8-1.4,1.6c0-0.3,0.1-0.5,0.2-0.6c0.1-0.1,0.1-0.1,0,0c-0.2,0.2-0.4,0.3,0.3,0c0.3-0.2,0.6-0.2,0.9,0
						c0.3,0,0.5,0.2,0.6,0.4c0.2,0.4,0.1,0.8,0,1.2c0.4-0.8,0.3-1.9-0.6-2.4C614.2,227.7,613.2,227.9,612.7,228.7L612.7,228.7z"/>
				</g>
			</g>
			<g>
				<g>
					<path class="st1" d="M618.6,227.2c-0.1-4.1-7.4-3.5-9.7-1.8c-4.2,3.1-2.7,9.4,1.4,11.7c4.5,2.5,10.5,0.4,12.5-4.3
						c2.1-5-1.7-10.9-7.2-10c-2.5,0.4-2.4,4.5,0,5c4.6,0.8,1.2,5.6-2.3,4.5c-1.5-0.5-2.4-1.8-1.9-3.4c0.6-1.8,5.1-3.1,6.4-1.4
						C618.2,227.7,618.7,227.5,618.6,227.2L618.6,227.2z"/>
				</g>
			</g>
		</g>
		<g>
			<g>
				<path class="st1" d="M554.5,178.5c-3.9-6.9-15.5-3.2-12.4,4.9c2.5,6.5,14.6,6.2,15.2-1.4c0.7-8.6-10.1-8.6-14.2-3.3
					c-1.8,2.3-3.1,5.3-4.3,7.9c-1.1,2.2-2.5,4.7-2.6,7.2c-0.2,4.9,4.4,6.4,8.5,7c5.1,0.8,10.9,0,14.4-4.1c4.2-4.8,0.1-11.6-1.7-16.7
					c-1.1-3.1-6-1.7-4.9,1.4c0.9,2.5,1.8,5,2.7,7.5c1.3,3.4,0.9,5.8-3.1,6.8c-2.2,0.6-4.6,0.4-6.7,0c-1.4-0.3-3.5-1.3-3.5-3.1
					c0-1,1.2-2.9,1.6-3.7c1.2-2.9,3.4-14.3,8.8-10.5c3.5,2.4-0.2,5.9-3.2,5.1c-1.5-0.4-3.2-1.8-3-3.7c0.3-3.6,5.7-0.5,6.6,0.3
					C553.6,180.9,555.2,179.8,554.5,178.5L554.5,178.5z"/>
			</g>
		</g>
		<g>
			<g>
				<path class="st1" d="M672,177.3c-3.9-6.9-15.5-3.2-12.4,4.9c2.5,6.5,14.6,6.2,15.2-1.4c0.7-8.6-10.1-8.6-14.2-3.3
					c-1.8,2.3-3.1,5.3-4.3,7.9c-1.1,2.2-2.5,4.7-2.6,7.2c-0.2,4.9,4.4,6.4,8.5,7c5.1,0.8,10.9,0,14.4-4.1c4.2-4.8,0.1-11.6-1.7-16.7
					c-1.1-3.1-6-1.7-4.9,1.4c0.9,2.5,1.8,5,2.7,7.5c1.3,3.4,0.9,5.8-3.1,6.8c-2.2,0.6-4.6,0.4-6.7,0c-1.4-0.3-3.5-1.3-3.5-3.1
					c0-1,1.2-2.9,1.6-3.7c1.2-2.9,3.4-14.3,8.8-10.5c3.5,2.4-0.2,5.9-3.2,5.1c-1.5-0.4-3.2-1.8-3-3.7c0.3-3.6,5.7-0.5,6.6,0.3
					C671.1,179.8,672.7,178.6,672,177.3L672,177.3z"/>
			</g>
		</g>
		<g>
			<g>
				<g>
					<path class="st1" d="M552,155.4c-1.8,4.8-3.5,9.6-5.4,14.4c-0.7,1.6,1,3.4,2.6,3.4c19.5-0.1,39,1.1,58.5,1.2
						c19.5,0.1,39-0.3,58.5-0.9c1.8-0.1,3.5-1.8,2.8-3.7c-1.7-5.1-3.5-10.1-5.2-15.2c-0.4-1.1-1.4-2.1-2.6-2
						c-18,0.8-36.1,0.3-54.1-0.2c-17.5-0.4-35.4-1.5-52.8,0.9c-3.1,0.4-2.3,5.4,0.7,5.4c17.7,0,35.4-0.5,53.1-0.1
						c17.7,0.4,35.4,0.8,53.1-0.6c-0.9-0.7-1.8-1.3-2.6-2c1.6,5.1,3.1,10.2,4.8,15.3c0.9-1.2,1.9-2.5,2.8-3.7
						c-19.5,0.5-39,0.8-58.5,0.9c-19.4,0.1-39.1,0.6-58.5-0.6c0.8,1.3,1.5,2.7,2.3,4c2.3-5.1,3.8-10.4,4.4-15.9
						C556.1,153.6,552.7,153.5,552,155.4L552,155.4z"/>
				</g>
			</g>
			<g>
				<g>
					<path class="st1" d="M610.3,157.2c-0.4,1.9-0.9,3.8-1.3,5.7c-0.4,2-0.8,4.2-1.7,6.1c-1.5,3.2,3.7,4.7,4.1,1.1
						c0.2-2.2,0.9-4.4,1.2-6.7c0.3-2.1,0.2-3.9,0.1-5.9C612.6,156.2,610.6,155.8,610.3,157.2L610.3,157.2z"/>
				</g>
			</g>
			<g>
				<g>
					<path class="st1" d="M624.2,156.8c-1.3,4-1.3,9-1.6,13.2c-0.3,3.2,4.9,3.3,5.1,0c0.2-4.2,0.3-9-0.4-13.2
						C627,155.1,624.6,155.4,624.2,156.8L624.2,156.8z"/>
				</g>
			</g>
			<g>
				<g>
					<path class="st1" d="M617.3,157.9c0,4.4-1,8.8-0.7,13.1c0.1,0.9,1.2,1,1.5,0.2c1.5-4.1,1.1-9,0.9-13.3
						C618.9,156.8,617.3,156.7,617.3,157.9L617.3,157.9z"/>
				</g>
			</g>
		</g>
		<g>
			<g>
				<path class="st1" d="M488.7,239.7c3.6,2.5,8.3-0.3,8.1-4.6c0-0.6-0.3-1.2-0.8-1.4c-4.9-2.4-13.1-3.3-13.1,4.4
					c0,0.7,0.4,1.3,0.9,1.6c5,2.8,19.1,7.5,20.3-2.4c1-8.7-13.6-11.4-19.6-9.9c-9,2.2-9.6,13.3-2.3,18.2c7.3,4.9,21.9,3.8,27-3.9
					c5.6-8.5-2.3-15.7-10.2-17.8c-9.2-2.4-21.8-2.5-27.5,6.7c-5.9,9.6,2.1,19.2,11.4,22c9.9,3,22.8,2.1,29.5-6.7
					c6.2-8.1,3.2-18.6-5.2-23.8c-9.2-5.7-24.1-5-33.4,0.3c-8.8,5-13.4,16.2-7.2,25c7,10,20,9.9,30.9,8.6c9.4-1.1,19.5-4.3,21.1-15.1
					c1.5-10.6-6-19.2-15.4-22.7c-6.1-2.3-12.7-2.6-19.1-2.2c-5.5,0.3-11.5,0.7-16.6,3.1c-10.8,5-10.8,18.9-6.8,28.6
					c4.4,10.8,15.9,14.1,26.6,12.8c10.3-1.3,24.8-4.5,31.6-13.1c6.2-7.8,5.5-19.1-1-26.5c-8.4-9.6-21-7.8-32.5-8
					c-10.9-0.2-22.4-0.3-28.5,10.4c-5.1,8.8-3.8,20.1,1.9,28.4c6.5,9.4,16.6,13.3,27.7,12.7c11.6-0.6,25.2-2.3,34.4-10
					c8.2-6.8,10.8-17.3,6.6-27.2c-4.4-10.1-14.4-16-24.9-18.3c-11.5-2.5-23.9-1.6-34.7,3.1c-9.9,4.3-19.7,12.2-20.3,23.8
					c-0.6,11,6.7,21,16.1,26.1c10.8,5.9,24.5,6.8,36.6,6c11.4-0.7,23.5-3.5,32-11.6c7.3-7,9.8-17.1,5.4-26.4
					c-10.2-21.5-41.4-26.5-62.2-22.1c-10.9,2.4-22.3,7.5-29.1,16.6c-6.5,8.7-8.2,21.2-1.6,30.3c6.7,9.1,19.1,12.7,29.5,15.1
					c12.6,2.9,26,4,38.8,2.1c11.2-1.7,22.2-6.6,28.5-16.4c5.6-8.8,6.4-20.1,0.2-28.7c-6-8.4-16.2-12.4-25.6-15.8
					c-4.7-1.7-6.8,5.8-2.1,7.5c12.4,4.3,30,12.3,24.5,28.7c-5.6,17-26.3,19.8-41.6,19.3c-9.2-0.3-18.3-1.7-27.2-4.3
					c-7.3-2.1-16-5-20.4-11.7c-4.8-7.3-2.5-17,2.9-23.3c5.3-6.2,13-9.8,20.8-12c15.8-4.4,34.6-2.7,48.5,6.4
					c6.3,4.1,12.6,10.7,12.2,18.8c-0.4,7.6-6.6,13.2-12.9,16.4c-8,4.1-17.5,5.2-26.3,5.2c-8.1,0-16.5-0.7-24.1-3.6
					c-7.8-3-14.6-9.1-16.4-17.5c-1.9-8.9,3.8-15.9,11-20.4c13.7-8.4,33.6-9.4,47.6-1.1c6.8,4,12.1,11.5,11.1,19.7
					c-1.1,8.6-9,13.9-16.7,16.3c-15,4.6-36.4,6.8-45-9.5c-3.7-6.9-3.9-16.5,1.6-22.5c5.9-6.3,15.6-4.5,23.3-4.4
					c8.5,0.2,18.4-1.5,25.3,4.7c6.2,5.6,7.2,15.5,1.2,21.7c-5.5,5.7-16,7.7-23.5,9.2c-8.3,1.6-18.7,1-23.2-7.5
					c-2-3.8-2.6-8.6-2.5-12.8c0.1-5.6,2.8-9,8-10.6c7.9-2.5,18.5-3,26.5-0.9c7.7,2,15.3,8.1,14.6,16.9c-0.8,10.1-12.2,11-20.1,11.4
					c-8,0.4-20-0.3-23.3-9.3c-3.5-9.6,7.4-15.8,15.2-17.1c8.3-1.4,20.8-0.9,24.5,8.3c4,9.9-7.2,15.9-15.4,16.1
					c-7.3,0.1-25.2-4.6-18.2-15.4c4.5-7,15.7-6.1,22.6-3.9c3.4,1.1,8.2,3.5,7,7.8c-1.4,5.2-8.7,6-13.1,6c-4.2,0-11.3-1.7-10.4-7.4
					c0.8-5,7.5-4.2,11.3-3.4c1.3,0.3,3.4,0.7,4.4,1.6c4.6,4.3-0.8,5.4-3.1,5.4c-1.8,0-3.7-0.5-5.4-1.2c-0.4-0.2-0.8-0.4-1.2-0.5
					c-2.7-0.8-1.6-1.5,3.1-2.1c0.9,0,2.5,0.9,3.2,1.2c-0.4-0.5-0.8-1.1-1.2-1.6c-1.1,0.8-2.3,1.5-3.4,2.3
					C488.6,236.4,487.3,238.7,488.7,239.7L488.7,239.7z"/>
			</g>
		</g>
		<g>
			<g>
				<path class="st1" d="M718.1,239.7c3.6,2.5,8.3-0.3,8.1-4.6c0-0.6-0.3-1.2-0.8-1.4c-4.9-2.4-13.1-3.3-13.1,4.4
					c0,0.7,0.4,1.3,0.9,1.6c5,2.8,19.1,7.5,20.3-2.4c1-8.7-13.6-11.4-19.6-9.9c-9,2.2-9.6,13.3-2.3,18.2c7.3,4.9,21.9,3.8,27-3.9
					c5.6-8.5-2.3-15.7-10.2-17.8c-9.2-2.4-21.8-2.5-27.5,6.7c-5.9,9.6,2.1,19.2,11.4,22c9.9,3,22.8,2.1,29.5-6.7
					c6.2-8.1,3.2-18.6-5.2-23.8c-9.2-5.7-24.1-5-33.4,0.3c-8.8,5-13.4,16.2-7.2,25c7,10,20,9.9,30.9,8.6c9.4-1.1,19.5-4.3,21.1-15.1
					c1.5-10.6-6-19.2-15.4-22.7c-6.1-2.3-12.7-2.6-19.1-2.2c-5.5,0.3-11.5,0.7-16.6,3.1c-10.8,5-10.8,18.9-6.8,28.6
					c4.4,10.8,15.9,14.1,26.6,12.8c10.3-1.3,24.8-4.5,31.6-13.1c6.2-7.8,5.5-19.1-1-26.5c-8.4-9.6-21-7.8-32.5-8
					c-10.9-0.2-22.4-0.3-28.5,10.4c-5.1,8.8-3.8,20.1,1.9,28.4c6.5,9.4,16.6,13.3,27.7,12.7c11.6-0.6,25.2-2.3,34.4-10
					c8.2-6.8,10.8-17.3,6.6-27.2c-4.4-10.1-14.4-16-24.9-18.3c-11.5-2.5-23.9-1.6-34.7,3.1c-9.9,4.3-19.7,12.2-20.3,23.8
					c-0.6,11,6.7,21,16.1,26.1c10.8,5.9,24.5,6.8,36.6,6c11.4-0.7,23.5-3.5,32-11.6c7.3-7,9.8-17.1,5.4-26.4
					c-10.2-21.5-41.4-26.5-62.2-22.1c-10.9,2.4-22.3,7.5-29.1,16.6c-6.5,8.7-8.2,21.2-1.6,30.3c6.7,9.1,19.1,12.7,29.5,15.1
					c12.6,2.9,26,4,38.8,2.1c11.2-1.7,22.2-6.6,28.5-16.4c5.6-8.8,6.4-20.1,0.2-28.7c-6-8.4-16.2-12.4-25.6-15.8
					c-4.7-1.7-6.8,5.8-2.1,7.5c12.4,4.3,30,12.3,24.5,28.7c-5.6,17-26.3,19.8-41.6,19.3c-9.2-0.3-18.3-1.7-27.2-4.3
					c-7.3-2.1-16-5-20.4-11.7c-4.8-7.3-2.5-17,2.9-23.3c5.3-6.2,13-9.8,20.8-12c15.8-4.4,34.6-2.7,48.5,6.4
					c6.3,4.1,12.6,10.7,12.2,18.8c-0.4,7.6-6.6,13.2-12.9,16.4c-8,4.1-17.5,5.2-26.3,5.2c-8.1,0-16.5-0.7-24.1-3.6
					c-7.8-3-14.6-9.1-16.4-17.5c-1.9-8.9,3.8-15.9,11-20.4c13.7-8.4,33.6-9.4,47.6-1.1c6.8,4,12.1,11.5,11.1,19.7
					c-1.1,8.6-9,13.9-16.7,16.3c-15,4.6-36.4,6.8-45-9.5c-3.7-6.9-3.9-16.5,1.6-22.5c5.9-6.3,15.6-4.5,23.3-4.4
					c8.5,0.2,18.4-1.5,25.3,4.7c6.2,5.6,7.2,15.5,1.2,21.7c-5.5,5.7-16,7.7-23.5,9.2c-8.3,1.6-18.7,1-23.2-7.5
					c-2-3.8-2.6-8.6-2.5-12.8c0.1-5.6,2.8-9,8-10.6c7.9-2.5,18.5-3,26.5-0.9c7.7,2,15.3,8.1,14.6,16.9c-0.8,10.1-12.2,11-20.1,11.4
					c-8,0.4-20-0.3-23.3-9.3c-3.5-9.6,7.4-15.8,15.2-17.1c8.3-1.4,20.8-0.9,24.5,8.3c4,9.9-7.2,15.9-15.4,16.1
					c-7.3,0.1-25.2-4.6-18.2-15.4c4.5-7,15.7-6.1,22.6-3.9c3.4,1.1,8.2,3.5,7,7.8c-1.4,5.2-8.7,6-13.1,6c-4.2,0-11.3-1.7-10.4-7.4
					c0.8-5,7.5-4.2,11.3-3.4c1.3,0.3,3.4,0.7,4.4,1.6c4.6,4.3-0.8,5.4-3.1,5.4c-1.8,0-3.7-0.5-5.4-1.2c-0.4-0.2-0.8-0.4-1.2-0.5
					c-2.7-0.8-1.6-1.5,3.1-2.1c0.9,0,2.5,0.9,3.2,1.2c-0.4-0.5-0.8-1.1-1.2-1.6c-1.1,0.8-2.3,1.5-3.4,2.3
					C717.9,236.4,716.6,238.7,718.1,239.7L718.1,239.7z"/>
			</g>
		</g>
		<g>
			<g>
				<path class="st1" d="M736.6,171.8c-2.1-0.6-3.5-0.6-5.5,0.1c-1.3,0.4-2.1,2.2-0.9,3.2c3.1,2.6,11.8,5.1,12.5-1.4
					c0.7-6.8-11.1-6.1-14.8-4.4c-5,2.3-5.9,8-0.4,10.3c3.2,1.4,7.4,1.4,10.8,1.5c3.2,0.1,7.1,0,9.4-2.5c5.1-5.5-1.7-11.1-6.6-12.6
					c-6.4-1.9-14.6-2.2-19.1,3.6c-5,6.5,0.1,11.5,6.2,14.1c6.6,2.8,15.8,3.8,22-0.6c5.4-3.9,6.3-11.1,1.6-15.9
					c-5-5.1-13.7-6.7-20.5-5.7c-7,1-13.9,5.4-16.5,12.2c-3.1,8.3,2.2,12.7,9.3,15.6c7.6,3.2,16.9,4.8,25.1,2.9
					c6.9-1.6,13.6-7.1,13.8-14.7c0.5-17-25.5-21-37.8-18c-7.9,1.9-16.1,11.1-16.7,19.3c-0.6,8.6,9.7,13,16.4,15.1
					c8.9,2.9,20,3.8,28.6-0.3c9.3-4.5,10.8-13.3,8.4-22.5c-0.9-3.6-6.5-2-5.5,1.5c6.7,23.4-26,19.2-38.1,11.5
					c-3.2-2-4.3-4.1-2.8-7.5c0.7-1.7,1.7-3.3,2.7-4.9c2.8-4.1,6.4-6.6,11.4-7.2c7.4-0.9,18.4,0,24.2,5.1c3.5,3.1,5.4,7.8,2.6,12.1
					c-2.8,4.3-8,5.7-12.8,5.9c-4.2,0.2-8.5-0.5-12.5-1.6c-3.7-1-11.1-2.8-11.9-7.2c-0.7-3.9,3.4-8.1,6.3-10
					c4.3-2.7,9.7-3.1,14.5-2.1c3.3,0.7,8,2.1,9.5,5.5c2.8,6.2-4.8,9-9.7,9.1c-4.2,0.1-13.1-1.2-14.5-5.8c-2.2-7,8.9-7.2,13.1-6
					c0.9,0.3,1.9,0.5,2.7,1c2.5,0.6,2.8,2.6,1.1,6.1c-0.7,0.1-1.4,0.2-2.1,0.2c-2.4,0.2-4.9,0.3-7.3,0.1c-1-0.1-2.7,0-3.6-0.7
					c-1.5-0.2-1.5-0.9,0.1-2.1c0.2-1.4,1-2.1,2.3-2c1-0.4,3-0.6,4,0c1.4-0.2,1.6,0.2,0.7,1.1c-0.5,1.7-1.7,1.5-3.3-0.7
					c-0.3,1.1-0.6,2.2-0.9,3.2c1.2,0,2.3,0,3.5,0C738,176.5,739.1,172.5,736.6,171.8L736.6,171.8z"/>
			</g>
		</g>
		<g>
			<g>
				<path class="st1" d="M479.9,171.8c-2.1-0.6-3.5-0.6-5.5,0.1c-1.3,0.4-2.1,2.2-0.9,3.2c3.1,2.6,11.8,5.1,12.5-1.4
					c0.7-6.8-11.1-6.1-14.8-4.4c-5,2.3-5.9,8-0.4,10.3c3.2,1.4,7.4,1.4,10.8,1.5c3.2,0.1,7.1,0,9.4-2.5c5.1-5.5-1.7-11.1-6.6-12.6
					c-6.4-1.9-14.6-2.2-19.1,3.6c-5,6.5,0.1,11.5,6.2,14.1c6.6,2.8,15.8,3.8,22-0.6c5.4-3.9,6.3-11.1,1.6-15.9
					c-5-5.1-13.7-6.7-20.5-5.7c-7,1-13.9,5.4-16.5,12.2c-3.1,8.3,2.2,12.7,9.3,15.6c7.6,3.2,16.9,4.8,25.1,2.9
					c6.9-1.6,13.6-7.1,13.8-14.7c0.5-17-25.5-21-37.8-18c-7.9,1.9-16.1,11.1-16.7,19.3c-0.6,8.6,9.7,13,16.4,15.1
					c8.9,2.9,20,3.8,28.6-0.3c9.3-4.5,10.8-13.3,8.4-22.5c-0.9-3.6-6.5-2-5.5,1.5c6.7,23.4-26,19.2-38.1,11.5
					c-3.2-2-4.3-4.1-2.8-7.5c0.7-1.7,1.7-3.3,2.7-4.9c2.8-4.1,6.4-6.6,11.4-7.2c7.4-0.9,18.4,0,24.2,5.1c3.5,3.1,5.4,7.8,2.6,12.1
					c-2.8,4.3-8,5.7-12.8,5.9c-4.2,0.2-8.5-0.5-12.5-1.6c-3.7-1-11.1-2.8-11.9-7.2c-0.7-3.9,3.4-8.1,6.3-10
					c4.3-2.7,9.7-3.1,14.5-2.1c3.3,0.7,8,2.1,9.5,5.5c2.8,6.2-4.8,9-9.7,9.1c-4.2,0.1-13.1-1.2-14.5-5.8c-2.2-7,8.9-7.2,13.1-6
					c0.9,0.3,1.9,0.5,2.7,1c2.5,0.6,2.8,2.6,1.1,6.1c-0.7,0.1-1.4,0.2-2.1,0.2c-2.4,0.2-4.9,0.3-7.3,0.1c-1-0.1-2.7,0-3.6-0.7
					c-1.5-0.2-1.5-0.9,0.1-2.1c0.2-1.4,1-2.1,2.3-2c1-0.4,3-0.6,4,0c1.4-0.2,1.6,0.2,0.7,1.1c-0.5,1.7-1.7,1.5-3.3-0.7
					c-0.3,1.1-0.6,2.2-0.9,3.2c1.2,0,2.3,0,3.5,0C481.2,176.5,482.4,172.5,479.9,171.8L479.9,171.8z"/>
			</g>
		</g>
		<g>
			<g>
				<path class="st1" d="M452.8,152.7c77.5-3.7,155.2-2.9,232.8-1.2c24,0.5,48.1,0.6,72,2.6c1,0.1,1.9,0.2,2.9,0.3
					c-1.4-0.1,0.2,0,0.2,0.1c-0.1,0.5-1.1-1.4-1.3-1.2c-0.1,0.1,3.8,5.9,4.1,6.3c7.5,11.8,14.8,23.7,22.4,35.4
					c23.5,36.3,47.3,73.2,76.2,105.6c1.2-2.1,2.5-4.2,3.7-6.3c-19.6-2.7-39.6-3.2-59.3-4.2c-36.3-1.8-72.6-3.1-108.9-4.2
					c-42.9-1.3-85.8-2.1-128.7-2.6c-39.4-0.4-78.8-0.6-118.2,0.3c-25.4,0.6-51.4,0.7-76.6,4.8c-1.7,0.3-3.4,0.6-5.1,1
					c1.3,2.3,2.7,4.6,4,6.9c10.9-14,19.5-30.2,28.4-45.5c13.2-22.6,25.9-45.4,38.7-68.2c5.5-9.9,10.9-19.9,16.4-29.8
					c2.8-5.1-5-9.7-7.9-4.6c-22.6,41-44.9,82.2-68.7,122.5c-3.8,6.5-8.4,14.6-12.6,19.8c-2.5,3.2-0.2,7.7,4,6.9
					c21.3-4.5,45.9-4.2,68.3-4.8c38.1-1,76.3-0.9,114.5-0.5c42.8,0.4,85.6,1.4,128.4,2.5c37.5,0.9,75,2.1,112.5,3.5
					c22.1,0.9,44.3,1.4,66.3,3.4c1.2,0.1,2.4,0.2,3.5,0.4c3.5,0.4,4.7-4.3,2.7-6.5c-13-14-24.4-29.6-35.5-45.1
					c-12-16.7-23.5-33.7-34.8-50.9c-8.5-12.9-16.9-25.9-25.3-38.9c-2.3-3.6-5.2-11.1-9.8-12.2c-6.5-1.6-14-1.1-20.6-1.4
					c-13.6-0.6-27.2-1-40.8-1.3c-39.4-1-78.7-1.4-118.1-1.5c-43.2,0-86.4,0-129.5,2.9C449.1,147.1,449,152.9,452.8,152.7
					L452.8,152.7z"/>
			</g>
		</g>
		<ellipse class="st2" cx="493.3" cy="240.7" rx="60.5" ry="37.5"/>
		<ellipse class="st2" cx="722.6" cy="240.7" rx="60.5" ry="37.5"/>
		<ellipse class="st2" cx="480.7" cy="178.3" rx="31.9" ry="20"/>
		<ellipse class="st2" cx="735.7" cy="177.8" rx="31.9" ry="20"/>
		<g>
			<g>
				<path class="st1" d="M570.1,224.6c0-2.3-3-2.5-4.5-1.6c-1.8,1-2.4,3-2.1,4.9c0-0.4,0.1-0.7,0.1-1.1c-1.1,1.6,0.8,3.5,2.2,4.1
					c1.7,0.7,3.7,0.5,5.1-0.7c1.6-1.2,2.4-3.3,2-5.3c-0.4-2-2.5-3.6-4.5-2.9c-2.4,0.8-1.4,4.3,1,3.8c-0.7-0.4-0.9-0.4-0.7-0.1
					c0,0.1,0.1,0.2,0.1,0.3c-0.1,0.2,0,0.4-0.1,0.7c-0.2,0.4-0.5,0.7-1,0.8c-1.3,0.3-1.5-1.2-2.6-1.5c0.3,0.3,0.6,0.6,1,1
					c-0.3-0.8-0.3-1.5,0.7-1.7c0.7-0.1,1.5,0.3,2.2,0.2C569.7,225.5,570.1,225.2,570.1,224.6L570.1,224.6z"/>
			</g>
		</g>
		<g>
			<g>
				<path class="st1" d="M644.3,221.2c0-2.3-3-2.5-4.5-1.6c-1.8,1-2.4,3-2.1,4.9c0-0.4,0.1-0.7,0.1-1.1c-1.1,1.6,0.8,3.5,2.2,4.1
					c1.7,0.7,3.7,0.5,5.1-0.7c1.6-1.2,2.4-3.3,2-5.3c-0.4-2-2.5-3.6-4.5-2.9c-2.4,0.8-1.4,4.3,1,3.8c-0.7-0.4-0.9-0.4-0.7-0.1
					c0,0.1,0.1,0.2,0.1,0.3c-0.1,0.2,0,0.4-0.1,0.7c-0.2,0.4-0.5,0.7-1,0.8c-1.3,0.3-1.5-1.2-2.6-1.5c0.3,0.3,0.6,0.6,1,1
					c-0.3-0.8-0.3-1.5,0.7-1.7c0.7-0.1,1.5,0.3,2.2,0.2C643.8,222.1,644.3,221.8,644.3,221.2L644.3,221.2z"/>
			</g>
		</g>
		<g>
			<g>
				<path class="st1" d="M568.4,247.7c-1.3-2.8-5.4-0.8-6.7,0.9c-1.6,2.1-1.2,5.5,0.8,7.2c2.2,1.9,5.5,1.8,7.6-0.4
					c1.8-1.9,2.4-5.5,1-7.7c-0.7-1.1-2-1.7-3.3-1.4c-1.1,0.3-2.3,1.6-2.2,2.8c0.1,0.4,0.1,0.9,0.2,1.3c0,0.1,0.2,0.9,0.1,0.3
					c0,0.3,0,0.6,0,0.8c0-0.4,0-0.1-0.1,0.2c-0.1,0.2,0,0.2,0-0.1c-0.1,0.1-0.1,0.2-0.2,0.3c-0.3,0.1,0.1-0.1,0.2-0.2
					c-0.4,0.2-0.2,0.1-0.1,0.1c-0.3,0.1-0.4-0.1-0.2,0c-0.4-0.2-0.5-0.6-0.3-1c0.2-0.2,0.5-0.3,0.7-0.4c0.8-0.2,1.4-0.2,2.1-0.8
					C568.7,249.2,568.7,248.5,568.4,247.7L568.4,247.7z"/>
			</g>
		</g>
		<g>
			<g>
				<path class="st1" d="M647.1,246.6c-1.3-2.8-5.4-0.8-6.7,0.9c-1.6,2.1-1.2,5.5,0.8,7.2c2.2,1.9,5.5,1.8,7.6-0.4
					c1.8-1.9,2.4-5.5,1-7.7c-0.7-1.1-2-1.7-3.3-1.4c-1.1,0.3-2.3,1.6-2.2,2.8c0.1,0.4,0.1,0.9,0.2,1.3c0,0.1,0.2,0.9,0.1,0.3
					c0,0.3,0,0.6,0,0.8c0-0.4,0-0.1-0.1,0.2c-0.1,0.2,0,0.2,0-0.1c-0.1,0.1-0.1,0.2-0.2,0.3c-0.3,0.1,0.1-0.1,0.2-0.2
					c-0.4,0.2-0.2,0.1-0.1,0.1c-0.3,0.1-0.4-0.1-0.2,0c-0.4-0.2-0.5-0.6-0.3-1c0.2-0.2,0.5-0.3,0.7-0.4c0.8-0.2,1.4-0.2,2.1-0.8
					C647.5,248.1,647.5,247.3,647.1,246.6L647.1,246.6z"/>
			</g>
		</g>
		<g>
			<g>
				<path class="st1" d="M566,254c-2.2,3.1-1.9,7.2-1.8,10.9c0,1.6,1.4,3.2,3.1,3.1c6.6-0.3,13.1,0.5,19.7,0.5
					c6.6,0,13.1,0,19.7-0.1c13,0,26.4,0.6,39.4-0.6c2-0.2,4.1-1.7,4-4c-0.1-2.2-0.1-4.4-0.4-6.6c-0.3-2.2-1.4-4.4-1.6-6.6
					c-0.1-0.8-1.1-1-1.4-0.2c-0.6,2.1-2,3.9-2.7,6c-0.7,2-1.1,4.2-1.6,6.3c1.3-1,2.5-1.9,3.8-2.9c-13-0.9-26.4,0.1-39.4,0.4
					c-6.2,0.1-12.5,0.3-18.7,0.4c-6.9,0.2-13.8,1.2-20.7,1c1,1,2.1,2.1,3.1,3.1c-0.3-3.4,0.3-7.2-1-10.4
					C568.8,252.9,566.9,252.6,566,254L566,254z"/>
			</g>
		</g>
		<g>
			<g>
				<path class="st1" d="M570.4,214.6c5.8,0,5.8-8.9,0-8.9C564.7,205.7,564.7,214.6,570.4,214.6L570.4,214.6z"/>
			</g>
		</g>
		<g>
			<g>
				<path class="st1" d="M644.8,211.3c5.3,0,5.3-8.2,0-8.2C639.6,203.1,639.6,211.3,644.8,211.3L644.8,211.3z"/>
			</g>
		</g>
		<g>
			<g>
				<path class="st1" d="M584.6,195.3c-0.6,0.9-0.9,1.8-1.3,2.9c-0.4,1.1-0.7,2-0.9,3.2c-0.2,1.5,1.5,2.4,2.8,2.1
					c0.8-0.2,1.5-0.4,2.2-0.7c0.5-0.2,1.7-1,2.2-0.9c0.6,0.1,1.2-0.3,1.2-0.9c0-1.4-0.3-2.8-0.2-4.2c0-0.3-0.3-0.7-0.6-0.7
					c-1.2-0.2-2.5-0.3-3.6,0.1c-0.4,0.2-0.7,0.8-0.1,1.1c1.2,0.5,2.5,0.5,3.8,0.3c-0.3-0.2-0.6-0.5-1-0.7c0.1,1.3-0.2,2.8-0.2,4.2
					c0.2-0.3,0.3-0.5,0.5-0.8c-0.5,0.3-1.6-0.2-2.1-0.3c-0.7-0.2-1.4-0.4-2-0.7c0.4,1.1,0.9,2.2,1.3,3.3c0.4-1,0.6-2,0.8-3.2
					c0.2-1.1,0.4-2.1,0.3-3.2C587.5,194.5,585.6,194,584.6,195.3L584.6,195.3z"/>
			</g>
		</g>
		<g>
			<g>
				<path class="st1" d="M594.9,195.3c-0.6,0.9-0.9,1.8-1.3,2.9c-0.4,1.1-0.7,2-0.9,3.2c-0.2,1.5,1.5,2.4,2.8,2.1
					c0.8-0.2,1.5-0.4,2.2-0.7c0.5-0.2,1.7-1,2.2-0.9c0.6,0.1,1.2-0.3,1.2-0.9c0-1.4-0.3-2.8-0.2-4.2c0-0.3-0.3-0.7-0.6-0.7
					c-1.2-0.2-2.5-0.3-3.6,0.1c-0.4,0.2-0.7,0.8-0.1,1.1c1.2,0.5,2.5,0.5,3.8,0.3c-0.3-0.2-0.6-0.5-1-0.7c0.1,1.3-0.2,2.8-0.2,4.2
					c0.2-0.3,0.3-0.5,0.5-0.8c-0.5,0.3-1.6-0.2-2.1-0.3c-0.7-0.2-1.4-0.4-2-0.7c0.4,1.1,0.9,2.2,1.3,3.3c0.4-1,0.6-2,0.8-3.2
					c0.2-1.1,0.4-2.1,0.3-3.2C597.7,194.5,595.9,194,594.9,195.3L594.9,195.3z"/>
			</g>
		</g>
		<g>
			<g>
				<path class="st1" d="M604,195.3c-0.6,0.9-0.9,1.8-1.3,2.9c-0.4,1.1-0.7,2-0.9,3.2c-0.2,1.5,1.5,2.4,2.8,2.1
					c0.8-0.2,1.5-0.4,2.2-0.7c0.5-0.2,1.7-1,2.2-0.9c0.6,0.1,1.2-0.3,1.2-0.9c0-1.4-0.3-2.8-0.2-4.2c0-0.3-0.3-0.7-0.6-0.7
					c-1.2-0.2-2.5-0.3-3.6,0.1c-0.4,0.2-0.7,0.8-0.1,1.1c1.2,0.5,2.5,0.5,3.8,0.3c-0.3-0.2-0.6-0.5-1-0.7c0.1,1.3-0.2,2.8-0.2,4.2
					c0.2-0.3,0.3-0.5,0.5-0.8c-0.5,0.3-1.6-0.2-2.1-0.3c-0.7-0.2-1.4-0.4-2-0.7c0.4,1.1,0.9,2.2,1.3,3.3c0.4-1,0.6-2,0.8-3.2
					c0.2-1.1,0.4-2.1,0.3-3.2C606.9,194.5,605,194,604,195.3L604,195.3z"/>
			</g>
		</g>
		<g>
			<g>
				<path class="st1" d="M613.1,195.3c-0.6,0.9-0.9,1.8-1.3,2.9c-0.4,1.1-0.7,2-0.9,3.2c-0.2,1.5,1.5,2.4,2.8,2.1
					c0.8-0.2,1.5-0.4,2.2-0.7c0.5-0.2,1.7-1,2.2-0.9c0.6,0.1,1.2-0.3,1.2-0.9c0-1.4-0.3-2.8-0.2-4.2c0-0.3-0.3-0.7-0.6-0.7
					c-1.2-0.2-2.5-0.3-3.6,0.1c-0.4,0.2-0.7,0.8-0.1,1.1c1.2,0.5,2.5,0.5,3.8,0.3c-0.3-0.2-0.6-0.5-1-0.7c0.1,1.3-0.2,2.8-0.2,4.2
					c0.2-0.3,0.3-0.5,0.5-0.8c-0.5,0.3-1.6-0.2-2.1-0.3c-0.7-0.2-1.4-0.4-2-0.7c0.4,1.1,0.9,2.2,1.3,3.3c0.4-1,0.6-2,0.8-3.2
					c0.2-1.1,0.4-2.1,0.3-3.2C616,194.5,614.1,194,613.1,195.3L613.1,195.3z"/>
			</g>
		</g>
		<g>
			<g>
				<path class="st1" d="M621.1,195.3c-0.6,0.9-0.9,1.8-1.3,2.9c-0.4,1.1-0.7,2-0.9,3.2c-0.2,1.5,1.5,2.4,2.8,2.1
					c0.8-0.2,1.5-0.4,2.2-0.7c0.5-0.2,1.7-1,2.2-0.9c0.6,0.1,1.2-0.3,1.2-0.9c0-1.4-0.3-2.8-0.2-4.2c0-0.3-0.3-0.7-0.6-0.7
					c-1.2-0.2-2.5-0.3-3.6,0.1c-0.4,0.2-0.7,0.8-0.1,1.1c1.2,0.5,2.5,0.5,3.8,0.3c-0.3-0.2-0.6-0.5-1-0.7c0.1,1.3-0.2,2.8-0.2,4.2
					c0.2-0.3,0.3-0.5,0.5-0.8c-0.5,0.3-1.6-0.2-2.1-0.3c-0.7-0.2-1.4-0.4-2-0.7c0.4,1.1,0.9,2.2,1.3,3.3c0.4-1,0.6-2,0.8-3.2
					c0.2-1.1,0.4-2.1,0.3-3.2C624,194.5,622.1,194,621.1,195.3L621.1,195.3z"/>
			</g>
		</g>
		<g>
			<g>
				<path class="st1" d="M629.1,195.3c-0.6,0.9-0.9,1.8-1.3,2.9c-0.4,1.1-0.7,2-0.9,3.2c-0.2,1.5,1.5,2.4,2.8,2.1
					c0.8-0.2,1.5-0.4,2.2-0.7c0.5-0.2,1.7-1,2.2-0.9c0.6,0.1,1.2-0.3,1.2-0.9c0-1.4-0.3-2.8-0.2-4.2c0-0.3-0.3-0.7-0.6-0.7
					c-1.2-0.2-2.5-0.3-3.6,0.1c-0.4,0.2-0.7,0.8-0.1,1.1c1.2,0.5,2.5,0.5,3.8,0.3c-0.3-0.2-0.6-0.5-1-0.7c0.1,1.3-0.2,2.8-0.2,4.2
					c0.2-0.3,0.3-0.5,0.5-0.8c-0.5,0.3-1.6-0.2-2.1-0.3c-0.7-0.2-1.4-0.4-2-0.7c0.4,1.1,0.9,2.2,1.3,3.3c0.4-1,0.6-2,0.8-3.2
					c0.2-1.1,0.4-2.1,0.3-3.2C632,194.5,630.1,194,629.1,195.3L629.1,195.3z"/>
			</g>
		</g>
		<g>
			<g>
				<path class="st1" d="M575.8,180.2c-1.6,2.5-4.1,8-0.7,10c2.1,1.3,5.5,1.3,7.9,1.4c4.3,0.4,8.6,0.4,12.9,0.6
					c16.2,0.6,32.5,1,48.8,0.7c2,0,3.2-1.8,2.8-3.7c-0.6-2.6-2-5.7-2.1-8.4c-0.2-3.4-5.5-2.6-4.5,0.6c0.8,2.7,0.6,6.4,1,9.3
					c0.9-1.2,1.9-2.5,2.8-3.7c-12.9-0.8-25.9-1.1-38.8-1.4c-6.3-0.1-12.6-0.2-18.9-0.2c-1.7,0-3.3,0-5,0.1c-0.5,0-3.6,0.4-3.7,0.4
					c-0.5-0.2,0.2-4,0.1-5.1C578.3,179.6,576.6,178.9,575.8,180.2L575.8,180.2z"/>
			</g>
		</g>
		<g>
			<g>
				<path class="st1" d="M576.6,184.1c10.9,1.5,21.8,1.9,32.8,1.8c10.7-0.1,22.4,0.3,32.8-2.3c3.1-0.8,2.3-5.2-0.7-5.4
					c-10.5-0.8-21.5,0.9-32.1,0.9c-10.7,0-21.4-0.4-32.1-0.4C574.4,178.6,573.5,183.6,576.6,184.1L576.6,184.1z"/>
			</g>
		</g>
		<g>
			<g>
				<path class="st1" d="M584.8,182.7c-0.2,1.2-0.5,2.3-0.7,3.5c-0.2,1.2-0.5,2.5-0.2,3.7c0.4,1.5,3,2.2,3.7,0.5
					c0.9-2.2,0.4-5,0.2-7.3C587.8,181.5,585.2,180.9,584.8,182.7L584.8,182.7z"/>
			</g>
		</g>
		<g>
			<g>
				<path class="st1" d="M592.3,183.7c-0.3,1-0.7,2-0.9,3.1c-0.3,1.5,0.5,2.9,2.1,3.1c1.4,0.2,3-0.9,2.8-2.5
					c-0.1-1.4-0.5-2.9-1.2-4.1C594.4,182.1,592.7,182.5,592.3,183.7L592.3,183.7z"/>
			</g>
		</g>
		<g>
			<g>
				<path class="st1" d="M600.9,182.6c-0.7,1.3-1.2,3-1.1,4.5c0.1,1.4,1.1,2.6,2.6,2.6c1.5,0,2.4-1.2,2.6-2.6
					c0.1-1.5-0.4-3.2-1.1-4.5C603.3,181.5,601.5,181.5,600.9,182.6L600.9,182.6z"/>
			</g>
		</g>
		<g>
			<g>
				<path class="st1" d="M609,182.9c-0.7,1.6-1.4,3.2-2.2,4.7c-0.8,1.4-0.1,3.3,1.5,3.7c1.5,0.4,3.3-0.8,3.2-2.5
					c-0.1-2.1-0.4-4-1.2-6C610.1,182.3,609.2,182.3,609,182.9L609,182.9z"/>
			</g>
		</g>
		<g>
			<g>
				<path class="st1" d="M616.4,182.2c-0.9,1.7-1.6,4.1-1.5,6.1c0.1,1.5,1.2,2.7,2.7,2.7c1.5,0,2.8-1.3,2.7-2.7c0-2-1-4.4-2.1-6.1
					C617.9,181.6,616.8,181.4,616.4,182.2L616.4,182.2z"/>
			</g>
		</g>
		<g>
			<g>
				<path class="st1" d="M624.8,182.4c0.4,2.9-2.5,6.4,0.3,8.9c1.7,1.5,4.6,0.1,3.9-2.3c-0.2-0.7-0.6-1.3-0.8-2.1
					c-0.2-0.8-0.4-1.5-0.6-2.3c-0.4-1.3-1-2.3-2.4-2.7C625,181.9,624.8,182.1,624.8,182.4L624.8,182.4z"/>
			</g>
		</g>
		<g>
			<g>
				<path class="st1" d="M632.3,183.1c-0.3,2-0.2,4-0.5,6c-0.2,1.8,0.5,3.6,2.5,3.8c1.8,0.2,3.5-1.1,3.5-3c0-2.6-0.8-5.6-2.4-7.6
					C634.6,181.2,632.5,181.7,632.3,183.1L632.3,183.1z"/>
			</g>
		</g>
		<g>
			<g>
				<path class="st1" d="M566.8,166.5c14.8,0.1,29.6-0.5,44.4-0.5c7.2,0,14.5,0.1,21.7,0.4c7,0.2,14.5,1.3,21.4,0
					c2.7-0.5,2.3-4.3,0-5c-6.3-2-13.8-1.7-20.4-1.9c-7.6-0.3-15.1-0.4-22.7-0.4c-14.9,0-29.7,0.3-44.4,2.2
					C563.6,161.7,563.4,166.5,566.8,166.5L566.8,166.5z"/>
			</g>
		</g>
		<g>
			<g>
				<path class="st1" d="M588.5,156.7c-0.1,0.4-0.2,0.8-0.2,1.2c-0.1,0.4-0.2,0.8,0.1,1.1c0.3,0.4,0.7,0.4,1,0
					c0.3-0.4,0.2-0.7,0.1-1.1c-0.1-0.4-0.2-0.8-0.2-1.2C589.2,156.3,588.6,156.3,588.5,156.7L588.5,156.7z"/>
			</g>
		</g>
		<g>
			<g>
				<path class="st1" d="M594,155.9c-0.6,0.8-1,1.6-0.6,2.6c0.2,0.4,0.4,0.8,0.9,0.9c0,0,0.1,0,0.1,0c0.5,0.1,1-0.1,1.3-0.5
					c0.6-1-0.3-1.7-0.4-2.6C595.1,155.7,594.3,155.5,594,155.9L594,155.9z"/>
			</g>
		</g>
		<g>
			<g>
				<path class="st1" d="M600.8,156.8c0,0.2,0,0.4,0,0.7c0,0.3,0.4,0.3,0.4,0c0-0.2,0-0.4,0-0.7
					C601.3,156.5,600.8,156.5,600.8,156.8L600.8,156.8z"/>
			</g>
		</g>
		<g>
			<g>
				<path class="st1" d="M588.1,172.1c0.9-0.4,1.1-1.2,1.3-2.1c0.1-0.4,0.2-0.8,0.2-1.1c0-0.7-0.3-1.2-0.7-1.7
					c-0.5-0.6-1.6-0.7-2.2-0.3c-0.5,0.3-0.8,0.7-1,1.2c-0.2,0.4-0.2,0.9-0.3,1.4c-0.1,0.9-0.1,1.7,0.7,2.4
					C586.6,172.4,587.3,172.4,588.1,172.1L588.1,172.1z"/>
			</g>
		</g>
		<g>
			<g>
				<path class="st1" d="M594.1,171.1c0.4-1.4,1.8-3.6,0.7-5c-0.4-0.5-0.9-0.7-1.5-0.4c-1,0.5-1.3,1.8-1.2,2.8
					c0,0.9,0.5,1.9,0.9,2.8C593.2,171.8,593.9,171.6,594.1,171.1L594.1,171.1z"/>
			</g>
		</g>
		<g>
			<g>
				<path class="st1" d="M599.3,172.3c0.3-0.6,0.8-1.1,1-1.8c0.3-0.7,0.6-1.5,0.5-2.3c-0.1-1-1.3-2.1-2.4-1.4c-1,0.7-1.5,1.8-1.4,3
					c0,1,0.6,1.8,1.2,2.5C598.6,172.7,599.2,172.7,599.3,172.3L599.3,172.3z"/>
			</g>
		</g>
		<g>
			<g>
				<path class="st1" d="M604.8,172.2c0.3-0.5,0.5-1,0.8-1.4c0.3-0.5,0.3-1,0.4-1.6c0.1-0.7-0.9-1.3-1.3-0.5c-0.2,0.5-0.5,1-0.6,1.5
					c-0.1,0.6-0.2,1.1-0.2,1.7C603.7,172.3,604.5,172.8,604.8,172.2L604.8,172.2z"/>
			</g>
		</g>
		<g>
			<g>
				<path class="st1" d="M600.7,156.4c-0.9,1.1-1.4,2.5-0.5,3.7c0.5,0.7,1.3,1,2.1,0.7c0.8-0.3,1.1-1.1,1-2c0,0.3,0,0.2,0-0.3
					c-0.1-0.1-0.1-0.3-0.2-0.4c-0.1-0.2-0.2-0.3-0.3-0.5c-0.1-0.2-0.3-0.5-0.4-0.7C602.1,156.2,601.2,155.8,600.7,156.4L600.7,156.4
					z"/>
			</g>
		</g>
		<g>
			<g>
				<path class="st1" d="M633.3,169.8c-0.2-1,0.3-3.5-1.4-3.5c-0.8,0-1.4,0.7-1.7,1.4c-0.4,0.8-0.3,1.7-0.2,2.5
					c0.1,1,0.8,1.8,1.9,1.6C633,171.8,633.5,170.8,633.3,169.8L633.3,169.8z"/>
			</g>
		</g>
		<g>
			<g>
				<path class="st1" d="M641.9,169.8c0.9-1.1,1-2.8,0.6-4.1c-0.6-1.9-3.2-1.9-3.8,0c-0.4,1.4-0.4,3,0.6,4.1
					C639.8,170.6,641.3,170.6,641.9,169.8L641.9,169.8z"/>
			</g>
		</g>
		<g>
			<g>
				<path class="st1" d="M637.9,170.6c0.1-0.3,0.2-0.7,0.1-1c0-0.3-0.2-0.6-0.3-0.9c-0.3-0.6-1.3-0.6-1.6,0
					c-0.1,0.3-0.3,0.6-0.3,0.9c0,0.3,0.1,0.7,0.1,1C636.1,171.6,637.7,171.6,637.9,170.6L637.9,170.6z"/>
			</g>
		</g>
		<g>
			<g>
				<path class="st1" d="M648.8,171.4c-0.2,0.3-0.2,0.2,0.1-0.2c0.1-0.1,0.1-0.3,0.2-0.4c0.1-0.3,0.1-0.6,0.1-0.9c0-0.1,0-0.2,0-0.2
					c0,0.2,0,0.2,0,0.1c0.2-0.2,0.1-0.6,0.1-0.9c0-1.4-1.8-2.3-2.9-1.2c-0.6,0.6-0.8,1.3-0.8,2.1c0,0.8,0.3,1.7,1.1,2.1
					C647.6,172.3,648.3,172.1,648.8,171.4L648.8,171.4z"/>
			</g>
		</g>
		<g>
			<g>
				<path class="st1" d="M656,172.1c0.2-0.2,0.5-0.3,0.7-0.5c0.3-0.3,0.5-0.7,0.6-1.2c0.3-0.7,0.2-1.2,0.2-1.9
					c-0.1-0.9-0.6-1.7-1.6-1.8c-1-0.1-1.7,0.4-2,1.3c-0.2,0.6-0.4,1.2-0.3,1.9c0.1,0.5,0.1,0.9,0.3,1.3c0.1,0.2,0.3,0.4,0.5,0.7
					C654.7,172.3,655.6,172.4,656,172.1L656,172.1z"/>
			</g>
		</g>
		<g>
			<g>
				<path class="st1" d="M637.8,157.3c0.1,0.9,0.3,1.9,0.4,2.8c0.1,0.3,0.4,0.6,0.7,0.7c0.4,0.1,0.7,0,1-0.3c0.2-0.2,0.4-0.7,0.3-1
					c-0.3-0.9-0.6-1.8-0.9-2.6C639,156,637.7,156.4,637.8,157.3L637.8,157.3z"/>
			</g>
		</g>
		<g>
			<g>
				<path class="st1" d="M647.5,156.8c0.1,1.2,0.1,2.7,1,3.6c0.6,0.6,1.5,0.1,1.6-0.6c0.1-1.2-0.8-2.3-1.4-3.3
					C648.4,156,647.5,156.1,647.5,156.8L647.5,156.8z"/>
			</g>
		</g>
		<g>
			<g>
				<path class="st1" d="M645.1,156.6c-0.7,1-1.1,2.2-0.3,3.2c0.6,0.8,2.1,0.6,2.1-0.6c0-0.6-0.1-1-0.4-1.5
					c-0.2-0.4-0.4-0.7-0.5-1.1C645.8,156.3,645.3,156.2,645.1,156.6L645.1,156.6z"/>
			</g>
		</g>
		<g>
			<g>
				<path class="st1" d="M632.8,156.2c-0.5,0.8-0.5,1.5-0.4,2.5c0,0.4,0.1,0.8,0.1,1.2c0.1,0.6,0.3,1.1,0.7,1.6
					c0.9,1.1,2.5,0.3,3-0.8c0.3-0.9,0-1.8-0.2-2.6c-0.2-0.9-0.4-1.5-1.1-2.1C634.2,155.4,633.3,155.4,632.8,156.2L632.8,156.2z"/>
			</g>
		</g>
		<g>
			<g>
				<path class="st1" d="M652.8,157.8c0,0.5-0.1,1-0.1,1.5c-0.1,0.7,0.1,1.2,0.4,1.8c0.5,1,2.1,0.8,2.4-0.3c0.1-0.7,0.1-1.2-0.1-1.8
					c-0.2-0.5-0.3-1-0.5-1.4C654.3,156.4,652.9,156.6,652.8,157.8L652.8,157.8z"/>
			</g>
		</g>
		<g>
			<g>
				<path class="st1" d="M583.3,154.7c-0.8,1.8-1.5,3.6-1.8,5.6c-0.2,1.1,1.1,2.1,2.1,2.1c1.2,0,2.1-1,2.1-2.1c0-1.9-0.5-3.6-1-5.4
					C584.6,154.3,583.6,154,583.3,154.7L583.3,154.7z"/>
			</g>
		</g>
		<g>
			<g>
				<path class="st1" d="M578.1,155.7c-0.4,0.3-0.3,0.8-0.4,1.3c0,0.2-0.1,0.5-0.1,0.7c0,0.3,0.1,0.5,0.1,0.8
					c0.1,0.8,1.2,1.3,1.6,0.4c0.2-0.4,0.4-0.8,0.4-1.2c0-0.4-0.1-0.8-0.2-1.1c-0.1-0.3-0.2-0.7-0.6-0.9
					C578.7,155.5,578.4,155.5,578.1,155.7L578.1,155.7z"/>
			</g>
		</g>
		<g>
			<g>
				<path class="st1" d="M581.9,171.4c0.2-0.4,0.3-0.8,0.3-1.2c0-0.5-0.2-0.9-0.3-1.3c-0.1-0.7,0-1.4-0.3-2.1
					c-0.2-0.5-0.7-0.8-1.2-0.5c-0.8,0.5-1.1,1.4-1.3,2.3c-0.2,1.1-0.3,2.3,0.6,3.1C580.4,172.2,581.6,172.3,581.9,171.4L581.9,171.4
					z"/>
			</g>
		</g>
		<g>
			<g>
				<path class="st1" d="M577.5,171.1c0.4-0.5,0.6-0.9,0.6-1.5c0-0.3-0.1-0.6-0.1-0.9c-0.1-0.8-0.6-1.9-1.6-1.9c-1,0-1.5,1-1.6,1.8
					c0,0.3-0.1,0.7-0.1,1c0,0.6,0.2,1,0.6,1.5C575.7,171.7,577,171.7,577.5,171.1L577.5,171.1z"/>
			</g>
		</g>
		<g>
			<g>
				<path class="st1" d="M539.8,117.2c12,1.8,24.2,1.6,36.3,1.8c12.9,0.2,25.9,0.3,38.8,0.3c25.5,0.1,51.1,0.3,76.6,0.2
					c4.2,0,4.3-6.6,0-6.6c-25.2,0-50.4,0.4-75.6,0.4c-12.3,0-24.5,0-36.8-0.1c-12.9-0.1-26-0.7-38.8,0.7
					C538.6,114.1,537.8,116.9,539.8,117.2L539.8,117.2z"/>
			</g>
		</g>
		<g>
			<g>
				<path class="st1" d="M541.1,114.7c4.7-2.4,8.4-6,11.8-10c2.8-3.3-2.4-7.2-4.7-3.6c-2.5,4.1-5.7,7.8-8.8,11.5
					C538.4,113.7,539.7,115.5,541.1,114.7L541.1,114.7z"/>
			</g>
		</g>
		<g>
			<g>
				<path class="st1" d="M692.6,113.3c-0.8-2.1-1.6-4-2.7-5.9c-0.5-1-1.1-2-1.7-2.9c-0.5-0.9-1.5-1.9-1.7-3
					c-0.3-2.3-3.4-2.8-4.9-1.6c-1.6,1.2-1.7,4.2,0.3,5.2c1.4,0.7,2.6,3.3,3.5,4.6c1.2,1.8,2.3,3.6,3.5,5.3
					C690.1,116.6,693.4,115.6,692.6,113.3L692.6,113.3z"/>
			</g>
		</g>
		<g>
			<g>
				<path class="st1" d="M539.9,113.5c-2.9,2.1-4.6,5.2-6.9,7.9c-2.6,3-5.3,5.9-8.1,8.7c-2.8,2.8-5.7,5.6-8.7,8.2
					c-2.8,2.4-4.8,3.5-5.3,7.3c-0.2,1.7,1.6,2.9,3,3c3.6,0.4,5.7-2.2,8.2-4.4c3.2-2.9,6.1-5.9,8.8-9.2c4.2-5.1,10.6-12.6,11.6-19.3
					C542.7,114.2,541.3,112.5,539.9,113.5L539.9,113.5z"/>
			</g>
		</g>
		<g>
			<g>
				<path class="st1" d="M688.9,117.8c-0.6,6.3,6.8,13.3,10.4,18c3.9,5.2,8.2,11.7,14.3,14.6c5.1,2.5,9.5-4.7,4.5-7.7
					c-5.8-3.4-10-10-14.5-14.9c-3.5-3.9-8-10.5-13.6-11.1C689.3,116.6,688.9,117.3,688.9,117.8L688.9,117.8z"/>
			</g>
		</g>
		<g>
			<g>
				<path class="st1" d="M366.4,294.5c-2.2,5.2-0.2,12.8,0.2,18.3c0.5,6.2,0.9,12.5,1.4,18.7c1,12.8,2.1,25.6,3.4,38.4
					c0.6,5.6,9.3,5.6,8.8,0c-1.2-13.2-2.7-26.3-4.2-39.4c-0.7-6.2-1.5-12.5-2.3-18.7c-0.7-5.4-0.2-13.2-3.3-17.8
					C369.2,292.4,367.1,292.8,366.4,294.5L366.4,294.5z"/>
			</g>
		</g>
		<g>
			<g>
				<path class="st1" d="M862.1,298.4c-1.5,6.1-2.1,12.5-3.3,18.7c-1.2,6-2.2,12-2.7,18.1c-1,11.5,0.6,24.7-5,35.2
					c-3.1,5.8,6.2,9.8,8.3,3.5c4.1-11.9,3.9-23.7,4.6-36.1c0.8-12.8,5.4-26.6,3-39.4C866.7,295.8,862.7,296,862.1,298.4L862.1,298.4
					z"/>
			</g>
		</g>
		<g>
			<g>
				<path class="st1" d="M375.9,374.4c31.2,3,63.1,1.1,94.4,0c31.5-1.1,62.9-2.8,94.4-4c62-2.4,124-2.5,186,0.9
					c34.9,1.9,69.7,4.8,104.4,8.7c7,0.8,6.9-10.2,0-10.9c-62.2-6.6-124.8-10.2-187.4-10.6c-62.3-0.4-124.4,3.3-186.5,6.1
					c-35.1,1.6-70.3,1.1-105.4,3.3C371.6,368,371.7,374,375.9,374.4L375.9,374.4z"/>
			</g>
		</g>
		<g>
			<g>
				<path class="st1" d="M381,290.4c1,13.6,4.3,27.1,6.9,40.4c1.4,6.8,2.7,13.5,4.1,20.3c1.2,5.6,1.3,13.4,5,17.9
					c0.9,1.1,2.7,0.4,3.1-0.8c1.5-5.4-1.5-12.3-2.6-17.6c-1.4-6.7-2.9-13.5-4.3-20.3c-2.8-13.4-4.9-27.3-9.1-40.4
					C383.7,288.3,380.9,288.5,381,290.4L381,290.4z"/>
			</g>
		</g>
		<g>
			<g>
				<path class="st1" d="M389.4,289.2c0.2,6.6,3.3,13.3,5.2,19.5c2.1,7,4.3,13.9,6.4,20.9c4.1,14,7.6,28.2,10.9,42.4
					c1,4.1,7.3,2.4,6.4-1.8c-3.4-14.5-7.5-28.9-11.9-43.1c-2.2-7-4.4-13.9-7-20.8c-2.2-5.9-4.1-13-8.1-18
					C390.7,287.6,389.4,288.3,389.4,289.2L389.4,289.2z"/>
			</g>
		</g>
		<g>
			<g>
				<path class="st1" d="M405,289.8c-0.2,6.6,2.1,13.3,3.5,19.7c1.5,6.7,3.1,13.5,4.7,20.2c1.6,6.7,3.1,13.5,4.7,20.2
					c1.5,6,2.2,14.4,5.7,19.5c1.4,1.9,4,1.1,4.3-1.2c0.4-3.3-0.8-6.2-1.6-9.4c-0.9-3.5-1.7-7-2.7-10.5c-1.7-6.7-3.6-13.3-5.4-20
					c-1.8-6.7-3.6-13.3-5.5-20c-1.8-6.3-3-13.3-6.2-19C406.2,288.6,405,289,405,289.8L405,289.8z"/>
			</g>
		</g>
		<g>
			<g>
				<path class="st1" d="M419.9,288.6c0.8,13.9,3.7,27.6,6.6,41.1c3,13.9,5.7,28.6,10.8,41.9c1.4,3.7,7,2.3,6-1.7
					c-3.2-13.7-8.2-27-11.8-40.6c-3.6-13.6-6.4-27.5-10.6-40.9C420.8,287.9,419.9,288,419.9,288.6L419.9,288.6z"/>
			</g>
		</g>
		<g>
			<g>
				<path class="st1" d="M433.9,289.7c-1.4,13.8,1.6,28.3,4.1,41.7c1.3,6.9,2.6,13.9,4.2,20.8c0.8,3.4,1.6,6.9,2.4,10.3
					c0.7,3,0.8,5.1,3.8,6.6c1.2,0.6,2.3,0.2,3.1-0.8c3.2-4.2-0.7-12.4-1.8-17.1c-1.5-6.9-3.1-13.8-4.5-20.7
					c-2.9-13.6-4.8-28-10.2-40.9C434.6,289.1,433.9,289.1,433.9,289.7L433.9,289.7z"/>
			</g>
		</g>
		<g>
			<g>
				<path class="st1" d="M376,292c-0.2,13.6,3.4,27.3,5.3,40.7c1.1,7.4,2,14.7,2.8,22.1c0.6,5.5-0.3,14,3,18.6c1,1.4,3.6,2,4.5,0
					c2.6-5.5,0-13.7-0.8-19.6c-0.9-7-2-14-3.1-21c-2.3-13.8-4.2-28.6-10.2-41.4C377.1,290.9,376,291.3,376,292L376,292z"/>
			</g>
		</g>
		<g>
			<g>
				<path class="st1" d="M447.2,291.6c2.1,13.3,5,26.1,8.6,39c1.8,6.2,3.5,12.5,5.5,18.7c1.8,5.7,3,13.1,6.7,17.9
					c1.2,1.6,3.9,1.2,4-1.1c0.1-5.8-3-11.9-4.7-17.5c-2-6.5-4.1-13-6.1-19.5c-4-12.8-8.1-25.3-12.7-37.9
					C448.2,290.4,447.1,290.7,447.2,291.6L447.2,291.6z"/>
			</g>
		</g>
		<g>
			<g>
				<path class="st1" d="M483.4,367c2.5-4.3-1.2-11.7-2.3-16.2c-1.8-6.8-3.8-13.5-5.8-20.2c-1.8-6.3-3.8-12.6-5.5-18.9
					c-1.8-6.6-4.2-14.6-4.2-21.4c0-1.4-2.2-1.4-2.2,0c0.2,3.7-0.4,7.3-0.1,11.1c0.3,2.7,0.6,5.3,1.1,7.9c1.2,7.1,3,14,5.1,20.9
					c2.1,7,4,14.1,6.3,21c1.1,3.5,2.2,7,3.5,10.4c1,2.6,1.2,4.2,3.6,5.4C483.2,367.2,483.4,367.1,483.4,367L483.4,367z"/>
			</g>
		</g>
		<g>
			<g>
				<path class="st1" d="M494,367.2c-1-6.7-3.1-13.6-4.9-20.2c-1.7-6.4-3.2-12.8-4.6-19.2c-3-13.2-5-26.5-7.5-39.7
					c-0.5-2.4-4.3-1.8-4.3,0.6c0.4,13.7,2.9,27.4,5.8,40.8c2.8,12.9,6,27.4,12.5,39C492,370.2,494.2,368.9,494,367.2L494,367.2z"/>
			</g>
		</g>
		<g>
			<g>
				<path class="st1" d="M485.6,287.4c0.6,13.8,3.2,27.6,5.7,41.2c1.3,7.1,2.6,14.1,4.2,21.2c1.1,4.8,1,13.1,5.5,15.9
					c0.8,0.5,1.8,0.1,2.2-0.6c2.7-4.5-0.9-12.1-2-16.9c-1.5-6.7-3.1-13.4-4.6-20c-3-13.7-5.5-27.5-9.6-40.9
					C486.8,286.5,485.5,286.6,485.6,287.4L485.6,287.4z"/>
			</g>
		</g>
		<g>
			<g>
				<path class="st1" d="M500,290.2c-3.2,2.9,0.2,11.1,0.9,14.7c1.4,7,2.9,14,4.3,21c2.8,14,4.8,28.4,8.3,42.3c1,4.1,8.1,3.4,7.6-1
					c-1.5-15.4-5.5-31-9.3-45.9c-1.9-7.5-4-15.1-6.5-22.4C505,297.9,502.3,288.1,500,290.2L500,290.2z"/>
			</g>
		</g>
		<g>
			<g>
				<path class="st1" d="M532.6,365.5c2.7-12.9-1.1-25.5-3.9-38.1c-3.1-13.8-4.8-27.7-6.7-41.7c-0.3-2.6-4.4-1.9-4.4,0.6
					c-0.1,13.1,1.8,26.2,4.6,39c2.9,13.4,7.6,26.3,8.8,40C531.1,366.1,532.4,366.5,532.6,365.5L532.6,365.5z"/>
			</g>
		</g>
		<g>
			<g>
				<path class="st1" d="M531.9,288.1c-1.1,13.5,2.1,28,3.8,41.4c0.8,6.6,1.6,13.1,2.5,19.7c0.6,4.7-0.4,12.5,4.2,15.3
					c0.6,0.4,1.6,0.3,2.1-0.3c3.5-3.8,0.6-10.2-0.1-14.8c-1.1-6.9-2.2-13.7-3.4-20.6c-2.2-13.4-3.2-28.1-8.1-40.8
					C532.6,287.5,532,287.6,531.9,288.1L531.9,288.1z"/>
			</g>
		</g>
		<g>
			<g>
				<path class="st1" d="M553,364.6c0.4-12.6-0.7-25.4-1.8-38c-1-12.7-2-25.4-3.5-38c-0.4-3.3-5.6-3.5-5.3,0c0.8,13,2.2,26,3.7,39
					c1.4,12.4,2.9,25,6,37.1C552.2,365.2,553,365.1,553,364.6L553,364.6z"/>
			</g>
		</g>
		<g>
			<g>
				<path class="st1" d="M567.6,364.2c-0.5-12.4-3.1-24.4-5.7-36.5c-1.3-5.9-2.4-11.8-3.3-17.8c-0.5-3.6-0.9-7.3-1-10.9
					c-0.1-2.9,0.2-5.7-0.8-8.5c-0.4-1.1-2-1.5-2.7-0.3c-2.6,4.8-1.5,11.6-1.1,16.9c0.5,5.9,1.5,11.8,2.7,17.7
					c2.7,13.1,6.4,26.2,7.8,39.5C563.8,366.7,567.7,366.8,567.6,364.2L567.6,364.2z"/>
			</g>
		</g>
		<g>
			<g>
				<path class="st1" d="M568.4,289.6c-1.9,5.2,0.3,12,1.2,17.3c1.1,6.8,2.1,13.5,3,20.3c0.9,6.8,1.9,13.6,2.8,20.4
					c0.6,4.7-0.4,12.7,4.2,15.3c0.8,0.5,1.8,0.3,2.5-0.3c3.9-3.6,1-11.3,0.3-16c-1-6.8-2-13.5-3.1-20.2c-1.2-6.7-2.5-13.4-3.9-20.1
					c-1.1-5.3-1.7-13-5.6-17C569.2,288.8,568.6,289.1,568.4,289.6L568.4,289.6z"/>
			</g>
		</g>
		<g>
			<g>
				<path class="st1" d="M590.8,362.6c2.5-12.1,0.7-24.8-0.8-36.9c-0.8-6.3-1.7-12.5-2.3-18.8c-0.5-5.3,0.2-12-2-16.8
					c-0.5-1.1-2.2-1-2.7,0c-2.3,4.5-1.2,11-0.8,15.9c0.5,5.9,1.3,11.8,2.1,17.7c1.9,12.9,3.5,25.8,5,38.8
					C589.3,363.2,590.6,363.6,590.8,362.6L590.8,362.6z"/>
			</g>
		</g>
		<g>
			<g>
				<path class="st1" d="M595.4,290.3c-0.7,13.2,0.9,26.9,1.5,40.1c0.3,6.5,0.4,13.1,0.4,19.6c0,4.6-0.9,9.6,2.4,13.2
					c2.6,2.9,7.9-1,5.5-4.3c-1.2-1.6-0.6-5-0.6-7c-0.1-2.9-0.2-5.9-0.3-8.8c-0.3-6.2-0.6-12.5-1.2-18.7c-1.2-11.3-2.4-23.6-6.2-34.4
					C596.6,289.4,595.5,289.5,595.4,290.3L595.4,290.3z"/>
			</g>
		</g>
		<g>
			<g>
				<path class="st1" d="M616.8,361c2-12.3,0.7-24.8-0.3-37.1c-0.5-6.5-1-12.9-1.7-19.4c-0.5-4.9,0.3-12-3.3-15.8
					c-0.8-0.9-2.2-0.6-2.8,0.4c-2.6,4.4-0.4,11.5,0.2,16.4c0.7,6.1,1.6,12.3,2.3,18.4c1.6,12.3,3,24.4,2.9,36.8
					C614.2,362.1,616.5,362.5,616.8,361L616.8,361z"/>
			</g>
		</g>
		<g>
			<g>
				<path class="st1" d="M624.5,291.2c-1.2,5.1-0.7,10.6-0.7,15.7c0.1,6.1,0.4,12.2,0.7,18.3c0.6,11.6,1.6,23.1,3.4,34.5
					c0.6,3.7,6.9,2.9,6.6-0.9c-0.9-11.6-2.3-23.1-3.6-34.6c-0.6-5.5-1.1-10.9-1.7-16.4c-0.6-5.5-0.6-11.5-2.5-16.7
					C626.4,290.2,624.8,290,624.5,291.2L624.5,291.2z"/>
			</g>
		</g>
		<g>
			<g>
				<path class="st1" d="M642,361.4c2.8-4.2,3.1-9.2,3.4-14.1c0.4-6.3,0.4-12.7,0.5-19c0.1-6.2,0.2-12.4,0.2-18.6
					c0-3.3-0.1-6.5-0.1-9.8c0-1.6-0.1-3.3-0.1-4.9c0-1,0.8-4.7-0.4-3.2c-0.9,0.2-1.9,0.5-2.8,0.7c2.9,0.7-2.1-0.8,0.8,0.1
					c1.4,0.4,2.8-0.5,3.2-1.8c0-0.1,0.1-0.2,0.1-0.3c0.6-1.9-1-3.7-2.9-3.7c-4.7,0-3.9,6-4,9.1c-0.2,7.5-0.4,15-0.3,22.5
					c0,14.1-0.2,28.2-0.2,42.2C639.4,362.1,641.3,362.5,642,361.4L642,361.4z"/>
			</g>
		</g>
		<g>
			<g>
				<path class="st1" d="M658.1,361.7c3-11.5,0.9-22.8,0.4-34.4c-0.6-12.8,1.4-25.3,3.3-37.8c0.6-4.1-5.5-6-6.4-1.8
					c-2.5,11.7-4.3,23.9-3.7,35.8c0.6,12.3,4.1,24.7,2.1,37C653.3,363.3,657.4,364.6,658.1,361.7L658.1,361.7z"/>
			</g>
		</g>
		<g>
			<g>
				<path class="st1" d="M670.5,363.3c3.5-3.4,4.6-9.4,5.2-14c0.9-6.4,0.8-12.9,0.5-19.4c-0.3-6.5-0.8-13-0.8-19.5
					c0-6.3,1.3-12.9,0.8-19.2c-0.2-2.6-3.7-3.9-5.1-1.4c-6,10.1-3.2,25.4-2.3,36.5c0.5,6.5,1.1,13,1.2,19.4c0,5.5-1.3,11.9-0.2,17.3
					C669.8,363.5,670.2,363.6,670.5,363.3L670.5,363.3z"/>
			</g>
		</g>
		<g>
			<g>
				<path class="st1" d="M686.5,291.8c-1.2,5.1-0.4,10.7-0.3,16c0.2,6.2,0.4,12.3,0.6,18.5c0.3,12-0.2,24.1-0.1,36.1
					c0,4.4,6.7,4.4,6.8,0c0.1-12-0.6-24.1-1.1-36.1c-0.2-5.9-0.5-11.7-0.9-17.6c-0.4-5.5-0.2-11.8-2.2-16.9
					C688.7,290.6,686.8,290.3,686.5,291.8L686.5,291.8z"/>
			</g>
		</g>
		<g>
			<g>
				<path class="st1" d="M702.3,362.3c2.3-4.6,1.2-11.1,1.1-16.1c-0.1-6.2-0.3-12.3-0.5-18.5c-0.4-12.7-1.2-25.3-2.1-37.9
					c-0.2-2.6-4.2-2.7-4.2,0c0.2,12.7,0.5,25.3,1,37.9c0.2,6.2,0.4,12.3,0.7,18.5c0.3,5-0.5,11.7,2.1,16.1
					C700.8,363,701.9,363.1,702.3,362.3L702.3,362.3z"/>
			</g>
		</g>
		<g>
			<g>
				<path class="st1" d="M711.4,291.8c-2.2,11.9-1,24.7-1.3,36.7c-0.2,6.2-0.5,12.5-0.5,18.7c0,5.2-1.4,12.5,1.4,17
					c1,1.6,3.4,1.7,4.5,0c2.8-4.6,1.2-11.8,1.1-17c-0.1-6.2-0.6-12.5-0.9-18.7c-0.6-12,0.4-24.9-2.1-36.7
					C713.5,290.6,711.7,290.6,711.4,291.8L711.4,291.8z"/>
			</g>
		</g>
		<g>
			<g>
				<path class="st1" d="M725.3,292.7c-1.4,12.1-0.4,24.6-0.2,36.8c0.1,6,0.1,11.9,0.4,17.9c0.2,4.9-0.4,10.6,0.8,15.4
					c0.5,2,3.1,3.1,4.9,2c3-1.8,1.4-7.6,1.3-10.4c-0.3-7-0.7-13.9-1.1-20.9c-0.9-13.6-0.9-27.7-3.5-41.1
					C727.5,290.9,725.5,291.4,725.3,292.7L725.3,292.7z"/>
			</g>
		</g>
		<g>
			<g>
				<path class="st1" d="M737.5,292.9c-1.4,5.6-1,11.5-0.8,17.2c0.2,6.3,0.5,12.6,0.7,18.8c0.3,5.9,0.6,11.9,0.9,17.8
					c0.3,5-0.7,12.2,3.2,15.8c1.4,1.3,3.2,0.9,4.3-0.6c3-4,0.9-10.5,0.4-15.2c-0.7-6.3-1.3-12.5-1.9-18.8
					c-0.6-5.9-1.1-11.9-1.6-17.8c-0.5-5.7-0.7-11.8-2.7-17.2C739.7,291.7,737.9,291.5,737.5,292.9L737.5,292.9z"/>
			</g>
		</g>
		<g>
			<g>
				<path class="st1" d="M751.5,293.6c-1.8,5.8-1.4,12-1.2,18c0.2,6.9,0.5,13.8,0.9,20.6c0.4,6.5,0.9,13.1,1.5,19.6
					c0.4,3.7-0.5,10.9,3.5,12.9c3.2,1.6,6-1.6,4.7-4.7c-1-2.4-0.8-5.7-1.1-8.2c-0.3-2.6-0.6-5.2-0.9-7.8c-0.6-5.9-1.2-11.8-1.7-17.7
					c-0.5-5.6-0.9-11.1-1.3-16.7c-0.3-5.4-0.4-10.9-2.2-16C753.2,292.6,751.8,292.5,751.5,293.6L751.5,293.6z"/>
			</g>
		</g>
		<g>
			<g>
				<path class="st1" d="M767.8,363c3.2-3,1.7-9.6,1.8-13.7c0.1-6.8,0.4-13.6,0.3-20.4c-0.1-12.7,1.3-26-0.6-38.5
					c-0.3-2.2-3.9-2.1-4.3,0c-2.5,12.4-1.3,26-1.1,38.5c0.1,6.5,0.6,13,1,19.5c0.3,4.1-0.6,11.8,2.8,14.6
					C767.7,363,767.7,363,767.8,363L767.8,363z"/>
			</g>
		</g>
		<g>
			<g>
				<path class="st1" d="M778.4,295.9c-1.9,5.6-1.9,11.9-2.4,17.8c-0.5,6.2-1,12.3-1.5,18.5c-0.5,6.2-1.1,12.3-1.3,18.5
					c-0.3,5.9-1.4,12.5,0,18.3c0.7,2.9,4.6,2.5,5.5,0c1.9-5.6,1.4-12.4,1.7-18.3c0.3-6.2,0.3-12.3,0.4-18.5
					c0.1-6.2,0.2-12.3,0.2-18.5c0-5.8,0.6-12-0.8-17.8C780,295,778.7,295.1,778.4,295.9L778.4,295.9z"/>
			</g>
		</g>
		<g>
			<g>
				<path class="st1" d="M788.5,367.6c2.8-4,2.8-10.5,3.4-15.2c0.9-7,2-13.9,3-20.8c1.8-12.7,2.9-25.6,4.6-38.3
					c0.4-2.7-3.2-3.8-4.1-1.1c-4.3,11.8-5.8,25.3-6.2,37.7c-0.2,6.3,0,12.5-0.5,18.8c-0.3,3.7-0.7,7.3-1.2,11
					c-0.4,2.7-1,5.1-0.4,7.8C787.3,368,788.1,368,788.5,367.6L788.5,367.6z"/>
			</g>
		</g>
		<g>
			<g>
				<path class="st1" d="M804.3,294.7c-1.7,12.7-2.8,25.5-4.4,38.2c-0.9,6.8-1.8,13.7-2.8,20.5c-0.7,4.8-3.4,12.2-0.5,16.4
					c0.8,1.2,2.3,1.4,3.3,0.4c3.8-3.3,3-10.3,3.4-15.1c0.5-6.8,1-13.6,1.5-20.4c0.8-13.3,1.8-26.5,1.5-39.8
					C806.4,293.9,804.5,293.5,804.3,294.7L804.3,294.7z"/>
			</g>
		</g>
		<g>
			<g>
				<path class="st1" d="M807.5,369c2.9-4.9,3.4-11.6,4.7-17.1c1.4-6,2.6-12.1,3.9-18.2c2.6-12.5,5.2-25,7.6-37.5
					c0.6-2.9-3.8-4.1-4.4-1.2c-2.6,12.8-5.1,25.7-7.5,38.5c-1.2,6.1-2.4,12.2-3.4,18.4c-0.9,5.4-2.8,11.5-2.1,17
					C806.4,369.5,807.2,369.5,807.5,369L807.5,369z"/>
			</g>
		</g>
		<g>
			<g>
				<path class="st1" d="M828.5,297.4c-2.7,4.2-2.6,10.2-3.2,15c-0.8,6.1-1.4,12.3-2,18.4c-1.3,12.3-3.3,24.5-4.6,36.7
					c-0.5,4.4,6.2,4.2,6.8,0c1.5-11.9,2.2-23.9,3.3-35.8c0.6-5.8,1.2-11.6,1.6-17.4c0.4-5.2,1.9-11.7-0.2-16.7
					C830,296.9,829,296.7,828.5,297.4L828.5,297.4z"/>
			</g>
		</g>
		<g>
			<g>
				<path class="st1" d="M835.4,371c2.8-4.7,2.7-11.7,3.4-17.1c0.9-6.1,1.4-12.3,2.1-18.5c1.4-12.9,2.7-26,2.5-39
					c0-2.4-3.9-3.1-4.3-0.6c-2.1,12.5-2.9,25.1-3.8,37.7c-0.4,6.3-1,12.5-1.4,18.8c-0.4,5.7-2,13.1-0.3,18.5
					C833.9,371.6,835,371.8,835.4,371L835.4,371z"/>
			</g>
		</g>
		<g>
			<g>
				<path class="st1" d="M849.7,297.4c-1.9,5.7-2.1,12.1-2.8,18.1c-0.8,6.5-1.5,13-2.2,19.5c-1.4,12.9-2.9,26-3.1,39
					c-0.1,5.1,7.2,4.9,7.8,0c1.4-12.6,1.9-25.4,2.6-38c0.3-6.2,0.7-12.3,1.1-18.5c0.4-6.4,1.5-13.1,0.8-19.5
					C853.4,295.7,850.4,295.1,849.7,297.4L849.7,297.4z"/>
			</g>
		</g>
		<g>
			<g>
				<path class="st1" d="M580.4,370c0.3,0,0.3-0.4,0-0.4C580.1,369.6,580.1,370,580.4,370L580.4,370z"/>
			</g>
		</g>
		<g>
			<g>
				<path class="st1" d="M593.7,453.9c-1.4-15.8-1.1-31.8-1.7-47.7c-0.3-8.1-0.7-16.2-1.5-24.3c-0.6-6-0.4-16.3-4.7-20.8
					c-2.1-2.1-5.9-1.1-6.6,1.8c-0.8,3.2,0.5,6.6,1.2,9.7c0.7,3.5,1.3,7,1.7,10.5c1.1,8.4,1.8,16.8,2.4,25.3
					c1.1,15.4,1.8,30.8,4.4,46C589.3,457.3,594,456.7,593.7,453.9L593.7,453.9z"/>
			</g>
		</g>
		<g>
			<g>
				<path class="st1" d="M631.4,457.7c0.1,0,0.3-0.1,0.4-0.1c0.5-0.1,0.9-0.5,1-1c3.3-14.8,4.3-30.4,6-45.5
					c0.9-8.2,1.8-16.4,2.7-24.6c0.8-7,2.6-14.5,2.4-21.5c-0.1-3.3-4.9-4-5.8-0.8c-1.8,6.3-1.8,13.7-2.5,20.2
					c-0.9,8.4-1.8,16.8-2.5,25.2c-1.4,15.4-3.5,31.1-3.1,46.6c0,0.5,0.3,1,0.7,1.2C630.9,457.5,631.2,457.7,631.4,457.7L631.4,457.7
					z"/>
			</g>
		</g>
		<g>
			<g>
				<path class="st1" d="M589.5,457.8c1,4,4.4,5.2,7.7,7.1c4.6,2.7,9.4,3.8,14.8,4.5c5.1,0.7,11,0.5,15.2-2.9
					c2.9-2.5,6.5-7.3,5.4-11.3c-0.3-1.1-1.4-1.5-2.4-1.3c-3,0.6-4.6,3.5-7.2,4.9c-3.9,2-8.3,1.3-12.5,0.7c-3.3-0.5-6-1.4-8.9-2.9
					c-2.2-1.1-4.9-1.5-7-2.6C591.8,452.6,588.7,454.9,589.5,457.8L589.5,457.8z"/>
			</g>
		</g>
		<g>
			<g>
				<path class="st1" d="M392.3,802.7c3.5-10.3,5.1-21.6,6.9-32.3c2.2-13.4,4.4-26.9,6.5-40.3c3.9-24.7,7.9-49.4,12.9-73.8
					c3.7-18.1,7.7-36,13.6-53.5c3.9-11.6,7.3-23.3,10.8-35.1c4.9-16.7,9.2-35,19.9-49.1c13.8-18.3,36.1-23.4,56.8-30
					c6.3-2,3.7-10.9-2.7-9.8c-20.1,3.4-42.5,12.1-57,27c-12.5,12.8-18.4,30-23.5,46.7c-3.4,11.2-6.5,22.5-9.9,33.7
					c-5,16.1-10.3,32-14,48.5c-6,27-10.1,54.3-14.1,81.6c-2.2,15.5-4.4,31.1-6.7,46.6c-1.9,12.9-4.5,26.1-5.3,39.1
					C386.3,805.3,391.2,805.6,392.3,802.7L392.3,802.7z"/>
			</g>
		</g>
		<g>
			<g>
				<path class="st1" d="M721.8,513.7c15.1,6.3,31.5,10.2,42.2,23.6c8.1,10.2,10.7,23.5,12.6,36c2.7,17.1,4.4,34.4,8.5,51.2
					c2.9,11.8,7.1,23.1,10.3,34.8c3.9,14.3,6.8,28.8,9.7,43.3c3.3,16.8,6.6,33.5,10,50.3c3.3,16.6,5.6,33.9,10.2,50.2
					c1.5,5.3,10.7,4.5,10-1.4c-1.9-15.4-5.8-30.7-8.8-45.9c-3.1-15.5-6.2-30.9-9.3-46.4c-3-15.2-5.9-30.5-9.7-45.5
					c-3.3-13-7.9-25.4-11.3-38.3c-4.7-17.8-7-35.9-10.1-53.9c-2.3-13.5-5.6-27.4-14.1-38.5c-11.3-14.7-31.3-23.7-49.5-25.3
					C719,507.7,719.1,512.6,721.8,513.7L721.8,513.7z"/>
			</g>
		</g>
		<g>
			<g>
				<path class="st1" d="M627.8,530.2c2.7-18.1,17-29.8,32.8-37c14-6.4,31.9-8.8,39.2-24.3c6.3-13.3-2-26-13.7-32.5
					c-6.9-3.9-14.8-5.9-22.6-7.1c-8.9-1.4-17.6-0.7-26.5-1.4c-5.3-0.4-4.9,8.9,1,7.7c8.1-1.6,18.1-0.2,26.2,1.3
					c7.2,1.3,14.4,3.3,20.6,7.3c5.5,3.5,10.4,8.9,10.1,15.8c-0.3,7.6-6.4,13.4-12.4,17.2c-12.4,7.9-27.2,10.8-39.1,19.7
					c-10.7,8-18.7,19.1-20.1,32.6C623.1,532.2,627.5,532.8,627.8,530.2L627.8,530.2z"/>
			</g>
		</g>
		<g>
			<g>
				<path class="st1" d="M587.9,422.5c-12.8-8.7-31.6,3.8-40.7,12.9c-10.4,10.5-18,26.5-7.8,39.7c9.5,12.3,27.1,16.4,40.8,21.9
					c16.1,6.4,32.7,15,41.6,30.6c3.2,5.5,11.8,0.5,8.5-5c-7.1-11.8-17.8-20.5-29.9-26.9c-13.6-7.2-28.6-10.7-42.4-17.3
					c-5.2-2.5-10.9-5.8-13.7-11.1c-3.7-6.9-0.5-14.5,3.6-20.4c8.4-12.1,22.7-22.1,37.9-19.4C588.9,428.1,590.6,424.3,587.9,422.5
					L587.9,422.5z"/>
			</g>
		</g>
		<g>
			<g>
				<path class="st1" d="M575.5,503.7c0-0.2,0-0.4,0-0.6c1.4,1.1,2.9,2.2,4.3,3.4c0.1-0.2,0.2-0.4,0.3-0.5c-0.8,0.5-1.6,0.9-2.4,1.4
					c-0.1,0-0.3,0-0.4,0c-0.3-1-0.5-1.9-0.8-2.9c-0.5,2.2-2.2,3.9-2.6,6.2c-0.4,2.1-0.3,4.2-0.1,6.2c0.3,2.7,0.9,5.6,2.1,8.1
					c1.3,2.7,3.4,4.9,4.2,7.9c3.4,11.9-1.7,25.4-3.2,37.2c-1.4,11.5-3.5,23.3-0.4,34.7c3.1,11.4,6.3,24.4,11.9,34.8
					c1,1.8,3.8,0.6,3.3-1.4c-2-6.8-5.5-13.3-7.8-20.1c-2.5-7.1-3.6-14.7-4.3-22.2c-1.3-13.7,2.8-26.6,4.4-40
					c1.5-12.9-2.4-25-4.4-37.5c-0.6-3.8,0-7.1,1.6-10.6c0.7-1.5,1.5-2.5,0.7-4.2c-1.4-2.8-5.6-2.9-6.9-0.1c-1.1,2.2,1.3,5.5,3.8,3.8
					c2.2-1.6,2.9-4.1,0.7-6.1C577.9,499.8,574.7,501.2,575.5,503.7L575.5,503.7z"/>
			</g>
		</g>
		<g>
			<g>
				<path class="st1" d="M655.3,508.1c1.7,5.8,6.2,8.9,6.1,15.5c-0.1,6-2,12-2.6,18c-1.2,11.6-0.1,23.3,1.6,34.8
					c0.9,5.9,1.8,11.7,1.7,17.7c-0.1,6-1.4,11.8-2.3,17.7c-1.4,9.3-5.2,20.7-1.5,29.8c0.5,1.1,2.2,0.7,1.9-0.5
					c-1.8-6.6-1.7-12.5,0.4-19.1c1.8-5.6,4.8-10.6,6.3-16.4c2.7-11,0.1-22.4-1.7-33.4c-2.1-13-2.2-26.5-0.2-39.5
					c0.8-5.4,2.6-10.7,1.2-16.2c-1.1-4.2-3.6-8.9-7.3-11.1C657,504.4,654.8,506.1,655.3,508.1L655.3,508.1z"/>
			</g>
		</g>
		<g>
			<g>
				<path class="st1" d="M624.7,525.1c-1.7,3.9-3.2,7.9-4.4,12c-0.9,2.9-2.6,6.5-2.2,9.5c0.8,6.1,10,5.1,14.2,3.9
					c1.7-0.5,2.5-2.1,2.1-3.8c-1.5-7.2-2-15.5-5.1-22.3c-1.1-2.5-4.7-1.1-4.8,1.3c-0.3,7.4,2.6,15.4,4,22.6c0.7-1.3,1.4-2.5,2.1-3.8
					c-1.6,0.5-5.2,1.4-6.8,0.3c0.6,1.1,0.9,0.8,1-1.1c0.3-1.1,0.7-2.2,1-3.3c1.3-4.5,2.4-9,3.1-13.6
					C629.3,524.6,625.9,522.5,624.7,525.1L624.7,525.1z"/>
			</g>
		</g>
		<g>
			<g>
				<path class="st1" d="M624.6,549.4c-3.4,16.5-3.7,33.7-3.9,50.4c-0.2,17.3,0.1,34.6,0.9,51.8c1.7,34.3,5.5,68.4,10.6,102.4
					c1.4,9.6,2.5,19.2,3.6,28.8c1.1,9.5,0.2,19.3,1.6,28.7c0.3,2.1,3.3,1.7,3.8,0c2.4-7.4,2-16.1,2.3-23.8c0.3-8.8-0.2-17.5-1-26.2
					c-1.6-16.9-4.4-33.6-6.4-50.4c-4.1-34-6.2-68.2-6.6-102.5c-0.2-19.5,1-39.2-0.7-58.7C628.6,547.7,625.1,546.9,624.6,549.4
					L624.6,549.4z"/>
			</g>
		</g>
		<g>
			<g>
				<path class="st1" d="M629.2,528.9c11.6-6.6,25.7-7.1,37.2-14c10.3-6.2,17.6-17.9,29.7-21c2.6-0.7,8.1-0.6,10.1-2.4
					c1.3-1.1-0.4-0.6,0.1-0.2c0.5,0.4,0.9,0.9,1.3,1.4c2.2,2.5,3.7,5.7,5.5,8.6c1.7,2.8,3.4,5.7,5,8.6c0.9,1.6,1.9,3.9,3.9,4.2
					c2.5,0.4,4.6-1.9,3.3-4.3c-0.3-0.6-0.8-0.9-1.3-1.2c-1.3-1-3.7,0-4,1.6c-0.1,0.4,0,0.2,0.2-0.4c1.8,0.2,3.5,0.5,5.3,0.7
					c0.5,1.5-0.4-1.6-0.7-2.1c-0.6-1.3-1.4-2.5-2.1-3.7c-2.1-3.6-4.1-7.2-6.6-10.6c-1.8-2.4-3.7-5.3-6.1-7.2
					c-3.6-2.9-7.2-0.3-11.3,0.5c-6.5,1.3-11.8,3.5-17.1,7.6c-5.4,4.2-10.1,9.5-15.7,13.5c-11.8,8.4-27.4,8.5-38.8,17.8
					C625.6,527.5,627.6,529.8,629.2,528.9L629.2,528.9z"/>
			</g>
		</g>
		<g>
			<g>
				<path class="st1" d="M698.5,449c4.1,10.9,12.4,19.8,18.5,29.6c5.3,8.5,10.2,20.8,2.6,29.7c-3.5,4.1,2.1,9.8,6,6
					c9.2-9.1,8.1-22.6,2.5-33.3c-3.1-5.8-7.4-10.9-11.6-16c-4.9-6-10-12.5-16.3-17.1C699.4,447.2,698.2,448.1,698.5,449L698.5,449z"
					/>
			</g>
		</g>
		<g>
			<g>
				<path class="st1" d="M542.5,440.2c-15,10-30.1,23.8-28.5,43.4c0.4,5.2,8.6,5.2,8.1,0c-0.8-8.4,1.2-16.3,6.8-22.8
					c5.1-6,11.4-10.8,16.4-17C546.8,441.9,544.8,438.6,542.5,440.2L542.5,440.2z"/>
			</g>
		</g>
		<g>
			<g>
				<path class="st1" d="M518.4,488.4c2.6,8.3,10.8,12.8,18.1,16.3c9.4,4.5,17.6,8.8,25.8,15.3c8.6,6.9,18.2,14.1,28.9,17.4
					c4.9,1.5,9.8,1,14.6-0.5c5.3-1.7,10.6-4.9,16.3-3.4c4.5,1.2,6.3-5.5,1.9-6.9c-4.4-1.4-8.7-0.9-13.1,0.3
					c-4.9,1.4-10,4.1-15.2,3.2c-5.2-0.9-10.3-4.4-14.7-7.1c-4.9-3.1-9.5-6.6-14.1-10.2c-7.5-5.7-14.9-9.6-23.6-13.2
					c-8.3-3.3-16-7.1-23-12.6C519.3,486.5,518.1,487.5,518.4,488.4L518.4,488.4z"/>
			</g>
		</g>
		<g>
			<g>
				<path class="st1" d="M543.7,473.5c6.9-2.7,13.6-5.7,20.4-8.7c7-3.2,15.2-8.4,23.2-7c5.8,1.1,7-7.7,1.1-8
					c-16.9-0.9-32.3,11.6-46.8,18.6C538.7,469.7,540.7,474.6,543.7,473.5L543.7,473.5z"/>
			</g>
		</g>
		<g>
			<g>
				<path class="st1" d="M632.6,456c4.4,1.5,9.2,1.6,13.7,2.5c4.9,1.1,9.7,2.3,14.5,4c9.4,3.4,18.2,8,26.2,13.9
					c4.8,3.6,9.6-4.6,4.7-8.1c-8.7-6.3-18.3-11.2-28.6-14.1c-9-2.5-21.3-5.3-30.5-2.3C630.7,452.7,630.7,455.4,632.6,456L632.6,456z
					"/>
			</g>
		</g>
	</g>
</g>
<g>
	<g>
		<path class="st1" d="M1010.9,37.9c35.3,11,71,18.4,107.4,24.4c-0.1-1.1-0.3-2.2-0.4-3.3c-33.3,18.8-67.9,35.4-103.2,50.2
			c-2,0.9-3.4,4.3-0.7,5.5c23.1,10.1,47.4,18.2,71.9,24.3c0-1.6,0-3.1,0-4.7c-33.5,14-67.1,27.7-101.8,38.7
			c-17.2,5.4-34.5,10.3-52,14.4c-17.8,4.2-35.9,7-53.8,10.7c0.7,1.7,1.5,3.5,2.2,5.2c9-6,19.1-10.8,28.5-16.1
			c9.8-5.5,19.7-11,29.5-16.5c19.3-10.8,38.2-22.7,58-32.5c2.1-1,1.6-4.5-0.7-5c-17.8-3.9-35.3-9.7-51.7-17.6
			c-0.2,1.7-0.4,3.3-0.7,5c16.1-5.8,26.5-21.1,36.4-34.2c11.9-15.7,23.4-31.6,34.6-47.8c2.7-4-3.8-7.8-6.5-3.8
			c-9.9,14.7-19.1,30.1-29.7,44.4c-9.6,13-20.4,30.4-36.3,36.1c-2,0.7-3,3.9-0.7,5c17,8.2,34.6,14.3,53.1,18.2
			c-0.2-1.7-0.4-3.3-0.7-5c-18.7,11.8-38.8,21.7-58.1,32.5c-9.5,5.3-19.1,10.7-28.6,16c-9.8,5.5-19.4,11.7-29.5,16.4
			c-2.5,1.2-1.3,5.5,1.4,5.3c18.1-1.7,36.2-5.8,53.8-10c17.8-4.2,35.5-9.1,52.9-14.7c34.8-11.1,69.2-24.2,102-40.3
			c2-1,1.3-3.9-0.6-4.4c-24.1-7.3-47.5-15.8-70.9-25.1c0.2,1.8,0.5,3.7,0.7,5.5c35.1-15.8,69.2-33.6,102.7-52.5
			c1.3-0.7,1.2-3.1-0.4-3.3c-36.2-5.9-72.3-13.8-107.7-23.5C1009.9,34.8,1009.2,37.4,1010.9,37.9L1010.9,37.9z"/>
	</g>
</g>
<g>
	<g>
		<path class="st1" d="M1111.1,401.2c12.5,34.9,28.2,68,45.4,100.9c0.8-0.8,1.7-1.7,2.5-2.5c-35.3-15.3-69.5-33.1-102.7-52.5
			c-2.3-1.4-5,0.9-4.4,3.4c5.8,24.5,14.1,48.8,24,71.9c1.1-1.1,2.2-2.2,3.3-3.3c-31.2-18.2-62.1-36.6-91.6-57.5
			c-14.7-10.4-29.1-21.4-42.9-32.9c-14.1-11.7-27.2-24.5-41-36.5c-0.9,1.6-1.8,3.2-2.8,4.7c10.6,3.7,20.9,9.1,31.2,13.6
			c10,4.4,20,8.8,30,13.2c19.9,8.8,40.5,16.6,60,26.4c2.5,1.3,4.9-1.3,3.7-3.7c-7.7-16.6-13.4-34.1-17-52c-1.3,1-2.7,2.1-4,3.1
			c14.4,9.4,33.5,8.3,49.9,8.3c19.2,0,38.4-0.3,57.6-1.1c4.8-0.2,4.8-7.8,0-7.5c-17.9,1-35.9,2.9-53.9,3
			c-16.4,0.1-36.5,1.9-50.9-7.4c-2.1-1.4-4.5,0.9-4,3.1c3.7,18.5,9.5,36.2,17.5,53.3c1-1.3,2.1-2.7,3.1-4
			c-20.8-7.9-40.8-18-61.2-26.9c-9.7-4.3-19.4-8.5-29.1-12.8c-10.2-4.5-21-8.4-30.9-13.7c-2.9-1.5-5.6,2.1-3.4,4.5
			c12.3,13.5,26.5,25.4,40.5,36.9c13.8,11.5,28.1,22.4,42.8,32.8c29.8,21.2,61.1,40.7,93.7,57.3c1.7,0.9,4.4-0.6,3.6-2.7
			c-8.6-23.6-16-47.4-22.7-71.6c-1.5,1.1-2.9,2.3-4.4,3.4c33.8,18.5,68.6,35.1,103.9,50.4c1.6,0.7,3.4-0.8,2.5-2.5
			c-17-32.3-32.4-65.8-45.9-99.7C1113.1,398.9,1110.5,399.5,1111.1,401.2L1111.1,401.2z"/>
	</g>
</g>
<g>
	<g>
		<path class="st1" d="M1018,229.9c21.1,11.2,42.9,20.2,65.4,28.4c0-0.8,0-1.5,0-2.3c-23.5,8-47.5,14.3-71.7,19.5
			c-1.7,0.4-1.8,2.7-0.5,3.5c13.4,9,27.6,16.9,42.2,23.7c0.1-1,0.2-1.9,0.4-2.9c-23.1,4.8-46.1,9.6-69.6,12.4
			c-23.1,2.7-45.9,2.7-69.1,3.1c0.2,1.2,0.3,2.4,0.5,3.6c13.3-5.2,27.1-9.2,40.6-13.7c13.5-4.5,26.9-9.8,40.6-13.7
			c1.3-0.4,1.9-2.6,0.4-3.2c-11-4.7-21.4-10.5-31-17.6c-0.1,1.1-0.3,2.2-0.4,3.2c10.9-1.9,19.4-10.5,27.2-17.7
			c9.2-8.4,18.2-16.9,27.1-25.6c2.2-2.2-1.2-5.6-3.4-3.4c-7.9,8-15.4,16.4-23.6,24.1c-8,7.5-17,17.2-28.2,19.2
			c-1.7,0.3-1.5,2.4-0.4,3.2c9.8,7.2,20.2,13.1,31.5,17.8c0-1.1,0-2.3,0-3.4c-13.3,5.2-27.1,9.1-40.6,13.6
			c-13.5,4.5-26.9,9.7-40.6,13.6c-2.1,0.6-1.5,3.4,0.5,3.6c23.3,2.2,47.8-0.2,71-3c23-2.8,46.1-6.9,68.5-13.2
			c1.2-0.3,1.6-2.2,0.4-2.9c-14.3-7.5-28.3-15.6-41.9-24.3c-0.2,1.2-0.3,2.4-0.5,3.5c24.1-5.8,47.8-13,71.3-21
			c1.1-0.4,1.1-1.9,0-2.3c-22.1-8.1-44-17.3-65.1-27.6C1017.9,227.9,1017,229.4,1018,229.9L1018,229.9z"/>
	</g>
</g>
<g>
	<g>
		<path class="st1" d="M214.5,42.3C179.2,52,143,59.8,106.8,65.8c-1.6,0.3-1.7,2.6-0.4,3.3c33.5,18.9,67.6,36.7,102.7,52.5
			c0.2-1.8,0.5-3.7,0.7-5.5c-23.4,9.3-46.8,17.7-70.9,25.1c-1.9,0.6-2.5,3.5-0.6,4.4c32.9,16,67.2,29.2,102,40.3
			c17.4,5.5,35.1,10.5,52.9,14.7c17.7,4.2,35.7,8.3,53.8,10c2.8,0.3,3.9-4.1,1.4-5.3c-9.8-4.6-19.2-10.6-28.7-15.9
			c-9.8-5.5-19.6-11-29.4-16.5c-19.3-10.8-39.3-20.7-58.1-32.5c-0.2,1.7-0.4,3.3-0.7,5c18.5-3.9,36.1-10,53.1-18.2
			c2.3-1.1,1.4-4.3-0.7-5c-15.9-5.7-26.7-23.2-36.3-36.1c-10.6-14.3-19.8-29.7-29.7-44.4c-2.7-4-9.2-0.2-6.5,3.8
			c11.2,16.2,22.8,32.1,34.6,47.8c9.9,13.1,20.3,28.4,36.4,34.2c-0.2-1.7-0.4-3.3-0.7-5c-16.5,7.9-33.9,13.8-51.7,17.6
			c-2.2,0.5-2.7,4-0.7,5c19.8,9.8,38.7,21.7,58,32.5c9.5,5.3,19.1,10.7,28.6,16c9.8,5.4,20.1,10.4,29.4,16.6
			c0.7-1.7,1.5-3.5,2.2-5.2c-17.6-3.7-35.4-6.3-52.9-10.5c-17.8-4.2-35.5-9.1-52.9-14.6c-34.7-11-68.3-24.7-101.8-38.7
			c0,1.6,0,3.1,0,4.7c24.5-6,48.8-14.1,71.9-24.3c2.7-1.2,1.3-4.6-0.7-5.5c-35.3-14.8-69.9-31.3-103.2-50.2
			c-0.1,1.1-0.3,2.2-0.4,3.3c36.4-6,72.2-13.4,107.4-24.4C216.9,44.4,216.2,41.8,214.5,42.3L214.5,42.3z"/>
	</g>
</g>
<g>
	<g>
		<path class="st1" d="M112.4,407.5c-13.5,33.9-28.9,67.4-45.9,99.7c-0.9,1.7,0.9,3.2,2.5,2.5c35.3-15.4,70.1-31.9,103.9-50.4
			c-1.5-1.1-2.9-2.3-4.4-3.4c-6.7,24.2-14,48-22.7,71.6c-0.8,2.1,1.8,3.6,3.6,2.7c32.6-16.6,63.9-36.1,93.7-57.3
			c14.6-10.4,28.9-21.3,42.8-32.8c14-11.6,28.3-23.5,40.5-36.9c2.2-2.4-0.5-6-3.4-4.5c-9.6,5.1-20,8.9-29.9,13.3
			c-10,4.4-20,8.8-30,13.2c-20.3,8.9-40.4,19-61.2,26.9c1,1.3,2.1,2.7,3.1,4c8-17.1,13.8-34.8,17.5-53.3c0.4-2.2-1.9-4.5-4-3.1
			c-14.4,9.4-34.5,7.6-50.9,7.4c-18-0.2-35.9-2.1-53.9-3c-4.8-0.3-4.8,7.3,0,7.5c19.2,0.8,38.4,1.1,57.6,1.1
			c16.4,0,35.6,1.1,49.9-8.3c-1.3-1-2.7-2.1-4-3.1c-3.6,17.9-9.3,35.4-17,52c-1.1,2.5,1.2,5,3.7,3.7c19.5-9.8,40.1-17.6,60-26.4
			c9.7-4.3,19.4-8.5,29.1-12.8c10.6-4.7,21.2-10.2,32.1-14c-0.9-1.6-1.8-3.2-2.8-4.7c-13.8,12.1-26.8,24.8-41,36.5
			c-13.9,11.5-28.2,22.4-42.9,32.9c-29.4,20.9-60.4,39.3-91.6,57.5c1.1,1.1,2.2,2.2,3.3,3.3c9.9-23.1,18.2-47.4,24-71.9
			c0.6-2.5-2.1-4.7-4.4-3.4c-33.2,19.4-67.4,37.1-102.7,52.5c0.8,0.8,1.7,1.7,2.5,2.5c17.2-32.8,32.9-65.9,45.4-100.9
			C115.6,406.5,113,405.9,112.4,407.5L112.4,407.5z"/>
	</g>
</g>
<g>
	<g>
		<path class="st1" d="M207.3,235.4c-21.1,10.3-43,19.6-65.1,27.6c-1.1,0.4-1.1,1.9,0,2.3c23.5,8,47.2,15.1,71.3,21
			c-0.2-1.2-0.3-2.4-0.5-3.5c-13.6,8.8-27.5,16.8-41.9,24.3c-1.2,0.6-0.9,2.5,0.4,2.9c22.4,6.3,45.5,10.3,68.5,13.2
			c23.2,2.9,47.6,5.2,71,3c2-0.2,2.6-3,0.5-3.6c-13.7-3.9-27.2-9-40.6-13.6c-13.5-4.6-27.4-8.4-40.6-13.6c0,1.1,0,2.3,0,3.4
			c11.2-4.7,21.6-10.6,31.5-17.8c1.1-0.8,1.2-2.9-0.4-3.2c-11.3-2-20.2-11.7-28.2-19.2c-8.2-7.7-15.7-16.1-23.6-24.1
			c-2.2-2.2-5.6,1.2-3.4,3.4c8.8,8.7,17.9,17.2,27.1,25.6c7.9,7.2,16.4,15.7,27.2,17.7c-0.1-1.1-0.3-2.2-0.4-3.2
			c-9.6,7.1-20.1,12.9-31,17.6c-1.5,0.6-0.9,2.8,0.4,3.2c13.7,3.8,27.1,9.1,40.6,13.7c13.5,4.5,27.4,8.5,40.6,13.7
			c0.2-1.2,0.3-2.4,0.5-3.6c-23.2-0.4-46-0.4-69.1-3.1c-23.4-2.8-46.5-7.6-69.6-12.4c0.1,1,0.2,1.9,0.4,2.9
			c14.7-6.7,28.8-14.7,42.2-23.7c1.3-0.9,1.3-3.2-0.5-3.5c-24.2-5.2-48.3-11.5-71.7-19.5c0,0.8,0,1.5,0,2.3
			c22.4-8.2,44.3-17.1,65.4-28.4C209.2,236.4,208.3,234.9,207.3,235.4L207.3,235.4z"/>
	</g>
</g>
<rect x="-8.5" y="-8.5" class="st3" width="1242" height="810"/>
</svg>
