<?xml version="1.0" encoding="utf-8"?>
<!-- Generator: Adobe Illustrator 23.0.2, SVG Export Plug-In . SVG Version: 6.00 Build 0)  -->
<svg version="1.1" id="Layer_5" xmlns="http://www.w3.org/2000/svg" xmlns:xlink="http://www.w3.org/1999/xlink" x="0px" y="0px"
	 viewBox="0 0 1224 792" style="enable-background:new 0 0 1224 792;" xml:space="preserve">
<style type="text/css">
	.st0{fill:#EA2D36;}
	.st1{fill:#282561;}
	.st2{fill:none;stroke:#282561;stroke-width:1.2009;stroke-miterlimit:10;}
</style>
<rect x="-9" y="-9" class="st0" width="1242" height="810"/>
<g>
	<g>
		<g>
			<path class="st1" d="M562.2,260.4c17.7-1.8,35.4-3.2,53.2-2.9c8.7,0.2,17.5,0.7,26.2,1.5c8.3,0.7,17.6,2.3,25.8,0.5
				c2.9-0.6,2-4.6-0.7-4.9c-8.9-0.9-18.1-0.8-27.1-1.5c-8.7-0.7-17.4-1.1-26.2-1.2c-17.4-0.1-34.8,0.9-51.9,3.8
				C558.9,256.2,559.5,260.7,562.2,260.4L562.2,260.4z"/>
		</g>
	</g>
	<g>
		<g>
			<g>
				<g>
					<path class="st1" d="M589.9,351.9c8.7,0,17.5-0.4,26.2-0.3c3.3,0,5.2-0.7,5.6,3.1c0.2,1.9,0.4,3.8,0.7,5.7
						c0.5,4,1.4,8,2.5,11.9c0.9-1.1,1.7-2.3,2.6-3.4c-15,0.1-31.1-3.1-45.8,1.2c1.1,1.1,2.1,2.1,3.2,3.2c2.2-7.4,5-14.6,7.4-21.9
						c1-3.2-3.9-4.5-5-1.4c-2.5,7.3-4.7,14.7-7.4,21.9c-0.5,1.5,0.9,3.5,2.5,3.3c15.2-1.8,29.8-2.2,45.1-0.9
						c1.8,0.1,2.9-1.8,2.6-3.4c-1.3-6-2.3-12-3.4-18.1c-0.6-3.3-1.5-5.5-5-6c-10.2-1.5-22.2,0.5-32,3.3
						C588.6,350.4,588.8,351.9,589.9,351.9L589.9,351.9z"/>
				</g>
			</g>
			<g>
				<g>
					<path class="st1" d="M584.4,366.5c6.5,1.2,13.4,0.7,20,0.7c7.1-0.1,14.3,0.1,21.4-0.6c3.4-0.3,3.5-5.4,0-5.3
						c-7.1,0.1-14.3,0.7-21.4,0.9c-6.6,0.2-13.4-0.3-20,0.7C582.5,363,582.6,366.1,584.4,366.5L584.4,366.5z"/>
				</g>
			</g>
			<g>
				<g>
					<path class="st1" d="M589.2,364.5c-0.6,1.5-1,3.4-1.9,4.7c-0.8,1.3,0,3,1.4,3.4c1.4,0.4,3-0.7,2.9-2.2
						c-0.1-1.8,0.3-3.7,0.3-5.5C591.9,363.2,589.7,363,589.2,364.5L589.2,364.5z"/>
				</g>
			</g>
			<g>
				<g>
					<path class="st1" d="M594.6,364.5c-0.7,0.7-0.9,1.6-1.2,2.5c-0.3,0.9-0.7,1.8-1,2.7c-0.5,1.3,0.6,2.6,1.8,2.8
						c1.3,0.2,2.5-0.8,2.5-2.2c0-0.9,0-1.8,0.1-2.6c0-0.9,0.2-1.8-0.1-2.6C596.3,364.2,595.3,363.7,594.6,364.5L594.6,364.5z"/>
				</g>
			</g>
			<g>
				<g>
					<path class="st1" d="M600.8,365.1c-0.2,1.5-0.7,2.8-1.1,4.2c-0.3,1,0.3,2.1,1.4,2.4c0.9,0.3,2.3-0.3,2.4-1.4
						c0.2-1.1,0.2-1.9,0-3c-0.2-0.9-0.4-1.7-0.7-2.5C602.4,363.7,600.9,363.9,600.8,365.1L600.8,365.1z"/>
				</g>
			</g>
			<g>
				<g>
					<path class="st1" d="M605.8,365c-0.8,1.5-0.6,3.4-0.6,5.1c0.1,1.2,1,2.2,2.3,2c1.3-0.2,1.9-1.3,1.7-2.5
						c-0.2-1.5-0.4-3.3-1.3-4.5C607.4,364.3,606.3,364.1,605.8,365L605.8,365z"/>
				</g>
			</g>
			<g>
				<g>
					<path class="st1" d="M611.2,365.2c-0.6,1-0.7,2.5-0.7,3.6c0,1.2-0.1,2.7,0.9,3.6c2.3,2,5.1-1.6,2.6-3.4c-0.1,0-0.1-0.1-0.2-0.1
						c0.3,0.4,0.7,0.8,1,1.3c-0.6-1.8-0.4-3.8-1.8-5.3C612.4,364.4,611.6,364.5,611.2,365.2L611.2,365.2z"/>
				</g>
			</g>
			<g>
				<g>
					<path class="st1" d="M616.6,364.5c-0.6,1.2-0.2,2.7-0.1,4c0.2,1.4,0,2.9,1.1,4c0.9,0.9,2.5,0.7,3.1-0.4c0.8-1.4,0.2-3-0.2-4.5
						c-0.4-1.3-0.9-2.9-2-3.6C618,363.6,616.9,363.8,616.6,364.5L616.6,364.5z"/>
				</g>
			</g>
			<g>
				<g>
					<path class="st1" d="M598,355.6c-0.7-0.1-1.3,0-1.8,0.5c-0.5,0.5-0.6,1.2-0.5,1.9c0.4,1.4,2.1,1.6,3.3,1.2
						c0.5-0.2,1.1-0.7,1-1.3c0-0.2,0-0.3,0-0.5c-0.1,0.2-0.3,0.4-0.4,0.7c0,0,0.1-0.1,0.1-0.1c0.5-0.6,0.6-1.3,0.3-2
						c-0.2-0.4-0.5-0.6-0.9-0.9c-1-0.7-2.4,0-2.7,1.1c-0.3,1.2,0.6,2.3,1.8,2.3c0.5,0,0.8-0.1,1.2-0.3c-0.7-0.1-1.3-0.2-2-0.3
						c0,0,0.1,0.1,0.1,0.1c-0.1-0.2-0.3-0.4-0.4-0.7c0,0.1,0.1,0.4,0.1,0.5c0.3-0.4,0.7-0.9,1-1.3c-0.1,0-0.3,0.1-0.4,0.1
						c-0.2,0-0.1,0,0.2,0.1c0.1,0.1,0.2,0.2,0.3,0.3c0,0.2,0,0.5,0,0.7c-0.2,0.3-0.4,0.5-0.8,0.6c0.7,0,1.3-0.5,1.3-1.2
						C599.1,356.4,598.7,355.7,598,355.6L598,355.6z"/>
				</g>
			</g>
			<g>
				<g>
					<path class="st1" d="M601.2,355.1c0.3-1.5-1.3-2.1-2.5-2.3c-1.5-0.3-3.1,0.1-4.4,1c-2.7,2-2.7,6.4,0.1,8.4
						c2.7,1.9,7.6,1.3,9.3-1.8c1.5-2.7-0.3-9.9-4.5-8.2c-1.4,0.6-2,2.5-0.4,3.4c0.8,0.4,1.1,0.5,1.3,1.4c0.1,0.5,0.3,1.2-0.1,1.6
						c-0.7,0.7-2.7,0.7-3.4,0.1c-0.8-0.8-0.4-2.1,0.4-2.7c1.2-0.9,2.5-0.2,3.8-0.4C601,355.5,601.2,355.3,601.2,355.1L601.2,355.1z"
						/>
				</g>
			</g>
			<g>
				<g>
					<path class="st1" d="M610.8,355.6c-1,0.9-0.4,2.7,0.8,3c1.5,0.4,2.7-1,2.3-2.5c-0.1-0.4-0.5-0.8-0.9-0.9
						c-0.7-0.1-1.3,0.1-1.6,0.8c-0.3,0.6,0.3-0.2,0,0c0.5-0.3,1-0.2,1.6,0.5c0,0.5,0,0.6,0,0.4C613.3,355.6,611.8,354.7,610.8,355.6
						L610.8,355.6z"/>
				</g>
			</g>
			<g>
				<g>
					<path class="st1" d="M615.3,354.7c-0.1-3.3-5.8-2.8-7.6-1.4c-3.3,2.4-2.2,7.4,1.1,9.2c3.5,2,8.3,0.3,9.9-3.4
						c1.7-3.9-1.3-8.5-5.7-7.8c-1.9,0.3-1.9,3.6,0,3.9c3.6,0.6,0.9,4.4-1.8,3.5c-1.2-0.4-1.9-1.4-1.5-2.7c0.4-1.4,4-2.4,5.1-1.1
						C614.9,355.1,615.3,354.9,615.3,354.7L615.3,354.7z"/>
				</g>
			</g>
		</g>
		<g>
			<g>
				<path class="st1" d="M564.8,316.4c-3.1-5.4-12.2-2.5-9.8,3.8c1.9,5.1,11.5,4.8,12-1.1c0.6-6.7-7.9-6.7-11.2-2.6
					c-1.4,1.8-2.4,4.2-3.4,6.2c-0.8,1.7-2,3.7-2.1,5.7c-0.2,3.8,3.5,5,6.7,5.5c4,0.6,8.6,0,11.3-3.2c3.3-3.8,0.1-9.2-1.4-13.2
					c-0.9-2.4-4.7-1.4-3.9,1.1c0.7,2,1.4,3.9,2.2,5.9c1,2.7,0.7,4.5-2.4,5.4c-1.7,0.5-3.6,0.3-5.3,0c-1.1-0.2-2.7-1-2.8-2.4
					c0-0.8,0.9-2.3,1.2-2.9c1-2.3,2.7-11.2,6.9-8.2c2.7,1.9-0.1,4.6-2.6,4c-1.2-0.3-2.5-1.4-2.4-2.9c0.3-2.9,4.5-0.4,5.2,0.2
					C564.1,318.3,565.4,317.4,564.8,316.4L564.8,316.4z"/>
			</g>
		</g>
		<g>
			<g>
				<path class="st1" d="M657.2,315.5c-3.1-5.4-12.2-2.5-9.8,3.8c1.9,5.1,11.5,4.8,12-1.1c0.6-6.7-7.9-6.7-11.2-2.6
					c-1.4,1.8-2.4,4.2-3.4,6.2c-0.8,1.7-2,3.7-2.1,5.7c-0.2,3.8,3.5,5,6.7,5.5c4,0.6,8.6,0,11.3-3.2c3.3-3.8,0.1-9.2-1.4-13.2
					c-0.9-2.4-4.7-1.4-3.9,1.1c0.7,2,1.4,3.9,2.2,5.9c1,2.7,0.7,4.5-2.4,5.4c-1.7,0.5-3.6,0.3-5.3,0c-1.1-0.2-2.7-1-2.8-2.4
					c0-0.8,0.9-2.3,1.2-2.9c1-2.3,2.7-11.2,6.9-8.2c2.7,1.9-0.1,4.6-2.6,4c-1.2-0.3-2.5-1.4-2.4-2.9c0.3-2.9,4.5-0.4,5.2,0.2
					C656.5,317.4,657.8,316.5,657.2,315.5L657.2,315.5z"/>
			</g>
		</g>
		<g>
			<g>
				<g>
					<path class="st1" d="M562.9,298.2c-1.4,3.8-2.7,7.6-4.3,11.3c-0.5,1.3,0.8,2.7,2,2.7c15.3-0.1,30.7,0.9,46,0.9
						c15.3,0,30.7-0.2,46-0.7c1.4,0,2.7-1.5,2.2-2.9c-1.3-4-2.7-8-4.1-12c-0.3-0.9-1.1-1.6-2.1-1.6c-14.2,0.7-28.5,0.2-42.7-0.1
						c-13.7-0.3-27.7-1.2-41.3,0.7c-2.5,0.3-1.8,4.3,0.6,4.3c13.9,0,27.8-0.4,41.7-0.1c13.9,0.3,27.8,0.6,41.7-0.5
						c-0.7-0.5-1.4-1.1-2.1-1.6c1.3,4,2.5,8.1,3.7,12.1c0.7-1,1.5-2,2.2-2.9c-15.3,0.4-30.7,0.6-46,0.7c-15.3,0-30.8,0.5-46-0.5
						c0.6,1.1,1.2,2.1,1.8,3.2c1.8-4,3-8.2,3.5-12.5C566.1,296.8,563.4,296.7,562.9,298.2L562.9,298.2z"/>
				</g>
			</g>
			<g>
				<g>
					<path class="st1" d="M608.8,299.6c-0.3,1.5-0.7,3-1,4.5c-0.3,1.6-0.6,3.3-1.3,4.8c-1.2,2.5,2.9,3.7,3.2,0.9
						c0.2-1.8,0.7-3.5,0.9-5.2c0.2-1.6,0.1-3,0-4.7C610.5,298.9,609,298.6,608.8,299.6L608.8,299.6z"/>
				</g>
			</g>
			<g>
				<g>
					<path class="st1" d="M619.7,299.3c-1,3.2-1,7.1-1.3,10.4c-0.2,2.5,3.9,2.6,4,0c0.2-3.3,0.3-7.1-0.3-10.4
						C621.8,298,620,298.2,619.7,299.3L619.7,299.3z"/>
				</g>
			</g>
			<g>
				<g>
					<path class="st1" d="M614.2,300.2c0,3.4-0.7,6.9-0.6,10.3c0,0.7,1,0.8,1.2,0.2c1.2-3.2,0.9-7.1,0.7-10.5
						C615.5,299.3,614.2,299.3,614.2,300.2L614.2,300.2z"/>
				</g>
			</g>
		</g>
		<g>
			<g>
				<path class="st1" d="M513.1,364.5c2.9,1.9,6.4-0.2,6.4-3.6c0-0.4-0.2-0.9-0.7-1.1c-4.1-2.1-10-2.5-10.3,3.4c0,0.5,0.3,1,0.7,1.3
					c4,2.2,13.9,5.8,15.8-1.2c1.8-6.8-9.1-9.2-13.8-8.7c-6.3,0.7-9.5,7-5.6,12.3c4.5,6,16.3,5.8,21.7,1.2c5.6-4.7,3.3-11.9-2.7-14.8
					c-6.8-3.2-17.5-3.9-23.2,1.8c-5.7,5.7-3.5,14.1,3.1,17.8c7.1,4,18.2,4.2,24.7-1.1c5.7-4.6,7-12.4,2.1-18.1
					c-5.9-7-17.3-7.2-25.4-4.8c-7.4,2.2-14.3,9.1-12.1,17.4c2.3,8.7,11.8,11.6,19.8,11.4c7.5-0.2,18-0.9,21.9-8.5
					c3.4-6.7,0.1-14.7-5.6-18.9c-7.9-5.8-18.8-5.4-28-3.8c-8.6,1.5-13.1,7.2-12.5,16c0.6,8.6,4.7,15.9,13.6,17.9
					c8.5,2,19-1,26.8-4.6c7.6-3.5,12.4-11.5,9.8-19.9c-2.6-8.5-10.6-12.3-18.9-12.7c-5.1-0.2-10.3-0.1-15.3,0c-4.6,0-9.3,0.6-13,3.5
					c-6.2,4.8-7.9,13.6-5.7,20.9c2.3,7.3,8.3,13.6,15.8,15.5c9,2.3,21.7,0.3,30.1-3.5c7.7-3.4,13.7-10.5,12.7-19.3
					c-0.9-8.4-7.2-14.9-14.7-18c-15.1-6.4-41.7-3.5-48.6,13.9c-3.1,7.9,0.5,17,6.6,22.3c7.2,6.3,17.3,7.9,26.6,8.1
					c14.5,0.4,42.7-5.4,37.8-26.2c-4.4-18.9-31-24.2-47.1-21.7c-15.3,2.4-37.6,15.4-29.2,34.2c3.9,8.9,14.4,12.4,23.1,14.6
					c10.4,2.7,21.5,3.7,32.1,2.2c9.1-1.3,18.1-5.3,23-13.4c4.2-6.9,4.7-15.5-0.1-22.2c-4.7-6.6-12.8-9.7-20.1-12.4
					c-3.7-1.3-5.3,4.6-1.6,5.9c9.6,3.3,22.7,9,19.6,21.6c-3.3,13.2-19,16.2-30.6,16.2c-6.7,0-13.4-0.8-20-2.4
					c-6.2-1.5-13.4-3.4-18.1-8.1c-11.2-11.3,2.9-25,13.7-28.8c11.8-4.2,25.4-3.8,36.8,1.5c11,5.1,20.2,17.8,8.2,27.4
					c-9.7,7.8-25.3,8-37,5.8c-5.8-1.1-11.7-3.3-15.7-7.8c-4.5-5.1-6-12.4-1.9-18.1c7.4-10.5,23.8-12.7,35.4-9.9
					c5.8,1.4,11.6,4.2,14.9,9.4c4.1,6.5,2.6,14.3-3.7,18.8c-5.1,3.7-11.6,4.6-17.6,5.4c-6.5,0.8-13.4,1.2-19-2.7
					c-4.5-3.2-7.8-8.6-8-14.2c-0.3-8.5,5.3-13.6,13.6-13.9c5.5-0.2,11.4,0,17,0.2c7,0.3,13.9,3.3,15,11c1.2,7.7-4.6,12-11.1,14.2
					c-5.7,1.9-12.2,4-18.2,3.3c-7.8-0.9-11.7-6.4-12.3-13.9c-0.7-8.4,4.1-11.1,11.6-12c6.4-0.8,13.5-1.2,19.4,1.9
					c6.4,3.3,11.1,12.8,3.9,18c-5.2,3.7-16,3.6-21.8,2.1c-8.8-2.4-12.7-12-3.9-17.7c5.9-3.8,16.5-4.4,22.5-0.6
					c3.9,2.5,5.9,7.2,3.5,11.4c-2.3,4.1-6.9,5.7-11.3,5.8c-6.3,0.2-22.5-5.1-13.2-13.7c4.3-4,16-3.7,20.4,0.7c5.9,6-5.1,8.8-8.7,8.7
					c-2,0-3.9-0.2-5.6-1.3c-4.1-2.7-3.5-7,1.7-7.6c2.3-0.3,12.7,1.4,7.3,5.7c-0.6,0.5-3.2,0.1-3.6,0c-1.4-0.3-2.7-0.8-4-1.4
					c4.6-1.6,5.3-1.6,2,0C513,362,512,363.7,513.1,364.5L513.1,364.5z"/>
			</g>
		</g>
		<g>
			<g>
				<path class="st1" d="M693.5,364.5c2.9,1.9,6.4-0.2,6.4-3.6c0-0.4-0.2-0.9-0.7-1.1c-4.1-2.1-10-2.5-10.3,3.4c0,0.5,0.3,1,0.7,1.3
					c4,2.2,13.9,5.8,15.8-1.2c1.8-6.8-9.1-9.2-13.8-8.7c-6.3,0.7-9.5,7-5.6,12.3c4.5,6,16.3,5.8,21.7,1.2c5.6-4.7,3.3-11.9-2.7-14.8
					c-6.8-3.2-17.5-3.9-23.2,1.8c-5.7,5.7-3.5,14.1,3.1,17.8c7.1,4,18.2,4.2,24.7-1.1c5.7-4.6,7-12.4,2.1-18.1
					c-5.9-7-17.3-7.2-25.4-4.8c-7.4,2.2-14.3,9.1-12.1,17.4c2.3,8.7,11.8,11.6,19.8,11.4c7.5-0.2,18-0.9,21.9-8.5
					c3.4-6.7,0.1-14.7-5.6-18.9c-7.9-5.8-18.8-5.4-28-3.8c-8.6,1.5-13.1,7.2-12.5,16c0.6,8.6,4.7,15.9,13.6,17.9
					c8.5,2,19-1,26.8-4.6c7.6-3.5,12.4-11.5,9.8-19.9c-2.6-8.5-10.6-12.3-18.9-12.7c-5.1-0.2-10.3-0.1-15.3,0c-4.6,0-9.3,0.6-13,3.5
					c-6.2,4.8-7.9,13.6-5.7,20.9c2.3,7.3,8.3,13.6,15.8,15.5c9,2.3,21.7,0.3,30.1-3.5c7.7-3.4,13.7-10.5,12.7-19.3
					c-0.9-8.4-7.2-14.9-14.7-18c-15.1-6.4-41.7-3.5-48.6,13.9c-3.1,7.9,0.5,17,6.6,22.3c7.2,6.3,17.3,7.9,26.6,8.1
					c14.5,0.4,42.7-5.4,37.8-26.2c-4.4-18.9-31-24.2-47.1-21.7c-15.3,2.4-37.6,15.4-29.2,34.2c3.9,8.9,14.4,12.4,23.1,14.6
					c10.4,2.7,21.5,3.7,32.1,2.2c9.1-1.3,18.1-5.3,23-13.4c4.2-6.9,4.7-15.5-0.1-22.2c-4.7-6.6-12.8-9.7-20.1-12.4
					c-3.7-1.3-5.3,4.6-1.6,5.9c9.6,3.3,22.7,9,19.6,21.6c-3.3,13.2-19,16.2-30.6,16.2c-6.7,0-13.4-0.8-20-2.4
					c-6.2-1.5-13.4-3.4-18.1-8.1c-11.2-11.3,2.9-25,13.7-28.8c11.8-4.2,25.4-3.8,36.8,1.5c11,5.1,20.2,17.8,8.2,27.4
					c-9.7,7.8-25.3,8-37,5.8c-5.8-1.1-11.7-3.3-15.7-7.8c-4.5-5.1-6-12.4-1.9-18.1c7.4-10.5,23.8-12.7,35.4-9.9
					c5.8,1.4,11.6,4.2,14.9,9.4c4.1,6.5,2.6,14.3-3.7,18.8c-5.1,3.7-11.6,4.6-17.6,5.4c-6.5,0.8-13.4,1.2-19-2.7
					c-4.5-3.2-7.8-8.6-8-14.2c-0.3-8.5,5.3-13.6,13.6-13.9c5.5-0.2,11.4,0,17,0.2c7,0.3,13.9,3.3,15,11c1.2,7.7-4.6,12-11.1,14.2
					c-5.7,1.9-12.2,4-18.2,3.3c-7.8-0.9-11.7-6.4-12.3-13.9c-0.7-8.4,4.1-11.1,11.6-12c6.4-0.8,13.5-1.2,19.4,1.9
					c6.4,3.3,11.1,12.8,3.9,18c-5.2,3.7-16,3.6-21.8,2.1c-8.8-2.4-12.7-12-3.9-17.7c5.9-3.8,16.5-4.4,22.5-0.6
					c3.9,2.5,5.9,7.2,3.5,11.4c-2.3,4.1-6.9,5.7-11.3,5.8c-6.3,0.2-22.5-5.1-13.2-13.7c4.3-4,16-3.7,20.4,0.7c5.9,6-5.1,8.8-8.7,8.7
					c-2,0-3.9-0.2-5.6-1.3c-4.1-2.7-3.5-7,1.7-7.6c2.3-0.3,12.7,1.4,7.3,5.7c-0.6,0.5-3.2,0.1-3.6,0c-1.4-0.3-2.7-0.8-4-1.4
					c4.6-1.6,5.3-1.6,2,0C693.3,362,692.3,363.7,693.5,364.5L693.5,364.5z"/>
			</g>
		</g>
		<g>
			<g>
				<path class="st1" d="M708,311.1c-1.6-0.5-2.8-0.5-4.4,0.1c-1,0.3-1.6,1.8-0.7,2.5c2.5,1.9,8.6,4,9.7-0.7c1.2-4.9-7-5.3-10-4.5
					c-3.5,1-7.1,4.9-3.3,8c2,1.6,5.3,1.6,7.7,1.8c2.8,0.2,6.2,0.6,8.6-1.1c4.5-3.1,1.5-8.2-2.4-10c-4.7-2.2-11.7-2.7-15.8,1.1
					c-3.3,3.1-3.6,7.5,0.1,10.2c5,3.7,13.3,5.2,19.1,2.6c4.4-2,7.2-7.1,4.7-11.6c-2.9-5.3-10.8-7-16.4-6.6
					c-10.6,0.8-22.1,14.8-9,21.2c9.2,4.5,32.2,7.5,32.6-8.4c0.3-13.5-20.7-16.8-30.4-14c-5.9,1.7-12.2,9-12.5,15.3
					c-0.3,6.8,8.6,10.3,13.9,11.9c6.8,2,15.6,2.7,22.1-0.8c6.8-3.7,7.8-10.4,6-17.4c-0.7-2.8-5.1-1.6-4.3,1.2
					c1.2,4.4,1.5,8.8-2.8,11.7c-3.3,2.2-7.6,2.4-11.4,2.2c-3.9-0.2-7.6-1.1-11.1-2.6c-1.6-0.7-3.3-1.4-4.8-2.4
					c-2.9-2-3.2-3.2-1.8-6.6c3.8-9.1,12.4-9.7,20.9-8.3c3.9,0.7,8.3,1.9,10.7,5.4c3.5,5.2-0.9,10.4-6.1,11.7
					c-4.1,1-8.7,0.4-12.8-0.6c-4.2-1.1-12.3-3.8-9.3-9.5c3.8-7.2,15.9-8.4,21.8-3.1c3.4,3,0.6,7.2-2.9,8.3c-2.2,0.7-5,0.6-7.3,0.2
					c-1.8-0.3-4.2-0.9-5.7-2.1c-2.7-2-2.6-4.9,0.3-6.6c2.4-1.4,6.1-1.4,8.6-0.2c2.2,0.5,3.1,2.2,2.9,5.3c-1,0.2-1.9,0.3-2.9,0.3
					c-1.6,0.1-4.3,0.6-5.8-0.1c-2.1,0.2-2.3-1-0.5-3.6c5-0.2,5.6-0.1,1.6,0.3c-0.2,0.8-0.4,1.7-0.7,2.5c0.9,0,1.8,0,2.7,0
					C709.1,314.8,710,311.7,708,311.1L708,311.1z"/>
			</g>
		</g>
		<g>
			<g>
				<path class="st1" d="M506.2,311.1c-1.6-0.5-2.8-0.5-4.4,0.1c-1,0.3-1.6,1.8-0.7,2.5c2.5,1.9,8.6,4,9.7-0.7c1.2-4.9-7-5.3-10-4.5
					c-3.5,1-7.1,4.9-3.3,8c2,1.6,5.3,1.6,7.7,1.8c2.8,0.2,6.2,0.6,8.6-1.1c4.5-3.1,1.5-8.2-2.4-10c-4.7-2.2-11.7-2.7-15.8,1.1
					c-3.3,3.1-3.6,7.5,0.1,10.2c5,3.7,13.3,5.2,19.1,2.6c4.4-2,7.2-7.1,4.7-11.6c-2.9-5.3-10.8-7-16.4-6.6
					c-10.6,0.8-22.1,14.8-9,21.2c9.2,4.5,32.2,7.5,32.6-8.4c0.3-13.5-20.7-16.8-30.4-14c-5.9,1.7-12.2,9-12.5,15.3
					c-0.3,6.8,8.6,10.3,13.9,11.9c6.8,2,15.6,2.7,22.1-0.8c6.8-3.7,7.8-10.4,6-17.4c-0.7-2.8-5.1-1.6-4.3,1.2
					c1.2,4.4,1.5,8.8-2.8,11.7c-3.3,2.2-7.6,2.4-11.4,2.2c-3.9-0.2-7.6-1.1-11.1-2.6c-1.6-0.7-3.3-1.4-4.8-2.4
					c-2.9-2-3.2-3.2-1.8-6.6c3.8-9.1,12.4-9.7,20.9-8.3c3.9,0.7,8.3,1.9,10.7,5.4c3.5,5.2-0.9,10.4-6.1,11.7
					c-4.1,1-8.7,0.4-12.8-0.6c-4.2-1.1-12.3-3.8-9.3-9.5c3.8-7.2,15.9-8.4,21.8-3.1c3.4,3,0.6,7.2-2.9,8.3c-2.2,0.7-5,0.6-7.3,0.2
					c-1.8-0.3-4.2-0.9-5.7-2.1c-2.7-2-2.6-4.9,0.3-6.6c2.4-1.4,6.1-1.4,8.6-0.2c2.2,0.5,3.1,2.2,2.9,5.3c-1,0.2-1.9,0.3-2.9,0.3
					c-1.6,0.1-4.3,0.6-5.8-0.1c-2.1,0.2-2.3-1-0.5-3.6c5-0.2,5.6-0.1,1.6,0.3c-0.2,0.8-0.4,1.7-0.7,2.5c0.9,0,1.8,0,2.7,0
					C507.2,314.8,508.1,311.7,506.2,311.1L506.2,311.1z"/>
			</g>
		</g>
		<g>
			<g>
				<path class="st1" d="M484.9,296.1c60.7-2.9,121.7-2.3,182.5-0.9c19,0.4,38.1,0.5,57.1,2.1c0.5,0,2.3,0.1,1.9,0.2
					c1.2-0.2,0.7,0.8-0.2-0.6c0.5,0.7,2.3,3.5,3.1,4.9c6,9.4,11.8,18.9,17.8,28.2c18.3,28.4,37,57.1,59.5,82.4c1-1.7,1.9-3.3,2.9-5
					c-15.3-2.1-30.9-2.5-46.3-3.3c-28.7-1.4-57.4-2.5-86.1-3.3c-64.6-2-129.3-3.2-194-1.8c-21.1,0.5-43.5-0.1-64.3,4.5
					c1,1.8,2.1,3.6,3.1,5.4c8.5-10.9,15.1-23.5,22.1-35.4c10.4-17.9,20.5-35.9,30.6-54c4.4-7.8,8.6-15.7,12.9-23.5
					c2.2-4-3.9-7.6-6.2-3.6c-11.2,20.4-22.5,40.8-33.9,61.1c-6,10.6-11.9,21.2-18.1,31.7c-3.7,6.4-7.4,13.3-12,19.1
					c-2,2.5-0.2,6.1,3.1,5.4c17.5-3.7,36.5-3.3,54.4-3.8c29.7-0.8,59.5-0.7,89.2-0.4c63.2,0.6,126.4,2.3,189.5,4.7
					c18.2,0.7,36.8,0.8,55,2.9c2.7,0.3,3.7-3.4,2.1-5.1c-21-22.7-38.1-49.4-55.1-75.2c-6.7-10.2-13.4-20.5-20-30.8
					c-1.8-2.9-4.1-8.7-7.7-9.7c-4.8-1.4-10.9-0.9-15.9-1.1c-10.7-0.5-21.4-0.8-32-1c-30.7-0.8-61.4-1.1-92.2-1.2
					c-34.3,0-68.8,0-103,2.3C481.9,291.7,481.9,296.2,484.9,296.1L484.9,296.1z"/>
			</g>
		</g>
		<ellipse class="st2" cx="516.7" cy="365.3" rx="47.6" ry="29.5"/>
		<ellipse class="st2" cx="697" cy="365.3" rx="47.6" ry="29.5"/>
		<ellipse class="st2" cx="506.8" cy="316.3" rx="25.1" ry="15.7"/>
		<ellipse class="st2" cx="707.4" cy="315.8" rx="25.1" ry="15.7"/>
		<g>
			<g>
				<path class="st1" d="M577.1,352.7c0-1.8-2.3-1.9-3.5-1.3c-1.4,0.7-1.9,2.3-1.6,3.8c0-0.3,0.1-0.6,0.1-0.8
					c-0.9,1.2,0.7,2.8,1.7,3.2c1.3,0.6,2.9,0.4,4-0.5c1.2-0.9,1.9-2.6,1.6-4.1c-0.3-1.5-1.9-2.8-3.5-2.3c-1.9,0.7-1.1,3.4,0.8,3
					c-0.5-0.3-0.7-0.3-0.6-0.1c0,0.1,0,0.2,0.1,0.2c-0.1,0.2,0,0.3-0.1,0.5c-0.1,0.4-0.4,0.6-0.8,0.7c-1,0.3-1.2-1-2.1-1.2
					c0.3,0.3,0.5,0.5,0.8,0.8c-0.2-0.6-0.2-1.2,0.5-1.3c0.6-0.1,1.2,0.2,1.7,0.1C576.8,353.4,577.1,353.1,577.1,352.7L577.1,352.7z"
					/>
			</g>
		</g>
		<g>
			<g>
				<path class="st1" d="M635.4,350c0-1.8-2.3-1.9-3.5-1.3c-1.4,0.7-1.9,2.3-1.6,3.8c0-0.3,0.1-0.6,0.1-0.8
					c-0.9,1.2,0.7,2.8,1.7,3.2c1.3,0.6,2.9,0.4,4-0.5c1.2-0.9,1.9-2.6,1.6-4.1c-0.3-1.5-1.9-2.8-3.5-2.3c-1.9,0.7-1.1,3.4,0.8,3
					c-0.5-0.3-0.7-0.3-0.6-0.1c0,0.1,0,0.2,0.1,0.2c-0.1,0.2,0,0.3-0.1,0.5c-0.1,0.4-0.4,0.6-0.8,0.7c-1,0.3-1.2-1-2.1-1.2
					c0.3,0.3,0.5,0.5,0.8,0.8c-0.2-0.6-0.2-1.2,0.5-1.3c0.6-0.1,1.2,0.2,1.7,0.1C635.1,350.7,635.4,350.4,635.4,350L635.4,350z"/>
			</g>
		</g>
		<g>
			<g>
				<path class="st1" d="M575.8,370.8c-1-2.2-4.3-0.7-5.3,0.7c-1.2,1.7-1,4.3,0.6,5.7c1.8,1.5,4.3,1.4,5.9-0.3
					c1.4-1.5,1.8-4.3,0.8-6.1c-0.5-0.9-1.6-1.3-2.6-1.1c-0.9,0.2-1.8,1.2-1.7,2.2c0,0.4,0.1,0.7,0.2,1c0,0.1,0.1,0.7,0.1,0.2
					c0,0.2,0,0.4,0,0.6c0-0.3,0,0-0.1,0.1c0,0.2,0,0.1,0-0.1c0,0.1-0.1,0.2-0.2,0.3c-0.2,0.1,0.1-0.1,0.1-0.1
					c-0.3,0.2-0.2,0.1,0,0.1c-0.2,0.1-0.3,0-0.2,0c-0.3-0.2-0.4-0.5-0.2-0.8c0.1-0.2,0.4-0.2,0.5-0.3c0.7-0.2,1.1-0.1,1.6-0.7
					C576,372,576,371.4,575.8,370.8L575.8,370.8z"/>
			</g>
		</g>
		<g>
			<g>
				<path class="st1" d="M637.7,369.9c-1-2.2-4.3-0.7-5.3,0.7c-1.2,1.7-1,4.3,0.6,5.7c1.8,1.5,4.3,1.4,5.9-0.3
					c1.4-1.5,1.8-4.3,0.8-6.1c-0.5-0.9-1.6-1.3-2.6-1.1c-0.9,0.2-1.8,1.2-1.7,2.2c0,0.4,0.1,0.7,0.2,1c0,0.1,0.1,0.7,0.1,0.2
					c0,0.2,0,0.4,0,0.6c0-0.3,0,0-0.1,0.1c0,0.2,0,0.1,0-0.1c0,0.1-0.1,0.2-0.2,0.3c-0.2,0.1,0.1-0.1,0.1-0.1
					c-0.3,0.2-0.2,0.1,0,0.1c-0.2,0.1-0.3,0-0.2,0c-0.3-0.2-0.4-0.5-0.2-0.8c0.1-0.2,0.4-0.2,0.5-0.3c0.7-0.2,1.1-0.1,1.6-0.7
					C637.9,371.1,638,370.5,637.7,369.9L637.7,369.9z"/>
			</g>
		</g>
		<g>
			<g>
				<path class="st1" d="M573.9,375.7c-1.5,2.8-1.5,5.3-1.4,8.5c0,1.3,1.1,2.5,2.5,2.5c10.3-0.4,20.7,0.4,31,0.3
					c10.3,0,20.7,0.4,31-0.5c1.6-0.1,3.2-1.3,3.1-3.1c-0.2-3.6-1.2-6.7-1.6-10.3c-0.1-0.6-0.9-0.8-1.1-0.1c-1,3.4-2.6,6.1-3.4,9.6
					c1-0.8,2-1.5,3-2.3c-10.3-0.6-20.7,0.1-31,0.3c-10.3,0.2-20.7,1.3-31,1.2c0.8,0.8,1.6,1.6,2.5,2.5c-0.2-2.8,0-5.5-0.8-8.2
					C576.2,374.9,574.5,374.6,573.9,375.7L573.9,375.7z"/>
			</g>
		</g>
		<g>
			<g>
				<path class="st1" d="M577.4,344.8c4.5,0,4.5-7,0-7C572.9,337.8,572.8,344.8,577.4,344.8L577.4,344.8z"/>
			</g>
		</g>
		<g>
			<g>
				<path class="st1" d="M635.9,342.2c4.1,0,4.1-6.4,0-6.4C631.7,335.7,631.7,342.2,635.9,342.2L635.9,342.2z"/>
			</g>
		</g>
		<g>
			<g>
				<path class="st1" d="M588.5,329.6c-0.5,0.7-0.7,1.4-1,2.2c-0.3,0.8-0.6,1.6-0.7,2.5c-0.1,1.2,1.2,1.9,2.2,1.7
					c0.6-0.1,1.2-0.3,1.8-0.6c0.4-0.1,1.3-0.8,1.7-0.7c0.5,0.1,0.9-0.2,0.9-0.7c0-1.1-0.3-2.2-0.1-3.3c0-0.2-0.2-0.5-0.4-0.6
					c-0.9-0.2-2-0.3-2.9,0.1c-0.3,0.1-0.5,0.7-0.1,0.8c0.9,0.4,2,0.4,3,0.2c-0.3-0.2-0.5-0.4-0.8-0.6c0.1,1.1-0.1,2.2-0.1,3.3
					c0.1-0.2,0.2-0.4,0.4-0.6c-0.4,0.2-1.3-0.1-1.7-0.2c-0.5-0.2-1.1-0.3-1.6-0.5c0.3,0.9,0.7,1.7,1,2.6c0.4-0.8,0.5-1.6,0.6-2.5
					c0.1-0.8,0.3-1.6,0.2-2.5C590.8,329,589.3,328.5,588.5,329.6L588.5,329.6z"/>
			</g>
		</g>
		<g>
			<g>
				<path class="st1" d="M596.6,329.6c-0.5,0.7-0.7,1.4-1,2.2c-0.3,0.8-0.6,1.6-0.7,2.5c-0.1,1.2,1.2,1.9,2.2,1.7
					c0.6-0.1,1.2-0.3,1.8-0.6c0.4-0.1,1.3-0.8,1.7-0.7c0.5,0.1,0.9-0.2,0.9-0.7c0-1.1-0.3-2.2-0.1-3.3c0-0.2-0.2-0.5-0.4-0.6
					c-0.9-0.2-2-0.3-2.9,0.1c-0.3,0.1-0.5,0.7-0.1,0.8c0.9,0.4,2,0.4,3,0.2c-0.3-0.2-0.5-0.4-0.8-0.6c0.1,1.1-0.1,2.2-0.1,3.3
					c0.1-0.2,0.2-0.4,0.4-0.6c-0.4,0.2-1.3-0.1-1.7-0.2c-0.5-0.2-1.1-0.3-1.6-0.5c0.3,0.9,0.7,1.7,1,2.6c0.4-0.8,0.5-1.6,0.6-2.5
					c0.1-0.8,0.3-1.6,0.2-2.5C598.8,329,597.4,328.5,596.6,329.6L596.6,329.6z"/>
			</g>
		</g>
		<g>
			<g>
				<path class="st1" d="M603.8,329.6c-0.5,0.7-0.7,1.4-1,2.2c-0.3,0.8-0.6,1.6-0.7,2.5c-0.1,1.2,1.2,1.9,2.2,1.7
					c0.6-0.1,1.2-0.3,1.8-0.6c0.4-0.1,1.3-0.8,1.7-0.7c0.5,0.1,0.9-0.2,0.9-0.7c0-1.1-0.3-2.2-0.1-3.3c0-0.2-0.2-0.5-0.4-0.6
					c-0.9-0.2-2-0.3-2.9,0.1c-0.3,0.1-0.5,0.7-0.1,0.8c0.9,0.4,2,0.4,3,0.2c-0.3-0.2-0.5-0.4-0.8-0.6c0.1,1.1-0.1,2.2-0.1,3.3
					c0.1-0.2,0.2-0.4,0.4-0.6c-0.4,0.2-1.3-0.1-1.7-0.2c-0.5-0.2-1.1-0.3-1.6-0.5c0.3,0.9,0.7,1.7,1,2.6c0.4-0.8,0.5-1.6,0.6-2.5
					c0.1-0.8,0.3-1.6,0.2-2.5C606,329,604.6,328.5,603.8,329.6L603.8,329.6z"/>
			</g>
		</g>
		<g>
			<g>
				<path class="st1" d="M611,329.6c-0.5,0.7-0.7,1.4-1,2.2c-0.3,0.8-0.6,1.6-0.7,2.5c-0.1,1.2,1.2,1.9,2.2,1.7
					c0.6-0.1,1.2-0.3,1.8-0.6c0.4-0.1,1.3-0.8,1.7-0.7c0.5,0.1,0.9-0.2,0.9-0.7c0-1.1-0.3-2.2-0.1-3.3c0-0.2-0.2-0.5-0.4-0.6
					c-0.9-0.2-2-0.3-2.9,0.1c-0.3,0.1-0.5,0.7-0.1,0.8c0.9,0.4,2,0.4,3,0.2c-0.3-0.2-0.5-0.4-0.8-0.6c0.1,1.1-0.1,2.2-0.1,3.3
					c0.1-0.2,0.2-0.4,0.4-0.6c-0.4,0.2-1.3-0.1-1.7-0.2c-0.5-0.2-1.1-0.3-1.6-0.5c0.3,0.9,0.7,1.7,1,2.6c0.4-0.8,0.5-1.6,0.6-2.5
					c0.1-0.8,0.3-1.6,0.2-2.5C613.2,329,611.7,328.5,611,329.6L611,329.6z"/>
			</g>
		</g>
		<g>
			<g>
				<path class="st1" d="M617.2,329.6c-0.5,0.7-0.7,1.4-1,2.2c-0.3,0.8-0.6,1.6-0.7,2.5c-0.1,1.2,1.2,1.9,2.2,1.7
					c0.6-0.1,1.2-0.3,1.8-0.6c0.4-0.1,1.3-0.8,1.7-0.7c0.5,0.1,0.9-0.2,0.9-0.7c0-1.1-0.3-2.2-0.1-3.3c0-0.2-0.2-0.5-0.4-0.6
					c-0.9-0.2-2-0.3-2.9,0.1c-0.3,0.1-0.5,0.7-0.1,0.8c0.9,0.4,2,0.4,3,0.2c-0.3-0.2-0.5-0.4-0.8-0.6c0.1,1.1-0.1,2.2-0.1,3.3
					c0.1-0.2,0.2-0.4,0.4-0.6c-0.4,0.2-1.3-0.1-1.7-0.2c-0.5-0.2-1.1-0.3-1.6-0.5c0.3,0.9,0.7,1.7,1,2.6c0.4-0.8,0.5-1.6,0.6-2.5
					c0.1-0.8,0.3-1.6,0.2-2.5C619.5,329,618,328.5,617.2,329.6L617.2,329.6z"/>
			</g>
		</g>
		<g>
			<g>
				<path class="st1" d="M623.5,329.6c-0.5,0.7-0.7,1.4-1,2.2c-0.3,0.8-0.6,1.6-0.7,2.5c-0.1,1.2,1.2,1.9,2.2,1.7
					c0.6-0.1,1.2-0.3,1.8-0.6c0.4-0.1,1.3-0.8,1.7-0.7c0.5,0.1,0.9-0.2,0.9-0.7c0-1.1-0.3-2.2-0.1-3.3c0-0.2-0.2-0.5-0.4-0.6
					c-0.9-0.2-2-0.3-2.9,0.1c-0.3,0.1-0.5,0.7-0.1,0.8c0.9,0.4,2,0.4,3,0.2c-0.3-0.2-0.5-0.4-0.8-0.6c0.1,1.1-0.1,2.2-0.1,3.3
					c0.1-0.2,0.2-0.4,0.4-0.6c-0.4,0.2-1.3-0.1-1.7-0.2c-0.5-0.2-1.1-0.3-1.6-0.5c0.3,0.9,0.7,1.7,1,2.6c0.4-0.8,0.5-1.6,0.6-2.5
					c0.1-0.8,0.3-1.6,0.2-2.5C625.8,329,624.3,328.5,623.5,329.6L623.5,329.6z"/>
			</g>
		</g>
		<g>
			<g>
				<path class="st1" d="M581.6,317.7c-1.1,2.1-3,5.7-0.9,7.6c3,2.7,11,1.6,14.7,1.8c13.5,0.5,26.9,0.9,40.4,0.6
					c1.5,0,2.5-1.4,2.2-2.9c-0.5-2.4-1.4-4.7-1.7-7.1c-0.3-2.2-4-1.4-3.5,1c0.5,2.2,0.5,5,0.8,7.3c0.7-1,1.5-1.9,2.2-2.9
					c-10.2-0.6-20.4-0.9-30.6-1.1c-4.9-0.1-9.9-0.2-14.8-0.1c-1,0-5.8,0.8-6.5,0.3c-0.8-0.6-0.3-2.8-0.3-3.9
					C583.6,317.2,582.1,316.7,581.6,317.7L581.6,317.7z"/>
			</g>
		</g>
		<g>
			<g>
				<path class="st1" d="M582.2,320.8c8.6,1.2,17.2,1.5,25.8,1.4c8.5-0.1,17.5,0.1,25.8-1.8c2.5-0.6,1.8-4.1-0.6-4.3
					c-8.4-0.4-16.8,0.7-25.2,0.7c-8.4,0-16.8-0.3-25.2-0.3C580.5,316.5,579.8,320.4,582.2,320.8L582.2,320.8z"/>
			</g>
		</g>
		<g>
			<g>
				<path class="st1" d="M588.6,319.7c-0.2,0.9-0.4,1.8-0.5,2.7c-0.1,1-0.4,2-0.1,2.9c0.3,1.2,2.4,1.7,2.9,0.4
					c0.7-1.7,0.3-3.9,0.2-5.7C591,318.7,589,318.2,588.6,319.7L588.6,319.7z"/>
			</g>
		</g>
		<g>
			<g>
				<path class="st1" d="M594.5,320.5c-0.3,0.8-0.5,1.6-0.7,2.4c-0.2,1.2,0.4,2.3,1.6,2.5c1.1,0.1,2.3-0.7,2.2-1.9
					c-0.1-1.1-0.4-2.3-1-3.2C596.2,319.2,594.9,319.5,594.5,320.5L594.5,320.5z"/>
			</g>
		</g>
		<g>
			<g>
				<path class="st1" d="M601.3,319.6c-0.5,1-0.9,2.3-0.8,3.5c0.1,1.1,0.9,2,2,2c1.2,0,1.9-0.9,2-2c0.1-1.2-0.3-2.5-0.8-3.5
					C603.2,318.7,601.8,318.7,601.3,319.6L601.3,319.6z"/>
			</g>
		</g>
		<g>
			<g>
				<path class="st1" d="M607.7,319.9c-0.5,1.2-1.1,2.5-1.7,3.7c-0.6,1.1-0.1,2.6,1.2,2.9c1.2,0.3,2.6-0.6,2.5-1.9
					c-0.1-1.7-0.3-3.2-0.9-4.7C608.5,319.4,607.9,319.4,607.7,319.9L607.7,319.9z"/>
			</g>
		</g>
		<g>
			<g>
				<path class="st1" d="M613.5,319.3c-0.7,1.4-1.3,3.2-1.2,4.8c0.1,1.2,0.9,2.1,2.1,2.1c1.2,0,2.2-1,2.1-2.1c0-1.6-0.8-3.4-1.6-4.8
					C614.7,318.8,613.8,318.7,613.5,319.3L613.5,319.3z"/>
			</g>
		</g>
		<g>
			<g>
				<path class="st1" d="M620.2,319.4c0.3,2.3-2,5,0.2,7c1.3,1.2,3.6,0.1,3.1-1.8c-0.2-0.6-0.5-1.1-0.6-1.6
					c-0.2-0.6-0.3-1.2-0.5-1.8c-0.3-1-0.8-1.8-1.9-2.1C620.3,319,620.1,319.2,620.2,319.4L620.2,319.4z"/>
			</g>
		</g>
		<g>
			<g>
				<path class="st1" d="M626,320c-0.2,1.6-0.2,3.1-0.4,4.7c-0.2,1.4,0.4,2.8,2,3c1.4,0.2,2.7-0.9,2.7-2.4c0-2-0.6-4.4-1.9-6
					C627.8,318.5,626.2,318.9,626,320L626,320z"/>
			</g>
		</g>
		<g>
			<g>
				<path class="st1" d="M574.6,307c11.7,0.1,23.4-0.4,35.1-0.4c11,0,22.8,1.8,33.7,0.3c2.1-0.3,1.8-3.4,0-3.9
					c-10.5-2.8-22.9-1.8-33.7-1.9c-11.8,0-23.5,0.2-35.1,1.7C572,303.2,571.8,307,574.6,307L574.6,307z"/>
			</g>
		</g>
		<g>
			<g>
				<path class="st1" d="M591.6,299.2c-0.1,0.6-0.4,1.3-0.1,1.9c0.1,0.3,0.7,0.3,0.8,0c0.3-0.6,0-1.3-0.1-1.9
					C592.1,299,591.6,299,591.6,299.2L591.6,299.2z"/>
			</g>
		</g>
		<g>
			<g>
				<path class="st1" d="M595.9,298.7c-0.7,0.8-0.9,1.7-0.2,2.5c0.5,0.6,1.7,0.1,1.7-0.7c0-0.3-0.1-0.7-0.2-1
					c-0.1-0.2-0.2-0.4-0.3-0.6C596.8,298.5,596.2,298.3,595.9,298.7L595.9,298.7z"/>
			</g>
		</g>
		<g>
			<g>
				<path class="st1" d="M601.3,299.3c0,0.2,0,0.3,0,0.5c0,0.2,0.3,0.2,0.3,0c0-0.2,0-0.3,0-0.5
					C601.6,299.1,601.3,299.1,601.3,299.3L601.3,299.3z"/>
			</g>
		</g>
		<g>
			<g>
				<path class="st1" d="M591.3,311.4c0.7-0.3,0.9-1,1-1.6c0.2-0.9,0.2-1.5-0.4-2.2c-0.4-0.5-1.3-0.6-1.8-0.2c-0.8,0.5-0.9,1.1-1,2
					c-0.1,0.7,0,1.4,0.5,1.9C590.1,311.6,590.7,311.6,591.3,311.4L591.3,311.4z"/>
			</g>
		</g>
		<g>
			<g>
				<path class="st1" d="M596,310.6c0.3-1.1,1.4-2.8,0.6-3.9c-0.3-0.4-0.7-0.6-1.2-0.3c-0.8,0.4-1,1.4-1,2.2c0,0.7,0.4,1.5,0.7,2.2
					C595.3,311.1,595.9,311,596,310.6L596,310.6z"/>
			</g>
		</g>
		<g>
			<g>
				<path class="st1" d="M600.1,311.5c0.2-0.5,0.6-0.9,0.8-1.4c0.2-0.6,0.4-1.2,0.4-1.8c-0.1-0.8-1-1.7-1.9-1.1
					c-0.8,0.6-1.2,1.4-1.1,2.4c0,0.8,0.5,1.4,1,2C599.5,311.8,600,311.8,600.1,311.5L600.1,311.5z"/>
			</g>
		</g>
		<g>
			<g>
				<path class="st1" d="M604.4,311.4c0.2-0.4,0.4-0.8,0.6-1.1c0.2-0.4,0.2-0.8,0.3-1.3c0.1-0.6-0.7-1-1-0.4
					c-0.2,0.4-0.4,0.8-0.5,1.2c-0.1,0.4-0.1,0.9-0.2,1.3C603.6,311.6,604.1,311.9,604.4,311.4L604.4,311.4z"/>
			</g>
		</g>
		<g>
			<g>
				<path class="st1" d="M601.2,299c-0.7,0.8-1.1,1.9-0.4,2.9c0.4,0.5,1,0.8,1.7,0.5c0.7-0.3,0.9-0.9,0.8-1.6
					c-0.1-0.6-0.5-1-0.7-1.5C602.3,298.9,601.6,298.5,601.2,299L601.2,299z"/>
			</g>
		</g>
		<g>
			<g>
				<path class="st1" d="M626.8,309.6c-0.1-0.8,0.2-2.7-1.1-2.7c-1.5,0-1.6,2.1-1.5,3.1c0.1,0.8,0.6,1.4,1.5,1.3
					C626.5,311.1,626.9,310.4,626.8,309.6L626.8,309.6z"/>
			</g>
		</g>
		<g>
			<g>
				<path class="st1" d="M633.8,309.3c0.5-0.9,0.5-2,0.2-2.9c-0.5-1.5-2.6-1.5-3,0c-0.3,0.9-0.3,2,0.2,2.9
					C631.8,310.2,633.2,310.2,633.8,309.3L633.8,309.3z"/>
			</g>
		</g>
		<g>
			<g>
				<path class="st1" d="M630.5,310.2c0.1-0.5,0.2-0.8,0-1.3c-0.1-0.3-0.4-0.6-0.8-0.6c-0.3,0-0.6,0.2-0.7,0.5
					c-0.2,0.5-0.2,0.8-0.1,1.3C629,310.9,630.3,310.9,630.5,310.2L630.5,310.2z"/>
			</g>
		</g>
		<g>
			<g>
				<path class="st1" d="M639,310.8c0.3-0.4,0.3-0.9,0.3-1.2c0-0.5,0.1-0.9-0.2-1.4c-0.3-0.5-0.9-0.7-1.4-0.6
					c-1.5,0.4-1.8,3-0.4,3.6C638,311.5,638.6,311.3,639,310.8L639,310.8z"/>
			</g>
		</g>
		<g>
			<g>
				<path class="st1" d="M644.6,311.4c0.5-0.4,0.8-0.7,1-1.3c0.2-0.5,0.2-1,0.2-1.5c-0.1-0.7-0.5-1.3-1.3-1.4
					c-0.8-0.1-1.3,0.3-1.6,1c-0.2,0.5-0.3,1-0.2,1.5c0.1,0.6,0.3,1,0.7,1.5C643.6,311.5,644.3,311.6,644.6,311.4L644.6,311.4z"/>
			</g>
		</g>
		<g>
			<g>
				<path class="st1" d="M630.4,299.7c0.1,0.5,0.2,1.1,0.3,1.6c0.1,0.6,0.1,0.9,0.7,1.2c0.2,0.1,0.5,0,0.6-0.2
					c0.4-0.5,0.3-0.9,0.1-1.4c-0.2-0.5-0.4-1-0.5-1.5C631.3,298.7,630.3,299,630.4,299.7L630.4,299.7z"/>
			</g>
		</g>
		<g>
			<g>
				<path class="st1" d="M638,299.3c0.1,1,0.1,2.1,0.8,2.8c0.5,0.5,1.2,0.1,1.2-0.5c0.1-1-0.6-1.8-1.1-2.6
					C638.7,298.7,638,298.8,638,299.3L638,299.3z"/>
			</g>
		</g>
		<g>
			<g>
				<path class="st1" d="M636.1,299.1c-0.5,0.8-0.8,1.7-0.3,2.5c0.5,0.7,1.7,0.5,1.6-0.4c0-0.4-0.1-0.7-0.3-1.1
					c-0.1-0.3-0.3-0.6-0.4-0.9C636.6,298.9,636.3,298.9,636.1,299.1L636.1,299.1z"/>
			</g>
		</g>
		<g>
			<g>
				<path class="st1" d="M626.4,298.8c-0.4,0.6-0.4,1.2-0.3,1.9c0,0.3,0.1,0.6,0.1,1c0.1,0.5,0.2,0.8,0.6,1.2c0.7,0.9,2,0.3,2.3-0.6
					c0.3-0.7,0-1.4-0.2-2.1c-0.2-0.7-0.3-1.2-0.9-1.7C627.5,298.2,626.8,298.2,626.4,298.8L626.4,298.8z"/>
			</g>
		</g>
		<g>
			<g>
				<path class="st1" d="M642.1,300.1c0,0.4-0.1,0.8-0.1,1.2c0,0.5,0,0.9,0.3,1.4c0.4,0.8,1.7,0.6,1.9-0.2c0.1-0.5,0.1-0.9-0.1-1.4
					c-0.1-0.4-0.3-0.8-0.4-1.2C643.3,299,642.2,299.2,642.1,300.1L642.1,300.1z"/>
			</g>
		</g>
		<g>
			<g>
				<path class="st1" d="M587.5,297.7c-0.6,1.5-1.2,2.8-1.4,4.4c-0.1,0.9,0.9,1.7,1.7,1.7c0.9,0,1.7-0.8,1.7-1.7
					c0-1.5-0.4-2.8-0.8-4.2C588.5,297.4,587.7,297.2,587.5,297.7L587.5,297.7z"/>
			</g>
		</g>
		<g>
			<g>
				<path class="st1" d="M583.2,298.7c-0.2,0.6-0.2,1.3-0.1,1.9c0.1,0.6,1,1,1.3,0.3c0.2-0.4,0.4-0.9,0.3-1.4
					c-0.1-0.4-0.2-0.8-0.5-1.1C583.8,298.2,583.4,298.3,583.2,298.7L583.2,298.7z"/>
			</g>
		</g>
		<g>
			<g>
				<path class="st1" d="M586.4,310.8c0.1-0.3,0.3-0.6,0.3-1c0-0.4-0.2-0.7-0.2-1c-0.1-0.6,0-1.1-0.2-1.6c-0.1-0.4-0.5-0.6-0.9-0.4
					c-0.7,0.4-0.9,1.1-1,1.8c-0.2,0.9-0.3,1.8,0.5,2.4C585.2,311.4,586.1,311.5,586.4,310.8L586.4,310.8z"/>
			</g>
		</g>
		<g>
			<g>
				<path class="st1" d="M583.1,310.3c0.5-0.9,0.3-2.4-0.6-3c-0.3-0.2-0.7-0.2-1,0c-0.9,0.6-1.1,2.1-0.6,3
					C581.4,311.1,582.7,311.1,583.1,310.3L583.1,310.3z"/>
			</g>
		</g>
		<g>
			<g>
				<path class="st1" d="M553.3,268.2c19.2,2.8,39.4,1.6,58.8,1.7c20.2,0.1,40.3,0.3,60.5,0.1c3.3,0,3.3-5.2,0-5.2
					c-19.8,0-39.6,0.3-59.5,0.4c-9.9,0-19.8,0-29.7-0.1c-9.9,0-19.9-0.5-29.7,0.6C552.3,265.8,551.7,267.9,553.3,268.2L553.3,268.2z
					"/>
			</g>
		</g>
		<g>
			<g>
				<path class="st1" d="M554.3,266.2c3.7-1.9,6.6-4.7,9.3-7.9c2.2-2.6-1.9-5.7-3.7-2.8c-2,3.2-4.5,6.1-6.9,9
					C552.2,265.5,553.2,266.8,554.3,266.2L554.3,266.2z"/>
			</g>
		</g>
		<g>
			<g>
				<path class="st1" d="M673.4,265.1c-0.6-1.6-1.3-3.2-2.1-4.7c-0.4-0.8-0.9-1.6-1.3-2.3c-0.4-0.7-1.2-1.5-1.3-2.4
					c-0.3-1.8-2.6-2.2-3.9-1.3c-1.3,1-1.3,3.3,0.2,4.1c1.1,0.5,2,2.6,2.7,3.6c0.9,1.4,1.8,2.8,2.8,4.2
					C671.5,267.7,674.1,266.9,673.4,265.1L673.4,265.1z"/>
			</g>
		</g>
		<g>
			<g>
				<path class="st1" d="M553.1,265.5c-4.4,3.5-7.7,8.9-11.7,13c-3.3,3.3-9.5,6.7-10.8,11.3c-0.4,1.4,0.7,3.1,2.3,3
					c5.4-0.3,10.1-6.8,13.3-10.6c3.5-4.3,8.1-9.8,9.2-15.3C555.7,265.5,554.1,264.7,553.1,265.5L553.1,265.5z"/>
			</g>
		</g>
		<g>
			<g>
				<path class="st1" d="M670.5,268.6c0.1,5.3,5.2,10.2,8.2,14.2c3.1,4.1,6.4,8.8,11,11.3c4,2.2,7.4-3.7,3.5-6.1
					c-4.4-2.7-7.6-7.7-11-11.4c-3-3.2-6.2-7.9-10.7-9C671.1,267.7,670.5,268.1,670.5,268.6L670.5,268.6z"/>
			</g>
		</g>
		<g>
			<g>
				<path class="st1" d="M416.9,407.6c-1.4,4.4-0.2,9.6,0.2,14.2c0.4,4.9,0.7,9.8,1.1,14.7c0.8,10.1,1.6,20.3,2.7,30.4
					c0.4,4.4,7.3,4.4,6.9,0c-1-10.5-2.2-20.9-3.4-31.4c-0.6-5.2-1.3-10.5-1.9-15.7c-0.5-4.2-0.4-8.9-2.4-12.6
					C419.3,405.9,417.3,406.3,416.9,407.6L416.9,407.6z"/>
			</g>
		</g>
		<g>
			<g>
				<path class="st1" d="M806.8,410.7c-1.9,9.1-3.7,18.7-4.6,28c-0.9,9.4,0.4,19.9-4,28.6c-2.3,4.6,4.8,7.7,6.5,2.8
					c3.3-9.4,3-18.9,3.7-28.7c0.7-10.1,3.9-20.5,2.3-30.7C810.4,408.7,807.2,408.8,806.8,410.7L806.8,410.7z"/>
			</g>
		</g>
		<g>
			<g>
				<path class="st1" d="M424.4,470.4c24.6,2.3,49.7,0.9,74.4,0c24.5-0.9,48.9-2.2,73.4-3.1c48.9-1.9,97.9-2,146.8,0.7
					c27.5,1.5,55,3.8,82.3,6.8c5.5,0.6,5.5-8,0-8.6c-48.6-5.2-97.4-8-146.2-8.3c-49.2-0.3-98.2,2.6-147.4,4.7
					c-27.7,1.2-55.6,0.9-83.3,2.6C421,465.4,421.1,470.1,424.4,470.4L424.4,470.4z"/>
			</g>
		</g>
		<g>
			<g>
				<path class="st1" d="M428.4,404.4c0.7,10.4,3.3,20.8,5.3,31c1,5.1,2,10.1,3.1,15.2c1,4.9,1.2,11.2,4,15.3c0.6,0.9,2.4,1,2.6-0.3
					c0.8-4.4-1-8.9-1.9-13.3c-1.2-5.4-2.3-10.7-3.4-16.1c-2.2-10.7-3.9-21.7-7.2-32.1C430.5,402.7,428.3,402.9,428.4,404.4
					L428.4,404.4z"/>
			</g>
		</g>
		<g>
			<g>
				<path class="st1" d="M435,403.4c0.4,5.1,2.5,10.1,4,15.1c1.7,5.5,3.4,11,5,16.6c3.2,11.1,6,22.3,8.7,33.5c0.8,3.2,5.8,1.9,5-1.4
					c-2.6-11.2-5.8-22.4-9.2-33.4c-1.6-5.2-3.3-10.4-5.2-15.5c-1.9-5.1-3.5-10.8-6.7-15.3C436.2,402.4,435,402.5,435,403.4
					L435,403.4z"/>
			</g>
		</g>
		<g>
			<g>
				<path class="st1" d="M447.3,403.9c0.2,10.3,4.1,21.3,6.5,31.4c1.2,5.2,2.4,10.3,3.6,15.5c1.2,5.1,1.9,11.2,4.6,15.7
					c0.9,1.6,3.3,0.9,3.4-0.9c0.2-5-1.9-10.3-3.2-15.1c-1.4-5.4-2.9-10.9-4.4-16.3c-2.7-10-4.4-21.4-9.2-30.6
					C448.3,403,447.3,403.3,447.3,403.9L447.3,403.9z"/>
			</g>
		</g>
		<g>
			<g>
				<path class="st1" d="M459,403c0.6,10.8,2.9,21.6,5.2,32.2c2.4,11,4.6,22.5,8.5,33.2c1.1,2.9,5.5,1.8,4.7-1.3
					c-2.6-10.8-6.4-21.3-9.3-32c-2.8-10.7-5-21.6-8.3-32.2C459.7,402.5,459,402.5,459,403L459,403z"/>
			</g>
		</g>
		<g>
			<g>
				<path class="st1" d="M470,403.9c-0.9,10.7,1.2,21.8,3.1,32.3c1,5.4,2,10.8,3.2,16.2c1,4.4,1,10.7,4.7,13.7
					c0.8,0.6,2.3,0.8,2.8-0.4c1.7-3.9-0.2-8-1.1-12.1c-1.3-5.7-2.5-11.4-3.7-17c-2.3-10.9-4-22.4-8.2-32.8
					C470.6,403.3,470,403.4,470,403.9L470,403.9z"/>
			</g>
		</g>
		<g>
			<g>
				<path class="st1" d="M424.5,405.7c-0.1,10.7,2.6,21.5,4.2,32c0.8,5.8,1.6,11.7,2.2,17.5c0.5,4.7,0,10.3,2.4,14.5
					c0.9,1.6,3.2,1.1,3.8-0.5c1.6-4.7-0.3-11.1-1-15.9c-0.7-5.3-1.5-10.7-2.4-16c-1.8-10.7-3.3-22.1-8-32
					C425.3,404.8,424.5,405.1,424.5,405.7L424.5,405.7z"/>
			</g>
		</g>
		<g>
			<g>
				<path class="st1" d="M480.5,405.3c1.7,10.5,3.9,20.6,6.8,30.9c1.4,4.9,2.8,9.8,4.3,14.7c1.5,4.6,2.5,9.9,5.2,13.9
					c0.9,1.3,3.2,0.9,3.1-0.8c-0.2-4.6-2.2-9-3.6-13.4c-1.6-5.2-3.3-10.3-4.9-15.5c-3.1-10.1-6.4-20-10.1-30
					C481.3,404.4,480.4,404.6,480.5,405.3L480.5,405.3z"/>
			</g>
		</g>
		<g>
			<g>
				<path class="st1" d="M509,464.6c1.4-3.8-0.7-8.3-1.7-12c-1.4-5.5-3.1-10.9-4.6-16.3c-3-10.3-6.9-21.1-7.7-31.9
					c-0.1-1.1-1.7-1.1-1.7,0c-0.2,11.2,1.8,21.3,5,32.1c1.6,5.4,3.1,10.8,4.9,16.2c1.3,3.9,2,9.5,5.5,12.1
					C508.8,464.8,508.9,464.7,509,464.6L509,464.6z"/>
			</g>
		</g>
		<g>
			<g>
				<path class="st1" d="M517.2,464.8c-1.7-10.4-5.1-20.7-7.5-31c-2.3-10.4-3.9-20.8-5.9-31.2c-0.4-1.9-3.4-1.5-3.4,0.5
					c0.4,10.8,2.2,21.5,4.5,32.1c2.2,10.3,4.9,21.3,9.9,30.7C515.6,467.1,517.5,466.1,517.2,464.8L517.2,464.8z"/>
			</g>
		</g>
		<g>
			<g>
				<path class="st1" d="M510.6,402.1c0.4,10.7,2.4,21.3,4.4,31.8c1,5.4,2,10.7,3.1,16.1c0.9,4.3,1,10.3,4.3,13.4
					c0.8,0.7,1.8,0.3,2.1-0.6c1.6-4.1-0.8-9.1-1.8-13.2c-1.2-5.3-2.4-10.6-3.6-15.9c-2.4-10.6-4.3-21.4-7.4-31.8
					C511.6,401.3,510.6,401.4,510.6,402.1L510.6,402.1z"/>
			</g>
		</g>
		<g>
			<g>
				<path class="st1" d="M521.9,404.2c-2.1,3.2,0.1,8.3,0.8,11.7c1.1,5.5,2.3,11,3.4,16.5c2.2,11,3.7,22.3,6.5,33.1
					c0.8,3.2,6.3,2.7,6-0.8c-1.1-11-3.8-22.2-6.5-33c-1.4-5.4-2.8-10.8-4.4-16.2c-1.1-3.6-1.7-9.6-5.4-11.4
					C522.1,404.1,522,404.2,521.9,404.2L521.9,404.2z"/>
			</g>
		</g>
		<g>
			<g>
				<path class="st1" d="M547.7,463.4c2-9.8-0.7-19.2-2.8-28.7c-2.5-11.1-4-22.3-5.5-33.6c-0.3-2.2-3.5-2.4-3.5,0
					c0,10.2,1.4,20.3,3.5,30.3c2.3,10.7,6,20.9,7,31.8C546.4,463.9,547.5,464.2,547.7,463.4L547.7,463.4z"/>
			</g>
		</g>
		<g>
			<g>
				<path class="st1" d="M547.1,402.6c-0.8,10.6,1.6,21.9,3,32.4c0.7,5.2,1.3,10.5,2,15.7c0.5,4,0,8.8,3,11.8
					c0.6,0.6,1.7,0.5,2.1-0.3c1.9-3.5,0.4-7.3-0.3-11.1c-0.9-5.5-1.8-11.1-2.7-16.6c-1.7-10.5-2.5-22-6.3-31.9
					C547.7,402.1,547.1,402.1,547.1,402.6L547.1,402.6z"/>
			</g>
		</g>
		<g>
			<g>
				<path class="st1" d="M563.6,462.7c0.7-19.7-1.9-40.2-4.1-59.7c-0.3-2.6-4.4-2.8-4.2,0c1.2,19.8,2.7,40.6,7.6,59.8
					C563,463.2,563.6,463.1,563.6,462.7L563.6,462.7z"/>
			</g>
		</g>
		<g>
			<g>
				<path class="st1" d="M575.1,462.4c-0.4-9.7-2.4-19-4.5-28.5c-1.1-5-2.1-9.9-2.7-15c-0.6-4.6,0.2-10.1-1.3-14.5
					c-0.3-0.9-1.6-1.2-2.1-0.3c-1.9,3.7-1.2,8.3-0.9,12.3c0.4,4.7,1.1,9.4,2,14c2.1,10.6,5.1,21.1,6.3,31.9
					C572.2,464.4,575.2,464.5,575.1,462.4L575.1,462.4z"/>
			</g>
		</g>
		<g>
			<g>
				<path class="st1" d="M575.7,403.7c-1.1,3.9,0.1,8.3,0.7,12.3c0.8,5.5,1.7,11,2.5,16.5c0.8,5.6,1.6,11.2,2.3,16.8
					c0.5,4-0.1,8.9,3,11.8c0.8,0.7,2,0.6,2.5-0.3c2.3-3.6,0.5-8.3,0-12.3c-0.8-5.5-1.6-11-2.6-16.4c-0.9-5.1-1.9-10.3-3-15.4
					c-0.9-4.4-1.5-9.7-4.4-13.3C576.5,403.1,575.9,403.3,575.7,403.7L575.7,403.7z"/>
			</g>
		</g>
		<g>
			<g>
				<path class="st1" d="M593.4,461.2c1.9-9.3,0.6-18.9-0.5-28.3c-0.6-5-1.4-10-1.9-15c-0.4-4.4,0-9.3-1.5-13.5
					c-0.4-1.2-2-1.2-2.4,0c-1.6,4.1-0.8,9.2-0.4,13.5c0.4,4.3,1,8.5,1.6,12.7c1.5,10.1,2.7,20.2,3.9,30.3
					C592.2,461.6,593.2,461.9,593.4,461.2L593.4,461.2z"/>
			</g>
		</g>
		<g>
			<g>
				<path class="st1" d="M597,404.3c-0.6,10.2,0.7,20.8,1.1,31c0.2,5.2,0.3,10.4,0.3,15.6c0,3.3-0.7,7.2,1.3,10.1
					c0.9,1.3,3.1,2,4.4,0.6c1.6-1.9,0.2-4.6,0.1-6.8c-0.3-5.8-0.4-11.7-0.8-17.5c-0.7-10.8-1.7-22.8-5.4-33.1
					C597.9,403.6,597.1,403.7,597,404.3L597,404.3z"/>
			</g>
		</g>
		<g>
			<g>
				<path class="st1" d="M613.8,459.9c1.5-9.6,0.6-19.3-0.2-28.8c-0.4-5.1-0.8-10.3-1.3-15.4c-0.4-4,0-8.9-2.4-12.3
					c-0.7-1.1-2.1-0.8-2.6,0.3c-1.7,4.1-0.1,9.6,0.4,13.9c0.5,4.5,1.1,9,1.7,13.5c1.2,9.5,2.3,18.9,2.3,28.6
					C611.8,460.7,613.6,461.1,613.8,459.9L613.8,459.9z"/>
			</g>
		</g>
		<g>
			<g>
				<path class="st1" d="M619.9,405c-1.8,8.4-0.4,18.2,0.1,26.8c0.5,9.1,1.2,18.1,2.7,27.1c0.5,2.9,5.4,2.2,5.2-0.7
					c-0.7-9.2-1.9-18.3-2.9-27.4c-0.9-8.3-0.7-17.8-3.3-25.8C621.4,404.2,620.1,404.1,619.9,405L619.9,405z"/>
			</g>
		</g>
		<g>
			<g>
				<path class="st1" d="M633.6,460.2c2.2-3.4,2.5-7.3,2.7-11.2c0.3-5.4,0.4-10.9,0.4-16.3c0.1-5.3,0.2-10.5,0.2-15.8
					c0-3-0.1-5.9-0.1-8.9c0-0.7,0-1.3,0-2c0.3-1.2-0.1-1.3-1-0.4c-2,0.4-0.9,0.7-0.4,0.7c2.2-0.1,2.9-2.8,1.1-4
					c-0.1-0.1-0.3-0.2-0.4-0.3c-1.1-0.7-2.5-0.1-3.1,0.8c-1.7,2.5-0.9,7.2-0.9,10.1c-0.2,5.6-0.2,11.2-0.2,16.8c0,10-0.3,20-0.1,30
					C631.6,460.8,633.1,461.1,633.6,460.2L633.6,460.2z"/>
			</g>
		</g>
		<g>
			<g>
				<path class="st1" d="M646.3,460.5c2.3-9,0.7-17.8,0.3-26.9c-0.5-10.1,1.1-20,2.6-30c0.5-3.2-4.3-4.7-5-1.4
					c-1.9,9-3.3,18.4-2.9,27.6c0.4,9.9,3.2,19.7,1.7,29.6C642.5,461.7,645.7,462.7,646.3,460.5L646.3,460.5z"/>
			</g>
		</g>
		<g>
			<g>
				<path class="st1" d="M656,461.7c5.7-6.2,4.9-17.9,4.5-25.7c-0.2-4.9-0.6-9.8-0.7-14.8c0-5.4,1.1-10.9,0.6-16.2
					c-0.2-2.1-2.9-3.1-4-1.1c-4.7,8-2.5,19.8-1.8,28.6c0.4,4.9,0.9,9.8,0.9,14.7c0.1,4.7-0.8,9.7-0.1,14.3
					C655.5,461.8,655.9,461.9,656,461.7L656,461.7z"/>
			</g>
		</g>
		<g>
			<g>
				<path class="st1" d="M668.6,405.5c-1.6,8.5,0,18.3,0.2,26.9c0.2,9.5-0.1,19.1-0.1,28.6c0,3.4,5.3,3.4,5.3,0
					c0.1-9.5-0.5-19.1-0.9-28.6c-0.4-8.5,0.3-18.7-2.5-26.9C670.4,404.5,668.8,404.3,668.6,405.5L668.6,405.5z"/>
			</g>
		</g>
		<g>
			<g>
				<path class="st1" d="M681.2,460.7c1.7-4.1,0.9-9.5,0.8-13.9c-0.1-4.6-0.3-9.1-0.4-13.7c-0.3-9.8-0.9-19.5-1.7-29.3
					c-0.2-2.1-3.3-2.1-3.3,0c0.2,10.1,0.4,20.2,0.8,30.2c0.2,4.9,0.3,9.8,0.6,14.6c0.2,4-0.2,8.5,1.6,12.2
					C679.9,461.7,680.9,461.4,681.2,460.7L681.2,460.7z"/>
			</g>
		</g>
		<g>
			<g>
				<path class="st1" d="M688.2,405.5c-1.5,9.5-0.8,19.5-1,29.1c-0.1,5-0.3,9.9-0.4,14.9c0,4.4-0.7,8.9,1.1,13
					c0.6,1.3,2.9,1.4,3.5,0c1.7-4.1,1-8.6,0.9-13c-0.1-5-0.4-9.9-0.7-14.9c-0.4-9.6,0.1-19.6-1.6-29.1
					C689.9,404.6,688.4,404.6,688.2,405.5L688.2,405.5z"/>
			</g>
		</g>
		<g>
			<g>
				<path class="st1" d="M699.2,406.2c-1.1,9.5-0.3,19.3-0.2,28.9c0.1,4.5,0.1,9,0.3,13.5c0.1,4-0.3,8.8,0.7,12.7
					c0.4,1.6,2.4,2.4,3.8,1.6c2.1-1.3,1.2-4.6,1.1-6.6c-0.2-5.8-0.5-11.6-0.9-17.3c-0.7-10.9-0.7-22.2-2.8-33
					C700.9,404.7,699.3,405.2,699.2,406.2L699.2,406.2z"/>
			</g>
		</g>
		<g>
			<g>
				<path class="st1" d="M708.8,406.4c-2.1,8.7-0.5,18.9-0.1,27.8c0.2,4.6,0.4,9.2,0.7,13.7c0.2,4.2-0.4,9.4,2.2,12.9
					c0.9,1.2,2.9,1.6,3.7,0c2.1-4,0.7-8.5,0.2-12.9c-0.5-4.6-0.9-9.2-1.4-13.7c-0.9-9-0.4-19.2-3.4-27.8
					C710.5,405.4,709,405.3,708.8,406.4L708.8,406.4z"/>
			</g>
		</g>
		<g>
			<g>
				<path class="st1" d="M719.7,406.9c-2.5,8.9-0.9,19.4-0.4,28.5c0.3,4.9,0.6,9.7,1.1,14.6c0.3,3.8,0.1,8.3,1.7,11.9
					c1.5,3.3,6.5,0.4,4.9-2.9c-1.6-3.4-1.2-9.1-1.6-12.9c-0.5-4.5-0.9-9.1-1.3-13.6c-0.7-8.3-0.1-17.6-2.7-25.6
					C721.1,406.1,720,406,719.7,406.9L719.7,406.9z"/>
			</g>
		</g>
		<g>
			<g>
				<path class="st1" d="M732.6,461.4c2.3-3.2,1.3-7.9,1.4-11.7c0.1-5.2,0.3-10.4,0.2-15.6c0-9.8,1-20.1-0.5-29.7
					c-0.3-1.7-3-1.6-3.4,0c-2,9.8-1.1,20.7-0.9,30.7c0.1,5.2,0.5,10.4,0.9,15.6c0.2,3.5-0.2,7.9,2.1,10.8
					C732.5,461.5,732.5,461.5,732.6,461.4L732.6,461.4z"/>
			</g>
		</g>
		<g>
			<g>
				<path class="st1" d="M740.9,408.7c-2.7,8.9-2.3,19.2-3,28.5c-0.7,9.2-2.7,19.8-1,28.9c0.4,2.3,3.7,2,4.3,0
					c2.6-8.9,1.5-19.7,1.6-28.9c0.1-9.2,1.4-19.4-0.4-28.5C742.2,408,741.1,408.1,740.9,408.7L740.9,408.7z"/>
			</g>
		</g>
		<g>
			<g>
				<path class="st1" d="M748.8,465c1.9-3.3,2-7.5,2.6-11.2c0.8-5.6,1.6-11.3,2.4-16.9c1.4-10.1,2.1-20.2,3.7-30.3
					c0.3-2.1-2.5-3-3.2-0.9c-3.2,9.4-4.5,19.8-4.9,29.7c-0.2,4.9,0,9.9-0.4,14.8c-0.3,4.9-1.9,10-1.2,14.8
					C747.9,465.4,748.6,465.4,748.8,465L748.8,465z"/>
			</g>
		</g>
		<g>
			<g>
				<path class="st1" d="M761.3,407.8c-1.4,10.1-2.2,20.2-3.5,30.2c-0.7,5.6-1.5,11.1-2.3,16.7c-0.6,4-2,8.3-0.3,12.1
					c0.4,0.9,2,1.1,2.6,0.3c2.5-3.1,2.3-6.9,2.6-10.8c0.4-5.5,0.8-10.9,1.2-16.4c0.7-10.6,1.5-21.3,1.3-31.9
					C762.9,407.1,761.4,406.8,761.3,407.8L761.3,407.8z"/>
			</g>
		</g>
		<g>
			<g>
				<path class="st1" d="M763.8,466.2c2.1-4,2.6-8.9,3.7-13.3c1.1-4.8,2.1-9.5,3.1-14.3c2-9.9,4.1-19.8,6-29.7c0.4-2.3-3-3.2-3.5-1
					c-2,9.9-3.9,19.8-5.8,29.7c-0.9,4.8-1.9,9.6-2.7,14.4c-0.7,4.5-2.1,9.3-1.7,13.8C762.8,466.4,763.5,466.7,763.8,466.2
					L763.8,466.2z"/>
			</g>
		</g>
		<g>
			<g>
				<path class="st1" d="M780.3,409.9c-2.1,3.7-2,8-2.5,12.1c-0.6,4.6-1,9.1-1.5,13.7c-1.1,9.8-2.6,19.5-3.6,29.3
					c-0.4,3.4,4.9,3.3,5.3,0c1.2-9.4,1.7-18.9,2.6-28.3c0.5-4.6,0.9-9.1,1.3-13.7c0.3-4.3,1.2-8.8-0.2-12.9
					C781.5,409.5,780.6,409.3,780.3,409.9L780.3,409.9z"/>
			</g>
		</g>
		<g>
			<g>
				<path class="st1" d="M785.8,467.8c2-3.9,2.1-8.9,2.7-13.2c0.7-4.8,1.1-9.6,1.7-14.5c1.1-10.3,2.2-20.7,2-31
					c0-1.9-3.1-2.5-3.4-0.5c-1.7,9.8-2.3,19.7-3,29.6c-0.3,5-0.8,9.9-1.1,14.8c-0.3,4.6-1.4,10-0.2,14.5
					C784.5,468.2,785.5,468.4,785.8,467.8L785.8,467.8z"/>
			</g>
		</g>
		<g>
			<g>
				<path class="st1" d="M797,409.9c-2.8,9.2-2.9,19.8-4,29.3c-1.1,10.2-2.2,20.6-2.5,30.9c-0.1,4,5.7,3.8,6.1,0
					c1-9.9,1.5-19.9,2-29.9c0.5-9.7,2.4-20.2,1.5-29.9C799.9,408.6,797.5,408.1,797,409.9L797,409.9z"/>
			</g>
		</g>
		<g>
			<g>
				<path class="st1" d="M585.2,467c0.2,0,0.2-0.3,0-0.3C585,466.7,585,467,585.2,467L585.2,467z"/>
			</g>
		</g>
		<g>
			<g>
				<path class="st1" d="M595.7,532.7c-1-12.1-1.2-24.2-2-36.3c-0.4-6.2-0.9-12.4-1.6-18.6c-0.6-4.7-0.5-11.7-3.4-15.5
					c-1.9-2.6-5.4-1.6-5.8,1.6c-0.6,4.8,1.9,10.8,2.7,15.6c1,6.4,1.7,12.8,2.3,19.3c1.1,11.6,2,23.1,4,34.6
					C592.2,535.3,595.8,534.9,595.7,532.7L595.7,532.7z"/>
			</g>
		</g>
		<g>
			<g>
				<path class="st1" d="M625.4,535.9c2.9-2.1,2.5-10.1,3-13.4c0.9-6.8,1.6-13.6,2.4-20.4c0.8-7,1.5-14,2.3-21
					c0.7-6.1,2-12.4,2.1-18.5c0-2.6-3.9-3.2-4.6-0.6c-1.4,5.4-1.5,11.4-2.1,17c-0.8,7.2-1.5,14.4-2.1,21.6
					c-0.6,6.9-1.3,13.8-1.6,20.7c-0.2,3.3-2.2,11.9,0.3,14.5C625.1,535.9,625.3,535.9,625.4,535.9L625.4,535.9z"/>
			</g>
		</g>
		<g>
			<g>
				<path class="st1" d="M592.4,536.2c2.3,5.9,11.6,8.1,17.1,8.9c7,0.9,17.2-1.7,16.7-10.7c0-0.9-0.9-1.9-1.9-1.5
					c-2,0.8-3.2,2.4-5,3.5c-3.5,2.1-7.8,1.4-11.6,0.7c-4-0.8-8-2.8-11.9-4.3C593.9,532.1,591.7,534.3,592.4,536.2L592.4,536.2z"/>
			</g>
		</g>
		<g>
			<g>
				<path class="st1" d="M437.3,807.2c2.8-8.2,4.1-17.2,5.5-25.7c1.7-10.4,3.4-20.9,5.1-31.3c3.1-19.6,6.2-39.1,10.2-58.5
					c2.8-13.5,5.7-27,10.1-40.1c3.2-9.5,6.1-19,8.8-28.6c3.8-13.2,7.2-27.5,15.4-38.7c10.8-14.8,28.6-18.8,45-24.1
					c5-1.6,2.9-8.6-2.1-7.7c-15.8,2.7-33.4,9.5-44.8,21.2c-9.8,10-14.5,23.5-18.5,36.7c-6.5,21.4-13.9,42.7-18.8,64.5
					c-4.8,21.2-8,42.7-11.1,64.2c-1.8,12.3-3.5,24.5-5.3,36.8c-1.5,10.2-3.6,20.6-4.2,30.9C432.6,809.3,436.5,809.5,437.3,807.2
					L437.3,807.2z"/>
			</g>
		</g>
		<g>
			<g>
				<path class="st1" d="M696.4,580c12,5,25,8.1,33.4,18.8c6.4,8.2,8.3,18.8,9.9,28.8c2.1,13.6,3.5,27.2,6.8,40.5
					c2.3,9.2,5.7,18.2,8.1,27.4c2.9,10.9,5.1,22,7.3,33.1c2.5,12.9,5.1,25.7,7.6,38.6c2.7,13.4,4.5,27.3,8.2,40.5
					c1.2,4.2,8.4,3.6,7.9-1.1c-1.5-12-4.5-24-6.9-35.8c-2.4-12.2-4.9-24.4-7.3-36.6c-2.4-11.8-4.6-23.6-7.5-35.3
					c-2.5-10.2-6.2-20.1-8.9-30.2c-3.8-14.1-5.6-28.6-8.1-42.9c-1.8-10.7-4.4-21.6-11.2-30.4c-8.9-11.5-24.5-18.5-38.8-19.8
					C694.2,575.2,694.3,579.1,696.4,580L696.4,580z"/>
			</g>
		</g>
		<g>
			<g>
				<path class="st1" d="M622.5,593c2.4-15.3,15.1-24.7,28.6-30.3c10.6-4.4,23.2-6.8,28.2-18.4c4.4-10.2-1.7-19.7-10.5-24.8
					c-12-7-25.8-6.3-39.1-6.9c-4.3-0.2-3.8,6.8,0.8,6.1c11.6-1.8,27.3,0.4,37.2,7c4.6,3,8.3,7.7,7.4,13.5c-1,6.3-6.5,10.6-11.6,13.5
					c-9.6,5.5-20.4,7.8-29.3,14.6c-8.2,6.3-14.1,14.8-15.2,25.2C618.8,594.5,622.2,595,622.5,593L622.5,593z"/>
			</g>
		</g>
		<g>
			<g>
				<path class="st1" d="M591.1,508.3c-10-6.5-23.9,2.4-31.2,9.4c-8.2,7.9-14.9,20.3-7.7,31c6.6,9.8,20,13.3,30.4,17.3
					c13.5,5.3,27.6,12,35.1,25c2.5,4.3,9.3,0.4,6.7-3.9c-12.2-19.9-34.2-25.3-54.4-33.7c-4.2-1.8-8.8-4-11.8-7.7
					c-4.4-5.4-2.7-12,0.8-17.3c6.4-9.9,18.2-18.3,30.4-16.1C591.8,512.7,593.3,509.6,591.1,508.3L591.1,508.3z"/>
			</g>
		</g>
		<g>
			<g>
				<path class="st1" d="M581.3,571.6C581.4,571.6,581.4,571.6,581.3,571.6c1.1,1.1,2.2,2.1,3.2,3.1c0.1-0.2,0.2-0.3,0.4-0.5
					c-0.7,0.2-1.4,0.4-2.1,0.6c-0.9-1.3-1.6-1.2-1.8,0.5c-0.3,0.7-0.5,1.4-0.6,2.1c-0.3,1.8-0.3,3.6-0.1,5.4c0.6,4.9,3.7,7.8,5,12.3
					c2.7,9.4-1.4,20.2-2.5,29.6c-1.1,9.2-2.6,18.4-0.1,27.5c2.4,8.9,5.1,18.5,9.2,26.8c0.7,1.4,3.1,0.4,2.6-1.1
					c-3-9.6-7.4-17.8-8.8-28c-1.4-9.6-0.6-18,1.3-27.4c1.5-7.4,2.5-15.3,1.1-22.8c-0.8-4.2-1.6-8.3-2.3-12.4c-0.5-3-1.5-5.6-0.9-8.7
					c0.4-1.7,1.5-3.1,2-4.8c0.2-0.7,0-1.8-0.6-2.3c-1.8-1.4-3.7-1.5-5.1,0.5c-1.3,2,1.8,4.6,3.4,2.6c0.2-0.2,0.4-0.5,0.6-0.7
					c0.6-0.7,0.9-1.8,0.3-2.6c-0.2-0.2-0.4-0.5-0.6-0.7C583.9,569.3,581.1,569.5,581.3,571.6L581.3,571.6z"/>
			</g>
		</g>
		<g>
			<g>
				<path class="st1" d="M644.1,575.5c1.5,4.4,4.8,7,4.8,12c0,4.3-1.4,8.6-1.9,12.8c-1.1,9.3-0.4,18.5,0.9,27.7
					c0.7,5.1,1.6,10.1,1.5,15.3c-0.1,4.9-1.2,9.5-1.9,14.3c-1,7.2-3.9,15.7-1.1,22.8c0.3,0.9,1.7,0.6,1.5-0.4
					c-1.4-5.5-1.4-10.4,0.5-15.8c1.6-4.5,3.9-8.3,4.9-13c2-9-0.5-18.1-1.9-27c-1.6-10.8-1.2-21.8,0.7-32.6c1.1-6.7,0.9-14-5.4-18.2
					C645.5,572.6,643.6,574,644.1,575.5L644.1,575.5z"/>
			</g>
		</g>
		<g>
			<g>
				<path class="st1" d="M620.1,589c-1.3,3.1-2.5,6.2-3.5,9.5c-0.7,2.3-2,5.1-1.7,7.4c0.7,4.8,7.9,4,11.2,3c1.3-0.4,1.9-1.7,1.7-3
					c-1.2-5.7-1.6-12.2-4-17.5c-0.9-1.9-3.7-0.8-3.8,1c-0.2,5.8,2,12.1,3.1,17.8c0.6-1,1.1-2,1.7-3c-1.3,0.4-4.1,1.1-5.3,0.3
					c0.5,0.9,0.7,0.6,0.8-0.8c0.3-0.9,0.5-1.7,0.8-2.6c1-3.5,1.9-7.1,2.4-10.7C623.6,588.5,621,586.9,620.1,589L620.1,589z"/>
			</g>
		</g>
		<g>
			<g>
				<path class="st1" d="M619.9,608c-3.4,16.7-3.2,34.3-3.1,51.3c0.1,17.3,0.9,34.5,2.3,51.8c1.4,17.3,3.7,34.5,6,51.6
					c1.1,8.5,2.4,17,3.4,25.5c0.5,4.6,1.1,9.1,1.2,13.7c0.2,4.1-0.2,8.2,0.4,12.2c0.2,1.6,2.6,1.3,3,0c2.4-7.5,2-17.1,1.8-25
					c-0.1-8.5-1-17.1-2.1-25.5c-2.2-17.2-4.8-34.3-6.3-51.6c-1.5-16.9-2.3-33.8-2.7-50.8c-0.4-17.5,0.9-35.3-0.6-52.8
					C623.1,606.7,620.3,606.1,619.9,608L619.9,608z"/>
			</g>
		</g>
		<g>
			<g>
				<path class="st1" d="M623.6,591.9c9.2-5.2,20.2-5.6,29.2-11c8.8-5.3,14.5-14.7,25-16.9c1.5-0.3,6.4-1.8,6.6-1.7
					c-0.5-0.2,1.3,1.8,1.5,2.1c1.7,2.4,3.1,5.1,4.6,7.6c1.4,2.3,3.6,9,7.2,8.3c1.7-0.4,2.2-2.7,1-3.8c-0.2-0.2-0.4-0.3-0.6-0.5
					c-1.1-0.8-2.9,0-3.1,1.3c0,0.1,0,0.2-0.1,0.2c1.3-0.3,2.5-0.7,3.8-1c1.7,2.2,0.7,0.9,0.1-0.6c-0.4-1-1.1-1.9-1.7-2.9
					c-1.6-2.8-3.2-5.6-5.1-8.2c-1.5-2-3.1-4.7-5.3-6.1c-2.7-1.8-5-0.1-7.9,0.6c-5.3,1.2-9.5,2.6-13.9,5.9
					c-4.2,3.2-7.8,7.3-12.1,10.4c-9.4,6.9-21.8,7-31,14.3C620.8,590.8,622.3,592.6,623.6,591.9L623.6,591.9z"/>
			</g>
		</g>
		<g>
			<g>
				<path class="st1" d="M678.1,529.1c3.1,8.1,9.1,14.9,13.8,22.1c4.5,7,9.1,17,2.8,24.5c-2.7,3.2,1.6,7.8,4.7,4.7
					c7.1-7.2,6.4-17.5,2.1-26c-2.4-4.8-6-8.9-9.4-13c-3.8-4.7-7.7-9.7-12.6-13.3C678.8,527.7,677.8,528.4,678.1,529.1L678.1,529.1z"
					/>
			</g>
		</g>
		<g>
			<g>
				<path class="st1" d="M555.4,522.2c-11.9,7.9-23.5,18.7-22.4,34.1c0.3,4.1,6.7,4.1,6.4,0c-0.6-6.7,1-13,5.5-18.1
					c4-4.6,8.9-8.4,12.8-13.2C558.8,523.5,557.2,520.9,555.4,522.2L555.4,522.2z"/>
			</g>
		</g>
		<g>
			<g>
				<path class="st1" d="M536.5,560.1c2,6.3,8,9.8,13.6,12.5c7.7,3.8,14.5,7.3,21.3,12.7c6.6,5.3,14.1,10.9,22.3,13.4
					c3.5,1,6.9,0.8,10.4-0.1c4.5-1.2,9-4.2,13.8-3c3.5,0.9,5-4.4,1.5-5.4c-8.1-2.5-14.8,4.2-22.6,2.7c-8-1.5-15.9-8.6-22.1-13.3
					c-5.7-4.4-11.3-7.5-18-10.2c-6.8-2.8-13.1-5.8-19-10.2C537.2,558.6,536.2,559.4,536.5,560.1L536.5,560.1z"/>
			</g>
		</g>
		<g>
			<g>
				<path class="st1" d="M556.3,548.4c5-2,10-4.2,14.9-6.4c5.9-2.6,12.6-7.1,19.4-6c4.6,0.8,5.5-6.1,0.9-6.3
					c-13.3-0.6-25.3,9.1-36.8,14.6C552.4,545.4,554,549.3,556.3,548.4L556.3,548.4z"/>
			</g>
		</g>
		<g>
			<g>
				<path class="st1" d="M626.3,534.6c7.2,2.2,14.8,2.5,22,5.1c7.4,2.6,14.4,6.3,20.7,11c3.8,2.8,7.5-3.6,3.7-6.4
					c-6.9-4.9-14.5-8.9-22.7-11.1c-7.3-2-16.4-3.9-23.8-1.8C624.8,532,624.8,534.2,626.3,534.6L626.3,534.6z"/>
			</g>
		</g>
	</g>
</g>
<g>
	<g>
		<path class="st1" d="M933.7,144.5c38,7.5,76,11.2,114.6,13.3c-0.3-1.2-0.6-2.4-1-3.5c-32.6,23.4-66.9,44.5-102,64
			c-2.4,1.4-1.7,4.9,0.7,5.7c25.1,7.9,51.3,13.4,77.3,16.9c-0.4-1.6-0.9-3.2-1.3-4.7c-32.9,18.2-66.1,36.1-100.5,51.3
			c-17.5,7.7-35.2,14.8-53.3,21.2c-17.7,6.3-35.9,11.1-53.8,16.8c1,1.6,1.9,3.3,2.9,4.9c9.1-7.2,19-13.6,28.4-20.3
			c9.4-6.7,18.9-13.4,28.3-20.1c18.6-13.2,36.6-27.5,55.7-39.7c2.5-1.6,1.3-5-1.4-5.3c-18.9-2-37.7-6.2-55.6-12.6
			c0.2,1.7,0.5,3.5,0.7,5.2c16-7.8,25.2-25.4,33.9-40c10.3-17.3,20.3-34.8,30-52.5c2.4-4.4-4.4-8.4-6.8-3.9
			c-8.8,16.7-16.8,34-26.4,50.4c-8.6,14.7-17.6,33.3-33.6,41.1c-2.4,1.2-1.4,4.5,0.7,5.2c18.6,6.5,37.6,10.8,57.1,12.8
			c-0.7-1.6-1.3-3.2-2-4.9c-18.2,14.4-37.9,26.9-56.8,40.4c-18.5,13.2-36.6,27.5-55.8,39.6c-2.9,1.8-1,6.1,2.3,5.4
			c18.9-3.8,37.5-10.4,55.6-16.9c17.4-6.2,34.5-13.1,51.4-20.5c35-15.4,69.1-32.9,101.5-53.3c1.7-1.1,1.6-4.2-0.6-4.6
			c-25.8-4.9-51-11-76.3-18c0.2,1.9,0.5,3.8,0.7,5.7c34.6-20.4,68.1-42.7,100.7-66.1c1.5-1.1,1-3.4-1-3.5
			c-38-2.1-76.3-6.1-113.9-12.2C932.6,141.4,931.8,144.1,933.7,144.5L933.7,144.5z"/>
	</g>
</g>
<g>
	<g>
		<path class="st1" d="M998.8,353.9c15.1,23.9,32.2,45.9,50.5,67.4c0.5-0.8,0.9-1.5,1.4-2.3c-28.8-5.6-57.2-13.1-85.1-21.9
			c-2-0.6-3.4,1.7-2.6,3.4c8.4,17.1,18.4,33.6,29.5,49c0.7-0.9,1.4-1.8,2.1-2.7c-26.1-8.4-52.1-16.8-77.4-27.4
			c-12.8-5.4-25.5-11.2-37.9-17.6c-12.3-6.3-24.1-13.6-36.2-20.2c-0.6,1.3-1.1,2.6-1.7,3.9c16.7,2.3,33.2,6.5,49.7,9.7
			c16.5,3.3,33.4,5.7,49.7,9.8c1.6,0.4,3.5-1.5,2.4-3.1c-8.6-11.2-15.8-23.4-21.6-36.2c-0.8,1-1.6,2-2.4,3.1
			c12.6,4.6,26.9,0.4,39.4-2.4c14-3.2,27.9-6.5,41.7-10.2c3.5-0.9,2-6.5-1.5-5.5c-12.6,3.5-25.1,7.7-37.8,10.8
			c-12.7,3.1-27.9,7.9-40.8,3.3c-1.9-0.7-3,1.6-2.4,3.1c5.9,13.1,13.1,25.3,21.9,36.7c0.7-1.2,1.4-2.3,2-3.5
			c-16.7-2.4-33.2-6.6-49.7-9.8c-16.5-3.2-33.4-5.6-49.7-9.8c-2.5-0.6-3.6,2.6-1.7,3.9c22.3,15.6,48.3,27.3,73.3,37.9
			c25.7,10.8,52.3,20.3,79.4,27.1c1.5,0.4,3-1.3,2.1-2.7C985.4,431.4,975.9,415,967,398c-0.9,1.1-1.7,2.2-2.6,3.4
			c28.2,8.1,56.8,14.6,85.6,20.2c1.4,0.3,2.3-1.2,1.4-2.3c-18-21.2-35-43.5-50.7-66.5C999.9,351.7,998.1,352.7,998.8,353.9
			L998.8,353.9z"/>
	</g>
</g>
<g>
	<g>
		<path class="st1" d="M214.7,352.8c-15.7,23-32.7,45.3-50.7,66.5c-0.9,1.1,0,2.6,1.4,2.3c28.8-5.6,57.4-12.1,85.6-20.2
			c-0.9-1.1-1.7-2.2-2.6-3.4c-8.9,16.9-18.4,33.4-28.8,49.5c-0.9,1.4,0.6,3.1,2.1,2.7c27.1-6.8,53.6-16.3,79.4-27.1
			c25-10.5,51-22.2,73.3-37.9c1.9-1.4,0.8-4.6-1.7-3.9c-16.3,4.2-33.2,6.6-49.7,9.8c-16.5,3.2-33,7.4-49.7,9.8
			c0.7,1.2,1.4,2.3,2,3.5c8.8-11.4,16-23.5,21.9-36.7c0.7-1.5-0.5-3.7-2.4-3.1c-12.8,4.6-28-0.2-40.8-3.3
			c-12.7-3.1-25.2-7.3-37.8-10.8c-3.5-1-5.1,4.6-1.5,5.5c13.8,3.7,27.7,7,41.7,10.2c12.6,2.8,26.8,7,39.4,2.4c-0.8-1-1.6-2-2.4-3.1
			c-5.7,12.9-13,25-21.6,36.2c-1.2,1.5,0.8,3.5,2.4,3.1c16.3-4.1,33.2-6.5,49.7-9.8c16.5-3.3,33.1-7.4,49.7-9.7
			c-0.6-1.3-1.1-2.6-1.7-3.9c-12.1,6.6-23.9,13.9-36.2,20.2c-12.4,6.3-25,12.2-37.9,17.6c-25.3,10.6-51.3,19-77.4,27.4
			c0.7,0.9,1.4,1.8,2.1,2.7c11.1-15.5,21.1-32,29.5-49c0.8-1.7-0.6-4-2.6-3.4c-27.9,8.9-56.3,16.4-85.1,21.9
			c0.5,0.8,0.9,1.5,1.4,2.3c18.3-21.5,35.4-43.5,50.5-67.4C217.2,352.7,215.4,351.7,214.7,352.8L214.7,352.8z"/>
	</g>
</g>
<g>
	<g>
		<path class="st1" d="M285.5,141.7c-37.6,6.1-75.9,10.1-113.9,12.2c-2,0.1-2.5,2.5-1,3.5c32.7,23.4,66.1,45.7,100.7,66.1
			c0.2-1.9,0.5-3.8,0.7-5.7c-25.3,7-50.5,13.1-76.3,18c-2.3,0.4-2.3,3.6-0.6,4.6c32.3,20.3,66.5,37.9,101.5,53.3
			c16.9,7.4,34,14.3,51.4,20.5c18.1,6.5,36.7,13,55.6,16.9c3.2,0.7,5.2-3.6,2.3-5.4c-19.2-12.1-37.3-26.4-55.8-39.6
			c-18.9-13.5-38.6-26-56.8-40.4c-0.7,1.6-1.3,3.2-2,4.9c19.6-1.9,38.6-6.2,57.1-12.8c2.1-0.7,3.1-4.1,0.7-5.2
			c-16-7.8-25-26.5-33.6-41.1c-9.6-16.3-17.6-33.6-26.4-50.4c-2.3-4.4-9.2-0.5-6.8,3.9c9.6,17.7,19.6,35.2,30,52.5
			c8.7,14.6,17.9,32.3,33.9,40c0.2-1.7,0.5-3.5,0.7-5.2c-17.9,6.4-36.7,10.6-55.6,12.6c-2.7,0.3-4,3.7-1.4,5.3
			c19.2,12.2,37.2,26.5,55.7,39.7c9.2,6.5,18.3,13,27.5,19.5c9.7,6.9,19.9,13.5,29.2,20.9c1-1.6,1.9-3.3,2.9-4.9
			c-17.9-5.8-36-10.6-53.8-16.8c-18-6.4-35.8-13.4-53.3-21.2c-34.5-15.2-67.6-33.1-100.5-51.3c-0.4,1.6-0.9,3.2-1.3,4.7
			c26-3.5,52.2-9,77.3-16.9c2.5-0.8,3.2-4.4,0.7-5.7c-35.1-19.4-69.4-40.6-102-64c-0.3,1.2-0.6,2.4-1,3.5
			c38.6-2.1,76.7-5.8,114.6-13.3C288,144.1,287.2,141.4,285.5,141.7L285.5,141.7z"/>
	</g>
</g>
<g>
	<g>
		<path class="st1" d="M177,548.6c-2.3,38-6.6,76.2-12.8,113.8c-0.3,1.9,1.7,3.2,3.2,1.9c30-26.8,59-54.5,86.4-83.9
			c-1.8-0.7-3.6-1.5-5.4-2.2c1.3,26.2,1.8,52.2,1,78.4c-0.1,2.2,2.8,3.3,4.3,1.8c41.5-41.9,78.4-89.3,109.3-139.6
			c8.8-14.3,17.7-28.9,24.6-44.2c1.3-2.9-2.1-6.1-4.6-3.6c-16.2,16.3-34.4,31.1-51.5,46.5c-17.2,15.4-33.7,31.9-51.6,46.5
			c1.6,0.7,3.2,1.3,4.9,2c2.3-19.3,2.2-38.5-0.1-57.8c-0.3-2.1-3.1-4.2-4.9-2c-11,13.8-30.9,18.6-47,23.8
			c-18.2,5.8-36.9,9.9-55.3,14.9c-4.9,1.3-2.8,8.9,2.1,7.5c19.6-5.6,39-11.6,58.3-18c16-5.3,35.1-10.4,46-24.2
			c-1.6-0.7-3.3-1.3-4.9-2c2.3,19.2,2.3,38.6,0.1,57.8c-0.3,2.6,3.3,3.6,4.9,2c16.3-16.3,34.5-31,51.6-46.4
			c17.1-15.4,33.7-31.9,51.7-46.4c-1.5-1.2-3.1-2.4-4.6-3.6c-9.6,16.3-18.3,33.1-28.4,49.2c-9.9,15.8-20.4,31.2-31.4,46.2
			c-22.5,30.6-47.4,59.3-72.5,87.7c1.4,0.6,2.9,1.2,4.3,1.8c2.2-25.9,2.5-52.5,0.2-78.4c-0.2-2.5-3.4-4.4-5.4-2.2
			c-26.6,30.1-54.7,58.9-84.7,85.6c1.1,0.6,2.1,1.2,3.2,1.9c6.4-38.2,11.1-76.1,12-114.8C179.9,546.8,177.1,546.8,177,548.6
			L177,548.6z"/>
	</g>
</g>
<g>
	<g>
		<path class="st1" d="M1041.8,555.8c0.9,38.7,5.7,76.7,12,114.8c1.1-0.6,2.1-1.2,3.2-1.9c-30-26.8-58-55.6-84.7-85.6
			c-2-2.2-5.1-0.3-5.4,2.2c-2.2,25.9-2,52.5,0.2,78.4c1.4-0.6,2.9-1.2,4.3-1.8c-25.2-28.4-50-57.1-72.5-87.7
			c-11-15-21.5-30.4-31.4-46.2c-10.1-16.1-18.8-32.9-28.4-49.2c-1.5,1.2-3.1,2.4-4.6,3.6c18,14.4,34.5,31,51.7,46.4
			c17.1,15.5,35.3,30.1,51.6,46.4c1.6,1.6,5.2,0.5,4.9-2c-2.2-19.2-2.2-38.6,0.1-57.8c-1.6,0.7-3.3,1.3-4.9,2
			c10.9,13.7,30,18.9,46,24.2c19.3,6.4,38.7,12.4,58.3,18c4.8,1.4,6.9-6.2,2.1-7.5c-18.4-5-37.1-9.1-55.3-14.9
			c-16.1-5.2-36-10-47-23.8c-1.7-2.2-4.6-0.1-4.9,2c-2.3,19.3-2.4,38.5-0.1,57.8c1.6-0.7,3.2-1.3,4.9-2
			c-17.9-14.6-34.4-31-51.6-46.5c-17.1-15.4-35.3-30.2-51.5-46.5c-2.5-2.5-6,0.7-4.6,3.6c12,26.8,28.8,52.1,45.4,76.2
			c16.8,24.4,34.9,47.9,54.2,70.3c11,12.8,22.4,25.3,34.3,37.3c1.5,1.5,4.4,0.4,4.3-1.8c-0.8-26.2-0.4-52.2,1-78.4
			c-1.8,0.7-3.6,1.5-5.4,2.2c27.4,29.4,56.4,57.1,86.4,83.9c1.5,1.3,3.5,0,3.2-1.9c-6.3-37.6-10.6-75.8-12.8-113.8
			C1044.6,554,1041.8,553.9,1041.8,555.8L1041.8,555.8z"/>
	</g>
</g>
</svg>
