<?xml version="1.0" encoding="utf-8"?>
<!-- Generator: Adobe Illustrator 23.0.2, SVG Export Plug-In . SVG Version: 6.00 Build 0)  -->
<svg version="1.1" id="Layer_1" xmlns="http://www.w3.org/2000/svg" xmlns:xlink="http://www.w3.org/1999/xlink" x="0px" y="0px"
	 viewBox="0 0 612 792" style="enable-background:new 0 0 612 792;" xml:space="preserve">
<style type="text/css">
	.st0{fill:#FFFFFF;}
	.st1{fill:none;}
</style>
<g>
	<rect x="9" y="164" class="st0" width="69" height="69"/>
</g>
<g>
	<path class="st0" d="M84,164v69h69v-69H84z M144,224H93v-51h51V224z"/>
</g>
<g>
	<rect x="84" y="194" class="st0" width="69" height="9"/>
</g>
<g>
	<path class="st0" d="M384,164v69h69v-69H384z M444,224h-51v-51h51V224z"/>
</g>
<g>
	<rect x="384" y="194" class="st0" width="69" height="9"/>
</g>
<g>
	
		<rect x="524.8" y="193.9" transform="matrix(0.7071 -0.7071 0.7071 0.7071 26.365 460.4156)" class="st0" width="88.3" height="9"/>
</g>
<g>
	
		<rect x="564.5" y="154.2" transform="matrix(0.7071 -0.7071 0.7071 0.7071 26.365 460.4156)" class="st0" width="9" height="88.3"/>
</g>
<g>
	<path class="st0" d="M159,164v69h69v-69H159z M219,224h-51v-51h51V224z"/>
</g>
<g>
	<path class="st0" d="M234,164v69h69v-69H234z M294,224h-51v-51h51V224z"/>
</g>
<g>
	<path class="st0" d="M459,164v69h69v-69H459z M519,224h-51v-51h51V224z"/>
</g>
<rect x="318" y="173" class="st1" width="51" height="51"/>
<g>
	<polygon class="st0" points="369,173 369,224 318,224 318,173 309,173 309,233 378,233 378,173 	"/>
</g>
<g>
	<polygon class="st0" points="369,173 378,173 378,164 343.5,164 309,164 309,173 318,173 344,204 	"/>
</g>
</svg>
