<?xml version="1.0" encoding="utf-8"?>
<!-- Generator: Adobe Illustrator 23.0.2, SVG Export Plug-In . SVG Version: 6.00 Build 0)  -->
<svg version="1.1" id="Layer_1" xmlns="http://www.w3.org/2000/svg" xmlns:xlink="http://www.w3.org/1999/xlink" x="0px" y="0px"
	 viewBox="0 0 688.4 84" style="enable-background:new 0 0 688.4 84;" xml:space="preserve">
<style type="text/css">
	.st0{fill:#FFFFFF;}
	.st1{fill:none;}
</style>
<g>
	<rect x="47" y="10.5" class="st0" width="69" height="69"/>
</g>
<g>
	<path class="st0" d="M122,10.5v69h69v-69H122z M182,70.5h-51v-51h51V70.5z"/>
</g>
<g>
	<rect x="122" y="40.5" class="st0" width="69" height="9"/>
</g>
<g>
	<path class="st0" d="M422,10.5v69h69v-69H422z M482,70.5h-51v-51h51V70.5z"/>
</g>
<g>
	<rect x="422" y="40.5" class="st0" width="69" height="9"/>
</g>
<g>
	
		<rect x="562.8" y="40.4" transform="matrix(0.7071 -0.7071 0.7071 0.7071 146.0057 442.3597)" class="st0" width="88.3" height="9"/>
</g>
<g>
	<rect x="602.5" y="0.7" transform="matrix(0.7071 -0.7071 0.7071 0.7071 146.0557 442.339)" class="st0" width="9" height="88.3"/>
</g>
<g>
	<path class="st0" d="M197,10.5v69h69v-69H197z M257,70.5h-51v-51h51V70.5z"/>
</g>
<g>
	<path class="st0" d="M272,10.5v69h69v-69H272z M332,70.5h-51v-51h51V70.5z"/>
</g>
<g>
	<path class="st0" d="M497,10.5v69h69v-69H497z M557,70.5h-51v-51h51V70.5z"/>
</g>
<rect x="356" y="19.5" class="st1" width="51" height="51"/>
<g>
	<polygon class="st0" points="407,19.5 407,70.5 356,70.5 356,19.5 347,19.5 347,79.5 416,79.5 416,19.5 	"/>
</g>
<g>
	<polygon class="st0" points="407,19.5 416,19.5 416,10.5 381.5,10.5 347,10.5 347,19.5 356,19.5 382,50.5 	"/>
</g>
</svg>
