<?xml version="1.0" encoding="utf-8"?>
<!-- Generator: Adobe Illustrator 23.0.2, SVG Export Plug-In . SVG Version: 6.00 Build 0)  -->
<svg version="1.1" id="Layer_1" xmlns="http://www.w3.org/2000/svg" xmlns:xlink="http://www.w3.org/1999/xlink" x="0px" y="0px"
	 viewBox="0 0 612 792" style="enable-background:new 0 0 612 792;" xml:space="preserve">
<style type="text/css">
	.st0{fill:none;}
</style>
<g>
	<g>
		<rect x="9" y="164" width="69" height="69"/>
	</g>
	<g>
		<path d="M84,164v69h69v-69H84z M144,224H93v-51h51V224z"/>
	</g>
	<g>
		<polygon points="153,194 84,194 84,203 153,203 153,194 		"/>
	</g>
	<g>
		<path d="M384,164v69h69v-69H384z M444,224h-51v-51h51V224z"/>
	</g>
	<g>
		<polygon points="453,194 384,194 384,203 453,203 453,194 		"/>
	</g>
	<g>
		<polygon points="597,164 534.6,226.4 540.9,232.8 603.3,170.3 597,164 		"/>
	</g>
	<g>
		<polygon points="540.9,164 534.6,170.3 597,232.8 603.3,226.4 540.9,164 		"/>
	</g>
	<g>
		<path d="M159,164v69h69v-69H159z M219,224h-51v-51h51V224z"/>
	</g>
	<g>
		<path d="M234,164v69h69v-69H234z M294,224h-51v-51h51V224z"/>
	</g>
	<g>
		<path d="M459,164v69h69v-69H459z M519,224h-51v-51h51V224z"/>
	</g>
	<rect x="318" y="173" class="st0" width="51" height="51"/>
	<g>
		<polygon points="369,173 369,224 318,224 318,173 309,173 309,233 378,233 378,173 		"/>
	</g>
	<g>
		<polygon points="369,173 378,173 378,164 343.5,164 309,164 309,173 318,173 344,204 		"/>
	</g>
</g>
</svg>
