<svg id="Layer_8" data-name="Layer 8" xmlns="http://www.w3.org/2000/svg" width="11in" height="6.2in" viewBox="0 0 789.2 444.6"><title>hands</title><rect width="789.2" height="443.94" fill="#5bc8db"/><path d="M461.3,176.1c-2.1,3-1.7,6.8-2,10.4s-.6,9.2-.8,13.9l-1.2,26.7c-.2,4.8-1.1,52.7-2.5,52.7s-3.3,2.7-1.7,4.1,4.8,2.2,7.1.1,2.3-6.9,2.4-10.3c.4-11.2.6-22.4.9-33.7s.4-21.8.6-32.7c.1-5.6.2-11.2.2-16.9s1.1-10.3-1.4-14.3a1,1,0,0,0-1.6,0Z" fill="#282561"/><path d="M314,261.6l.6-4.5-3.7-.5c3.7,14.4,8.6,28.4,12.3,42.8s6.2,29.1,8.9,43.7l6-1.6c-8-25.4-17-50.6-24-76.3-.3-1.2-1.9-.6-1.7.5,2.5,15,6.8,29.7,10.6,44.4s6.8,29.9,11.8,44.1a1.4,1.4,0,0,0,2.7-.7c-2.5-14.9-7.3-29.7-11.1-44.3s-7.2-29.7-12.3-44l-1.7.5c8.2,25.2,13.9,51.6,19.7,77.4.9,4,6.5,2.2,6-1.6a419.8,419.8,0,0,0-9.7-44.5c-3.8-14.1-7.7-28.6-13.8-42-1.2-2.7-5.5.5-3.2,2.5l2.5,4.1Z" fill="#282561"/><path d="M345.1,232.8c.4,0,.4-.5,0-.5a.3.3,0,0,0,0,.5Z" fill="#282561"/><path d="M379.1,248.4l3.2.5c.6.1.9-.9.3-1l-3.3-.4c-.6-.1-.9.9-.2.9Z" fill="#282561"/><path d="M351.6,268.3c3.4,6.4,6.6,12.9,10.2,19.2.6,1.1,2.1.1,1.7-1-3-6.6-6.3-13-9.6-19.5-.8-1.5-3-.2-2.3,1.3Z" fill="#282561"/><path d="M350.9,267.5a29.5,29.5,0,0,0,3.6,5.1c1.1,1.4,2.3,3.3,4.1,3.9a1,1,0,0,0,1.3-1c-.2-1.8-1.6-3.2-2.7-4.6s-2.8-3.1-3.9-4.7a1.4,1.4,0,0,0-2.4,1.3Z" fill="#282561"/><path d="M379.2,250.7c-1.6,2.9-.2,6.8.5,9.8a51.7,51.7,0,0,0,3.8,12.3c1.6,2.9,5.9.8,5.2-2.2a3.9,3.9,0,0,0-1.3-2.3,1.6,1.6,0,0,0-2.5.3l-.3.3,4.1,1.7c-1.2-4.1-3.2-8.1-4.7-12.1s-1.4-6.2-3.9-8a.6.6,0,0,0-.9.2Z" fill="#282561"/><path d="M378.9,249.9a82.4,82.4,0,0,0,3.5,17.1l4.4-1.8c-1.3-3.1-4-3.6-6.9-2.3-1.2.5-1,2.4,0,3,10.1,5.8,22.1,6.9,33.6,7.1v-4.6c-7.9.7-15.3-.7-22-5.1l-1.7,3.9a31.8,31.8,0,0,0,20.2.9l-1.9-4.6c-2.8,1.8-4.8,4.1-7.1,6.5a1.5,1.5,0,0,0,.7,2.5c9.5,2.4,14.4-14.3,15.8-21,2.7-13.3.5-26.9,3-40.2l-2-.6c-6.9,22.4-10,46.4-13.3,69.5-.6,3.7,5.1,5.4,5.7,1.5q6-35.2,11.6-70.7c.2-1.8-2.3-2.7-2.9-.8A388.5,388.5,0,0,0,405.1,281H411c2-23.6,6.6-46.6,9.6-70,.1-1.2-1.7-1.3-2.1-.3-3,9.6-3.7,19.5-4.7,29.5a93.7,93.7,0,0,1-2.3,13.9c-.9,3.7-3.8,15.8-9.4,15.4l1,2.6c2.2-2,4.9-3.1,7.5-4.3s.7-5.1-1.9-4.5a34.3,34.3,0,0,1-17.7-.2c-2.3-.6-3.8,2.7-1.7,3.9a47.8,47.8,0,0,0,24.2,6,2.3,2.3,0,0,0,0-4.6c-11-.9-21.8-1.5-32.3-5.7l-.4,3.4,1.9,1.5c1.5,2.7,5.3.3,4.1-2.4-2.2-5.1-3.8-10.3-5.5-15.6-.4-1.2-2.5-1.1-2.4.3Z" fill="#282561"/><path d="M423.3,190.5c-2.6,23.2-6.5,46.3-11,69.2l5.3.7c.6-12.9,1.2-26,.5-38.9-.1-1.7-2.9-2.3-3.1-.5-1.8,13.1-2.3,26.3-2.8,39.4-.2,3,4.9,3.9,5.3.8a697.8,697.8,0,0,0,6.3-70.7c0-.3-.4-.2-.5,0Z" fill="#282561"/><path d="M421.5,188.6c-1.9,4.3-2.8,9-4,13.4s-2.9,10.2-4.1,15.4a.8.8,0,0,0,1.6.5c1.5-5.1,2.8-10.3,4-15.4s2.7-9.1,3.1-13.7c0-.3-.5-.5-.6-.2Z" fill="#282561"/><path d="M391.5,209.8c5.8-7.8,7.6-18.9,7.9-28.3a1.2,1.2,0,0,0-2.4-.4c-2.6,9.2-6.1,18.9-6.7,28.3a.7.7,0,0,0,1.2.4Z" fill="#282561"/><path d="M422.9,174.7a129.9,129.9,0,0,1-2,17.6c-.5,2.5-.9,4.9-1.5,7.4s-.6,5.3-1.4,6.3l2.1-.6h-.4l1.4,1.8v-.3a1.8,1.8,0,0,0-2.7-1.5l-.2.2a2,2,0,0,0-.7,2.6v.4a2.3,2.3,0,0,0,3,.8c3.3-2.1,2.3-9.8,2.5-13,.5-7.2.5-14.5.7-21.7,0-.5-.8-.5-.9,0Z" fill="#282561"/><path d="M387,165.4c-.6,7,2.1,14,4.9,20.2l4.8-2.8c-3.2-6.5-5.9-12.7-7.2-19.9l-3.6,1c1.9,5.8,3.8,11.5,6.1,17.2l4.7-1.3a48,48,0,0,0-8.3-15c-3.4-3.8-8.1-5-13-5.7-3.4-.5-4.9,4.6-1.4,5.2a84.1,84.1,0,0,1,16.3,4.6c2,.9,3.1-1.7,2.5-3.2-3.2-7.3-16.6-7.6-23.2-8-2.4-.2-3.2,3.3-1.2,4.4a13.9,13.9,0,0,0,8.5,1.9l-.6-4c-9.3,1.3-7.7,12.7-10.3,19.2-.7,1.8,2.2,3,3,1.3,2.3-4.2,1.8-15.7,7.9-16.5,2.5-.4,2.7-4.1,0-4.1a11.3,11.3,0,0,1-6.2-1.9l-1.1,4.4a90,90,0,0,1,10.2,1.6c2.9.7,7.5,1.2,9.1,3.9l2.5-3.3a120.6,120.6,0,0,0-16-5.5l-.7,5.3c4.8.4,9,.9,11.3,5.7s3.7,8,6.3,11.5,5.7.3,4.1-2.4a63.4,63.4,0,0,1-6.9-16.3,1.9,1.9,0,0,0-3.7.5c.1,7.7,1.8,15.7,6.1,22.2,1.9,3,6.6.3,4.8-2.8-3.5-5.6-5.4-11.8-8.3-17.8a.8.8,0,0,0-1.4.4Z" fill="#282561"/><path d="M366.2,172c1.8-2.4,1.6-5,1.8-8.1s.5-7.9.8-11.9c.4-7.6.7-15.2,1-22.8.4-14.9,1.9-30.3-.5-45a1,1,0,0,0-1.8,0c-2.6,14.7-1.6,30.1-2,45-.1,7.6-.4,15.2-.5,22.8l-.3,11.9c-.1,3-.6,5.6,1,8.1.1.3.4.2.5,0Z" fill="#282561"/><path d="M369,89.5c3.8,25.5,4.9,51.8,1.6,77.4l1.6-.2c-2.8-14.2-3.6-28.8-4.2-43.2s.7-28.1-.3-42.1c0-.9-1.5-1.2-1.6-.2-2.1,14.1-2,29-1.7,43.2a186.6,186.6,0,0,0,6.2,42.7c.2.9,1.5.7,1.6-.2,1.7-26,1.3-51.7-2.9-77.5,0-.2-.4-.1-.3.1Z" fill="#282561"/><path d="M363.9,54.3c0,22.3,0,44.6-.3,66.9l4.8-.6c-1.5-9.5-3.2-18.9-3.8-28.6s-2.2-19.9-.3-29.1l-2.2-.3c-.9,23.2-1.6,47,.2,70.1.2,3.1,4.8,3.2,4.9,0,.8-23.2-.9-47-2.8-70.1-.2-1.4-2.3-1.4-2.3,0,.3,10.1-1.9,20.2-1.5,30.4a165.9,165.9,0,0,0,3.1,28.9c.6,2.7,4.9,2.1,4.8-.7-1-22.3-1.8-44.6-2.6-66.9a1,1,0,0,0-2,0Z" fill="#282561"/><path d="M431.5,188.7c6.1-7.6,6.6-20.1,8-29.5,1.6-11.1,3.1-22.8,1.8-34.1-.2-1.8-3.1-2.6-3.5-.4-4,20.5-2.6,42.3-9.2,62.3-.6,1.6,1.8,3.1,2.9,1.7Z" fill="#282561"/><path d="M433.8,165.1c-.9,3.7-1.4,7.5-2.1,11.3a1.2,1.2,0,0,0,2.4.6c5.3-15.3,7.6-32,9.3-48.1q1.2-12.6,1.5-25.2c.2-8-.9-16.7.4-24.6l-4.2-.6c1.5,13.8.4,28.5-.4,42.4s-2.4,29-4.5,43.4l5.2.7a294.5,294.5,0,0,1,.6-42c.6-7.3,1.4-14.7,2.6-21.9s3.5-13.1,3.1-19.5a1.9,1.9,0,0,0-3.4-.9c-3.4,5.7-4.1,13.4-5.3,19.8s-2.3,13.7-3,20.6a230,230,0,0,0,.1,43.9,2.7,2.7,0,0,0,5.3,0c1.7-14.3,3-28.7,3.6-43.2s-.3-28.9.4-43.3c.1-2-3.1-3-4-1.1-2.9,6.7-2.2,13.3-2.1,20.5s-.1,17.4-.7,26.1c-1.1,17.7-4.4,34.9-6.9,52.4l2.5.3c.3-3.8.7-7.6.7-11.4,0-.7-1-.8-1.1-.2Z" fill="#282561"/><path d="M459.8,91.4c.4-1.6.9-3.2,1.5-4.9l-1.7-.2c.6,15.7,1.7,31.3,1.7,47.1,0,7.8,0,15.7-.3,23.5s-1.9,16.1-.9,23.6l4.2-2.4a4.9,4.9,0,0,1-2.3-3.7,1.1,1.1,0,0,0-2.1.3c-.1,1.9.4,3.9.2,5.8s4.7,3.7,5.5.8c1.8-7.3,1-15.9,1.1-23.4s-.1-16.4-.5-24.5c-.8-15.8-2-31.8-4.9-47.3-.2-1-1.6-.7-1.7.2a41.3,41.3,0,0,1-.7,4.9.5.5,0,1,0,.9.2Z" fill="#282561"/><path d="M403.9,187.8v1c0,.7,1.2.5.9-.1l-.4-1c-.1-.2-.4-.2-.4.1Z" fill="#282561"/><path d="M401.4,177.2c3.9-1.7,4.4-9,5.3-12.6a2.9,2.9,0,0,0-3.5-3.5l-2.6.3c-1.4.2-2.5,2.4-.8,3.2,5.9,2.8,10.7,4.5,17.3,3.2,2.1-.5,2.2-4,0-4.3-5.1-.8-10.4-1.1-15.5-1.9v3.3c8.1-2.2,24-4.5,24.8,7.6a60.4,60.4,0,0,1-1.2,14.7,25.7,25.7,0,0,1-.8,3.8c1.9.1,2.2-.5.8-2s-2.2-5.4-2.9-7.9-3.9-1.7-3.7.5c.4,3.7,1.5,16.5,8,14.7,2.2-.6,2.8-2.7,3.1-4.6a72,72,0,0,0,.8-15.4c-.2-6-.4-11.9-6.5-14.8s-16.3-1.8-23.3.1c-1.5.4-1.7,3,0,3.3,5.1.7,10.1,2,15.2,2.9v-4.3c-4.7,1.3-10.3,1.3-14.4-1.8l-1.7,2.9a26.1,26.1,0,0,0,2.8,1.7l-1.4-3.2c-1.1,3.6-3.9,10.9-.6,14a.8.8,0,0,0,.8.1Z" fill="#282561"/><path d="M420.9,172.9c.2,8.8-1.6,16.7-3.1,25.3l5.9.8a36.8,36.8,0,0,1,2.5-10.9c.7-1.9,2.4-4,2.1-6.2s-1.1-2.4-1.9-3.4l-6.8-8.1c-3-3.5-5.9-6.8-11-6.2s-9.8,4.6-13.5,7.9c-1.7,1.4-.3,4,1.7,4.1a11.2,11.2,0,0,0,4-.7l-2.2-2.7a14,14,0,0,1-5.2,6.6l3.6,2.1a42.9,42.9,0,0,1,1.6-13.3c.6-2.2-2.7-3.7-3.6-1.6s-3.2,5.5-3.8,8.5a1.6,1.6,0,0,0,2.7,1.6c2.5-2.2,3.5-5.5,4.7-8.5l-3.8-1.1a50.8,50.8,0,0,0-2.6,14.4c-.1,2.3,2.6,3,4.1,1.7a18.1,18.1,0,0,0,5.8-9,1.9,1.9,0,0,0-2.3-2.3l-1.8-.2v4.1c3.1-1.8,6.1-4.8,9.5-6.1,5.9-2.2,9.7,4.2,13.1,7.8.7.8,3.7,3.1,3.9,4.2s-2.2,4.4-3,6a38.6,38.6,0,0,0-3.7,10.5c-.9,3.8,5.1,5.4,5.8,1.6,1.7-8.8.7-18.4-.7-27.2-.2-1.1-2-.8-2,.3Z" fill="#282561"/><path d="M390.8,252.5c.4-.5.2-.9.1-1.5l-.3-2c-.1-.8-1.4-.5-1.2.3l.4,1.9c.1.5.1,1,.6,1.3Z" fill="#282561"/><path d="M387.8,246.3c-1.6,6-1.4,14.1-.1,20.2.8,3.5,6.1,2,5.4-1.5s-1.1-5.4-1.8-8.1-2.1-6.1-2.1-9-3.3-2-3.1,0c.6,4.9,1.1,9.9,1.6,14.8l5.3-.7c-1.5-4.2-3.1-8.2-4.7-12.4-.6-1.5-3.4-1.5-3.1.5l.5,4.3c.2,1.9,3.1,2,3,0l-.3-4.3-3.2.4c.8,4.3,1.6,8.6,2.6,12.9s6.1,1.9,5.2-1.4-2.6-9.7-3.9-14.5l-2.8,1.2c1.2,2.5,1,6,1.2,8.7a76.9,76.9,0,0,1,.1,8.3h5.6c-.3-3.4-1.2-6.7-1.5-10.2s-.3-6.2-.8-9.2-2.7-1.4-3.1,0Z" fill="#282561"/><path d="M465.7,214.8c.2,0,.2-.5,0-.5a.3.3,0,0,0,0,.5Z" fill="#282561"/><path d="M458.8,253.8c.1,0,.4,16,.3,17.4a137.1,137.1,0,0,1-2.4,19h4.4a7.1,7.1,0,0,1-.6-4.1,1.2,1.2,0,0,0-2.2-.6,15.4,15.4,0,0,0-1.6,4.7c-.4,2.8,3.7,4.1,4.4,1.2a80.6,80.6,0,0,0,1.3-24c-.3-3.5-.8-7.1-1.4-10.6-.4-1.7-.1-3.8-1.9-4.5s-.9.2-.9.6h-.1c0,.4.2.9.7.8Z" fill="#282561"/><path d="M379,330.3a.3.3,0,0,0,0-.5.3.3,0,0,0,0,.5Z" fill="#282561"/><path d="M377.4,295.1c2.4,7.3,4.7,13.7,5.1,21.5a54.7,54.7,0,0,1-3.2,22,.8.8,0,0,0,1.4.6c6.9-13.5,8.7-32.2-.3-45.3-1-1.5-3.6-.7-3,1.2Z" fill="#282561"/><path d="M394.3,290.1a.5.5,0,0,0,0-1c-.6,0-.7,1,0,1Z" fill="#282561"/><path d="M397.1,267.3c.3,7.6,1.5,14.7.6,22.3a62.1,62.1,0,0,1-2.2,11.4c-.5,2-2.6,11.1-4.5,11.4s-1.4,2-.7,2.8l.4.5a2,2,0,0,0,2,.6c3.3-1,3.9-4.7,4.8-7.6a73.5,73.5,0,0,0,3.1-13.9c.9-8.7.9-19.5-2.6-27.7-.2-.5-.9-.2-.9.2Z" fill="#282561"/><path d="M391.9,300.6a146.3,146.3,0,0,1-8.6,19.5.3.3,0,0,0,.6.3,106.7,106.7,0,0,0,8.3-19.7.2.2,0,1,0-.3-.1Z" fill="#282561"/><path d="M364.4,255.4l-5-1.8.4,1.2c5.4-8.2,21,13.1,23.7,16.4,1.1,1.3,2.9-.3,2.2-1.7-3.1-6.4-9.6-11.5-15.5-15.3-3.7-2.4-8.8-5-11.8-.2a.9.9,0,0,0,.5,1.2l5.2,1.6a.7.7,0,0,0,.3-1.4Z" fill="#282561"/><path d="M335.5,328.8l-.2-.2.9,2.4.2-.3-3.1,1.2c2.3,1.4,4,4.5,6,6.2a31.9,31.9,0,0,0,6.9,4.6c4.9,2.4,10.6,3.6,16,1.9,2.5-.8,2.2-4.9-.7-4.9-9.9.3-18.6-7.4-25.7-13.5l-1.7,2.2a86.1,86.1,0,0,0,24.3,12c2.5.7,3.9-2.9,1.8-4.2-7-4.2-14.5-7.6-21.7-11.5l-1.3,3.1c12.5,4.1,24.7,9.2,38.1,8.9,3.2,0,3.4-4.1.7-5.2a57.9,57.9,0,0,0-16.4-4c-1.2-.2-1.3,1.6-.3,1.9a60.2,60.2,0,0,1,14.7,7l1.3-4.9c-12.8.6-25.3-2.6-37.2-7-1.9-.7-3,2.1-1.3,3.1,7,4.1,13.8,8.8,21.1,12.5l1.7-4.1a78.4,78.4,0,0,1-24.1-10,1.4,1.4,0,0,0-1.6,2.2c8.2,7.4,16.1,13.4,27,16.4l.6-4.9c-6,.4-11.3-.1-16.5-3.4-3.5-2.3-6.3-6.6-10.1-8.2a2.1,2.1,0,0,0-2.5,1.4v.4a2,2,0,0,0,1.4,2.5h.2c2.2.7,3.6-2.7,1.6-3.7Z" fill="#282561"/><path d="M344.9,326.5c3.5-.1,6.4,5.3,8.3,7.7s5.3,6.3,7.7,9.6,4.1,5.5,5.9,8.3,3.2,6.6,5.7,9.1l1.5-3.7-.9-.2a1.1,1.1,0,0,0-1.7.9,6.1,6.1,0,0,0,.8,2.6c1.1,2.3,4.4.6,3.9-1.7-.9-4.2-4.2-8-6.7-11.4s-6-7.4-9.2-10.9-6.3-7.2-10-9.9c-1.8-1.4-3.4-1.9-5.5-.9-.3.1-.1.5.2.5Z" fill="#282561"/><path d="M360.2,329.9a301.5,301.5,0,0,1,9.6,36.2c2.6,12.7,5.1,25.9,4.2,38.9l5.1-2.1a16.8,16.8,0,0,1-3.3-4.6c-1-1.8-3.5-.5-3.2,1.3a43.1,43.1,0,0,0,1.5,6.2,3,3,0,0,0,5.9-.8c1-12.8-2.7-25.9-6-38.1a348.5,348.5,0,0,0-12.4-37.4c-.3-.9-1.8-.6-1.4.4Z" fill="#282561"/><path d="M358.6,337.4c7.8,24.2,13.4,48.8,14.6,74.3l6.3-.9a125.9,125.9,0,0,0-6.4-17.8c-.8-1.7-3.4-.4-3,1.3a143.9,143.9,0,0,1,3.1,17.4c.6,4,6.8,4.2,6.4,0-2.4-25.8-8.4-51.4-19.8-74.8-.3-.6-1.4-.2-1.2.5Z" fill="#282561"/><path d="M315.3,255.8c1.6,14.9,5.2,29.7,8.5,44.3,1.7,7.6,3.4,15.2,5.2,22.7s3.2,15.4,6,22.6a3,3,0,0,0,5.8-1.6,75.2,75.2,0,0,0-3.8-14.1c-.6-1.3-3-1.4-2.9.4.3,4.8.7,9.6.8,14.5l5.9-.8c-1.3-7.6-4-15.1-6.1-22.5s-3.9-14.4-5.8-21.6c-3.8-14.7-6.8-29.7-11.3-44.2-.4-1.2-2.5-1-2.3.3Z" fill="#282561"/><path d="M341.2,320.2c3.9,15,6.4,30.4,8.7,45.7,1.2,8.1,2.2,16.2,3.1,24.2.4,3.6.8,7.1,1.1,10.6s0,5.8,2.5,8.2,4.6-.9,3-2.9l-.2-.3a1.8,1.8,0,0,0-2.1-.2l-.2.2,2.8,2.8c2-2.8,1.1-5.4.7-8.8l-1.5-10.4c-1.2-7.9-2.7-15.8-4.3-23.7-3.3-15.5-7.7-30.6-12-45.8-.3-1-1.9-.6-1.6.4Z" fill="#282561"/><path d="M345.5,337.9c4.6,30.9,7.1,62.2,9.9,93.3l7-1c-2.7-11.4-4.9-22.9-7.1-34.5a1.1,1.1,0,0,0-2.2.3c.9,11.7,1.8,23.4,2.3,35.2.1,4.6,7.6,4.5,7.1,0-3.4-31.6-8.9-62.7-14.3-94-.3-1.7-2.9-1-2.7.7Z" fill="#282561"/><path d="M348.7,352.5q2.4,18,4.2,36c.6,5.8,1.2,11.7,1.7,17.5s.3,11.9,2,17.3a2.6,2.6,0,0,0,5-.7c.4-5.3-1.3-11-2.2-16.2s-2.1-12.3-3.2-18.4c-2.1-11.9-4.3-23.8-6.5-35.7-.1-.6-1.1-.4-1,.2Z" fill="#282561"/><path d="M431.6,431c-.6-.3.1-9.4.2-10.7.1-4.8.4-9.6.9-14.3a279.8,279.8,0,0,1,4.4-28.9,1.3,1.3,0,0,0-2.5-.7,131.3,131.3,0,0,0-6.5,36.3c-.1,2.3-2,22.3,3.6,19.3a.5.5,0,0,0-.1-1Z" fill="#282561"/><path d="M432.9,382.8c-1.1,17.8-2.1,35.5-3.3,53.2l3.7-.5c-2.8-12.6-1.8-26-1.3-38.7s2-26.2,2.5-39.3c.1-2.4-3.4-2.3-3.7,0a460,460,0,0,0-3.6,67.4c.1,2.9,4.6,2.9,4.5,0a293.3,293.3,0,0,1,2.3-39.8c1.8-13.2,5-26.1,8.1-39.1l-4.8-1.3c-3.4,24.1-7.1,48-9.6,72.3h5.4a171.3,171.3,0,0,1,2.6-38.5c2.3-12.4,6.5-23.9,10.5-35.9l-5.6-1.5c-3.8,14-8.9,28-11.2,42.4l5.7.8c1.8-17.9,4.4-35.6,7.1-53.4l-2.7-.7c-2.6,17.8-8.1,35.9-14.7,52.7l3.4.9c.6-3.8.2-7.5.6-11.3s1.2-8,2-12c1.4-7.6,3.4-15.2,5.2-22.7a.5.5,0,1,0-.9-.3,212.5,212.5,0,0,0-5.9,23.5c-.8,3.7-1.3,7.4-2,11s-2.1,7.5-2.4,11.3c-.2,2.1,2.8,2.3,3.4.5,5.5-17.5,9.7-35.1,14-52.9.4-1.7-2-2.3-2.7-.7-6.5,17.1-8.1,35.9-10.2,54.1-.4,3.2,5.1,4,5.7.7,2.6-14.3,4.8-28.3,10.9-41.7,1.5-3.4-3.4-6.3-5-2.9-10.8,23-14,51.4-13.2,76.6.1,3.4,5.2,3.4,5.4,0,1.3-23.6,3.8-47.9,9-71,.8-3.1-3.8-4.4-4.8-1.3-8.4,25.2-11.2,53.7-10.1,80.2h4.5a332.6,332.6,0,0,1,2.7-66.9l-3.5-1c-2.2,13.4-2.8,27.2-3.2,40.7s-1.2,26.2,2,38.8a1.9,1.9,0,0,0,3.7-.5c.6-17.7,1.3-35.4,2-53.2.1-1.6-2.4-1.6-2.5,0Z" fill="#282561"/><path d="M440.3,182.7a51,51,0,0,0,20.7,4.8,1.1,1.1,0,0,0,0-2.2,55.9,55.9,0,0,1-20.2-4c-.8-.3-1.3,1.1-.5,1.4Z" fill="#282561"/><path d="M439,137.2c.3,5,9,7.7,13.1,8.8s13.7,2.6,18.8-.9c.9-.7,1.1-2.7-.4-2.9-5.8-.8-11.3.5-17.1-.9a36.1,36.1,0,0,1-8.6-3.5c-2-1-3-1.9-5.2-1.5a1,1,0,0,0-.6.9Z" fill="#282561"/><path d="M452.3,140.8l-5.1-1.7c-.6-.2-.9.8-.3,1.1l5.1,1.7a.6.6,0,0,0,.3-1.1Z" fill="#282561"/><path d="M435,135.6c1,2.1,4.1,3.5,6.2,4.5a17.2,17.2,0,0,0,7.7,1.9.9.9,0,0,0,.2-1.8c-2.4-.7-4.8-1.2-7.2-2s-4.3-2.6-6.6-3c-.2,0-.4.2-.3.4Z" fill="#282561"/><path d="M440.3,113.4a48.8,48.8,0,0,0,18.1,6.6c3.5.4,9.8.5,11-3.9a1.3,1.3,0,0,0-.9-1.6h-.3a1.1,1.1,0,0,0-.8.2c-1.9,2.5-10.4.4-12.9-.3a64.8,64.8,0,0,1-12.1-4.4c-2.4-1.1-4.4,2.1-2.1,3.5Z" fill="#282561"/><path d="M464,116a46.6,46.6,0,0,1-23.1-2.8c-1-.4-1.5,1.3-.4,1.5a71.6,71.6,0,0,0,23.5,2c.4-.1.4-.7,0-.7Z" fill="#282561"/><path d="M334.6,140.8a56.1,56.1,0,0,0,39.1-2.4c1.9-.8.4-3.4-1.3-3.1a107,107,0,0,0-14.9,3.3c-5.4,1.9-10.7,4.3-16.6,4.7-.8,0-2.5.4-3.2,0s-1.1-.1-.9-1,.2-1.2,1.1,0,2.3,1.4,3.6,1.8a11.8,11.8,0,0,0,9.7-.8c1-.5.3-2.1-.8-1.9-4.7,1.2-8.4,1.1-12.7-1.1-1.5-.8-3.2-2.5-5.1-1.6s-1.8,2.9-.5,4.4c3.2,3.7,12.4,2.3,16.5,1.6,8.2-1.4,16-5.6,24.2-6l-.4-3.4a60.5,60.5,0,0,1-37.1,3,1.3,1.3,0,1,0-.7,2.5Z" fill="#282561"/><path d="M341.3,95.1a159.4,159.4,0,0,1,18.3,1.6,22.6,22.6,0,0,0,4.5.1c2.7-.3,4.7-2,7.3-2.6s1.5-3.6-.5-3.8c-10.9-1.1-24.4,4.6-33-4.6l-1.6,4c3.7,0,7.4,5.2,10.9,6.7a14.2,14.2,0,0,0,9.1.7c2-.5,1.3-3.1-.4-3.3-4.9-.6-8.8-1.4-12.5-4.7-2-1.9-3.6-3.6-6.5-4.1s-4,1.6-2.7,3.6c8.5,12.1,24.7,5.2,36.7,5.6V90.4c-2.2.1-4.1,1-6.3,1.4a27.6,27.6,0,0,1-7.6,0,61.2,61.2,0,0,0-16,.6c-1.6.2-1.2,2.7.3,2.7Z" fill="#282561"/><path d="M398.9,240.4a3.3,3.3,0,0,0,.4-1.4,7.9,7.9,0,0,0-.3-1.3.6.6,0,0,0-1,0,6.5,6.5,0,0,0-.4,1.3,2.2,2.2,0,0,0,.3,1.4c.2.6.8.5,1,0Z" fill="#282561"/><path d="M398.8,239.3c.4-.2,1.1.2,1.5.2a11.6,11.6,0,0,0,1.8-.4,6.7,6.7,0,0,1,3.4.7c1.8.9,4.7-1.2,3.2-3.2a8.6,8.6,0,0,0-6.4-3.4l.3,2.9a3.3,3.3,0,0,1,2.9.4l-.7-1.2v.3a1.9,1.9,0,0,0,2.4,1.8h.4c.5-.2,1.1-.8,1-1.4v-.3c-.1-1.3-1.6-2.6-2.9-1.7l-.2.2h1.1a21.7,21.7,0,0,0-4.3-.8c-1.9-.1-1.9,2.3-.4,2.9a6.1,6.1,0,0,1,2.7,2.8l2.7-3.4a11.1,11.1,0,0,0-5.4-.4,9,9,0,0,0-2.3.8c-1.1.5-1,1.4-1.8,2.1a.8.8,0,0,0,1,1.3Z" fill="#282561"/><path d="M408.9,237.6c-1.6,8.9-3.1,17.8-4.4,26.7a1.7,1.7,0,1,0,3.3.4c.8-9,1.5-18,2-27,.1-.5-.8-.6-.9-.1Z" fill="#282561"/><path d="M334.3,346.5a.3.3,0,0,0,0-.6c-.3,0-.3.6,0,.6Z" fill="#282561"/><path d="M335.3,344.9l1.5-1-2.4-1.4c-.6,13.3.1,26.7.5,39.9.2,6.5.5,13,.7,19.5s-.8,12.6,2.4,17.5a1.9,1.9,0,0,0,3.2,0c2.7-5.2,1.1-11.9.8-17.5s-.7-13.6-1.1-20.4c-.9-13.1-1.5-26.4-3.4-39.4-.2-1.8-3.3-1.4-3.1.4l.2,2a.5.5,0,0,0,.7.4Z" fill="#282561"/><path d="M338.6,339.4c-.9,16.4-1.6,32.7-1.8,49.2-.1,7.8-.2,15.7-.2,23.6.1,3.9.1,7.9.2,11.8s-.7,7.9,1.6,11.1a2.5,2.5,0,0,0,4.3,0c2-3.2,1.3-6.4,1.2-10.1l-.3-11.8c-.2-8.2-.5-16.4-.7-24.6-.4-16.4-.9-32.8-1.3-49.2a1.5,1.5,0,1,0-3,0Z" fill="#282561"/><path d="M430.6,382.2c-1.8,8.3-.7,17.7-.8,26.1s-.7,18.4-.4,27.6l4.8-2.7.6.7a2.3,2.3,0,0,0-2.7-1.5,4.3,4.3,0,0,0-2.3,1.9c-2.4,4.5,5.6,7,5.9,1.6.7-9.1.2-18.4.1-27.6s.6-18-1.7-26.1c-.5-1.6-3.1-1.8-3.5,0Z" fill="#282561"/><path d="M419.1,228.8c7.3,5.3,17.8,6.1,26.5,5.5a1.8,1.8,0,0,0,0-3.6c-7.8-.6-15.1-.4-21.3-5.8l-.6,1c9.4,2.6,17.8,4.1,27.5,2.2a.6.6,0,0,0-.3-1.2c-8.7,2-18.7,2-26.8-2.1a.6.6,0,0,0-.7,1c5.5,5.9,14.4,7.9,22.2,8.5v-3.6c-9.3,1-17.2-1.2-26.2-2.6a.4.4,0,0,0-.3.7Z" fill="#282561"/><path d="M421.4,213.8c4.1.6,8.2-.4,12.1-1.6s8.6-2.4,11.3-5.4c.7-.8.3-2.3-.9-2.2-3.9.4-7.6,2.8-11.4,4.2s-7.7,2.2-11.2,4.1a.5.5,0,0,0,.1.9Z" fill="#282561"/><path d="M428,210.8c2,.9,4.2.5,6.3.4s4.5-.1,6.6-1.1a1.1,1.1,0,0,0-.3-2c-2.2-.6-4.5,0-6.7.3s-4.2.2-5.9,1.3-.4.9,0,1.1Z" fill="#282561"/><path d="M406,267.1c-1.7,8.1-1.8,16.3-4.2,24.3a75,75,0,0,1-4.6,11.9c-1.7,3.6-4.3,6.9-5.5,10.7-.6,1.8,1.7,2.8,3,1.7,6-5.1,9.3-15.7,11.3-23.2s3.7-17.6,1.3-25.4a.7.7,0,0,0-1.3,0Z" fill="#282561"/><path d="M389.2,310.5c-1.7,3.3,2.7,3.6,4.6,1.7,4.7-5,8.3-12.5,9.9-19.1.2-.9-1.1-1.5-1.5-.7-1.5,3.4-2.8,6.8-4.5,10.1-.8,1.6-1.8,3.2-2.7,4.7a18.8,18.8,0,0,1-1.6,2.3q-.6,2.3-2.7,1.8a.9.9,0,0,0-1.5-.8Z" fill="#282561"/><path d="M349.1,268.3c-.2,3.6,2.3,7,3.6,10.3a47.8,47.8,0,0,1,3.4,14c.6,8.8-2.6,15.8-4.7,24.1-.4,1.7,1.8,3.2,3,1.8,6-6.5,7.2-17,6.1-25.4a44.9,44.9,0,0,0-3.8-13.3c-1.6-3.8-3.4-9.5-7.1-11.7a.3.3,0,0,0-.5.2Z" fill="#282561"/><path d="M357.5,257.2c6.1-5.6,17.7,6.6,21.5,11a31.8,31.8,0,0,1,7.6,19.5c.9,14.3-6.4,25.7-11.8,38.3-.8,1.9,1.5,4.2,3.1,2.4,11.7-12.8,18.5-33.3,13-50.2a36.3,36.3,0,0,0-15.4-19.1c-5.2-3.2-13.2-7.9-18.4-2.2-.2.2.1.5.4.3Z" fill="#282561"/><path d="M361.5,52.7a64,64,0,0,0-8.8-.7c-2.4,0-5-.3-6.7,1.6a1,1,0,0,0,0,1.5c1.7,1.6,3.9,1.4,6.1,1.4H361c2.1,0,2.7-3.4.5-3.8Z" fill="#282561"/><path d="M361.1,53.5c-1.9-.7-4.1-.6-6-.7a18.4,18.4,0,0,0-6.2.3,1,1,0,0,0,.3,1.9,33.5,33.5,0,0,0,6.3-.5c1.9-.2,3.8,0,5.6-.5.2,0,.2-.4,0-.5Z" fill="#282561"/><path d="M341.4,56c-2.6,7.3-3.1,15.7-4,23.4s-3.1,17-2.5,25.2c.2,2,3.1,2.6,3.7.5,2.3-7.5,2.2-16,2.9-23.8s2.2-17,1.1-25.1c-.1-.7-1-.9-1.2-.2Z" fill="#282561"/><path d="M339.8,59c-1.4,14.9-2.3,29.7-3.3,44.6-.4,7.2-1,14.5-1.5,21.7s-2.1,14.5-.8,21.3c.4,1.9,3,1.5,3.6,0,2.4-6.1,2.2-13.8,2.7-20.3s1-15.1,1.3-22.7a349.5,349.5,0,0,0-.9-44.6.6.6,0,0,0-1.1,0Z" fill="#282561"/><path d="M335.6,85.4c2,12.3,2.2,24.7,2.7,37.1a2.4,2.4,0,0,0,4.7,0c.7-12.8-1.5-25.5-4.6-37.8-.4-1.9-3.1-1.1-2.8.7Z" fill="#282561"/><path d="M337.6,182.7a223.1,223.1,0,0,0,3.6-34.6c.2-10.7.6-23.1-3.7-33-.5-1.3-2.5-.6-2.5.7.1,19.5-2,39.3-.3,58.8a2,2,0,0,0,3.9,0c1.5-19.5-.8-39.3-.9-58.8H335c-1.1,10.5,1.4,21.6,1.7,32.3a212.2,212.2,0,0,1-1.9,33.8c-.2,1.8,2.5,2.6,2.8.8Z" fill="#282561"/><path d="M336.3,200.5a104.1,104.1,0,0,0,3.8-28.8c0-2.4-4-3.2-4.4-.6a105.2,105.2,0,0,0-1.4,29.1c.1,1.1,1.7,1.5,2,.3Z" fill="#282561"/><path d="M313.5,254.5l-1.1-.4.5,2c4.1-3.3,8-7.1,11.9-10.6s8.2-6.8,11.9-10.6a1.3,1.3,0,0,0-1.6-2.1c-9.1,5.2-17.8,13.5-24.1,21.9-.9,1.2,1.4,2.6,2.1,1.2l.5-1c.1-.1,0-.3-.1-.4Z" fill="#282561"/><path d="M311.7,257.1l19.2-19c5.7-5.8,12.8-12.1,16.7-19.4a1.7,1.7,0,0,0-2.3-2.2c-7.3,4.3-13.4,12.2-18.8,18.6s-10.9,13.9-16,21.1c-.5.7.6,1.4,1.2.9Z" fill="#282561"/><path d="M320.2,248.5c7.7-7.3,16.6-13.9,23.7-21.8,1.3-1.4-.3-3.9-2.1-2.8-9,5.8-16.6,14.6-23.6,22.6-1.1,1.3.7,3.2,2,2Z" fill="#282561"/><path d="M348.1,219.9l20.7-3.3c6.2-1,13.4-2,18.7-5.5a1.6,1.6,0,0,0-.8-2.9c-6.4.1-13,2.2-19.2,3.4s-13.7,2.7-20.3,5.1a1.7,1.7,0,0,0,.9,3.2Z" fill="#282561"/><path d="M348.4,217.9c7.7-.9,15.3-1.8,23-2.9s16.5-1.9,24.3-4.3a2.2,2.2,0,0,0-.6-4.3c-15.7.2-32,5.4-46.9,9.8-.9.3-.8,1.8.2,1.7Z" fill="#282561"/><path d="M393.5,209.5a1,1,0,0,0,1.2-.6c.3-.4-.5-.8-.7-.4s-.2.3-.4.3-.6.5-.1.7Z" fill="#282561"/><path d="M362.9,240.7c.2,0,.2-.2,0-.2s-.2.2,0,.2Z" fill="#282561"/><path d="M357.8,235.6a33.3,33.3,0,0,0,4.4,7.8c1.5,2,2.9,3.8,5.4,4.3a1.8,1.8,0,0,0,1.4-3.2c-1.9-1-2.9-3-4.2-4.6a32.6,32.6,0,0,0-5.1-5.4c-.8-.7-2.4-.1-1.9,1.1Z" fill="#282561"/><path d="M360,235.6a21,21,0,0,0,2.7,7.6c1.2,1.8,3.2,4,5.5,4.1.6.1.9-.7.7-1.2s-3.1-2.9-4.5-4.3a16.5,16.5,0,0,1-4.3-6.3c0-.1-.2,0-.1.1Z" fill="#282561"/><path d="M366.6,245.2c3.2,1.5,6,.8,9.2-.4s6.8-2.8,8.5-5.8a1.3,1.3,0,0,0-1.2-2c-5.8.4-9.8,6.6-15.9,6.2-1.1,0-1.6,1.6-.6,2Z" fill="#282561"/><path d="M368.9,245.5c6.3-.9,14.6-1.6,20.1-5,1-.6.7-2.4-.6-2.3-3.2.1-6.4,1.6-9.5,2.5s-6.9,2.3-10.4,3.4a.7.7,0,0,0,.4,1.4Z" fill="#282561"/><path d="M377.8,242.5a24.2,24.2,0,0,0,9.8-2.6c2.9-1.4,6.6-3.6,8.3-6.4a1.8,1.8,0,0,0-2.4-2.4c-2.7,1.4-5.1,4-7.7,5.7s-5.5,3.1-8.3,4.7c-.5.2-.3,1,.3,1Z" fill="#282561"/><path d="M395.9,210.9c-.8,4.8-.3,9.6-.6,14.4a1.6,1.6,0,0,0,2.4,1.3c2.1-1.1,1.8-3.5,1.8-5.6a56.8,56.8,0,0,0-1.1-10.1,1.3,1.3,0,0,0-2.5,0Z" fill="#282561"/><path d="M396.1,209.5c-.9,2.7-.4,6-.6,8.9a80.4,80.4,0,0,1-2,10.9c-.8,3,3.8,4.3,4.7,1.3a38.4,38.4,0,0,0,1.3-12.2c-.2-3.1-.3-6.7-2.3-9.2-.3-.4-.9-.1-1.1.3Z" fill="#282561"/><path d="M396,216.5l-1.7,9c-.4,2.5-1.5,5.2-.5,7.6a1.6,1.6,0,0,0,2.9.4c1.5-2.2,1-5,1-7.5v-9.2c0-1-1.5-1.2-1.7-.3Z" fill="#282561"/><path d="M395.2,231.4c.1,0,.1-.1,0-.1Z" fill="#282561"/><path d="M353.6,235.4c2.4,2.4,4.6,4.9,7.5,6.6a1.3,1.3,0,0,0,1.8-1.7,43.9,43.9,0,0,0-7.1-7.2c-1.5-1.3-3.7.8-2.2,2.3Z" fill="#282561"/><path d="M361.4,244.4a42.8,42.8,0,0,0-7.2,12.4c-.3.8.7,1.2,1.3.7,3.5-3.1,5.9-7.8,7.3-12.2.2-.8-.9-1.6-1.4-.9Z" fill="#282561"/><path d="M350.6,263.1c2.5-.8,4.4-4.3,5.9-6.4s4.5-6.1,5.2-9.7c.3-1-1.1-2.1-1.9-1.1-2.3,2.6-3.6,5.9-5.3,9s-4.1,5.2-4.3,8a.3.3,0,0,0,.4.2Z" fill="#282561"/><path d="M340.4,267.5a4.9,4.9,0,0,0-1.7.6l.4,1.7a34.3,34.3,0,0,0,5.2-2.3c1.7-.8,3.7-1.4,5.1-2.6s-.1-2.3-1.2-2.1a24.5,24.5,0,0,0-5.1,2.6,38.2,38.2,0,0,0-4.8,2.9.9.9,0,0,0,.8,1.5,2.9,2.9,0,0,1,1.3-.1c1.4.1,1.4-2.3,0-2.2Z" fill="#282561"/><path d="M338,270.8c2.8,0,5.7-1.6,8.1-2.8s6-2.8,8.4-4.8-.4-3.5-2.1-2.7-5.3,3.2-7.9,4.8-5.1,2.6-6.8,4.6c-.3.4-.1.9.3.9Z" fill="#282561"/><path d="M353.5,265.9c2.6-3.8,5.5-7.5,8.1-11.3s5.5-7.2,6.7-11.4c.5-1.7-1.5-2.5-2.7-1.6-3.6,2.9-6,7.6-8.5,11.4s-5.6,7.6-6.6,11.7c-.5,1.8,1.9,2.7,3,1.2Z" fill="#282561"/><path d="M390.2,247c1.3-1.7,1.1-3.6.7-5.6s-.5-3.4-2-4l-.8.4a26.3,26.3,0,0,0-.6,3.9,14.8,14.8,0,0,0-.1,4.2,1.3,1.3,0,0,0,2.5,0,14.8,14.8,0,0,0-.1-4.2,26.3,26.3,0,0,0-.6-3.9c-.1-.4-.5-.5-.9-.4s-1.7,2.6-2,4-.5,3.9.8,5.6a2.1,2.1,0,0,0,3.1,0Z" fill="#282561"/><path d="M390.4,239.6c5.1-.2,11.3.5,16.2-1.4l-1.8-2.3-1.2.5c-.6.1-1,1-.3,1.3a6,6,0,0,0,2.4.5c2,.3,2.9-2.6.9-3-5.3-1.3-11.5.9-16.4,2.6-1,.4-.9,1.9.2,1.8Z" fill="#282561"/><path d="M400.4,236.9a49.3,49.3,0,0,1-10.1.9c-1.9-.1-1.9,3,0,2.9h.8c1.5-.1,2-2.3.4-2.6l-.8-.2.3,2.7c3.1-1.8,6.1-2.4,9.5-3a.3.3,0,0,0-.1-.6Z" fill="#282561"/><path d="M379.8,242.2c-1,2.1-1.1,4.5-1.3,6.7s-.7,5,.5,7.2,5.7.7,4.6-2a15.5,15.5,0,0,0-1.4-2.9.9.9,0,0,0-1.6,0,11.3,11.3,0,0,1-1.2,1.8l3.9,3.1c1.3-2.2.7-4.7.5-7.2a22,22,0,0,0-1.2-6.7,1.7,1.7,0,0,0-2.8,0Z" fill="#282561"/><path d="M367,211c-.2-6.7-.5-13.9-3.2-20.2-.7-1.7-3.5-1.7-3.4.5.1,6.6,1.3,13.1,1.4,19.7.1,3.3,5.2,3.3,5.2,0Z" fill="#282561"/><path d="M362,210l.8,1.1a.4.4,0,0,0,.7-.2,127.9,127.9,0,0,0,.9-13.8c.3-4.7.8-9.4-.1-14.1l-2.3,1a5.2,5.2,0,0,1,1.3,5.5c-.1.6.8,1.1,1.1.5a108.3,108.3,0,0,0,4.8-13.5c1.5-4.6,3.1-9.2,3.4-14.1l-3.2-.5c-1.4,6.6-3.2,13-4.6,19.6-1,4.5-3.3,10.2-.9,14.5,1,1.8,3.5.5,3.2-1.3-1.1-5.6.4-11.4,1.6-16.9s2.3-10.1,3.8-15a1.6,1.6,0,0,0-2.9-1.3c-4.3,7.9-6.4,19.2-6.3,28.2h1.2c0-2.1,0-4.2-.2-6.3s-2.1-1.8-2.4-.4c-1,4.7-.4,9.4-.1,14.1,0,1.4-.3,12.2.4,12.6s-.3.2-.2.3Z" fill="#282561"/><path d="M398.8,227.3c3.5,0,7.4-.1,10.4-2.2a1.8,1.8,0,0,0-.9-3.4c-3.4-.3-6.8.9-10.1,1.3s-1.8,4.3.6,4.3Z" fill="#282561"/><path d="M398.4,220.7a20.1,20.1,0,0,0,10.3,1.2c1.9-.3,1.3-3.1-.4-3.2s-6.1-.3-9.1-.8-2.6,2.1-.8,2.8Z" fill="#282561"/><path d="M397.7,187.7c3.7-.2,7.3-1.2,11-1.3s7,1,10.5.3c1.3-.3,2-2.4.9-3.2-5.9-4.6-17.9-2.4-23.1,2.5a1,1,0,0,0,.7,1.7Z" fill="#282561"/><path d="M420.9,189.1c-4.2-1.3-9-.6-13.3-.3s-9.2.9-13.7,1.7c-2.6.4-2,4.7.6,4.6a124.6,124.6,0,0,0,13.7-1.4c4.3-.6,9.2-.9,12.9-3a.9.9,0,0,0-.2-1.6Z" fill="#282561"/><path d="M365.2,188.1c4.2,1.3,9.1.4,13.4-.3a55,55,0,0,0,14.3-3.8c2-.8.4-3.4-1.3-3.1-4.8.7-9.4,1.8-14.2,2.7s-8.6.9-12.5,2.6c-.9.4-.5,1.7.3,1.9Z" fill="#282561"/><path d="M376.9,182.2a26.2,26.2,0,0,0-5.6-.1l-1.8.2c-.6,0-2.8.8-3.3.5l.4.8-.3.4-.9-.4h0c.4,1,2,.2,1.4-.8h0a.9.9,0,0,0-.9-.4c-.5.2-.7.3-.8.8s0,.8.3.9,2.8-.2,4.1-.5a36.4,36.4,0,0,1,7.4-.4c.6,0,.6-.9,0-1Z" fill="#282561"/><path d="M365,248.2c.1,2.9,3.7,4.5,5.9,5.6a21,21,0,0,0,9.8,2.5c2.2.1,2.3-2.8.5-3.5s-5.7-2.2-8.4-3.4-4.8-3-7.1-2.2a1,1,0,0,0-.7,1Z" fill="#282561"/><path d="M370.9,251.4l3.8,1.4c1.4.5,1.9-1.7.6-2.2l-3.8-1.5c-1.4-.5-2,1.8-.6,2.3Z" fill="#282561"/><path d="M341.8,187.1c3.2,1.7,7.4-.7,10.5-1.8s8.1-3,11.1-6c1.4-1.2,0-3.2-1.6-2.8-4,.7-7.7,3-11.3,4.6s-7.4,2.3-8.9,5.3a.6.6,0,0,0,.2.7Z" fill="#282561"/><path d="M364.5,175.1c-3.5.3-7.2,2.5-10.3,4.2A92.8,92.8,0,0,0,343,187c-1.1.8-.1,2.7,1.2,1.9,3.5-2.3,7.2-4.4,11-6.4s7.3-3.2,10-5.8a.9.9,0,0,0-.7-1.6Z" fill="#282561"/><path d="M333,199c-1,8.4-.6,17.3-.8,25.8a1.2,1.2,0,0,0,2.4.3c2-8.5,3.3-17.9,1.8-26.5-.4-2.1-3.2-1.3-3.4.4Z" fill="#282561"/><path d="M333.5,233.7c1.8-1.2,2-3.8,2.4-5.8a21.6,21.6,0,0,0,0-7.6c-.3-1.7-3-1.6-3.4,0a33.7,33.7,0,0,0-.9,7.1c0,1.9-.5,4.4.7,6s.8.6,1.2.3Z" fill="#282561"/><path d="M408.4,335.9v-.6c0-.3-.6-.3-.6,0v.6c-.1.6.9.6.8,0Z" fill="#282561"/><path d="M408.1,338.3c7.4-1.4,15-2.3,22.2-4.8,3.9-1.3,9.1-3.6,9.2-8.4a1.7,1.7,0,0,0-2-1.5c-4.6,1.1-8.9,3.7-13.5,5l-17.4,4.3c-3.5.9-1.9,6,1.5,5.4Z" fill="#282561"/><path d="M432.8,326.2l-2.2.9c-.1.1,0,.3.2.3l2.1-1c.2,0,.1-.3-.1-.2Z" fill="#282561"/><path d="M411.7,333.3l-3.3.9a1.4,1.4,0,0,0,.4,2.8c10.7.5,21.5,1,32.2.4,3.2-.2,3.9-3.9,1.5-5.7l-2.1-1.7v5.1c4.7-3.3,6.8-12,8.4-17.3,2.5-7.8,4.1-16.1,3.6-24.3h-4.1c.3,7.7-1.7,15.9-2.8,23.5s-1.4,14.5-5,20.5l3.6.5a14.2,14.2,0,0,1-1-5.8,1.2,1.2,0,0,0-2.2-.5,8.4,8.4,0,0,0-.6,7.4,2,2,0,0,0,3.6.4c3.9-6.1,4.6-13.4,5.6-20.4s1-16.9,2.8-25.1c.5-2.5-3.4-3.6-4-1.1-1.5,6.3-2.5,12.6-3.9,18.9-.7,3-1.5,6-2.4,8.9s-1.8,8.9-3.5,9.7H441l-.6-.4c-2.8-1.6-6.1,2.4-3.6,4.7l2,1.8,2.2-5.2c-10.8.2-21.5,1.5-32.2,2.8l.7,2.7,3.1-1.4c1.2-.6.3-2.4-.9-2.1Z" fill="#282561"/><path d="M441.9,330.8a1,1,0,1,0,0-2.1,1,1,0,1,0,0,2.1Z" fill="#282561"/><path d="M442.6,330.8c5-7.7,10.3-15.5,12.8-24.4a38.1,38.1,0,0,0,1.6-13c0-.7-1.4-4.4-1.3-4.9.4-2.1,1.9-1.4,3.4-1.9a1.6,1.6,0,0,0,1.1-2v-.5a.9.9,0,0,0-1.3-.7c-2.7.5-4.3.3-6,2.9s-1.4,7.5-1.5,11.5c-.6,11.3-5.2,22.2-10,32.2a.8.8,0,0,0,1.3.8Z" fill="#282561"/><path d="M459,282.6l-1.2,6.8c-.2,1.1,1.5,1.6,1.7.5l1.3-6.9c.2-1.1-1.6-1.6-1.8-.4Z" fill="#282561"/><path d="M403.9,278.1c4.9,7,6.3,18.1,7.5,26.4,1.4,9.8.4,19,0,28.8-.1,1.3,1.7,1.6,2.3.6,6.2-9,4.7-21.6,2.3-31.6a143.9,143.9,0,0,0-5-17c-1.3-3.5-2.9-6.6-6.6-8a.5.5,0,0,0-.5.8Z" fill="#282561"/><path d="M409.2,336.9a51.9,51.9,0,0,0,3.9-28.8c-.2-1-1.7-.7-1.7.2a140.9,140.9,0,0,1-3.2,28.2c-.1.6.8,1,1,.4Z" fill="#282561"/><path d="M403.7,331.3c-3.3,1.4-5.5,4.6-8.2,6.9s-6.6,5.8-10.4,6.7l2.8,1.1c-.2-.3,9.5-7.3,10.5-8.3a49.5,49.5,0,0,0,8.4-10.9.4.4,0,0,0-.7-.4,95.1,95.1,0,0,1-8.8,10.1c-1.8,1.8-8.2,9.4-10.9,8.4s-4.6,4.9-.7,4.9,8.2-3.4,11.2-6.3,7.2-6.7,8.4-11a1.1,1.1,0,0,0-1.6-1.2Z" fill="#282561"/><path d="M406.1,326.4a.4.4,0,1,0,0-.7c-.4,0-.4.7,0,.7Z" fill="#282561"/><path d="M393.7,339.1l-.6.6a.4.4,0,1,0,.6.6l.6-.6a.4.4,0,1,0-.6-.6Z" fill="#282561"/><path d="M380.4,346.6c-1.2-2.1-.7-1.2,1.2-.5a52.6,52.6,0,0,0,7.1,1.7,109.5,109.5,0,0,0,14,1.9c8.6.7,17-.2,24.9-3.9,2.7-1.3.3-5.3-2.4-4.1s-6.2,1.7-9.7,2c-1.2.1-1.9,1.7-.7,2.3,3.8,2,8.4,1.7,12.2.1l-1.8-4.4c-7.3,3.2-15.4,3.3-23.3,3.1s-15.9-2.2-23.5-1.3c-.4,0-.7.4-.5.7a22,22,0,0,1,1.8,2.8c.2.5,1,.1.7-.4Z" fill="#282561"/><path d="M380.7,343.8l-5.3-2.6-.8,1.8c14.2,2.2,28.6,3,42.8,4.8,6,.8,13.2,2.2,19.1,0,3.3-1.3,5.5-4.7,2.6-7.6-1.4-1.4-4.5-.5-4.2,1.7s-26.4-.7-29.1-.8c-10.3-.5-20.7-1-31-.1a1,1,0,0,0-.2,2l5.5,2.3c.8.3,1.4-1.1.6-1.5Z" fill="#282561"/><path d="M415.3,257.2v-.3c-1-2.3-4.8.1-2.9,2.2a124.9,124.9,0,0,1,16.2,21.5c4.4,7.6,6.7,15.9,10.7,23.5a1.7,1.7,0,0,0,3.2-.8c-.3-8.9-4.9-17.8-9.3-25.3a75.2,75.2,0,0,0-18.2-21.5l-1.8,3a2.5,2.5,0,0,0,2.5-.2,1.2,1.2,0,0,0-.3-2.1Z" fill="#282561"/><path d="M408.2,254c6,6.4,14.6,12.9,23.7,13.2a1.1,1.1,0,0,0,.6-2.1c-8.2-3.8-16.2-6.1-23.3-12.1-.7-.6-1.7.3-1,1Z" fill="#282561"/><path d="M363.5,216.5a9.5,9.5,0,0,0,1.7,4.6c.8,1.2,2.7,3.1,4.3,2.5s.2-2.6-.6-3.3a8.3,8.3,0,0,1-2.7-4.2c-.3-1.5-2.9-1.2-2.7.4Z" fill="#282561"/><path d="M366.4,218.4c-.6,11.8,24.4-5.8,26.9-8.1.7-.6,0-1.9-.9-1.5-3.7,1.4-7.1,3.8-10.5,6l-5.3,3.5c-1.1.8-9.9,7.8-9.5.1a.4.4,0,1,0-.7,0Z" fill="#282561"/><path d="M462.3,80.5c-2.3-3.6-8.7-3.7-12.6-3.3s-9.8,2-10,6.9a2.4,2.4,0,0,0,1.7,2.3c3.3.7,6.8-1.3,10-1.5s7,0,10.1-1.4a2.1,2.1,0,0,0,.8-3Z" fill="#282561"/><path d="M459.1,82.1c.8,5.7,1.3,11.5,2.2,17.1.3,1.7,3,1.3,2.9-.3a52.7,52.7,0,0,0-3.5-17.2.8.8,0,0,0-1.6.4Z" fill="#282561"/><path d="M221.9,271.4c-1.3,4.5.2,10,.8,14.6l2.1,16.4c.6,4.7,1.3,9.3,1.9,14,.2,1.6,3.4,18.1,2.1,18.5a1.5,1.5,0,0,0,0,2.9c3.3,1.3,4.6-1.7,4.5-4.6-.2-6.9-2-14-3-20.8s-2.1-14.1-3.3-21.1-.8-14.7-4.1-20c-.3-.4-.9-.4-1,.1Z" fill="#282561"/><path d="M141.6,338.8v-2.9l-2.3.3c7.8,16.5,15.7,32.6,21.9,49.8l3.4-1.5C157,370.1,149,355.7,142,340.9c-.2-.6-1.2-.2-1,.4,2.8,8.6,7.1,16.9,10.8,25.1s7.6,17.9,12.2,26.4a.9.9,0,0,0,1.6-.7c-3.1-8.5-7.4-16.7-11.1-25s-7.6-17.9-12.5-26.2l-1,.6c7.6,14.3,14,29.5,20.1,44.5.9,2.2,4.4,1.3,3.6-1-5.9-17.1-13.3-34.9-23.3-50.1-1.2-1.8-3.5.8-1.7,1.7l1.8,2.2Z" fill="#282561"/><path d="M157.4,318a.1.1,0,1,0,0-.3.1.1,0,0,0,0,.3Z" fill="#282561"/><path d="M179.7,323.9h2a.3.3,0,1,0,0-.6h-2a.3.3,0,0,0,0,.6Z" fill="#282561"/><path d="M165,338.7c2.8,3.6,5.5,7.3,8.3,10.7a.6.6,0,0,0,1-.7c-2.5-3.7-5.2-7.2-7.9-10.8-.6-.8-2,0-1.4.8Z" fill="#282561"/><path d="M164.5,338.3a19.2,19.2,0,0,0,2.8,2.9c.9.7,1.8,1.8,3,1.9s.6-.4.6-.8-1.4-1.8-2.2-2.6-2-1.5-2.9-2.4-1.8.3-1.3,1Z" fill="#282561"/><path d="M179.9,325.3c-.7,1.9.8,4.3,1.5,6.1a26.9,26.9,0,0,0,3.4,6.5c1,1.4,4,.7,3.2-1.3a4,4,0,0,0-1.2-1.6,1.1,1.1,0,0,0-1.5.6l-.3.2,2.8.4c-1.1-2.2-2.6-4.3-3.9-6.4s-1.6-3.9-3.3-4.7a.4.4,0,0,0-.7.2Z" fill="#282561"/><path d="M179.7,324.9a50.9,50.9,0,0,0,4,10l2.5-1.5c-1.2-1.6-2.5-2-4.4-.9a1.1,1.1,0,0,0,.3,1.9c6.8,2.4,14.1,1.8,21.2.8l-.8-2.8a21.4,21.4,0,0,1-13.9-.8l-.7,2.5a21.3,21.3,0,0,0,12.7-1.6l-1.8-2.4a22.8,22.8,0,0,0-3.6,4.6.9.9,0,0,0,.8,1.4c5.3.1,6.7-8.1,7.1-12,1-9.2-2.3-18.1-2.2-27.2h-1.3c-1.8,14.4-1.2,29.2-.8,43.7.1,2.3,3.7,2.3,3.7,0-.3-14.7-.2-29.4-.5-44.1,0-1.2-1.7-1.1-1.8,0a260.2,260.2,0,0,0-1.4,44.1h3.7c-1.3-14.6-1-29.1-1.6-43.7a.7.7,0,0,0-1.3,0c-.8,6.4-.1,12.6.3,18.9.2,3.8,1.4,17.6-4.2,18.5l.9,1.5a21.3,21.3,0,0,1,4-3.3,1.5,1.5,0,0,0-1.5-2.7,21.2,21.2,0,0,1-10.8,1.7c-1.5-.1-1.7,2.2-.4,2.6a31,31,0,0,0,15.4,1.1c1.6-.4,1.2-3-.4-2.9-6.9.7-13.4,1.4-20.2.1l-.3,2,1.5.8a1.5,1.5,0,0,0,2.3-1.8c-1.9-2.9-3.4-6-5.1-9.1a.8.8,0,0,0-1.4.6Z" fill="#282561"/><path d="M200.4,284.1c.8,14.4.9,28.9.6,43.3l3.3-.5c-1.1-7.9-2.1-15.8-3.9-23.6-.2-1-1.9-.8-1.9.3a237,237,0,0,0,2.5,23.8c.2,2.1,3.4,2.2,3.3,0a419.1,419.1,0,0,0-3.7-43.3c0-.2-.2-.2-.2,0Z" fill="#282561"/><path d="M199.1,283.2c-1.4,5.8-1.6,12.4-1.9,18.3-.1.7,1,.7,1,0,.7-5.9,1.6-12.3,1.2-18.3,0-.2-.3-.3-.3,0Z" fill="#282561"/><path d="M183.1,299.2c2.6-5.3,2.6-12.2,1.8-17.9a.7.7,0,0,0-1.5,0c-.6,5.7-1.7,12-1,17.7a.4.4,0,0,0,.7.2Z" fill="#282561"/><path d="M198.4,274.5a65,65,0,0,1,.7,9.9c0,2.9.5,7.3-.5,10.1l1.2-1h-.2l1.1.9v-.2c-.1-.9-1.3-.9-1.8-.5l-.2.2a1.2,1.2,0,0,0-.1,1.4v.2a1.3,1.3,0,0,0,2.3,0c1.2-2.6,0-6.9-.4-9.6s-1.1-7.6-1.7-11.4a.3.3,0,0,0-.5,0Z" fill="#282561"/><path d="M175.7,272.6c.4,4.3,2.6,8.1,4.9,11.6l2.9-1.7a47.5,47.5,0,0,1-6.5-11.4l-2.1.9c1.7,3.3,3.5,6.6,5.5,9.8l2.6-1.5c-1.7-2.9-4.1-6.3-6.8-8.3s-5.4-1.9-8.4-1.9-2.1,3.4,0,3.4a41.9,41.9,0,0,1,10,1c1.1.2,2.2-1,1.5-2-2.7-4.2-10.6-3.1-14.8-2.6a1.4,1.4,0,0,0-.4,2.8,8.3,8.3,0,0,0,5.4.2l-.7-2.4c-5.7,1.8-3.5,8.2-4.4,12.6-.2,1.3,1.6,1.9,2,.6,1-3-.7-9.6,3.1-10.8,1.3-.4,1.1-2.7-.3-2.5a7.9,7.9,0,0,1-4.3-.5l-.4,2.9c3.2-.3,10.4-1.3,12.7,1.3l1.3-2.3a76.9,76.9,0,0,0-10.7-1.7v3.4c3.3-.4,5.6-.5,7.8,2.3s3.1,4.4,5.1,6.3,3.3-.7,2.1-2.1a38.4,38.4,0,0,1-5.9-9.1c-.6-1.3-2.4-.3-2.1.9a25.1,25.1,0,0,0,6.1,12.8c1.5,1.6,3.8-.8,2.4-2.4s-4.5-6.5-6.8-9.8c-.2-.3-.9-.3-.8.2Z" fill="#282561"/><path d="M163.8,278.9c1.2-4.1-.2-9.1-.7-13.4s-1-7.8-1.6-11.7c-1.3-9.5-2.1-19.3-5.1-28.3-.2-.6-1.1-.6-1.1.1,0,9,2.1,18,3.5,26.9.6,4.5,1.3,8.9,1.9,13.3s.6,9.5,2.7,13.2a.2.2,0,0,0,.4-.1Z" fill="#282561"/><path d="M156.7,228.6a196.2,196.2,0,0,1,6.2,23.1c.9,4.8,1.7,9.6,2.2,14.4a48.7,48.7,0,0,0,.6,5.5c.7,4,.1.7-.4-.7-5.1-15.4-6.5-31.4-10.2-47.1-.1-.6-1.1-.5-1,.1.7,17.5,4.5,35.7,11.8,51.6a.5.5,0,0,0,1-.2c-1.8-16-4.7-31.5-10-46.8,0-.1-.2-.1-.2.1Z" fill="#282561"/><path d="M149.9,207.8c2.4,13.6,4.8,27.2,7,40.8l2.9-.8c-3.7-10.9-8.8-23.2-8.7-34.9h-1.4c1.9,14.2,4,28.8,7.6,42.7.5,2,3.2,1.1,2.9-.8-2-14.1-5.5-28.3-9.1-42.1a.7.7,0,0,0-1.4.4c1.1,6,1,12.1,2.2,18a97.1,97.1,0,0,0,5,17.5,1.5,1.5,0,0,0,2.9-.8c-3-13.4-5.8-26.9-8.7-40.3-.1-.8-1.3-.4-1.2.3Z" fill="#282561"/><path d="M205.2,282.1c2.5-5.8,1.8-12.7,1.6-18.9s-.5-14.1-2.5-20.7a1.1,1.1,0,0,0-2.1.2c-.3,12.8,3.1,25.9,1,38.6-.2,1.1,1.4,2,2,.8Z" fill="#282561"/><path d="M204,267.6c-.1,2.4-.1,4.8-.1,7.1s1.4,1.1,1.6.2c1.4-10,1.2-20.3.5-30.3s-3.6-20.4-4.1-30.5l-2.6.3c4.4,17,5.6,35.2,6.1,52.6l3.2-.4a189.5,189.5,0,0,1-4.2-27c-.3-4.1-.5-8.3-.6-12.4s.6-8-.2-11.8c-.2-1.2-1.8-.9-2.1,0-1.4,3.7-1.1,7.9-1.2,11.8s.1,9.6.5,14.3a142.2,142.2,0,0,0,4.7,25.9c.4,1.7,3.2,1.5,3.1-.4-.9-18-4-35.5-6.7-53.3-.2-1.3-2.3-1.2-2.6,0-.9,3.9-.1,7.3.6,11.1,1.2,5.9,2.1,11.9,2.7,17.8,1.2,10.7,1.1,21.4,1.3,32.1h1.6c-.2-2.4-.4-4.8-.8-7.2-.1-.4-.7-.2-.7.1Z" fill="#282561"/><path d="M212,220.2c-.4-1.9-.3-1.6.2.6s.5,2.4.8,3.6,1.1,4.9,1.7,7.4c1,4.5,1.8,9.2,2.7,13.8,1.6,9.4,2,19.4,4.2,28.7l2.6-1.9-2.1-2.2c-.4-.7-1.3-.2-1.2.5s.6,2.4.7,3.6,3.4,1.4,3.4-.4c0-9.3-2.5-19.2-4.5-28.2a220.1,220.1,0,0,0-8.2-28.8.5.5,0,0,0-1,.1,16.9,16.9,0,0,1,.1,3.2c0,.3.6.3.6,0Z" fill="#282561"/><path d="M188.3,284.5v.7c0,.4.7.1.5-.2l-.4-.6c-.1-.1-.2,0-.2.1Z" fill="#282561"/><path d="M185.7,278.3c2.1-1.8,1.6-5.8,1.9-8.3a1.8,1.8,0,0,0-2.3-1.7l-1.9.6a1,1,0,0,0,0,2c3.7,1.1,6.9,1.5,10.6.1,1.3-.5,1.3-2.7-.4-2.6s-6.4.4-9.6.5l.5,1.9a25.5,25.5,0,0,1,7.9-2.3c3.9-.4,6.5.6,7.9,4.5s.7,5.8.8,8.5.5,2.2-.5.4l-1.9-3.5c-.6-1.2-2.5-.3-2.1.9.8,2.7,1.9,7.4,5.1,8.1a1.8,1.8,0,0,0,2-.8c1.7-2.2.4-6.6,0-9.2s-.8-7.5-3.4-9.6c-4.3-3.7-12.4-.8-16.8,1.2a1,1,0,0,0,.5,1.9l9.6.2-.7-2.6a10.2,10.2,0,0,1-8.7.5l-.8,1.9,1.9.7-1.2-1.6c-.4,2.6-1.3,6.4,1,8.3.2.1.4.2.6,0Z" fill="#282561"/><path d="M197,273.7c1.1,5.4.9,10.4.8,15.8h3.7a24.9,24.9,0,0,1,.3-7.2c.3-1.2,1-2.5.7-3.8s-5.3-5.3-7.2-6.8c-5.7-4.4-9.8-.7-13.9,4a1.5,1.5,0,0,0,1.5,2.5,10.5,10.5,0,0,0,2.3-.8l-1.7-1.4a9.2,9.2,0,0,1-2.6,4.6l2.5.7a32.3,32.3,0,0,1-.4-8.2c.2-1.5-2.1-1.7-2.4-.4a35.3,35.3,0,0,0-1.4,5.6c-.1,1,1.4,1.2,1.9.5a15.2,15.2,0,0,0,1.9-5.4l-2.4-.3a31,31,0,0,0-.1,8.6c.1,1.1,1.6,2.2,2.5,1a11,11,0,0,0,2.7-6c.1-.9-.5-1.7-1.4-1.5h-1.4l.6,2.5c1.6-1.4,3.3-3.9,5.3-4.8s7.3,2.3,9.4,4.2,1.9,1.5,1.5,3.4a15.7,15.7,0,0,1-.9,2.3,30.1,30.1,0,0,0-1,6.6c-.1,2.4,3.8,2.5,3.7,0,0-5.4-1.5-11-3.3-16.1a.6.6,0,0,0-1.2.3Z" fill="#282561"/><path d="M187.2,325a1.1,1.1,0,0,0-.1-.8l-.4-1.1c-.1-.5-.9-.3-.7.2l.4,1.1c.2.4.2.6.5.8s.3,0,.3-.2Z" fill="#282561"/><path d="M184.7,321.8a30.4,30.4,0,0,0,2,11.9c.8,1.9,4.1,1.1,3.3-1s-1.2-3.1-1.9-4.6-2-3.8-2.4-5.7-2.2-.7-1.8.5c.8,3,1.7,5.9,2.6,8.9l2.9-1.3c-1.2-2.3-2.6-4.6-4.1-6.9a1,1,0,0,0-1.8.7l.8,2.6a.9.9,0,1,0,1.8-.5l-.7-2.6-1.9.5c1,2.7,2,5.3,3.1,7.9s3.7.3,2.8-1.7-2.5-5.5-3.8-8.3l-1.6.9c1,1.6,1.3,3.7,1.7,5.5a41.8,41.8,0,0,1,1,5.1l3.3-1c-.5-1.8-1.3-3.7-1.9-5.5a52.9,52.9,0,0,0-1.5-5.7,1,1,0,0,0-1.9.3Z" fill="#282561"/><path d="M228.6,294.3c.1,0,.1-.2,0-.2s-.2.2,0,.2Z" fill="#282561"/><path d="M228.6,318.7c1.1-.3,2.6,20.2,2.5,22.5l2.6-.7-.7-2.4a.7.7,0,0,0-1.4,0,8.1,8.1,0,0,0-.5,3.1c0,1.7,2.8,1.7,2.8,0a51.2,51.2,0,0,0-1.8-15.1c-.5-1.7-1.4-7.9-3.4-8.3-.3,0-.6.1-.6.5h0a.3.3,0,0,0,.5.3Z" fill="#282561"/><path d="M188.2,373.5c.2,0,.2-.2,0-.2s-.2.2,0,.2Z" fill="#282561"/><path d="M183.6,352.5c4.7,8.1,7.4,16.5,5.7,26a.5.5,0,0,0,1,.2c2.7-9.4,1.5-19.9-5.1-27.5-.7-.8-2.1.3-1.6,1.3Z" fill="#282561"/><path d="M193.2,347.6a.3.3,0,0,0,0-.6.3.3,0,0,0,0,.6Z" fill="#282561"/><path d="M192.6,333.5c1.2,4.6,2.5,8.9,2.7,13.8a58,58,0,0,1,0,5.9c-.1,1.5-.1,7.2-1.7,8.3a1.1,1.1,0,0,0,.2,1.9l.6.2a1.6,1.6,0,0,0,1.6-.6c2.4-3.8,1.9-10.7,1.4-14.9s-1.7-10.4-4.3-14.8c-.1-.3-.6-.1-.5.2Z" fill="#282561"/><path d="M192.9,354.1a91.9,91.9,0,0,1-3.1,12.8c-.1.3.3.4.4.1a69.8,69.8,0,0,0,2.9-12.8c.1-.1-.2-.2-.2-.1Z" fill="#282561"/><path d="M171.6,329.7l-2.2-.4a5.2,5.2,0,0,1,5,.2,17.7,17.7,0,0,1,3.3,1.9,47.1,47.1,0,0,1,6.9,5.8c.7.6,2-.2,1.4-1.1-2.3-3.3-15.6-13.5-18.3-6.6a.5.5,0,0,0,.5.6l3.3.4c.5.1.6-.8.1-.8Z" fill="#282561"/><path d="M161.6,377.2h-.1l.9,1.6v-.2l-1.6.9c1.3.5,2.7,2.2,3.9,2.9a21.4,21.4,0,0,0,5.4,2.3,13.3,13.3,0,0,0,9.6-.7c1.7-.7.4-3-1.2-2.7-6.1,1-11.9-2.7-16.9-5.6l-.9,1.5a55,55,0,0,0,15.9,4.7,1.4,1.4,0,0,0,.8-2.7c-4.7-1.8-9.6-3.1-14.4-4.7l-.5,2c8.2,1.2,16,2.9,24.4,1.4a1.6,1.6,0,0,0,0-3.1,34.5,34.5,0,0,0-10.6-.8c-.6,0-.9,1.1-.2,1.2a41.4,41.4,0,0,1,9.9,2.7v-3.1c-7.6,1.7-15.4,1.1-23-.3a1,1,0,0,0-.5,2c4.7,1.8,9.3,3.9,14.1,5.4l.4-2.7a51.4,51.4,0,0,1-15.6-3.6c-.9-.3-1.4,1.1-.7,1.6,5.9,3.7,11.3,6.2,18.2,7l-.4-2.9a15.6,15.6,0,0,1-11.6-1.1c-1.8-.9-3.4-2.7-5.4-3.2a1.3,1.3,0,0,0-1.6,1.3v.2a1.3,1.3,0,0,0,.9,1.2h.2a1.2,1.2,0,0,0,.6-2.4Z" fill="#282561"/><path d="M167.1,374.9c2.7-.2,4.9,2.9,6.8,4.5l4.8,4.2c3.1,2.9,5.6,6.5,8.7,9.3l.6-2.3h-.3c-.6-.3-1.3.1-1.1.8a2.7,2.7,0,0,0,.6,1.2,1.3,1.3,0,0,0,2.3-1.4c-2.3-4.6-7.5-8.3-11.5-11.4s-7.2-7-11-5.3c-.1.1-.1.4.1.4Z" fill="#282561"/><path d="M176.8,375.3c7.1,13.2,14.7,28.7,16.3,43.8l2.8-1.6-2.3-2.2c-.6-.9-2.4-.4-1.9.8s1,2.6,1.6,3.9,3.7.9,3.5-.9c-1.9-15.5-11.2-31.1-19.2-44.2a.4.4,0,1,0-.8.4Z" fill="#282561"/><path d="M176.7,380.1c7.3,13.9,13.2,28.2,16.7,43.6l3.6-1.5a73,73,0,0,0-5.6-9.8c-.7-1.2-2.2-.2-1.7,1,1.4,3.3,2.6,6.8,3.7,10.3s4.5,1.4,3.8-1c-4.2-15.3-10.5-30.1-19.8-43-.3-.4-1-.1-.7.4Z" fill="#282561"/><path d="M141.8,335.2c2.6,9.3,6.6,18.2,10.3,27.1s6.8,17.2,11.1,25.2c1,1.8,4.2.6,3.4-1.4a50.4,50.4,0,0,0-3.9-8.5.9.9,0,0,0-1.7.7c.7,2.9,1.5,5.8,2.1,8.7l3.5-.9c-3.4-8.5-7.8-16.7-11.6-25s-7.5-17.9-11.9-26.4a.7.7,0,0,0-1.3.5Z" fill="#282561"/><path d="M164.3,371.5a270,270,0,0,1,10.5,28.1c1.4,4.1,2.7,8.4,3.9,12.6s1.5,8.2,4.1,11.2c1.1,1.3,3.1-.7,1.8-1.8h-.1a1.1,1.1,0,0,0-1.5,0h-.2l2.2,1.3c.6-4-1.4-7.9-2.6-11.7s-3.4-9.5-5.3-14.2c-3.6-8.9-7.8-17.4-11.9-26-.3-.6-1.2-.1-.9.5Z" fill="#282561"/><path d="M168.7,381.6c6.1,18.3,11,37.2,15.9,55.8l4.1-1.7c-2.9-6.5-5.3-13.2-7.8-19.9a.7.7,0,0,0-1.4.4c1.8,7.1,3.7,14.1,5.1,21.2.6,2.8,5.1,1.6,4.3-1.1-5.4-18.7-12-36.9-18.6-55.2a.8.8,0,0,0-1.6.5Z" fill="#282561"/><path d="M172.2,390.2c2.2,7,4.3,13.9,6.3,20.9s3.2,14.4,5.9,21a1.6,1.6,0,0,0,3.1-.9c-1.4-7-4.6-13.9-7.1-20.6l-7.5-20.5c-.2-.4-.8-.3-.7.1Z" fill="#282561"/><path d="M231,429.1c-1.4-1.1-1.2-6.2-1.4-7.9s-.7-6-.9-9c-.4-5.5-.3-11-.2-16.5,0-.9-1.5-1.1-1.6-.2a74.8,74.8,0,0,0-.5,19.5c.3,4,.2,11.9,3.3,14.8a.6.6,0,0,0,.8.1l.5-.3a.3.3,0,0,0,0-.5Z" fill="#282561"/><path d="M226.5,399.6c1.2,10.8,2.5,21.6,3.6,32.5l2.3-.3c-6-14.8-5.5-31.8-7.6-47.4-.2-1.4-2.3-1.5-2.3,0a305.2,305.2,0,0,0,5,41.5c.4,1.8,3,1,2.7-.7-2.9-16.4-3-32.3-2-48.9h-3.1c.5,14.8.8,29.6,1.9,44.4l3.2-.5c-3.3-15.5-2.7-30.4,0-46l-3.4-.5c-.9,9-2.1,17.9-2.4,26.9H228c-.8-11.1-1.1-22.3-1.4-33.5H225a162.2,162.2,0,0,1-3.4,33.3l2.2.3c-.3-4.8-1-9.5-1-14.3s.5-9.6.8-14.4c.1-.3-.5-.4-.6,0a119,119,0,0,0-1,13.4c-.2,5-.7,10.3-.4,15.3a1.1,1.1,0,0,0,2.2,0c1.4-11.2,2.3-22.3,2.8-33.6.1-.9-1.4-1.1-1.6-.2-2.1,11.1-1.2,22.6-.6,33.7.1,2.3,3.7,2.4,3.6,0-.2-8.9,0-17.7,2.2-26.4a1.8,1.8,0,0,0-3.4-.9c-3.7,15.5-3,32.3.2,47.8.4,1.8,3.4,1.4,3.2-.4-1.6-14.6-2.7-29.7-2-44.4.1-1.7-2.8-2.2-3-.4-2.5,16.4-1.1,33.8,2.3,50l2.7-.7a207.4,207.4,0,0,1-5.4-40.8h-2.3c.1,8.5,1.3,17.1,2.5,25.5s2.1,15.5,5.3,22.8c.6,1.3,2.3.2,2.1-.9-1.5-10.7-2.9-21.5-4.3-32.2-.2-1-1.7-1-1.6,0Z" fill="#282561"/><path d="M209.8,277.6a32.3,32.3,0,0,0,13.1.7c.9-.1.5-1.4-.3-1.3a32.8,32.8,0,0,1-12.5-.3c-.6-.1-.9.8-.3.9Z" fill="#282561"/><path d="M204.3,250.3c1.4,3,6.2,3.6,9.2,3.8s8.1-.1,10.9-2.6a1,1,0,0,0-.6-1.7c-3.5.3-6.7,1.5-10.3,1.3s-6-2.1-8.9-1.6c-.4.1-.4.5-.3.8Z" fill="#282561"/><path d="M212.7,250.9l-3.2-.5c-.5,0-.6.6-.2.7l3.3.5c.4,0,.6-.6.1-.7Z" fill="#282561"/><path d="M201.6,249.5c.9,1.2,2.7,1.7,4,2.1a11.5,11.5,0,0,0,5.2.4c.7-.1.4-1.1-.2-1.2a29.2,29.2,0,0,1-5-.5c-1.3-.2-2.6-1-3.9-1s-.1.1-.1.2Z" fill="#282561"/><path d="M202.6,235.6c3.3,1.3,17.2,5,17.8-1.5a.6.6,0,0,0-.6-.8h-.2l-.6.3c-.8,1.5-5.5,1.2-7,1.2a49.4,49.4,0,0,1-8.7-1.5c-1.6-.5-2.2,1.8-.7,2.4Z" fill="#282561"/><path d="M217.1,234.6a28.5,28.5,0,0,1-14.2.8c-.7-.2-.8.9-.1.9a43.8,43.8,0,0,0,14.4-1.3c.2,0,.1-.4-.1-.4Z" fill="#282561"/><path d="M141.4,263.4a35.9,35.9,0,0,0,23.2-5.5c1-.6.4-2.4-.8-1.9a53.5,53.5,0,0,0-8.6,3.5c-3.2,1.7-6.2,3.8-9.8,4.7a12.7,12.7,0,0,1-3.4.4c-.5-1.7-.3-2.1.8-1.1s2.5,1,2.8,1.1a7.3,7.3,0,0,0,5.9-1.4c.6-.4.3-1.5-.5-1.2-3.1,1.3-5.5,1-8.8.3-.8-.2-1.7-.6-2.4.1s-.8,1.7.1,2.6,7.3.2,9.4-.5c5.2-1.6,9.8-5.3,15.1-6.5l-.8-1.9a37.8,37.8,0,0,1-22.2,5.6c-1.1,0-1.1,1.5,0,1.7Z" fill="#282561"/><path d="M140.6,234.9c4-.5,7.8-.6,11.7-1s3.8-1.6,6.2-2.6,1.2-2.5-.3-2.4c-7,.6-14.4,5.3-20.8.7l-.7,2.7c2.6-.3,5,2.2,7.5,2.8a8.7,8.7,0,0,0,5.5-.4c1-.4,1-2.1-.3-2-3.3,0-5.7-.2-8.7-1.9-1.5-.8-2.3-1.4-4-1.4a1.5,1.5,0,0,0-1.1,2.5c6.6,6.2,15.5.5,22.9-.6l-.6-2.3c-2.9.7-4.9,1.9-8,2.2a46.5,46.5,0,0,0-9.7,2,.9.9,0,0,0,.4,1.7Z" fill="#282561"/><path d="M190.8,317.1a2.5,2.5,0,0,0-.2-1.7.3.3,0,0,0-.6.1,1.8,1.8,0,0,0,.3,1.6c.1.3.5.2.5,0Z" fill="#282561"/><path d="M190.6,316.3l.4-.3h-.5l.2.2a1.4,1.4,0,0,0,1.1,0,4.2,4.2,0,0,1,3.1-.3,1.5,1.5,0,0,0,1.4-2.4,5.4,5.4,0,0,0-4-1.3l.4,1.7a1.9,1.9,0,0,1,1.8,0l-.6-.8h0a1.2,1.2,0,0,0,1.8,1h.1a.9.9,0,0,0,.4-1v-.2a1.1,1.1,0,0,0-1.9-.5h-.1l.6-.3h-2.5c-1,.1-1.4,1.5-.3,1.8a3.8,3.8,0,0,1,2.2,1.5l1.4-2.4a7.1,7.1,0,0,0-4.9,1.1,1.4,1.4,0,0,0-.6,1.3v-.4l-.3.5c-.4.4.1,1.1.6.7Z" fill="#282561"/><path d="M196.6,314.2c-.1,5.6,0,11.2.1,16.7.1,1.3,2.2,1.3,2.1,0-.5-5.6-1-11.1-1.6-16.7-.1-.3-.6-.4-.6,0Z" fill="#282561"/><path d="M162.9,388.1a.1.1,0,1,0,0-.3c-.3,0-.3.3,0,.3Z" fill="#282561"/><path d="M163.3,387l.9-.8-1.7-.4c1.2,8.3,3,16.7,4.7,24.9.8,3.9,1.7,7.7,2.5,11.5s1,6.9,3.2,9.8a1.1,1.1,0,0,0,1.9-.5c.7-3.3-.3-6.1-1.1-9.4s-1.9-8.2-2.9-12.3c-1.9-8.2-3.9-16.5-6.4-24.6-.3-1.2-2.2-.7-1.9.6l.4,1.1c0,.2.3.2.4.1Z" fill="#282561"/><path d="M164.7,383.2c1.2,9.7,2.4,19.4,4,29.1.8,5.1,1.6,10.3,2.5,15.4s1,9.6,3.4,13.5c.6,1,2.6,1,2.8-.4.6-4.1-.9-8.3-1.7-12.4s-2.1-10.1-3.1-15.2c-2-10.1-4.1-20.2-6-30.3-.3-1-2-.8-1.9.3Z" fill="#282561"/><path d="M225.1,399.7c0,5.2,1.3,10.5,2.2,15.6s1.6,11.5,2.8,17.1c.6,3.2,5.6.3,3.2-1.8l-.5-.5a1.4,1.4,0,0,0-1.9,0l-.3.5,3.2,1.3c-.5-5.2-1.6-10.5-2.6-15.7s-1.8-11.5-4-16.8c-.4-1.1-2.2-1.1-2.1.3Z" fill="#282561"/><path d="M201.8,307.8c5.2,2.3,11.4,1.8,16.8.5,1.2-.3.9-2.3-.3-2.2a36,36,0,0,1-7.3.6,12.8,12.8,0,0,1-4.4-.9c-2.4-.8.1,0,1,.1a30.1,30.1,0,0,0,13.6-2c.4-.1.2-.8-.2-.7-5.1,2.1-11.1,3.2-16.6,1.6-.4-.1-.6.5-.2.7,4,3,9.3,3.2,14.1,2.8l-.3-2.1c-5.5,1.5-10.5,1.1-16.1,1.1-.2,0-.3.4-.1.5Z" fill="#282561"/><path d="M201.7,298.4c2.5,0,4.9-1.1,7.2-2.3s5-2.3,6.3-4.5a.8.8,0,0,0-.9-1.1c-2.4.6-4.4,2.6-6.5,3.7a58.9,58.9,0,0,0-6.4,3.7c-.2.2,0,.5.3.5Z" fill="#282561"/><path d="M205.4,295.9a7.3,7.3,0,0,0,3.6-.4,11.1,11.1,0,0,0,4-1.3.7.7,0,0,0-.4-1.2,9.2,9.2,0,0,0-4,.8c-1.2.4-2.5.6-3.4,1.5a.3.3,0,0,0,.2.6Z" fill="#282561"/><path d="M198,332.4c0,4.9.6,9.6.1,14.4s-2.7,10.1-3.8,15.4a1.1,1.1,0,0,0,2,.8c5.4-7.9,6.1-22.1,2.4-30.8a.4.4,0,0,0-.7.2Z" fill="#282561"/><path d="M192.4,360.5c-.4,2,1.7,2,2.8.7s2-4.2,2.7-6a32.5,32.5,0,0,0,1.4-6.9c0-.5-.9-.7-1-.1s-.9,4.1-1.5,6.1a23.1,23.1,0,0,1-1,2.8,18.9,18.9,0,0,1-.9,2.1,2,2,0,0,1-1.5,1.6c.1-.7-.9-1-1-.3Z" fill="#282561"/><path d="M163.6,339.2c1.3,4.7,5.2,8.3,6.6,13.2s.3,10.4-.1,15.9c-.1,1.2,1.5,1.5,2.1.6,5.3-8.7.1-24.7-8.3-30-.2-.1-.3.1-.3.3Z" fill="#282561"/><path d="M167.5,331.5c3.4-3.7,12.1,2.5,14.8,4.8a20.9,20.9,0,0,1,6.1,10.7c2,8.6-1.3,16.3-3.2,24.5a1.3,1.3,0,0,0,2.3.9c5.9-9.4,7.8-23.6,1.5-33.3-3.4-5.2-16.3-14.9-21.8-7.7-.1.1.2.2.3.1Z" fill="#282561"/><path d="M148.2,207.1a34.1,34.1,0,0,0-5.5.5c-1.4.2-2.9.4-3.8,1.7a.7.7,0,0,0,.3.9c1.2.8,2.6.4,3.9.1l5.4-.9c1.3-.2,1-2.3-.3-2.3Z" fill="#282561"/><path d="M148.1,207.6a17.3,17.3,0,0,0-3.9.2,10.6,10.6,0,0,0-3.5.9c-.6.2-.3,1.1.3,1.1a23.7,23.7,0,0,0,3.6-.9c1.2-.4,2.5-.5,3.6-1s.1-.3-.1-.3Z" fill="#282561"/><path d="M136.4,211.2c-.6,5.3-.1,10.7.1,16s.3,9.6,1.2,14.2c.2,1.4,2.2,1,2.3-.3.3-5.2-.5-10.6-.9-15.9s-.7-9.5-1.9-14.1c-.1-.4-.7-.3-.8.1Z" fill="#282561"/><path d="M135.8,213.1c.7,9.2,1.8,18.4,2.8,27.5s.7,17.9,3,26.1a1.1,1.1,0,0,0,2.2-.3c1.1-8.4-.9-17.9-2-26.2a223.7,223.7,0,0,0-5.3-27.1c-.1-.4-.7-.3-.7,0Z" fill="#282561"/><path d="M136,229.5c2.5,7.4,4,14.9,5.6,22.5.3,1.5,3,1.2,2.8-.4-.9-8-3.5-15.5-6.8-22.8-.4-.9-1.9-.2-1.6.7Z" fill="#282561"/><path d="M147.6,288.3a132.3,132.3,0,0,0-1.5-20.8c-1-6.6-2-14.3-5.7-19.9a.8.8,0,0,0-1.5.6c2.1,11.9,3.2,24,6.1,35.7.3,1.3,2.5,1.1,2.3-.3-1.3-12.1-4.6-23.9-6.8-35.8l-1.6.2c.4,6.2,2.9,12.3,4.2,18.4a135.1,135.1,0,0,1,2.7,21.9.9.9,0,0,0,1.8,0Z" fill="#282561"/><path d="M148.7,299.3a71.5,71.5,0,0,0-.8-17.9c-.3-1.6-2.7-1.2-2.8.3a69.9,69.9,0,0,0,2.3,17.7.7.7,0,0,0,1.3-.1Z" fill="#282561"/><path d="M140.5,334.5H140l.3,1.3c4.2-5,8.6-10.2,12.3-15.6.5-.8-.7-1.6-1.3-1a51.9,51.9,0,0,0-12.2,15.7c-.5.9,1,1.6,1.4.5l.2-.6-.2-.2Z" fill="#282561"/><path d="M139.7,336.2c6.2-8.5,13.6-17.2,17.7-27.1.4-.9-1-1.6-1.6-.9-7.6,7.4-12.3,18.1-16.9,27.6a.4.4,0,0,0,.8.4Z" fill="#282561"/><path d="M144,330.1c3.9-5.2,8.6-10.2,12.1-15.7a1.1,1.1,0,0,0-1.7-1.4c-4.8,4.5-8.5,10.7-11.9,16.2-.6,1,.8,1.7,1.5.9Z" fill="#282561"/><path d="M157.7,309.9c7.4-2.4,17.1-4.4,23.1-9.6.8-.6,0-1.8-.9-1.6-4.2,1-8.2,3-12.2,4.5a81,81,0,0,0-10.8,4.9,1,1,0,0,0,.8,1.8Z" fill="#282561"/><path d="M157.9,308.6c9.3-2.8,19.1-5.2,28-9.4,1.4-.7.3-2.7-1.1-2.4-9.5,2-18.6,6.6-27.3,10.8a.5.5,0,0,0,.4,1Z" fill="#282561"/><path d="M184.3,298.7c.3.1.5-.1.6-.4s-.3-.5-.4-.1h-.2a.2.2,0,1,0,0,.4Z" fill="#282561"/><path d="M169,320.9c.1,0,.1-.1,0-.1s-.1.1,0,.1Z" fill="#282561"/><path d="M165.4,318.4a18.7,18.7,0,0,0,3.6,4.3,5.5,5.5,0,0,0,3.7,2,1.1,1.1,0,0,0,1-.8,1.1,1.1,0,0,0-.2-1.1,4.7,4.7,0,0,0-1-.5l-1.2-.9a26.8,26.8,0,0,0-4.9-4c-.6-.3-1.4.4-1,1Z" fill="#282561"/><path d="M166.7,318.1a15.5,15.5,0,0,0,2.3,4.2c.9,1,2.6,2.3,4,2.1a.6.6,0,0,0,.3-.8c-.7-1-2.2-1.4-3.2-2.1a11.9,11.9,0,0,1-3.3-3.4c0-.1-.1,0-.1,0Z" fill="#282561"/><path d="M171.8,323.3c2.1.6,3.8-.2,5.6-1.3s3.8-2.4,4.4-4.4a.8.8,0,0,0-1-1c-3.4.7-5.1,5-8.8,5.4-.7.1-1,1.1-.2,1.3Z" fill="#282561"/><path d="M173.1,323.2a44.4,44.4,0,0,0,6.1-2.2,20.7,20.7,0,0,0,5.7-3,.8.8,0,0,0-.8-1.3c-1.9.4-3.7,1.7-5.5,2.6l-5.8,3.1c-.5.2-.2,1,.3.8Z" fill="#282561"/><path d="M178.3,320.4a13.4,13.4,0,0,0,5.9-2.8c1.5-1.2,3.5-2.8,4.1-4.6a1.1,1.1,0,0,0-1.6-1.2c-1.5,1.1-2.7,2.9-4.1,4.2s-3.1,2.6-4.7,3.9.1.6.4.5Z" fill="#282561"/><path d="M185.9,299.5c0,2.9.8,5.6,1.1,8.5a1,1,0,0,0,1.7.7c1-.9.7-2.2.5-3.3a43.7,43.7,0,0,0-1.7-6.2c-.4-.7-1.6-.7-1.6.3Z" fill="#282561"/><path d="M185.9,298.4c-.3,1.9.4,3.9.5,5.8a37.5,37.5,0,0,1-.1,6.7c-.1,2,2.9,1.9,3,0a18.9,18.9,0,0,0-.4-7.1c-.4-1.8-.9-4.3-2.4-5.6s-.6-.1-.6.2Z" fill="#282561"/><path d="M186.6,302.8v5.7c0,1.6-.4,3.2.5,4.6a1,1,0,0,0,1.7,0c.7-1.5.2-2.9-.1-4.5l-1-5.9a.5.5,0,0,0-1,.1Z" fill="#282561"/><path d="M187.6,311.9c.1,0,.1-.1,0-.1Z" fill="#282561"/><path d="M162.9,318.8a21.7,21.7,0,0,0,5.3,3.1c.7.3,1.2-.7.7-1.3a26.2,26.2,0,0,0-5-3.5c-1.1-.7-2,1-1,1.7Z" fill="#282561"/><path d="M168.5,323.4a25.5,25.5,0,0,0-3,8.1c-.1.4.4.9.7.5a17.7,17.7,0,0,0,3.2-8.2c.1-.6-.6-1-.9-.4Z" fill="#282561"/><path d="M163.9,335.8c1.6-1,2.4-3.4,3.2-5a15.6,15.6,0,0,0,1.9-6c0-.7-1-.9-1.4-.3a34,34,0,0,0-2.1,5.6c-.6,1.8-1.9,3.7-1.8,5.6,0,.1.1.2.2.1Z" fill="#282561"/><path d="M158.2,339.6c-.5.1-.6.3-1,.5l.5.9a13.7,13.7,0,0,0,3-1.9,16.4,16.4,0,0,0,2.6-2c.6-.7-.1-1.5-.9-1.2a17.9,17.9,0,0,0-2.6,2,20.4,20.4,0,0,0-2.7,2.3c-.4.5.1,1.2.6.8h.8c.9-.1.5-1.6-.3-1.3Z" fill="#282561"/><path d="M157.1,341.8c1.6-.2,3.2-1.5,4.5-2.5a27.6,27.6,0,0,0,4.6-3.7c.7-.9-.2-2.4-1.3-1.7a48.3,48.3,0,0,0-4.2,3.7c-1.3,1.1-3.1,2.2-3.9,3.8s0,.4.3.4Z" fill="#282561"/><path d="M165.9,337.4c2.3-5,5.9-10.2,6.7-15.6a1,1,0,0,0-1.7-.7c-2,2.3-3,5.5-4.2,8.3s-2.5,5-2.7,7.5c-.1.9,1.5,1.4,1.9.5Z" fill="#282561"/><path d="M186.3,321.8c.6-1.1.2-2.4-.2-3.5s-.8-1.9-1.7-2.1l-.4.3a12.2,12.2,0,0,0,.1,2.7,4.5,4.5,0,0,0,.4,2.3c.3.8,1.4.3,1.4-.4a7.9,7.9,0,0,0-.5-2.5,20.2,20.2,0,0,0-.7-2.3c-.1-.1-.4-.2-.5-.1a2.7,2.7,0,0,0-.9,2.4c0,1.2,0,2.6.9,3.5a1.4,1.4,0,0,0,2.1-.3Z" fill="#282561"/><path d="M185.6,317.3c3.1-.6,7-.9,9.7-2.5l-1.4-1.1-.7.3a.4.4,0,0,0,0,.8,4.3,4.3,0,0,0,1.6.1,1,1,0,0,0,0-2c-3.2-.2-6.8,1.9-9.6,3.4a.5.5,0,0,0,.4,1Z" fill="#282561"/><path d="M191.4,314.7l-2.8.9a11.3,11.3,0,0,1-3.1.6c-1.3.2-1,2.1.2,1.8h.5a.8.8,0,0,0-.2-1.6h-.5l.6,1.6a10.3,10.3,0,0,1,2.8-1.8l2.6-1c.2-.1.1-.4-.1-.3Z" fill="#282561"/><path d="M179.4,320.2a12.4,12.4,0,0,0,0,4.3c.2,1.6.1,2.9,1.1,4.1s3.4-.4,2.4-1.8a5.7,5.7,0,0,0-1.1-1.6c-.3-.3-.8-.1-1,.3a11.2,11.2,0,0,1-.5,1.3l2.8,1.2c.5-1.4-.2-2.8-.5-4.2a10.7,10.7,0,0,0-1.4-3.9,1,1,0,0,0-1.8.3Z" fill="#282561"/><path d="M168.3,302.4c-.8-4.1-1.7-8.3-4-11.9a1.1,1.1,0,0,0-2,.8c.8,4.1,2.2,7.9,3,12,.3,2,3.4,1.1,3-.9Z" fill="#282561"/><path d="M165.2,302.4l.6.5a.2.2,0,0,0,.4-.1c-.3-5.5-.7-11.6-2.4-16.9l-1.3.8,1.4,3.2a.4.4,0,0,0,.7.1c1.3-5.5,2.4-11.8,2-17.4h-2c-.2,4.3-.6,8.7-.7,13.1-.1,2.7-.7,5.5.9,7.9.6.9,2.4.3,1.9-.9-2.2-5.9-.8-14-.1-20.1.2-1.2-1.6-1.3-1.9-.3a32.8,32.8,0,0,0-1.2,9.9c0,1.4-.5,4.7.1,5.8s.3-1.7.2-2.1a.8.8,0,0,0-1.5.2,39.8,39.8,0,0,0,1.2,7.7c.3,1.2,1.1,8.1,1.8,8.4s-.2.1-.1.2Z" fill="#282561"/><path d="M189.5,309c2.1-.4,4.5-.9,6-2.5a1.1,1.1,0,0,0-.8-1.9c-2.1.2-4,1.2-5.9,1.8a1.3,1.3,0,0,0,.7,2.6Z" fill="#282561"/><path d="M188.3,305a12.7,12.7,0,0,0,6.4-.3c1-.3.9-2.1-.3-1.9l-5.9.5c-.9,0-1.2,1.5-.2,1.7Z" fill="#282561"/><path d="M184.6,285.1c2.1-.5,4.1-1.4,6.2-1.9s4.5-.1,6.5-.9a1.2,1.2,0,0,0,.3-2.2c-4-2.2-11.2.7-13.7,4.1-.4.4.2,1,.7.9Z" fill="#282561"/><path d="M198.7,283.5c-2.5-.3-5.2.5-7.7,1.1s-5.5,1.5-8.3,2.5a1.5,1.5,0,0,0,.8,2.8,69.2,69.2,0,0,0,8.9-2.5c2.3-.8,4.8-1.4,6.7-3s0-.9-.4-.9Z" fill="#282561"/><path d="M164.9,288.8c2.7.3,5.8-.8,8.4-1.7a32.5,32.5,0,0,0,7.8-3.6c.9-.7.4-2.3-.8-2l-8.3,3.2c-2.4.9-5.2,1.4-7.4,2.9a.6.6,0,0,0,.3,1.2Z" fill="#282561"/><path d="M171.4,284a18.6,18.6,0,0,0-3.3.4l-1.8.6c-.3.1-1.1.6-1.4.4l.3.6h-.7a.5.5,0,1,0,.8-.6h-.1c-.1-.2-.4-.2-.6-.1s-.3.3-.3.6.1.4.3.5,1.9-.6,2.6-.9a21,21,0,0,1,4.2-.9c.4-.1.4-.7,0-.6Z" fill="#282561"/><path d="M171.1,325.3c.4,1.7,2.8,2.3,4.3,2.8a14.4,14.4,0,0,0,6.2.4c1.1-.2,1-1.9,0-2.2l-5.8-1.1c-1.4-.4-3-1.3-4.4-.6a.5.5,0,0,0-.3.7Z" fill="#282561"/><path d="M174.9,326.5l2.4.5c.9.1,1.3-1.2.4-1.4l-2.4-.4c-1-.2-1.3,1.2-.4,1.3Z" fill="#282561"/><path d="M150.6,290.7c2.1.6,4.5-1.3,6.2-2.3s4.6-2.7,6.1-4.8a1.1,1.1,0,0,0-1.2-1.6,35.1,35.1,0,0,0-6.6,4.2c-1.6,1.1-4.1,2.1-4.7,4.1-.1.2,0,.3.2.4Z" fill="#282561"/><path d="M163,281c-2.1.4-4.2,2.4-5.9,3.7a80.7,80.7,0,0,0-5.9,5.8c-.6.6.4,1.6,1,1s4-3.5,6-5.1,4.2-2.7,5.5-4.5a.6.6,0,0,0-.7-.9Z" fill="#282561"/><path d="M146.5,298.6c.3,5.3,1.4,10.7,2.2,16,.2.9,1.5.6,1.5-.2.3-5.3.1-11-1.6-16.1-.4-1-2.2-.9-2.1.3Z" fill="#282561"/><path d="M150.5,319.8c.9-.9.8-2.4.8-3.6a14.7,14.7,0,0,0-.7-4.6,1.1,1.1,0,0,0-2.2.3,21.7,21.7,0,0,0,.3,4.4c.1,1.1.1,2.6,1,3.5s.6.2.8,0Z" fill="#282561"/><path d="M206.7,373.9v-.4c-.1-.2-.4-.2-.4,0v.4c0,.4.6.3.5,0Z" fill="#282561"/><path d="M206.5,375.4a128.7,128.7,0,0,0,12.2-4.8c2.6-1.3,5.9-3.1,5.7-6.4a1,1,0,0,0-1.5-.8c-2.7,1.3-5.1,3.2-7.9,4.5l-9.8,4.4c-1.8.8-.5,3.8,1.3,3.1Z" fill="#282561"/><path d="M220.5,365.4l-1.3.8s0,.2.1.1l1.2-.8c.1,0,.1-.2,0-.1Z" fill="#282561"/><path d="M208.4,372l-1.9.8c-.8.4-.5,1.8.4,1.7,6.7-.9,13.3-1.9,19.9-3.2a2,2,0,0,0,.4-3.5l-1.5-.8.7,2.5c4-7.4,4.1-18.1,2.4-26.1l-2.4.6c.8,4.7.6,9.7.8,14.4s.6,9-.9,13.1l2.2-.2a7.3,7.3,0,0,1-1.2-3.4c-.1-.7-1.2-.7-1.4,0a5.7,5.7,0,0,0,.5,4.6c.5,1,1.9.5,2.2-.3,3.4-8.9.3-19.3.3-28.5,0-1.6-2.5-1.6-2.6,0-.3,7.6.7,17-2,24.2l1.6-.9h-.6a1.8,1.8,0,0,0-1.4,3.3l1.4.9.5-3.5c-6.5,1.4-12.8,3.2-19.1,5.1l.6,1.6,1.8-1.1c.7-.6.1-1.6-.7-1.2Z" fill="#282561"/><path d="M226.3,367.2a.7.7,0,1,0,0-1.3.7.7,0,0,0,0,1.3Z" fill="#282561"/><path d="M226.8,367.2c2.2-5.1,4.5-10.2,5.2-15.7a31,31,0,0,0,.1-6.1c-.2-1.3-2.3-6.2-.3-6.6s.8-.6.8-1v-.6a.6.6,0,0,0-.8-.6c-3.2.8-3.9,2.8-3.8,6s1,7.8.5,12a71.4,71.4,0,0,1-2.5,12.2c-.2.5.6.9.8.4Z" fill="#282561"/><path d="M231.7,336.2v4.3a.6.6,0,0,0,1.1,0v-4.3c0-.7-1.1-.7-1.2,0Z" fill="#282561"/><path d="M197.8,339.3c3.7,4,5.6,10,7.3,15.1a73,73,0,0,1,3.1,17.4.8.8,0,0,0,1.5.2c2.5-6.6.6-13.5-2.1-19.7-1.8-4.1-4.3-12.5-9.5-13.5-.3-.1-.5.2-.3.5Z" fill="#282561"/><path d="M207.3,374.3a32.3,32.3,0,0,0-.7-17.7.5.5,0,0,0-1,.2,78.3,78.3,0,0,1,1,17.4.4.4,0,0,0,.7.1Z" fill="#282561"/><path d="M203.4,371.5c-3.9,2.7-5.3,8.3-10,10.3l2.1.6c-.5-1,4.7-5.5,5.4-6.6a28.2,28.2,0,0,0,3.8-7.3c.1-.3-.3-.5-.4-.2a55.2,55.2,0,0,1-4,6.6c-1.1,1.7-3.8,6.7-6.2,6.7s-1.8,3.5.5,3.1,4.5-3,6-5.1,3.5-4.8,3.8-7.6c.1-.5-.6-.8-1-.5Z" fill="#282561"/><path d="M204.3,368.3c.2,0,.3-.4,0-.4a.2.2,0,1,0,0,.4Z" fill="#282561"/><path d="M198.1,377.3l-.3.5c-.2.3.2.5.4.2l.3-.4c.2-.3-.2-.5-.4-.3Z" fill="#282561"/><path d="M190.8,383.3c-.5-.6,5.1-.1,5.8-.1a76.1,76.1,0,0,0,9.6-.6,27.8,27.8,0,0,0,12.9-4.6c1.6-1.1.1-3.6-1.4-2.5a16.3,16.3,0,0,1-6,2.3c-.7.2-.7,1.4,0,1.5a9.6,9.6,0,0,0,7.4-1.3l-1.4-2.5c-8.7,5.5-18.9,3.8-28.4,6.1a.3.3,0,0,0-.2.5l1.4,1.6c.2.2.5-.2.3-.4Z" fill="#282561"/><path d="M190.7,381.5l-3.6-1v1.3c9.9-.1,20-1.1,29.8-1.8,2.9-.3,12.3-1.2,9.6-6.2-.8-1.5-2.8-.6-2.9.8s-16.9,2.6-19,2.8a133.8,133.8,0,0,0-17.7,3.1c-.6.2-.6,1.1,0,1.2l3.6.8c.6.1.9-.8.3-1Z" fill="#282561"/><path d="M202.7,325.4h-.2c-.9-1.5-2.9.4-1.7,1.3a84.7,84.7,0,0,1,12,11.2c3.6,4.2,5.9,9.2,9.3,13.5.7.9,1.9-.1,1.7-1-2.2-10.5-12.7-20.4-21.7-25.4l-.8,2a1.6,1.6,0,0,0,1.5-.3c.5-.3.5-1.2-.1-1.3Z" fill="#282561"/><path d="M197.9,324.2c4.3,3.2,10.1,6.2,15.7,5.5.7-.1,1-1.2.1-1.4-5.4-1.4-10.4-2-15.3-4.8a.4.4,0,0,0-.5.7Z" fill="#282561"/><path d="M166.8,306.3a6.3,6.3,0,0,0,1.6,2.6c.7.6,2.1,1.5,2.9.9s-.4-1.6-1-2a5.7,5.7,0,0,1-1.9-2.2c-.4-.9-1.8-.3-1.6.7Z" fill="#282561"/><path d="M168.8,307c.9,7.3,14.2-6.1,15.4-7.7a.5.5,0,0,0-.7-.8,31.8,31.8,0,0,0-5.3,4.4l-2.4,2.3c-.6.5-6,6.4-6.6,1.8,0-.3-.5-.3-.4,0Z" fill="#282561"/><path d="M212.3,213.2c-1.8-1.9-5.9-1.2-8.1-.6s-5.6,2.4-5.2,5.4a1.7,1.7,0,0,0,1.5,1.1c1.8.1,3.8-1.5,5.6-2s4.2-.6,5.9-1.8a1.4,1.4,0,0,0,.3-2.1Z" fill="#282561"/><path d="M210.6,214.5c1,3.4,1.9,6.8,3.1,10.1a.9.9,0,1,0,1.7-.5,33,33,0,0,0-3.9-10,.5.5,0,0,0-.9.4Z" fill="#282561"/><path d="M613.2,309c-2.1,3.5-2.6,7.8-3.4,11.6s-2.1,9.8-3.2,14.7c-.5,2.5-4.4,27.6-6.1,27.6a1.3,1.3,0,0,0-.9,2.2c6.4,5.5,8-16.3,8.5-19.1,1.3-6.5,2.5-13.1,3.7-19.6s3.1-11.7,2.2-17.2c0-.5-.6-.5-.8-.2Z" fill="#282561"/><path d="M528.3,341l.6-2.3L527,338c1.8,15.8,3.5,31.3,3.6,47.3l3.2-.5c-2-13.9-4.4-27.9-5.8-41.9-.1-.6-1-.6-1,0-.1,8.4,1.1,16.9,1.8,25.2s1.1,15.8,2.3,23.5c.1.8,1.4.6,1.4-.2-.3-14.8-2.2-29.9-3.9-44.6-.6-5.5-.7,3.5-.6,4.8l.9,10.6c.7,7.7,1.3,15.3,1.7,23.1.1,2.1,3.3,2.1,3.3,0,0-15.8-1-32.3-4.7-47.6-.4-1.7-3.1-.4-1.9,1l.9,2.3Z" fill="#282561"/><path d="M547.2,328.6c.1,0,.1-.3,0-.3a.2.2,0,0,0,0,.3Z" fill="#282561"/><path d="M563.6,339.8l1.7.5c.3.1.5-.4.2-.5l-1.7-.5c-.3-.1-.5.4-.2.5Z" fill="#282561"/><path d="M547.4,347.7c1.2,3.7,2.3,7.4,3.7,11a.5.5,0,0,0,1-.2c-1-3.8-2.2-7.4-3.3-11.1-.3-.9-1.7-.5-1.4.3Z" fill="#282561"/><path d="M547.1,347.3a15.5,15.5,0,0,0,1.4,2.9c.5.9.9,2,1.8,2.5a.5.5,0,0,0,.8-.5c.1-.9-.6-1.8-1-2.7s-1.2-1.8-1.7-2.8-1.5-.2-1.3.6Z" fill="#282561"/><path d="M563.4,341c-1,1.5-.6,3.7-.5,5.4a27.4,27.4,0,0,0,.9,6.4c.5,1.6,3.1,1.4,2.9-.4a2.3,2.3,0,0,0-.4-1.4c-.3-.4-1-.6-1.3-.2l-.2.2,1.9,1.4a47,47,0,0,0-1.3-6.3c-.3-1.8-.2-3.8-1.4-5.2a.5.5,0,0,0-.6.1Z" fill="#282561"/><path d="M563.4,340.6a55,55,0,0,0,.3,9.1l2.4-.6-.7-1.2a1.3,1.3,0,0,0-1-.6h-1.3c-.7,0-1.3,1-.6,1.5,4.9,4,10.8,5.7,16.9,6.8l.4-2.4a18.3,18.3,0,0,1-10.9-4.5l-1.4,1.7a18.4,18.4,0,0,0,10.5,2.3l-.6-2.5a24.4,24.4,0,0,0-4.3,2.8.8.8,0,0,0,.4,1.3c4.8,1.4,8.2-5.4,9.7-9,3-6.9,3-14.6,5.5-21.6l-1-.4c-5.6,11.3-9.4,23.6-13.2,35.6-.7,1.9,2.4,2.8,3,.8,4-12,8.2-24,12.3-36a.8.8,0,0,0-1.5-.6A218.8,218.8,0,0,0,574.5,359l3,.8c3.1-12.2,7.5-23.9,11.2-36a.5.5,0,0,0-1-.4,78.5,78.5,0,0,0-4.9,14.1c-1,3.7-3.7,15.9-9.1,15.4l.4,1.5a14,14,0,0,1,4.3-1.6,1.3,1.3,0,0,0-.4-2.6,18.7,18.7,0,0,1-9.3-1.6,1.1,1.1,0,0,0-1.2,1.9,27,27,0,0,0,11.9,5.2c1.6.2,2.3-2,.7-2.4-5.8-1.5-11.3-2.8-16.5-5.8l-1,1.6,1.3,1.2a1.2,1.2,0,0,0,2.3-.9c-.7-3-1.1-5.9-1.6-8.9-.1-.8-1.2-.5-1.2.1Z" fill="#282561"/><path d="M592,313.2c-3.5,12-7.6,23.9-12,35.6l2.8.8c1.4-6.9,2.9-13.7,3.7-20.7.1-1-1.4-1.1-1.7-.2-2,6.6-3.4,13.4-4.8,20.1a1.5,1.5,0,0,0,2.8.8c3.8-12,6.8-24.1,9.4-36.3,0-.2-.2-.2-.2-.1Z" fill="#282561"/><path d="M591.2,312.1c-2.9,4.3-4.9,9.7-6.8,14.4-.2.5.6.9.8.4,2.2-4.6,4.9-9.7,6.3-14.7,0-.2-.2-.3-.3-.1Z" fill="#282561"/><path d="M573.5,320.6c3.7-3.6,5.7-9.3,6.7-14.2.1-.7-.9-1.2-1.2-.5-2.2,4.6-4.9,9.4-6,14.3-.1.4.3.6.5.4Z" fill="#282561"/><path d="M593.2,304.8c-.3,1.5-4.9,15.7-4.6,15.8l.7,1.3v-.2c.1-.6-.4-1.4-1.1-1.1H588a1.1,1.1,0,0,0-.7,1.3v.2a1.1,1.1,0,0,0,1.9.5c1.6-1.7,1.8-5.2,2.3-7.4s1.3-6.8,2-10.2c0-.3-.4-.4-.4-.2Z" fill="#282561"/><path d="M575.1,296.8c-.9,3.6-.2,7.4.7,10.9l2.9-.7a42.6,42.6,0,0,1-2.1-11.2l-2,.3q.8,4.8,1.8,9.6l2.4-.7a22.9,22.9,0,0,0-3.2-8.7c-1.5-2.2-3.9-3.1-6.3-3.9s-2.5,2.2-.7,2.8a39.7,39.7,0,0,1,7.8,3.7,1.2,1.2,0,0,0,1.7-1.3c-1-4.2-7.9-5.5-11.4-6.3-1.1-.3-2.2,1.2-1.2,2.1a8.2,8.2,0,0,0,4.6,1.8V293c-5.2,0-5.3,5.8-7.2,9.2-.6,1,.8,1.7,1.5.9,1.7-2.3,2.1-8,5.7-7.9,1.1,0,1.5-1.9.2-2.1a6.6,6.6,0,0,1-3-1.5l-1.3,2.1a32.7,32.7,0,0,1,5.3,1.7c1.3.5,3.9,1.3,4.5,2.8l1.8-1.3a61.1,61.1,0,0,0-7.9-4.4l-1.1,2.7c2.7.7,4.7,1.4,5.6,4.2a51.6,51.6,0,0,0,2.3,6.6c.6,1.3,2.9.4,2.3-1a36.3,36.3,0,0,1-2.2-9.2c-.1-1-1.8-1.4-2-.2a22.4,22.4,0,0,0,1.4,12.5c.6,1.5,3.3.4,2.7-1.1-1.4-3.4-1.9-6.8-2.8-10.2a.4.4,0,0,0-.8,0Z" fill="#282561"/><path d="M563.6,298.5c1.9-3,2.3-6.9,3.1-10.3s1.7-8.2,2.6-12.4c1.5-7.6,3.4-15.3,3.6-23.2,0-.5-.8-.6-1-.1-2.5,7.6-3.5,15.8-5,23.7-.7,3.8-1.5,7.6-2.2,11.5s-1.9,7.1-1.4,10.7a.2.2,0,0,0,.3.1Z" fill="#282561"/><path d="M572.3,255.3a186.3,186.3,0,0,1-1.9,22.4c-.5,3.5-1.2,6.8-1.9,10.2-.4,1.5-.8,3.1-1.1,4.6s-.4,2.4-.3-.1c.8-14,3.7-27.6,5.2-41.5.1-.5-.7-.6-.9-.1a122.5,122.5,0,0,0-5.1,45.4.5.5,0,0,0,.9.1c3.1-13.5,5.2-27,5.3-41,0-.1-.2-.1-.2,0Z" fill="#282561"/><path d="M572.7,236.3c-2,11.7-3.9,23.4-6,35.1l2.5.4c.2-10.1-.3-21.3,3-31l-1.2-.3a356,356,0,0,0-6.1,37.2,1.3,1.3,0,0,0,2.6.3c2.5-12.2,3.7-24.9,4.7-37.3.1-.7-1-.8-1.2-.2-1.9,10.6-4.8,20.3-4.3,31.3a1.3,1.3,0,0,0,2.5,0c1.5-11.8,3-23.6,4.6-35.3,0-.6-1-.8-1.1-.2Z" fill="#282561"/><path d="M596.5,312.9c3.6-3.8,5-9.6,6.6-14.5s3.8-12,4.1-18.1c.1-1.2-1.5-1.3-1.9-.3-3.9,10.3-4.9,22-10.2,31.8-.5.9.7,1.9,1.4,1.1Z" fill="#282561"/><path d="M599.7,300.8c-.8,1.9-1.4,3.9-2.1,5.8s.9,1.2,1.2.5c4.1-7.8,6.9-16.4,9.2-24.9s2.9-17.5,5.4-25.8l-2.2-.3c-1.5,15.1-5.6,30.2-10.2,44.7l2.7.3a170,170,0,0,1,4.2-22.4c.9-3.5,1.9-6.9,3-10.3s2.9-6.7,3.4-10.2c.2-.8-.9-1.8-1.6-.9-4.3,5.4-6.2,13.9-8,20.5a130.2,130.2,0,0,0-3.8,23.3c-.1,1.7,2.3,1.9,2.8.4,4.4-14.9,6.9-29.9,9.7-45.1a1.2,1.2,0,0,0-2.1-.9c-2.1,3.3-2.3,7-2.9,10.8s-1.5,8.9-2.6,13.4c-2.1,9.2-5.3,18-8.2,26.9l1.3.4c.5-2,1-4,1.4-6,0-.4-.5-.5-.6-.2Z" fill="#282561"/><path d="M619.8,264.3c1.4-3-.2,2.1-.3,3.2l-.6,5.8c-.6,4.7-1.3,9.3-2.1,14-1.3,8.1-3.6,16.1-4.6,24.1l2.7-.7-1.2-2.7a.6.6,0,0,0-1.1,0c-.2,1.2-.3,2.2-.4,3.4s2.4,1.9,2.9.4c2.5-7.6,3.4-16.2,4.3-24.1a189.2,189.2,0,0,0,1.7-26,.5.5,0,0,0-.9-.1c-.2.8-.5,1.7-.8,2.6s.3.4.4.1Z" fill="#282561"/><path d="M582,310.1v.5a.2.2,0,1,0,.4,0v-.5c0-.2-.2-.2-.2,0Z" fill="#282561"/><path d="M581.6,304.3c2.2-.8,3-4,3.9-6.1a1.5,1.5,0,0,0-1.4-2.2h-1.7c-.9,0-1.1,1.2-.4,1.7,2.7,2,5.2,3.2,8.6,3.1a1.2,1.2,0,0,0,.3-2.3c-2.6-.9-5.3-1.5-8-2.3l-.2,1.7c3.3-.3,9.4-.5,11.7,2.5s.6,5.2,0,7.4-.9,5.3-2.2,6.1h1.6c-1.2-.6-1.4-4.6-1.5-5.5s-2-1.4-2,0-.5,6.6,1.9,8.1a2.2,2.2,0,0,0,1.6,0c2-1.4,2.2-4.6,2.6-6.9s1.6-6.2.6-8.8c-1.9-5.1-10-5.1-14.3-4.7a.9.9,0,0,0-.3,1.8c2.7.8,5.2,1.9,7.9,2.9l.3-2.4a9.2,9.2,0,0,1-7.5-2.1l-1.3,1.3,1.3,1-.3-1.8c-1,2.1-3,5.2-1.6,7.4l.4.2Z" fill="#282561"/><path d="M592.3,303.7a61.8,61.8,0,0,1-4,13.3l3.1.9a19.5,19.5,0,0,1,2.3-5.8c.5-.8,1.4-1.6,1.6-2.6s-2.5-5.5-3.6-7.3-2.2-3.7-4.5-4.1-6,1.5-8.4,2.9c-.8.5-.8,2.1.3,2.3a8.3,8.3,0,0,0,2.2.1l-.8-1.6a8.4,8.4,0,0,1-3.5,3l1.9,1.5a27.3,27.3,0,0,1,2-6.9,1.1,1.1,0,0,0-1.9-1.1,19.9,19.9,0,0,0-2.5,3.9c-.4.7.4,1.8,1.1,1.2a12.9,12.9,0,0,0,3.3-4l-1.9-1.1a37.3,37.3,0,0,0-2.6,7.3,1.3,1.3,0,0,0,1.9,1.5,10.5,10.5,0,0,0,3.9-4.2,1.1,1.1,0,0,0-.9-1.6l-1.2-.3-.3,2.3c1.7-.7,3.6-2.1,5.4-2.3s7,4.4,7.7,7-.8,2.4-1.9,3.9a20.8,20.8,0,0,0-2.7,5.1c-.8,1.9,2.4,2.9,3.1.9,1.5-4.5,1.8-9.4,1.9-14.1a.5.5,0,0,0-1-.1Z" fill="#282561"/><path d="M569.5,342.9c.3-.5.1-1.3.1-1.8s-.7-.4-.6,0a3.7,3.7,0,0,0,.2,1.8c0,.1.2.1.3,0Z" fill="#282561"/><path d="M568.4,339.3a25.5,25.5,0,0,0-1.8,10.6c.1,1.9,3,1.9,2.9,0s-.1-3.2-.2-4.9a25.3,25.3,0,0,1-.3-4.8c.1-1-1.6-1.1-1.7,0-.1,2.7-.2,5.4-.4,8.1l2.8-.4c-.4-2.3-.9-4.5-1.4-6.8s-1.6-.7-1.6.2v2.3c-.1,1.1,1.5,1,1.5,0l.3-2.3h-1.7c0,2.3,0,4.6.2,7s3,1.8,2.8,0-.5-5.4-.7-8.1l-1.6.2c.6,2.7-.3,6.4-.8,9.1l2.9.4c.1-1.7,0-3.4.1-5.1s.4-3.4.4-5-1.2-1.3-1.6-.5Z" fill="#282561"/><path d="M612.1,329.7a.2.2,0,0,0,0-.3c-.1,0-.1.3,0,.3Z" fill="#282561"/><path d="M605.1,349.6c1,.1-3.7,17.3-4.4,19.1l2.4.4v-2.3a.7.7,0,0,0-1.2-.5,7.7,7.7,0,0,0-1.2,2.4c-.5,1.5,1.8,2.1,2.3.7a43.8,43.8,0,0,0,2.8-12.8c.1-1.6,1.1-6.8-.4-7.7s-.5,0-.6.2h0c-.1.2.1.4.3.4Z" fill="#282561"/><path d="M556.4,382.8c.1,0,.1-.3,0-.3a.2.2,0,1,0,0,.3Z" fill="#282561"/><path d="M558.7,364.3c1.5,8,1.2,15.6-2.9,22.9-.3.5.4.8.7.4,5-6.9,7-15.7,3.9-23.8a.9.9,0,0,0-1.7.5Z" fill="#282561"/><path d="M568,363a.3.3,0,0,0,0-.5c-.4,0-.4.5,0,.5Z" fill="#282561"/><path d="M571.4,351.3c-.3,4.1-.5,8.1-1.7,12.1-.6,1.9-3,10.4-5.6,11.1a.9.9,0,0,0-.4,1.5l.4.3a1.2,1.2,0,0,0,1.7,0c2.9-2.3,4.5-8.1,5.4-11.6a33.7,33.7,0,0,0,.7-13.4c0-.4-.5-.2-.5,0Z" fill="#282561"/><path d="M565.8,368.3a78.2,78.2,0,0,1-6.3,9.5c-.1.2.2.4.3.2a50.4,50.4,0,0,0,6.1-9.6c.1-.1-.1-.2-.1-.1Z" fill="#282561"/><path d="M555.3,342.1l-2.5-1.3v.7l2.1-.7,1.6.9,1.3,1.3a38.8,38.8,0,0,1,2.6,3.1,51.1,51.1,0,0,1,3.4,6,.8.8,0,0,0,1.4-.6c-1-3.6-3.9-6.8-6.6-9.3s-4.5-3.8-6.4-1.3c-.2.2-.2.5.1.6l2.6,1.3a.4.4,0,1,0,.3-.7Z" fill="#282561"/><path d="M533.7,378.2l.2,1.1-1.8.3c2.3,1.9,3.2,4.8,5.7,6.7a12,12,0,0,0,8.3,2.5c1.4-.1,2-2.3.4-2.5-5.4-.9-9.2-5.6-12.6-9.5l-1,1a46.4,46.4,0,0,0,11.7,8.4c1.1.6,2.5-.9,1.4-1.9-3.3-2.8-6.9-5.3-10.4-8l-1.1,1.5c6.3,3.3,12.1,6.9,19.2,8,1.5.3,2.6-1.7,1.1-2.5a31,31,0,0,0-8.3-3.7c-.6-.1-1,.7-.4,1a32.8,32.8,0,0,1,7,4.9l1-2.4c-6.7-.8-12.9-3.6-18.7-6.9-.8-.5-1.9.7-1.1,1.4,3.5,2.9,6.7,6,10.3,8.6l1.2-2.1a42.8,42.8,0,0,1-11.9-7.3c-.7-.7-1.6.3-1,1,3.7,4.6,7.2,8.3,12.6,10.9l.6-2.5a12.9,12.9,0,0,1-9.1-4.3c-1.2-1.3-2-3.1-3.5-4.1a1.1,1.1,0,0,0-1.6.7h-.1a1.1,1.1,0,0,0,.5,1.3h.1c1,.6,2.3-.9,1.3-1.7Z" fill="#282561"/><path d="M538.7,377.8c3,.9,5.6,7.9,7,10.5s2.7,6.9,4.5,10.1l1-1.7-.2-.2a.6.6,0,0,0-1.1.4,2.3,2.3,0,0,0,.2,1.2c.4,1.5,2.4.9,2.2-.6-.7-4.7-4-9.4-6.6-13.3-1.5-2.3-3.7-7-6.9-6.7-.2,0-.3.3-.1.3Z" fill="#282561"/><path d="M546.5,381c2,12.9,3.7,27.6.7,40.5l3-.4-1.5-2.7a.9.9,0,0,0-1.8.2c.1,1.1.1,2.2.2,3.3s2.8,2.3,3.2.4c2.8-13.2-.3-28.5-3-41.5-.1-.5-.9-.3-.8.2Z" fill="#282561"/><path d="M545.1,384.8a162.3,162.3,0,0,1,1.1,40.6h3.4a89.2,89.2,0,0,0-1.8-10.1.9.9,0,0,0-1.7.3c.2,3.2.2,6.5.1,9.8s3.2,2.1,3.4,0c.9-13.7,0-27.6-3.9-40.8-.1-.4-.7-.2-.6.2Z" fill="#282561"/><path d="M529.4,338.2c-.4,8.3.2,16.8.7,25.2a234.1,234.1,0,0,0,1.9,23.7c.2,1.8,3.2,1.4,3.1-.4a42.6,42.6,0,0,0-.8-8c-.2-.9-1.4-.6-1.5.2-.3,2.5-.5,4.9-.8,7.4l3.1.4c-.4-8.1-1.6-16.2-2.4-24.3s-1-16.2-2-24.2c-.2-.8-1.3-.9-1.3,0Z" fill="#282561"/><path d="M537.4,374.1a226.3,226.3,0,0,1,.5,24.7c0,4-.2,7.9-.4,11.9s-1,7.6,0,11.1c.5,1.6,2.9.6,2.1-.8v-.2a1,1,0,0,0-1-.4h-.2l1.3,1.6c1.3-3.1,1.1-6.1,1.1-9.5s0-8.5-.1-12.8c-.4-8.6-1.4-17.1-2.3-25.7-.1-.5-1-.5-.9,0Z" fill="#282561"/><path d="M538.1,383.8c-.3,16.8-1.8,33.6-3,50.3h3.8c-.5-6.3-.6-12.6-.7-18.9a.6.6,0,0,0-1.2,0c-.6,6.1-1,12.3-1.9,18.4a1.9,1.9,0,1,0,3.8.5c.9-16.8.8-33.5.7-50.3a.8.8,0,0,0-1.5,0Z" fill="#282561"/><path d="M538.5,391.8q-.3,9.4-.9,18.9c-.4,6.3-1.4,12.7-1.2,18.9a1.4,1.4,0,0,0,2.8,0c1.4-12.3,0-25.4-.1-37.8,0-.3-.6-.3-.6,0Z" fill="#282561"/><path d="M575.3,440.5c-.7-1.2,1-6.3,1.3-7.6s1.1-4.7,1.7-7c1.3-4.6,2.9-9,4.6-13.5.2-.7-1-1.2-1.3-.5a70.4,70.4,0,0,0-6.1,16c-.8,3.2-3.1,9.6-1.4,12.8a.7.7,0,0,0,.6.3h.4a.3.3,0,0,0,.2-.4Z" fill="#282561"/><path d="M580.1,415.1c-2.1,9.2-4.2,18.4-6.4,27.6l2,.3c-.5-13.8,4.6-27.6,7.4-40.9a1,1,0,0,0-1.9-.5,263.8,263.8,0,0,0-7.8,35c-.2,1.6,2.1,2.2,2.4.7,2.3-14.3,6.7-27.3,12.3-40.6l-2.4-1c-3.9,12.3-7.9,24.4-11.3,36.8l2.8.4c1.8-13.6,6.7-25.7,13.4-37.6l-2.7-1.6c-3.3,7.3-6.9,14.3-9.8,21.7l3,.9c2.5-9.4,5.5-18.5,8.5-27.8l-1.4-.3a149,149,0,0,1-12.3,26.2l1.7.7a194.7,194.7,0,0,1,8.1-23.3c.1-.3-.3-.6-.5-.3a139.9,139.9,0,0,0-9.4,23.1.9.9,0,0,0,1.7.7c4.4-8.7,8.4-17.6,12.1-26.8.3-.7-.9-1.2-1.3-.5-4.9,8.5-7.5,18.1-10.2,27.4a1.6,1.6,0,0,0,3,.9c2.3-7.4,5.1-14.6,9.5-21,1-1.6-1.6-3.2-2.7-1.6-7.4,11.6-11.7,25.3-13.5,38.8-.2,1.8,2.3,2.6,2.7.8a249.2,249.2,0,0,1,11.2-36.9c.5-1.4-1.8-2.4-2.5-1-6.7,12.8-10.5,27.3-12.4,41.6h2.4a188.3,188.3,0,0,1,7.3-34.9l-1.9-.5a169.7,169.7,0,0,0-5.2,21.3c-1.4,6.6-2.8,13.3-2.3,20.1.1,1,1.7,1.4,2,.2,1.8-9.2,3.8-18.5,5.7-27.7.2-.9-1.1-1.3-1.3-.4Z" fill="#282561"/><path d="M601.6,310.6a26.4,26.4,0,0,0,10.4,4.3c.7.2,1-1,.3-1.1a29.3,29.3,0,0,1-10.3-3.9.4.4,0,0,0-.4.7Z" fill="#282561"/><path d="M604.9,286.6c.1,3,4.4,5,6.7,6s6.5,2.1,9.5.8c.7-.3.4-1.3-.2-1.5-3-.9-6.1-.7-9-2s-4.1-3.5-6.5-3.7a.4.4,0,0,0-.5.4Z" fill="#282561"/><path d="M611.6,289.6l-2.5-1.3c-.4-.2-.7.3-.3.5l2.5,1.3c.3.2.6-.3.3-.5Z" fill="#282561"/><path d="M602.9,285.3c.3,1.2,1.7,2.1,2.6,2.7a9.3,9.3,0,0,0,4.1,2c.5,0,1-.7.4-1l-3.8-1.7c-1-.6-2-1.8-3.1-2.1s-.2,0-.2.1Z" fill="#282561"/><path d="M607.6,274.1a25.4,25.4,0,0,0,8.3,4.8c1.8.7,5.7,1.7,6.8-.7.1-.3.1-.8-.3-.9h-.6c-.8.7-3.6-.2-4.4-.4l-3.1-1.2a42.5,42.5,0,0,1-5.4-3.2c-1-.7-2.2.9-1.3,1.7Z" fill="#282561"/><path d="M619.8,277.6a24.9,24.9,0,0,1-11.8-3.5c-.4-.3-.9.5-.4.8a39.8,39.8,0,0,0,12.2,3.1.2.2,0,1,0,0-.4Z" fill="#282561"/><path d="M549.6,279.2a30.6,30.6,0,0,0,20.8,2.3c1-.2.8-1.8-.3-1.8a64.5,64.5,0,0,0-7.6.4c-2.7.3-8.9,2.7-11.2.8l-1-1.7a6.7,6.7,0,0,0,1.4,1.5A6.5,6.5,0,0,0,554,282a5.8,5.8,0,0,0,4.1.1.6.6,0,0,0-.1-1.1c-3.2.2-4.6-.9-7.3-2.3-.5-.3-.9-.9-1.6-.7s-1.5,1.1-1,2.2,4.9,2.1,6.6,2.3c5.2.4,10.3-1.5,15.4-1l-.2-1.8a33.6,33.6,0,0,1-19.8-1.7c-.7-.3-1.2.9-.5,1.2Z" fill="#282561"/><path d="M557.2,255.8a79.7,79.7,0,0,1,8.1,2,15.6,15.6,0,0,0,3.7,1c1.4,0,2.6-.6,4-.8s1.5-1.7.3-2c-5.6-1.5-13.2.2-17-5.3l-1.4,1.9c2,.4,3.3,3.1,5,4.2a7.3,7.3,0,0,0,4.9,1.5.9.9,0,0,0,.3-1.8,12.5,12.5,0,0,1-6.8-4.4,6.6,6.6,0,0,0-2.7-2,1.4,1.4,0,0,0-1.5,1.9c3.5,6.9,12.5,4.8,18.6,6l.3-2.1c-1.2,0-2.4.3-3.7.3a32.1,32.1,0,0,1-5.2-1.1,25,25,0,0,0-6.7-.7c-.9,0-1.1,1.3-.2,1.4Z" fill="#282561"/><path d="M574.7,337.4a2,2,0,0,0,.3-1.5c0-.3-.4-.3-.6,0a2.2,2.2,0,0,0-.2,1.4.3.3,0,0,0,.5.1Z" fill="#282561"/><path d="M574.7,336.7l.8.3h1.1a4,4,0,0,1,1.8.7c1.1.8,2.3-.6,1.7-1.7a4.5,4.5,0,0,0-2.9-2.1l-.2,1.6a1.7,1.7,0,0,1,1.5.4l-.2-.8v.2a1,1,0,0,0,1.2,1.2h.2c.3-.1.5-.5.6-.8v-.2a1,1,0,0,0-1.5-.8h.6l-2.2-.8a.8.8,0,0,0-.6,1.5,2.4,2.4,0,0,1,1.2,1.6l1.9-1.4a5.1,5.1,0,0,0-3-.7l-1.3.2-.6.3c-.2.2-.2.5-.4.6s-.1,1,.3.8Z" fill="#282561"/><path d="M580.2,336.7c-1.6,4.6-3.2,9.2-4.7,13.8-.3,1,1.5,1.5,1.7.4,1.3-4.6,2.5-9.3,3.5-14,.1-.3-.3-.4-.5-.2Z" fill="#282561"/><path d="M531.5,387.4a.2.2,0,0,0,0-.3.2.2,0,1,0,0,.3Z" fill="#282561"/><path d="M532.2,386.6l.9-.4-1.2-1c-1.4,7-2.3,14.1-3.3,21.1s-3.2,13.9-1.6,19.7a1,1,0,0,0,1.8.2c2.8-5.1,2.3-13,2.9-18.7.8-7.3,1.5-14.7,1.9-22.1,0-1.1-1.7-1-1.7,0v1c0,.2.2.3.4.2Z" fill="#282561"/><path d="M534.3,383.9c-1.9,8.8-3.8,17.7-5.4,26.5-.8,4.5-1.5,8.9-2.2,13.4s-1.5,6.9-.9,10.4a1.3,1.3,0,0,0,2.4.3c1.7-3.6,1.8-7.7,2.3-11.7s1.1-8.3,1.7-12.5c1.3-8.6,2.5-17.3,3.7-25.9.2-1-1.3-1.5-1.6-.5Z" fill="#282561"/><path d="M578.9,414.8c-2.8,8.6-3.9,18.8-5.2,27.8-.5,3.2,4.4,2.1,3-.4l-.3-.5a1.1,1.1,0,0,0-1.5-.4l-.5.3,2.5,1.9c2-9,4.2-19.3,3.9-28.5a1,1,0,0,0-1.9-.2Z" fill="#282561"/><path d="M586.4,333c3.5,3.4,8.8,4.7,13.6,5.2,1,.1,1.3-1.6.2-1.9a39.5,39.5,0,0,1-5.7-1.4,12.2,12.2,0,0,1-3.8-2.2c-1.7-1.3.2,0,.9.4a26.1,26.1,0,0,0,11.7,2.3.3.3,0,0,0,0-.6c-4.8.2-10-.6-14-3.5-.2-.2-.6.2-.4.4,2.4,3.6,6.7,5.4,10.8,6.5l.3-1.9c-4.9-.3-8.9-2.1-13.4-3.7-.2-.1-.4.2-.2.4Z" fill="#282561"/><path d="M588.9,325.3a14.3,14.3,0,0,0,6.5.2c2.1-.3,4.7-.5,6.4-1.8s.4-1.3-.3-1.3-4,.8-6,1.2-4.5.4-6.6,1.2a.3.3,0,0,0,0,.5Z" fill="#282561"/><path d="M592.7,324.3a6.7,6.7,0,0,0,3.1.7,10.9,10.9,0,0,0,3.6.1c.5-.2.6-.9.2-1.1a10.6,10.6,0,0,0-3.5-.5,9.5,9.5,0,0,0-3.4.2c-.2.2-.2.5,0,.6Z" fill="#282561"/><path d="M576.1,352c-1.5,4.4-2.5,8.7-4.6,12.9s-4.8,6.8-7,10.4c-.4.7.5,1.8,1.3,1.3,6.8-4.9,11.6-16.2,11-24.5,0-.4-.5-.5-.7-.1Z" fill="#282561"/><path d="M563.5,373.3a1.1,1.1,0,0,0,.2,1.6c.9.7,1.9-.2,2.5-.8a23.3,23.3,0,0,0,6.4-8.8c.2-.4-.5-.7-.8-.3s-1.9,3.1-3,4.6l-1.9,2.4-.9,1-.5.4a1.2,1.2,0,0,1-1.3.4c.4-.5-.4-.9-.7-.5Z" fill="#282561"/><path d="M546.1,347.6c-.1,4.1,1.8,8,1.6,12.1s-2.5,9-4.6,13.5a.9.9,0,0,0,1.5,1.1c7-5.9,7-19.7,1.8-26.8-.1-.1-.3-.1-.3.1Z" fill="#282561"/><path d="M551.5,342.5c4-2.1,9.2,5.6,10.6,8.1a17,17,0,0,1,1.8,11.7c-1.1,7.2-5.7,12.1-9.5,18-.6,1.1.8,2,1.7,1.3,7.6-6,13.2-17.1,10.7-26.8-1.2-5.1-9-16.8-15.5-12.5-.1.1,0,.3.2.2Z" fill="#282561"/><path d="M571.5,235.3a38.9,38.9,0,0,0-4.9-1.2c-1.2-.2-2.4-.4-3.3.4a.5.5,0,0,0-.1.7c.7,1,1.9,1.1,3.1,1.3l4.6.7a1,1,0,0,0,.6-1.9Z" fill="#282561"/><path d="M571.3,235.7a10.2,10.2,0,0,0-3.1-.9,11.2,11.2,0,0,0-3.2-.4c-.6.1-.8.9-.2,1a16.3,16.3,0,0,0,3.1.3,18.4,18.4,0,0,0,3.3.3.2.2,0,0,0,.1-.3Z" fill="#282561"/><path d="M560.7,235.3a90.2,90.2,0,0,0-7.6,24.8,1,1,0,0,0,1.9.6,96,96,0,0,0,6.4-25.3c0-.3-.5-.4-.7-.1Z" fill="#282561"/><path d="M559.6,236.7c-2.1,7.8-3.8,15.6-5.7,23.5s-4.3,14.6-4.9,22c-.1.9,1.4,1.3,1.8.5,3.3-7,4.5-15.2,6-22.7a182.7,182.7,0,0,0,3.4-23.2.3.3,0,0,0-.6-.1Z" fill="#282561"/><path d="M555.1,250.2c-.1,6.7-1.1,13.3-1.9,20-.2,1.4,2.2,1.7,2.5.3a65.9,65.9,0,0,0,.9-20.3.8.8,0,1,0-1.5,0Z" fill="#282561"/><path d="M547.6,301.4c3.8-10.4,8.2-24.2,5.9-35.3a.7.7,0,0,0-1.4,0c-1.7,10.4-4.3,20.6-5.3,31.1a1,1,0,0,0,2,.3c2.3-10.2,3-20.7,4.7-31.1l-1.4-.3c-1.3,5.4-1.1,11.2-1.9,16.8a101,101,0,0,1-4.1,18.1.8.8,0,0,0,1.5.4Z" fill="#282561"/><path d="M545.3,310.8a54.4,54.4,0,0,0,4.5-14.7,1.2,1.2,0,0,0-2.3-.6,59.8,59.8,0,0,0-3.2,15.1.5.5,0,0,0,1,.2Z" fill="#282561"/><path d="M528.6,337.2l-.5-.3V338c4.8-2.8,9.9-5.8,14.4-9,.6-.5.2-1.7-.6-1.4a48.1,48.1,0,0,0-14.6,9.4c-.6.6.5,1.6,1.1.8l.3-.4v-.2Z" fill="#282561"/><path d="M527.4,338.4c7.4-5.2,16.1-10.1,22.2-17a.8.8,0,0,0-1-1.3c-8.3,3.9-15.3,11.3-21.7,17.7-.3.3.1.9.5.6Z" fill="#282561"/><path d="M532.6,334.6c4.8-3.1,10.1-5.9,14.6-9.5.9-.7-.3-1.8-1.2-1.4-5.2,2.3-9.9,6.2-14.3,9.8-.6.5.2,1.6.9,1.1Z" fill="#282561"/><path d="M549.7,322.1c6.8.1,15.1,1.2,21.5-1.2a.8.8,0,0,0-.2-1.6,86,86,0,0,0-21.5,1c-1,.2-.7,1.7.2,1.8Z" fill="#282561"/><path d="M550.2,321c8.4.4,17,1.2,25.4.4a1.2,1.2,0,0,0,0-2.3c-8.4-1-17,0-25.4,1-.5.1-.6.9,0,.9Z" fill="#282561"/><path d="M574.6,320.5a.6.6,0,0,0,.7-.1c.2-.2-.2-.5-.3-.3h-.3c-.2-.1-.3.2-.1.3Z" fill="#282561"/><path d="M555.8,334.3c.1,0,.1-.1,0-.1s-.1.1,0,.1Z" fill="#282561"/><path d="M553.6,331.3a15.8,15.8,0,0,0,1.8,4.7,4.3,4.3,0,0,0,2.4,2.4c.9.4,1.6-.9.9-1.5a8.8,8.8,0,0,1-1.8-2.9,25.4,25.4,0,0,0-2.3-3.4c-.4-.5-1.1.1-1,.7Z" fill="#282561"/><path d="M554.7,331.3c.1,2.3.6,6.2,3.2,6.9.3.1.7-.2.6-.5s-1.4-1.8-2.1-2.8a9,9,0,0,1-1.6-3.6Z" fill="#282561"/><path d="M557.4,337c1.4,1,2.8.9,4.4.6s4.2-.8,5.3-2.3a.7.7,0,0,0-.5-1.2c-3-.3-5.6,2.7-8.7,1.9a.6.6,0,0,0-.5,1Z" fill="#282561"/><path d="M558.5,337.3c3.4.1,7.7.4,11-.8a.7.7,0,0,0-.2-1.3,22.9,22.9,0,0,0-5.8.6l-5.1.8c-.4,0-.3.7.1.7Z" fill="#282561"/><path d="M563.4,336.5c3.3.5,8-.5,10.3-3.1a.9.9,0,0,0-.9-1.5,33.6,33.6,0,0,0-4.2,2.2l-5.2,1.9c-.2,0-.3.5,0,.5Z" fill="#282561"/><path d="M575.7,321.6c-.8,2.4-.9,4.9-1.5,7.3a.9.9,0,0,0,1,1.1c1.3-.4,1.4-1.6,1.5-2.8a24.6,24.6,0,0,0,.4-5.4.7.7,0,0,0-1.4-.2Z" fill="#282561"/><path d="M576,320.7c-.7,1.4-.7,3.1-1.1,4.6a41.8,41.8,0,0,1-2,5.6c-.7,1.5,1.6,2.8,2.3,1.3a20,20,0,0,0,1.7-5.9c.3-1.7.6-4-.3-5.6a.4.4,0,0,0-.6,0Z" fill="#282561"/><path d="M575.3,324.6l-1.7,4.6c-.5,1.3-1.2,2.5-.8,3.9a.8.8,0,0,0,1.4.4c.9-1,.9-2.4,1.2-3.8l.8-4.9a.5.5,0,1,0-.9-.2Z" fill="#282561"/><path d="M573.6,332.2Z" fill="#282561"/><path d="M551.3,330.6a23.1,23.1,0,0,0,3.4,4.2.7.7,0,0,0,1.1-.8,23.2,23.2,0,0,0-3.1-4.4c-.6-.7-1.9.2-1.4,1Z" fill="#282561"/><path d="M554.6,336.1a26.5,26.5,0,0,0-4.8,5.8.4.4,0,0,0,.6.6,15.3,15.3,0,0,0,4.9-5.8.5.5,0,0,0-.7-.6Z" fill="#282561"/><path d="M547.3,345c1.5-.1,2.9-2.1,3.9-3.1a14,14,0,0,0,3.5-4.5c.2-.6-.7-.9-1.1-.6a37.3,37.3,0,0,0-3.6,4.3l-1.7,2.1c-.5.5-1,.8-1.1,1.6s0,.2.1.2Z" fill="#282561"/><path d="M542,347.1h0a.6.6,0,0,0-.7-.6l-.7.2v.9c1-.1,1.9-.5,2.9-.7a9.1,9.1,0,0,0,2.9-1,.6.6,0,0,0-.3-1.2,14,14,0,0,0-2.9.9,18.2,18.2,0,0,0-2.8,1.1.5.5,0,0,0,.2.9h.6c.2.1.5-.1.7-.3v-.2Z" fill="#282561"/><path d="M540,347.9a11.5,11.5,0,0,0,4.5-.7,25,25,0,0,0,4.8-1.8.9.9,0,0,0-.7-1.7,41.9,41.9,0,0,0-4.9,2,13.3,13.3,0,0,0-3.8,1.8c-.1.1,0,.4.1.4Z" fill="#282561"/><path d="M548.6,346.8c1.7-1.8,3.5-3.5,5.2-5.2s3.6-3.4,4.6-5.5a.8.8,0,0,0-1.2-1.1c-2.2,1.1-3.8,3.4-5.4,5.1s-3.7,3.6-4.6,5.6a.9.9,0,0,0,1.4,1.1Z" fill="#282561"/><path d="M569.7,339.9c.8-.7.8-2,.8-3s-.1-1.7-.8-2.1h-.4a15.9,15.9,0,0,0-.7,2,17,17,0,0,0-.4,2.2c.1.6,1,1,1.3.3a4.4,4.4,0,0,0,.3-2,17.7,17.7,0,0,0,.1-2.3c0-.2-.2-.4-.4-.3s-1.2,1.1-1.4,1.8a3.5,3.5,0,0,0-.2,3,1.1,1.1,0,0,0,1.8.3Z" fill="#282561"/><path d="M570.4,336.1c2.8.4,6,1.2,8.7.7l-1-1.3h-.6c-.4,0-.4.5-.2.7a6.9,6.9,0,0,0,1.3.5.8.8,0,0,0,.5-1.6c-2.6-1.1-6.1-.5-8.8,0-.6.1-.4.9.1.9Z" fill="#282561"/><path d="M575.8,335.6a23.7,23.7,0,0,1-5.3-.4c-1.1-.3-1.3,1.4-.2,1.5h.5c.8.1.9-1.1.1-1.4h-.4v1.5a13.7,13.7,0,0,1,5.3-.8.2.2,0,0,0,0-.3Z" fill="#282561"/><path d="M564.4,336.7a9.7,9.7,0,0,0-1.1,3.4c-.3,1.1-.9,2.4-.4,3.6a1.3,1.3,0,0,0,2.5-.8,10.3,10.3,0,0,0-.4-1.4.5.5,0,0,0-.8-.2l-1,1.1,1.9,1.9a6.4,6.4,0,0,0,.9-3.6,9.7,9.7,0,0,0,0-3.8.9.9,0,0,0-1.6-.2Z" fill="#282561"/><path d="M560.5,319.2c.5-3.7,1-7.5.1-11.2a.9.9,0,0,0-1.8,0c-.5,3.5-.4,7-.9,10.4-.3,1.8,2.3,2.5,2.6.8Z" fill="#282561"/><path d="M558,318.1l.3.6a.2.2,0,0,0,.4-.1c1.3-4.6,2.7-9.6,2.9-14.4h-1.3l.2,3.2c-.1.3.4.5.5.2a58.4,58.4,0,0,0,6.8-13.7l-1.6-.6c-2.1,4.8-6.7,11.8-6,17.1a.9.9,0,1,0,1.8,0c0-5.5,3.3-11.4,5.7-16.3a.9.9,0,0,0-1.5-.8,31.3,31.3,0,0,0-3.8,7.8c-.4,1.1-1.6,3.3-1.5,4.4s1.1-4.9.7-1.4c.1-.8-1.1-.9-1.3-.2a34,34,0,0,0-1.2,6.5c-.1.8-1.4,7.1-1,7.4s-.2.1-.1.2Z" fill="#282561"/><path d="M575.7,330.4c2,.3,4.1.6,5.9-.3a1,1,0,0,0-.2-1.8,24.2,24.2,0,0,0-5.4-.2,1.2,1.2,0,0,0-.3,2.3Z" fill="#282561"/><path d="M576.1,326.9a11.2,11.2,0,0,0,5.3,1.5c1,0,1.2-1.5.3-1.7a40.7,40.7,0,0,1-5-1.3c-.8-.2-1.3,1-.6,1.5Z" fill="#282561"/><path d="M578.8,309.5c2,.2,3.9,0,5.9.3s3.5,1.1,5.3,1.1a1.1,1.1,0,0,0,.8-1.8c-2.6-2.8-9.2-2.6-12.2-.6a.5.5,0,0,0,.2,1Z" fill="#282561"/><path d="M590.9,312.3c-4-1.9-10-1.8-14.3-1.7-1.6,0-1.5,2.3,0,2.5,4.2.5,10.1,1.4,14.1,0,.4-.1.6-.7.2-.8Z" fill="#282561"/><path d="M561.6,306.8c4.2,1.9,10.4,1.4,14.9.3,1-.2.7-1.7-.3-1.8l-7.7.2c-2.3.1-4.6-.2-6.8.3a.5.5,0,0,0-.1,1Z" fill="#282561"/><path d="M568.3,304.8a12.7,12.7,0,0,0-2.8-.6H564c-.2,0-1.2.2-1.4,0v.5l-.2.2-.4-.4h0a.5.5,0,0,0,.9-.2h-.1a.5.5,0,0,0-.5-.3c-.2,0-.3.1-.4.3a.5.5,0,0,0,.1.6c.6.4,1.7.1,2.3.1a12.3,12.3,0,0,1,3.8.4c.3,0,.4-.5.1-.5Z" fill="#282561"/><path d="M556.2,338.4c-.4,1.4,1.6,2.7,2.6,3.4a10.9,10.9,0,0,0,4.9,2.2.9.9,0,0,0,.7-1.7c-1.7-1.1-3.4-2-5-3.1s-2.8-2.3-3.2-.8Z" fill="#282561"/><path d="M559,340.6l1.9,1c.6.4,1.2-.6.6-1l-1.9-1.1c-.7-.4-1.3.7-.6,1.1Z" fill="#282561"/><path d="M549.4,304.3c1.5,1,3.8.3,5.4,0s4.7-.9,6.6-2.2a.9.9,0,0,0-.5-1.7c-2.3.1-4.5,1-6.7,1.6s-3.8.5-4.8,1.9a.3.3,0,0,0,0,.4Z" fill="#282561"/><path d="M562.3,299.9c-2-.1-4.4.9-6.3,1.6a55,55,0,0,0-6,2.8c-.7.4-.1,1.4.6,1.1a59.2,59.2,0,0,1,6.6-2.5,24.9,24.9,0,0,0,5.4-2,.6.6,0,0,0-.3-1Z" fill="#282561"/><path d="M543.8,309.6a129,129,0,0,0-2.7,13.5c-.2.7.8,1.3,1.1.5a34.6,34.6,0,0,0,3.4-13.7c-.1-1-1.6-1.2-1.8-.3Z" fill="#282561"/><path d="M540.9,328c1-.4,1.3-1.6,1.7-2.6a11.5,11.5,0,0,0,.8-4.1c0-.9-1.4-1.4-1.8-.5a23.8,23.8,0,0,0-1.1,3.8c-.2,1-.7,2.3-.1,3.2a.4.4,0,0,0,.5.2Z" fill="#282561"/><path d="M571.3,388.3V388c.1-.2-.2-.2-.3,0v.3c-.1.3.4.4.4,0Z" fill="#282561"/><path d="M570.8,389.5c4.2,0,8.4.2,12.5-.5,2.2-.4,4.7-1.2,5.3-3.5.2-.7-.4-1.1-1-1.1-2.5.4-4.8,1.2-7.4,1.5l-9.4.7c-1.8.2-1.9,3,0,2.9Z" fill="#282561"/><path d="M585,385.4l-1.2.3c-.1,0-.1.1,0,.1l1.3-.3c.1,0,0-.1-.1-.1Z" fill="#282561"/><path d="M573.4,387.3h-1.8c-.8.1-1.1,1.3-.2,1.5,5.6,1.2,11.1,2.3,16.8,3a1.6,1.6,0,0,0,1.6-2.7l-1-1v2.2c5.3-4.8,8.4-13.5,9.4-20.4l-2.2-.6c-.6,3.8-2,7.4-3.1,11s-2.2,8.3-4.8,11.5l1.8.5v-2.9a.7.7,0,0,0-1.2-.5,5.4,5.4,0,0,0-.9,3.7c.1.8,1.2,1.5,1.8.7,5.4-6.3,5.9-15.8,8.6-23.4.4-1.3-1.6-1.9-2.2-.6s-7.9,18.3-7.5,18.5c-1.7-1-2.9,1.2-1.9,2.5l.9,1.1,1.1-2.8c-5.7-.6-11.3-1-17-1.3l.2,1.5,1.7-.5c.7-.1.6-1.2-.1-1.1Z" fill="#282561"/><path d="M589.5,388.6a.6.6,0,0,0,0-1.1.6.6,0,1,0,0,1.1Z" fill="#282561"/><path d="M589.7,388.7c3-3.3,6.3-6.7,8.4-10.6.6-1.2,3.3-11.2,3.6-11.2a1,1,0,0,0,1.2-.6l.2-.5c.1-.3-.2-.6-.6-.7-3.5-.3-4.3,2.1-5,5.2-1.4,6.7-4.5,12.3-8.4,17.9-.3.4.3.8.6.5Z" fill="#282561"/><path d="M602.6,364.8l-1.2,3.5c-.2.6.7.8.9.3l1.3-3.5c.2-.6-.8-.9-1-.3Z" fill="#282561"/><path d="M574,357.5c3.7,9,1.5,20.6-.9,29.6-.1.6.7,1.2,1.2.7,3.9-4.8,4.4-10.8,4-16.8-.3-4.2,0-11.2-3.9-13.8-.2-.1-.5.1-.4.3Z" fill="#282561"/><path d="M571.7,388.9a27.7,27.7,0,0,0,4.6-14.7c0-.5-.8-.7-.9-.2a82.4,82.4,0,0,1-4.2,14.7c-.2.3.3.5.5.2Z" fill="#282561"/><path d="M569.3,385.5c-3.8,1.1-6.6,5.2-10.9,5.5l1.4,1.3c-.2-1.3,5.2-3.3,6.2-3.9a31.4,31.4,0,0,0,5.3-5c.1-.2-.1-.5-.3-.3a51.8,51.8,0,0,1-5.8,4.7c-1.4,1-4.6,3.9-6.4,3.2s-2.4,2.3-.7,2.6,4.4-.8,6.3-2.1,4.4-3,5.6-5.2c.2-.4-.2-1-.7-.8Z" fill="#282561"/><path d="M571,383.1a.2.2,0,1,0,0-.4c-.2,0-.2.4,0,.4Z" fill="#282561"/><path d="M563.4,388.7l-.4.3c-.2.1,0,.5.2.4l.4-.3c.2-.2,0-.6-.2-.4Z" fill="#282561"/><path d="M555.7,391.5c-.1-.3,4.5,1.4,4.8,1.6a52,52,0,0,0,7.7,2.2,26.5,26.5,0,0,0,12.2,0,1.3,1.3,0,0,0-.6-2.5,10,10,0,0,1-5.4.3c-.7-.1-1.2.8-.5,1.2a9.2,9.2,0,0,0,6.5,1l-.6-2.5c-8.7,2-16.5-2.2-24.9-3.1-.2-.1-.4.2-.3.3l.7,1.6c.1.3.5.2.4-.1Z" fill="#282561"/><path d="M556,390l-2.6-1.9-.4,1c6.3,2.2,12.9,3.6,19.4,5.5,4.2,1.3,10.2,4.1,14.4,1.6a1.6,1.6,0,0,0,.7-1.8v-.5a1.5,1.5,0,0,0-2.6-.4c-.8,1.7-15-2.6-17.1-3a90.7,90.7,0,0,0-14.6-2.4.5.5,0,0,0-.3,1l2.7,1.7a.4.4,0,0,0,.4-.8Z" fill="#282561"/><path d="M582,347.6h-.1c-.4-1.4-2.5-.5-1.8.7a74.1,74.1,0,0,1,6.8,13.1c1.6,4.2,2,8.7,3.4,13a.9.9,0,0,0,1.8-.3c1-9.3-4.5-20.1-10.5-27l-1.1,1.6a1.5,1.5,0,0,0,1.3.1.6.6,0,0,0,.2-1.1Z" fill="#282561"/><path d="M578.4,345.2c2.6,3.9,6.5,8.2,11.3,9.1a.6.6,0,0,0,.4-1.1c-1.8-1.3-3.9-2.3-5.7-3.6a30.9,30.9,0,0,1-5.4-4.8c-.3-.4-.8.1-.6.4Z" fill="#282561"/><path d="M558.2,321.7a5.5,5.5,0,0,0,.6,2.8c.4.6,1.2,1.6,2.1,1.3a.5.5,0,0,0,.4-.5c0-.7-.6-1.1-.9-1.7a4,4,0,0,1-.7-1.9.8.8,0,0,0-1.5,0Z" fill="#282561"/><path d="M559.6,322.8c-1.4,6.2,13.1-.7,14.8-1.8a.5.5,0,0,0-.4-.9,22.3,22.3,0,0,0-5.1,1.9l-3,1.3-.9.4c-1.6,1.1-3.3.8-5-.8,0-.2-.4-.3-.4-.1Z" fill="#282561"/><path d="M622,258.6c-.8-2-4.3-2.5-6.2-2.7s-5.2.3-5.9,2.7a1.3,1.3,0,0,0,.9,1.5c1.6.6,3.6-.1,5.3,0s3.5.7,5.2.3a1.3,1.3,0,0,0,.7-1.8Z" fill="#282561"/><path d="M620.3,259.3c-.1,3.1-.3,6.1-.4,9.2,0,.8,1.5,1.1,1.6.2a30.2,30.2,0,0,0-.3-9.5.5.5,0,0,0-.9.1Z" fill="#282561"/></svg>