<svg xmlns="http://www.w3.org/2000/svg" width="77.307" height="86.59" viewBox="0 0 77.307 86.59">
  <g id="Group_32" data-name="Group 32" transform="translate(2.5 1.986)">
    <ellipse id="Ellipse_5" data-name="Ellipse 5" cx="36.153" cy="36.153" rx="36.153" ry="36.153" transform="translate(0 9.691)" fill="none" stroke="#030504" stroke-miterlimit="10" stroke-width="5"/>
    <path id="Path_116" data-name="Path 116" d="M3375.973,508.718a36.94,36.94,0,0,1,20.18-11.4,3.38,3.38,0,0,1,1.8-.006c1.405.515,1.564,2.424,1.362,3.907-.843,6.2-3.662,11.989-7.274,17.093a117.193,117.193,0,0,1-12.393,14.053" transform="translate(-3328.671 -497.188)" fill="none" stroke="#030504" stroke-miterlimit="10" stroke-width="4"/>
    <path id="Path_117" data-name="Path 117" d="M3226.171,729.567a18.893,18.893,0,0,0-5.725,9.884,1.913,1.913,0,0,0,.112,1.513,1.825,1.825,0,0,0,1.059.6c4.752,1.3,9.723-.968,13.873-3.621,6.587-4.211,12.392-9.517,18.159-14.8" transform="translate(-3217.001 -659.325)" fill="none" stroke="#030504" stroke-miterlimit="10" stroke-width="4"/>
    <path id="Path_118" data-name="Path 118" d="M3242.849,596.654c-2.088.434-4.439,1.059-5.43,2.947a7.263,7.263,0,0,0-.619,2.275l-.476,3.012a33.958,33.958,0,0,0-.591,9.712,2.107,2.107,0,0,0,.433,1.189c.459.495,1.267.489,1.781.925a4.73,4.73,0,0,1,.846,1.458c.678,1.222,2.124,1.756,3.45,2.2,1.489.493,3.161.976,4.57.289a8.841,8.841,0,0,0,1.85-1.479,10.032,10.032,0,0,1,9.877-1.866c.971.355,2,1.039,2.064,2.071.087,1.493-1.74,2.193-3.071,2.873a7.63,7.63,0,0,0-3.22,3.146,2.473,2.473,0,0,0-.188,2.5c.288.421.79.677,1.013,1.136.3.611,0,1.333.018,2.012.048,1.411,1.427,2.352,2.652,3.053l5.262,3.011a5.72,5.72,0,0,0,6.134.576l3.381-1.168a8.208,8.208,0,0,1,2.051-.515c1.327-.1,2.616.45,3.944.549a6.085,6.085,0,0,0,6.232-4.928c-1.668-.563-3.585.771-5.2.076-.887-.382-1.44-1.289-2.277-1.77-.7-.4-1.552-.483-2.209-.945a3.774,3.774,0,0,1-1.205-3.37,13.744,13.744,0,0,0,.089-3.724,5.429,5.429,0,0,0-3.4-3.617,13.812,13.812,0,0,0-5.081-.74,4.5,4.5,0,0,1-1.55-.186,4.357,4.357,0,0,1-1.4-1.008,9.88,9.88,0,0,1-2.787-3.609c-.812-2.261.13-4.785,1.443-6.8a3.064,3.064,0,0,0,.75-2.037,2.76,2.76,0,0,0-1.273-1.606c-2.453-1.814-5.389-3.992-5.19-7.036.1-1.526.989-3.207.113-4.461a3.438,3.438,0,0,0-1.218-.963,19.047,19.047,0,0,0-5.161-1.926,3.97,3.97,0,0,0-1.717-.087,4.423,4.423,0,0,0-1.3.625l-4.507,2.806a3.18,3.18,0,0,0-.968.8c-.941,1.335.518,3.028,1.833,4" transform="translate(-3227.927 -562.179)" fill="none" stroke="#030504" stroke-miterlimit="10" stroke-width="1" opacity="0.22"/>
    <path id="Path_119" data-name="Path 119" d="M3342.885,536.306a7.7,7.7,0,0,0-6.484,6.473,30.176,30.176,0,0,0,.092,4.413,14.877,14.877,0,0,1-.882,5.347,4.73,4.73,0,0,0-.484,2.4c.292,1.594,2.19,2.2,3.516,3.127,1.6,1.124,2.506,2.961,3.607,4.578s2.688,3.178,4.644,3.19c1.989.012,3.586-1.557,4.938-3.015a4.734,4.734,0,0,0,.868-1.152,2.388,2.388,0,0,0,.1-1.768,4.536,4.536,0,0,1-4.662-3.07,3.761,3.761,0,0,0,1.884-4.179,3.131,3.131,0,0,1,4.161,1.14c.676,1.224.856,3.192,2.253,3.243.833.031,1.457-.776,1.729-1.564a8.679,8.679,0,0,1,.844-2.34,4.674,4.674,0,0,1,1.26-1.083,3.788,3.788,0,0,1,1.7-.767,1.3,1.3,0,0,1,1.436.934,1.846,1.846,0,0,1-.323,1.131,31.3,31.3,0,0,1-3.726,5.363c-1.574,1.825-3.488,3.806-3.278,6.207a7.963,7.963,0,0,0,1.583,3.553c1.294,1.956,2.984,4.135,5.33,4.114,1.461-.013,3.031-.9,4.29-.158a7.948,7.948,0,0,1,1.407,1.434,1.524,1.524,0,0,0,1.808.444" transform="translate(-3299.336 -525.257)" fill="none" stroke="#030504" stroke-miterlimit="10" stroke-width="1" opacity="0.22"/>
    <g id="Group_15" data-name="Group 15" transform="translate(20.293 25.553)">
      <rect id="Rectangle_35" data-name="Rectangle 35" width="25.377" height="9.164" transform="translate(0.009 7.268) rotate(-16.641)" fill="#030504" stroke="#000" stroke-width="3"/>
      <g id="Group_13" data-name="Group 13" transform="translate(0 11.693)">
        <path id="Path_120" data-name="Path 120" d="M3291.892,647.444l-5.5-18.389-1.013.3,5.15,17.229A4.781,4.781,0,0,1,3291.892,647.444Z" transform="translate(-3283.96 -629.055)" fill="#030504" stroke="#000" stroke-width="3"/>
        <path id="Path_121" data-name="Path 121" d="M3283.743,690.046a4.758,4.758,0,1,0,5.291,7.241l-2.116-7.08A4.738,4.738,0,0,0,3283.743,690.046Z" transform="translate(-3280.346 -672.676)" fill="#030504" stroke="#000" stroke-width="3"/>
        <path id="Path_122" data-name="Path 122" d="M3306.4,696.74l-1.422-4.758a4.778,4.778,0,0,0-1.36-.858l2.116,7.08A4.783,4.783,0,0,0,3306.4,696.74Z" transform="translate(-3297.042 -673.593)" fill="#030504" stroke="#000" stroke-width="3"/>
      </g>
      <g id="Group_14" data-name="Group 14" transform="translate(23.301 4.728)">
        <path id="Path_123" data-name="Path 123" d="M3374.388,622.786l-5.5-18.39-1.013.3,5.149,17.228A4.768,4.768,0,0,1,3374.388,622.786Z" transform="translate(-3366.457 -604.396)" fill="#030504" stroke="#000" stroke-width="3"/>
        <path id="Path_124" data-name="Path 124" d="M3366.241,665.388a4.758,4.758,0,1,0,5.291,7.241l-2.116-7.08A4.736,4.736,0,0,0,3366.241,665.388Z" transform="translate(-3362.844 -648.017)" fill="#030504" stroke="#000" stroke-width="3"/>
        <path id="Path_125" data-name="Path 125" d="M3388.893,672.082l-1.422-4.758a4.771,4.771,0,0,0-1.36-.858l2.116,7.08A4.777,4.777,0,0,0,3388.893,672.082Z" transform="translate(-3379.539 -648.935)" fill="#030504" stroke="#000" stroke-width="3"/>
      </g>
    </g>
  </g>
</svg>
