<svg xmlns="http://www.w3.org/2000/svg" width="148.832" height="58.604" viewBox="0 0 148.832 58.604">
  <g id="Group_31" data-name="Group 31" transform="translate(2 2)">
    <g id="Group_18" data-name="Group 18" transform="translate(56.418 0)">
      <rect id="Rectangle_37" data-name="Rectangle 37" width="73.833" height="50.206" rx="12.323" transform="translate(7.291)" fill="none" stroke="#030504" stroke-miterlimit="10" stroke-width="4"/>
      <rect id="Rectangle_38" data-name="Rectangle 38" width="62.819" height="40.738" transform="translate(12.798 4.734)" fill="none" stroke="#030504" stroke-miterlimit="10" stroke-width="4"/>
      <rect id="Rectangle_39" data-name="Rectangle 39" width="88.415" height="4.053" rx="2.026" transform="translate(0 50.551)" fill="none" stroke="#030504" stroke-miterlimit="10" stroke-width="4"/>
    </g>
    <ellipse id="Ellipse_6" data-name="Ellipse 6" cx="16.382" cy="16.382" rx="16.382" ry="16.382" transform="translate(0 8.013)" fill="none" stroke="#030504" stroke-miterlimit="10" stroke-width="4"/>
    <ellipse id="Ellipse_7" data-name="Ellipse 7" cx="5.931" cy="5.931" rx="5.931" ry="5.931" transform="translate(10.451 18.464)" fill="none" stroke="#030504" stroke-miterlimit="10" stroke-width="4"/>
    <path id="Path_127" data-name="Path 127" d="M3855.009,593.974c2.114,1.031,3.346,3.273,4.174,5.475.993,2.641,1.571,5.7.279,8.209" transform="translate(-3833.397 -579.056)" fill="none" stroke="#030504" stroke-miterlimit="10" stroke-width="4"/>
    <path id="Path_128" data-name="Path 128" d="M3827.229,602.907a20.928,20.928,0,0,0-.7,2.511,10.665,10.665,0,0,0,5.436,11.164" transform="translate(-3820.93 -582.943)" fill="none" stroke="#030504" stroke-miterlimit="10" stroke-width="4"/>
    <g id="Group_19" data-name="Group 19" transform="translate(39.967 16.91)">
      <path id="Path_129" data-name="Path 129" d="M3887.5,606.171v-4.335h7.587V597.5l7.948,7.948-7.948,7.587V608.7H3887.5v-4.335" transform="translate(-3887.5 -597.5)" fill="none" stroke="#030504" stroke-miterlimit="10" stroke-width="4"/>
    </g>
  </g>
</svg>
