<?xml version="1.0" encoding="utf-8"?>
<!-- Generator: Adobe Illustrator 23.0.2, SVG Export Plug-In . SVG Version: 6.00 Build 0)  -->
<svg version="1.1" xmlns="http://www.w3.org/2000/svg" xmlns:xlink="http://www.w3.org/1999/xlink" x="0px" y="0px"
	 viewBox="0 0 1224 792" style="enable-background:new 0 0 1224 792;" xml:space="preserve">
<style type="text/css">
	.st0{fill:#282561;}
	.st1{fill:#5BC8DB;}
	.st2{fill:none;stroke:#282561;stroke-width:7.7495;stroke-miterlimit:10;}
	.st3{fill:#5BC8DB;stroke:#282561;stroke-width:9.4124;stroke-miterlimit:10;}
</style>
<g id="Layer_2">
	<rect x="-9" y="-9" class="st0" width="1242" height="810"/>
</g>
<g id="Layer_3">
	<g>
		<g>
			<path class="st1" d="M-391.6,337.6c18.6,13.5,27.3,37.8,33.5,58.9c0.5,1.8,3.5,1.5,3.3-0.5c-0.8-12.3-4.9-24.4-10.7-35.2
				c-5.8-10.7-13.3-20.8-24.6-25.8C-391.8,334.3-393.2,336.5-391.6,337.6L-391.6,337.6z"/>
		</g>
	</g>
	<g>
		<g>
			<g>
				<path class="st1" d="M499.7,534.4c-5.4,6.1-10.8,12.3-16.2,18.5c-4.8,5.6-9.4,11-16.8,13.1c-7.2,2-15.1,2.1-22.5,3.1
					c-7.6,1.1-15.2,2.6-22.8,3.9c-7.6,1.3-15.2,2.8-22.8,4.4c-7.9,1.6-16.1,4.2-24.2,4.5c-8.3,0.3-17.5-3.6-17.7-13.1
					c-0.1-7.5,2.5-16,5.2-23c0.5-1.2-0.9-2.4-2.1-2.1c-4.4,1.4-8-3.2-6.5-7.4c0.8-2.3,3.1-3.7,4.2-5.9c1.1-2.2,0.5-4.4-1.6-5.6
					c-3.1-1.9-10.2-2.5-7.4-7.8c2.4-4.5,6.6-8.8,9.7-12.9c0.7-1,0.3-2.5-0.4-3.3c-6.7-7-12.8-14.4-18.2-22.5
					c-0.6,1.4-1.1,2.8-1.7,4.2c11.5-4.3,19.6-13.2,26.9-22.8c6.9-9,13.4-18.4,12.8-30.3c-0.4-8-1.4-16-2.5-23.9
					c-0.9-6.7-1.2-15.1-4.8-21c-1.4-2.2-5.3-0.8-4.3,1.8c1.9,5.4,2.4,12,3.1,17.7c0.9,7.6,1.7,15.2,2.2,22.9
					c0.2,3.1,0.5,6.2-0.2,9.3c-1.3,6.2-5.2,11.5-8.8,16.5c-6.9,9.6-14.6,19.7-26,24.2c-1.6,0.6-2.9,2.6-1.7,4.2
					c5.8,8.3,12.2,16.2,19.4,23.4c-0.1-1.1-0.3-2.2-0.4-3.3c-2.5,3.5-5.1,7-7.6,10.5c-1.6,2.2-3.3,4.5-3.2,7.3
					c0.3,5.3,5,6.2,8.7,8.5c0.6,0.2,1.2,0.4,1.8,0.5c-0.2,1.4-0.7,2.6-1.7,3.6c-0.4,0.7-0.9,1.4-1.2,2.1c-1.1,2.5-1.4,5.5-0.3,8.1
					c1.8,4.2,6.4,6.1,10.6,4.9c-0.6-0.8-1.3-1.6-1.9-2.5c-5.1,11.4-11.9,30,1.9,38.2c6.6,3.9,14.5,3.3,21.8,2.1
					c9.5-1.6,19-3.7,28.5-5.5c10-2,19.8-3.8,29.9-5c8.6-1,17.7-1.2,26.1-3.5c7.5-2.1,12.9-6.9,17.7-12.9c5.8-7.2,11.3-14.5,17-21.8
					C502.9,534.8,500.8,533.2,499.7,534.4L499.7,534.4z"/>
			</g>
		</g>
		<g>
			<g>
				<path class="st1" d="M445.7,430.7c-0.7-5-4.4-10-6.7-14.4c-2.1-4-5.6-6.7-9.8-8.5c-9.2-3.9-18.9-0.6-28.1-3.2
					c-2.8-0.8-4.8,1.8-4.3,4.3c1.5,8.8,17.9,4.3,23.6,4.2c5.8-0.1,11.5,1,15.6,5.4c3.6,3.8,5.3,9.2,9.4,12.3
					C445.6,431,445.8,430.8,445.7,430.7L445.7,430.7z"/>
			</g>
		</g>
		<g>
			<g>
				<path class="st1" d="M387.8,532.1c-5.6-3.5-10.9-7.6-16.9-10.4c-6.5-3-14.5-4.2-21.6-4.8c-4.4-0.4-5.4,6.9-1,7.7
					c6.8,1.3,14.1,2.8,21,3.1c3.9,0.1,6.7,0.3,10.2,2.3c2.5,1.4,4.8,3.1,7.5,4.1C388.1,534.5,388.8,532.7,387.8,532.1L387.8,532.1z"
					/>
			</g>
		</g>
		<g>
			<g>
				<path class="st1" d="M386.2,531.7c-5.6-3.6-11.3-5.8-18-6.7c-6.3-0.8-15,0.8-18.1-6c-1.3-2.8-5.1-1.1-5.3,1.4
					c-0.7,7.2,7,10.6,12.9,10.9c9.4,0.6,18.8,0.9,28.2,1.5C386.6,533,386.7,532.1,386.2,531.7L386.2,531.7z"/>
			</g>
		</g>
		<g>
			<g>
				<path class="st1" d="M369.4,541.9c-2.4,0.9-4.4,1.3-7,1.3c-2,0-4.1,0.2-5.6,1.5c-0.8,0.7-0.7,2.4,0.4,2.8
					c2.1,0.9,4.2,0.3,6.2-0.8c2.2-1.2,4.3-2.5,6.4-3.8C370.5,542.7,370.1,541.7,369.4,541.9L369.4,541.9z"/>
			</g>
		</g>
		<g>
			<g>
				<path class="st1" d="M380.7,442.7c2.9,1.1,4.8,3.3,7.3,5c2.6,1.8,5.3,3.3,8.1,4.6c4.9,2.2,10,3.7,15.4,4.2
					c9.3,0.9,21.5-0.8,27.6-8.6c1.1-1.4-0.7-3.5-2.3-3c-4.5,1.6-8.5,4-13.3,4.9c-5.4,1-10.8,0.8-16.2-0.1c-4.8-0.9-9.3-2.5-13.9-3.9
					c-4.1-1.2-8.3-3.2-12.6-3.2C380.6,442.6,380.6,442.7,380.7,442.7L380.7,442.7z"/>
			</g>
		</g>
		<g>
			<g>
				<path class="st1" d="M396.2,448.1c1-3.4,0.7-6.5,2.8-9.7c2.9-4.3,7.9-6.3,13-6.4c4.6-0.2,8.6,1.5,11.8,4.8
					c3.5,3.6,3.9,7.1,4.2,11.8c0.2,2.7,3.6,3.7,5.1,1.4c3.3-5,0-11.9-3.7-15.8c-4.2-4.4-10.5-6.9-16.7-6.6c-6.1,0.3-11.4,3.3-15,8.2
					c-2.3,3.2-4.8,8.8-2.1,12.4C395.8,448.4,396.1,448.4,396.2,448.1L396.2,448.1z"/>
			</g>
		</g>
		<g>
			<g>
				<path class="st1" d="M363.5,493.9c1.3,1.5,2,3,2.8,4.7c0.4,1,2,0.3,1.7-0.7c-0.6-2-2.2-3.7-3.9-4.8
					C363.6,492.8,363.1,493.5,363.5,493.9L363.5,493.9z"/>
			</g>
		</g>
		<path class="st1" d="M336.3,411.8c7,8.2,28.4,2.6,31-19.4c14.2,19.4,27.1,2.6,25.8-6.5c3.8,10.2,22,22,33.6-2.6
			c3.9,28.4,31,9,31,9S459,428.6,490,426c-36.2,12.9-7.7,49.1,9,43.9c-13.4,3.2-23.2,29.7,15.5,36.2c-17.9,5.3-22,27.1-2.6,33.6
			c-28.4,0-33.6,20.7-33.6,33.6c0,22,12.9,34.9,40,28.4c14.4,23,51.7,22,56.8-11.6c41.3,41.3,68.5,6.5,78.8-12.9
			c-2,29.5,46.5,50.4,80.1,11.6c-14.2,55.5,49.1,54.9,49.1,53c27.3,16.1,64.6,7.7,64.6-36.2c47.8,19.4,67.2-18.1,63.3-41.3
			c24.5-2.8,33.6-38.7,2.6-69.7c72.3-19.4,43.9-121.4,24.5-126.6c26-26-2.6-56.8-40-43.9c45.2-45.2,9-78.8-9-76.2
			c7.2-24-23.2-60.7-73.6-36.2c0-86.5-84-68.5-87.8-60.7c-10-27.6-53-19.4-64.6-1.3c-56.8-87.8-143.4-19.4-142.1,6.5
			c-63.3-24.5-87.2-3.2-87.2,43.3c-3.9,12.9-11.6,25.8-24.5,32.3c-23.2-15.5-56.8-19.4-71.7,21.3c-56.8,16.8-41.3,49.1-32.3,71
			c-34.9,22-6.5,56.8,9,55.5C300.1,389.9,318.2,429.9,336.3,411.8z"/>
		<path class="st2" d="M413.8,230.7l20.8-26.4c0,0,110.3,89.3,107.7,213.3c-18.5-3.9-15.7,4.5-30.3,4.5
			C523.8,311.5,413.8,230.7,413.8,230.7z"/>
		<circle class="st3" cx="524.9" cy="477.7" r="68.5"/>
	</g>
</g>
</svg>
