<svg xmlns="http://www.w3.org/2000/svg" viewBox="0 0 990 647"><defs><style>.cls-1{fill:#282561;}.cls-2,.cls-4{fill:#5bc8db;}.cls-3{fill:none;stroke-width:6px;}.cls-3,.cls-4{stroke:#282561;stroke-miterlimit:10;}.cls-4{stroke-width:7.29px;}</style></defs><title>illustrations-final</title><g id="Layer_3" data-name="Layer 3"><rect class="cls-1" y="0.39" width="990" height="647"/><path class="cls-2" d="M398.05,431.41q-6.21,7.05-12.36,14.15c-3.65,4.22-7.08,8.35-12.58,10.14-5.14,1.68-10.92,1.64-16.26,2.36-6,.82-12,2-18,3-5.7,1-11.38,2-17.05,3.2-6.38,1.32-12.93,3.27-19.44,3.8-6.35.51-14.34-1.75-14.93-9.28-.46-6,1.86-13.05,4-18.54.38-.94-.72-1.84-1.59-1.59q-8.14-3.1-3.61-8a5.75,5.75,0,0,0,.93-1,7.24,7.24,0,0,0,1.16-1.93c.42-1.56-.06-2.41-1.15-3.45-2.19-2.08-6.46-1.36-6.31-5.84,0-1.15,2.44-3.27,3.21-4.3l4.61-6.13a2.12,2.12,0,0,0-.32-2.54,132.4,132.4,0,0,1-14.1-17.4L273,391.41c8.66-3.32,14.82-9.77,20.38-17,5.37-7,10.75-14.33,10.43-23.53a184.11,184.11,0,0,0-1.85-18.45c-.73-5.38-.93-12.1-3.84-16.86-1-1.71-4.05-.62-3.35,1.41,3.33,9.62,3.42,21.33,4.11,31.4.54,7.79-2.34,13.6-6.84,19.86-5.4,7.52-11.34,15.34-20.22,18.86-1.23.48-2.24,2-1.33,3.27a134,134,0,0,0,15,18.11l-.33-2.53c-2.58,3.56-9.1,9.48-8.3,14.37a6.52,6.52,0,0,0,2.44,3.89c.79.67,5.33,2,5.57,2.55.52,1.21-2.22,4.11-2.62,5.39a7.76,7.76,0,0,0,.14,5.25c1.41,3.36,4.88,4.58,8.23,3.78l-1.47-1.91c-3.74,8.51-9.08,22.28.53,29,4.4,3,9.91,3.29,15.05,2.66,7.94-1,15.84-2.93,23.68-4.48,8.06-1.59,16.06-3.1,24.22-4.07,6.57-.78,13.52-.94,19.95-2.62,5.64-1.48,9.74-4.83,13.41-9.25,4.78-5.77,9.26-11.8,13.83-17.74.76-1-.9-2.25-1.72-1.32Z"/><path class="cls-2" d="M356.24,351.14c-.57-3.71-3.11-7.27-4.9-10.54a15,15,0,0,0-6.76-6.71,26,26,0,0,0-10.71-2.39c-4.11-.16-8.17.78-12.12-.58a2.75,2.75,0,0,0-3.36,3.36c2.21,6.81,12.9,3.39,18.1,3.28,4.84-.09,9.45.84,12.8,4.63,2.53,2.87,3.73,6.71,6.79,9.07.09.07.18,0,.16-.12Z"/><path class="cls-2" d="M311.35,429.61c-4.59-2.82-9-6.43-14-8.49-4.83-2-10.6-2.76-15.78-3.25-3.38-.32-4.18,5.35-.81,6A147.53,147.53,0,0,0,296,426.22c3.2.23,5.6-.06,8.61,1.54,2.1,1.12,3.94,2.48,6.14,3.4.91.39,1.44-1.06.65-1.55Z"/><path class="cls-2" d="M310.14,429.35a28.88,28.88,0,0,0-12.62-5c-5-.85-12.75.73-15.32-4.8-1-2.08-4.11-.95-4.13,1.11-.05,5.16,4.43,7.88,9.13,8.39,3.59.38,7.29.18,10.9.44,3.91.27,7.86.9,11.78.82a.52.52,0,0,0,.26-1Z"/><path class="cls-2" d="M297.17,437.25a15.26,15.26,0,0,1-5.38,1,6.47,6.47,0,0,0-4.32,1.18,1.4,1.4,0,0,0,.28,2.19,5.37,5.37,0,0,0,4.79-.6c1.67-.93,3.34-1.93,5-2.91.43-.26.15-1-.36-.85Z"/><path class="cls-2" d="M305.89,360.45c4.45,1.82,8,5.76,12.5,7.7a37.93,37.93,0,0,0,11.3,3c6.94.68,16.49-.46,21.09-6.33.86-1.09.13-3.18-1.51-2.61-3.56,1.24-6.72,3.1-10.47,3.8a34.5,34.5,0,0,1-12.81-.24c-6.7-1.27-13.27-5.18-20.08-5.42a.06.06,0,0,0,0,.11Z"/><path class="cls-2" d="M317.88,364.6c.62-3.08.75-6.09,3-8.59,2.4-2.72,6.42-4,10-3.91,7.42.19,11.29,6.12,11.6,12.83a2.15,2.15,0,0,0,4,1.07c5-8.85-7.08-17.17-14.78-17.3-6.9-.12-18.79,7.86-14.21,16a.25.25,0,0,0,.45-.06Z"/><path class="cls-2" d="M363.43,461.63c18.62,13.45,27.27,37.78,33.55,58.85.52,1.77,3.45,1.52,3.33-.45-.76-12.34-4.91-24.41-10.75-35.22S376.27,464,365,459a1.51,1.51,0,0,0-1.52,2.6Z"/><path class="cls-2" d="M292.57,400.08a14.16,14.16,0,0,1,2.17,3.67c.35.74,1.53.22,1.31-.55a7.2,7.2,0,0,0-3-3.73c-.38-.25-.75.29-.46.61Z"/><path class="cls-2" d="M271.5,336.5c5.4,6.38,22,2,24-15,11,15,21,2,20-5,2.95,7.87,17,17,26-2,3,22,24,7,24,7s1,28,25,26c-28,10-6,38,7,34-10.36,2.49-18,23,12,28-13.83,4.07-17,21-2,26-22,0-26,16-26,26,0,17,10,27,31,22,11.12,17.79,40,17,44-9,32,32,53,5,61-10-1.52,22.82,36,39,62,9-11,43,38,42.48,38,41,21.12,12.5,50,6,50-28,37,15,52-14,49-32,19-2.16,26-30,2-54,56-15,34-94,19-98,20.13-20.13-2-44-31-34,35-35,7-61-7-59,5.58-18.6-18-47-57-28,0-67-65-53-68-47-7.78-21.39-41-15-50-1-44-68-111-15-110,5-49-19-67.5-2.5-67.5,33.5-3,10-9,20-19,25-18-12-44-15-55.5,16.5-44,13-32,38-25,55-27,17-5,44,7,43C243.5,319.5,257.5,350.5,271.5,336.5Z"/><path class="cls-3" d="M331.5,196.27l16.08-20.43S433,245,431,341c-14.34-3-12.13,3.5-23.43,3.5C416.7,258.87,331.5,196.27,331.5,196.27Z"/><circle class="cls-4" cx="417.5" cy="387.5" r="53"/></g></svg>