<svg id="Layer_8" data-name="Layer 8" xmlns="http://www.w3.org/2000/svg" width="8.5in" height="4.8in" viewBox="0 0 610.5 343.4"><title>musicnotes</title><rect width="610.5" height="343.41" fill="#f5cd2a"/><path d="M61.1,35.5c1.4-1.2,4.8,1.9,5.3,2.7a13.9,13.9,0,0,1,1.1,2.1l2.8,4.8c2.1,3.7,4.2,7.5,6.4,11.1,4.1,6.9,8.3,13.7,13,20.3,8.6,12.1,18.5,23.5,30.6,32.3,27.4,19.9,62.4,21.7,93.5,32.5,15.1,5.2,29.9,12.7,40.8,24.8s17.1,29.2,19.9,45.7c4.5,26.8-1.8,62.6,23.6,80.7,7,5,15.3,7.9,23.4,10.6s18.9,6.2,28.2,9.8,20.5,8.2,30.6,12.8,18,9.2,27.3,13c1,.4,1.6-1.2.7-1.8-15.3-10.4-33.6-17.6-50.8-24.4-8.7-3.4-17.5-6.6-26.4-9.5s-16.9-5.1-24.8-9.1c-32.3-16.3-23.9-57.2-29.9-86.8-3-15.1-8.8-30-18.9-41.7s-23.7-19.3-37.8-24.7c-32.3-12.5-69.3-13.2-98.1-34.1-15.3-11-26.9-26.3-37-42-5-7.9-9.8-15.9-14.5-24-1.5-2.5-6.1-10.2-9.6-5.5-.2.3.3.7.6.4Z" fill="#eeb41e"/><path d="M73.9,10.1a122.9,122.9,0,0,0,45.5,36.6c19.9,9.3,41.6,13.1,63,17.1,19.8,3.7,40.7,7.1,58.3,17.7,7.9,4.8,15,11.1,19.4,19.3s4.6,19.3,4.2,29.3c-.8,15.9-1,32.9,14.4,42,12.3,7.3,27.4,7.3,40.7,11.7,6.9,2.3,13.5,6,17.3,12.4,5.3,9,3.6,20.1,3.3,30.1s.3,17.4,5.3,24.6S358.5,264,366,269c19.3,13,40.9,22,60,35.1,9.7,6.6,18,14.5,26.4,22.5s14.9,13.2,24.6,16.5c2.3.8,3.4-3,1-3.7-18.8-6-30.9-23.8-46.4-35s-35.3-20.5-52.9-30.8c-8.9-5.2-17.8-10.8-25.3-17.8s-11.1-17.3-10.8-28.7c.3-15.1,2-31.6-12.4-41-11.7-7.6-26.7-7.8-39.8-11.7-7.1-2.2-14.1-5.5-18.6-11.5-6.2-8.6-5.8-19.6-5.3-29.7s1.1-17.8-1.4-26.3a43,43,0,0,0-12.3-19.3C240,75.6,222.7,70,206,66.1c-23.9-5.5-48.6-7.9-71.9-15.8A136.4,136.4,0,0,1,74.6,9.5c-.3-.4-1,.2-.7.6Z" fill="#eeb41e"/><path d="M194.9,36.9c27.7,23.6,56.7,46.9,92.3,57.1,18.1,5.1,38.4,8.6,51.7,23.4,6.3,7.1,8,15.1,9.7,24.2,1.2,6.3,3.2,12.5,8.7,16.4,12,8.7,30,1.8,40.5,13.6s8.5,27.5,19.1,37.9,24.7,11.8,37.3,16c7.5,2.5,14.8,6,20.2,11.9s8.5,14.5,11.1,22.4,4.9,16.9,9.2,24.5a61.1,61.1,0,0,0,18,19.2c16.7,11.8,38.1,17.1,58.1,19.7,1.4.2,1.7-2.2.3-2.6-18.9-4.9-38.2-7.6-54.8-18.6-7.5-5-14.3-11.4-18.9-19.3s-6.4-15.1-9-22.9c-4.4-13.8-10.4-26.3-24-33s-27.3-7.2-39.5-14.4c-14.4-8.5-14.4-24.4-22-37.6s-21.2-12.3-34.4-15c-9.1-1.8-14.7-6.8-17-16-1.7-7.3-2.2-14.7-6.1-21.4-7.8-13.7-22.9-20.8-37.4-25.2-10.4-3.1-21-5.3-31.1-9a178.9,178.9,0,0,1-29.5-14.4c-18.3-11-34.9-24.5-51.6-37.8-.6-.6-1.6.4-.9.9Z" fill="#eeb41e"/><path d="M214.8,3.3c14.2,9,30.3,13,46.7,15.2,8.9,1.2,17.7,1.9,26.6,2.9s18.7,1.6,27.4,4.4C335.1,31.9,330.7,54,337,69.4s18.7,22.3,34.7,21.2c4.4-.3,8.6-1,12.9-1.6s13.4-2.8,15.5,3.9c1.1,3.4.7,7.1.9,10.6a43.7,43.7,0,0,0,2.3,11.3c5.2,13.8,17,21.8,30.9,25.4s30.8,3.5,43.6,12.1,16.3,27.8,24.3,41.7c20.5,36.1,69.8,28.2,102.4,17.5a1.2,1.2,0,1,0-.6-2.4c-19.5,4.4-38.9,10.7-59.1,7.9-16.8-2.3-32.7-10.5-41-25.7-7.1-12.8-9.6-28.7-21.1-38.7s-25.5-10.7-38.8-13.1c-16.6-3.1-32.7-9.4-38.6-26.8-2.3-7-.5-14.8-3.2-21.5s-7.8-5.9-13.4-5.3c-9.4,1.1-19.3,3.6-28.8,1.5s-16.1-9.1-20-17.6c-5.9-12.9-2.8-30.6-13.6-41-6.4-6.1-16.2-7.2-24.6-8.4s-18.5-2.2-27.8-3.1c-20.2-1.9-40.8-4.3-58.7-14.6-.4-.3-.7.3-.4.6Z" fill="#eeb41e"/><path d="M25.9,38.8c3.4.9,6.2,5.3,8.4,7.9s4.1,5.1,6.1,7.7c4.1,5.4,8,11,11.9,16.5,7.3,10.2,14.5,20.5,22.9,29.8,17.9,19.4,42.6,31.8,58.2,53.4a62.2,62.2,0,0,1,8.5,15.6c2.1,5.7,2.5,12.2,5.6,17.5,5.4,9.4,17.7,10.6,27.3,12.5,6.9,1.3,13.9,2.5,20.8,3.9s12.9,2.7,17.7,7c11.8,10.4,2.5,27.4-.9,39.3-4.2,14.4.9,25.9,8.4,38.1,8.8,14.4,17.1,29.4,26.8,43.2a1.2,1.2,0,0,0,2.1-1.2c-7.3-13.8-16.2-26.9-24.4-40.1-3.7-5.9-7.6-11.8-10-18.4s-2-15.6.5-23.5c3.5-10.7,9.6-23.6,3.3-34.6-5.2-9.2-16.6-11.3-26.1-13.1l-21.3-4.1c-6.6-1.3-14.3-2.3-19.3-7.2s-5.2-12.3-7.3-18.5a63.8,63.8,0,0,0-7.9-15.9c-15-22-39.5-34.5-57.7-53.4C69,90.3,60.4,77.8,51.5,65.5,47.5,60,43.4,54.4,39,49.1S31.6,38.2,26.1,37.6a.6.6,0,0,0-.2,1.2Z" fill="#eeb41e"/><path d="M132.9,169.5l1.8-.8a.5.5,0,0,0-.3-1c-8.1.8-15.9,3.3-24.2,3.9a.6.6,0,0,0-.6,1q10.4,23.1,20.1,46.3l1.4-1.4c-10.3-3.7-22.4-4.7-26.8,7.6-1.1,3.1-2.7,8.1.8,10.2s11.6.2,15.5-2.7,9.3-7.9,10.3-12.4c.4-2.4-1.2-5.4-4-3.8s-1.6,2.6-2,3.9a30.2,30.2,0,0,1-6.7,11.8c-1.8,1.9-5.7,2.5-6.6-.2s.7-5.4,2.2-6.7c3.6-2.9,2,1.8,1,3.6a21.3,21.3,0,0,1-1.6,2.5c-2.1,2.7-1.6,2.9-3.9-1s-2.5-3.1.3-4.9c.9-.7,3.3-2.3,4.4-2.2,2.7.3.2,5.6-1.1,7s-1.8,1.6-4.4.7-3.7-1.9-1.9-4.9l3.5,3.6a33.7,33.7,0,0,1,.4-4,6.6,6.6,0,0,1,2.5-3.4l.9-.6,5,3.3-2,3.2c-.6,1.4-1.4,1.5-2.2.3-2.4-1.7-.2-5.4,1.6-7s8.2-3.7,5.6,1.3a8.2,8.2,0,0,1-1.6,2.2,1.2,1.2,0,0,1-1.9.8c-2.4-.1-1.6-1,2.5-2.7.3,1.3,2.4.8,2.1-.6-.9-3.1-5-3.6-5.5.1a3.7,3.7,0,0,0,6,3.4,4.5,4.5,0,0,0-2.4-7.8c-5-.8-8.1,5.3-5.7,9.4,4.5,7.4,16.4-12.2,4.5-10.2-4.9.8-9.5,6.3-8.4,11.5s5.6,3.1,7.9-.2,2.2-10.4-3.8-9.6-8.7,7.2-7.2,12.3a1,1,0,0,0,.8.7c3.9.7,7.7-2.9,5.7-6.9s-8.2-3.5-10.2.5-.3,8.8,4,8.9c6.1,0,8.8-8,8-12.8,0-.4-.6-.6-.9-.6-4.8,1.2-18.1,9.5-10.3,15.3s12.5-10.1,12.8-14.6a.8.8,0,0,0-1-.7c-5.1,1.9-10.5,8.7-6.7,14.2s11.4-4.2,13.4-7.7a35.4,35.4,0,0,0,2.3-5.3,18.7,18.7,0,0,0,.7-2.2l1,1.6c-.2,1.2-1.9,2.7-2.6,3.6-3.9,5-9.2,9.6-15.9,9.4-10.3-.3-1.8-15.2,3.7-17.1s11.9.2,17.3,2c1,.4,1.6-.8,1.3-1.6-6.7-15.5-13.3-31-21-46.1l-.6,1.1c7.8-.4,17.3-.9,24.5-4.3l-.7-.9-1.4,1.4c-.2.2.1.4.3.3Z" fill="#eeb41e"/><path d="M270.9,163.1a134.6,134.6,0,0,1,11.3-37.2l-1.7.5c12.8,6.5,26.7,12.7,41.3,9.1l-1.6-1.6q-4.6,14.7-9.6,29.1c-3.4,9.7-7.5,19.1-10.7,28.8h2.8c-1.4-4.7-4.6-14.2-10.4-15.1s-10.6,5.6-11.3,9.8,3.3,8.5,8.1,7.8c6.7-1.1,8.8-8.1,10.2-13.7l-2.2-.3a19.8,19.8,0,0,1-3.6,10.5h2.1a13.1,13.1,0,0,1-2.2-8l-1.8.8a11.2,11.2,0,0,1,3,4.7l.4,2.8-5.1,2.7c-2.7-.9-2.6-7.6-1.1-9.1s1.1-1.8,2.3-.4a2.2,2.2,0,0,1,1.8,2.5c.6,2,.1,3.5-.5,5.5s-.6,2.6-2,3-2.3.6-2.3-2.5-.8-3.6,2.3-5.6l-1.7-.7.5,1.5c-4.7,2.3-4.8,2.9-.4,1.9,2.3.8,3.4.4,3.4-1.2s-.2-1.3-1.8,4.8c-1.5.5-.9,2.8.6,2.4,9.2-2.7,2.9-14.6-3-10s3.2,12,6.2,5.3-10.3-9.4-11-1.2c-.2,2.7,1.5,6,4.6,5.8,5.1-.4,4.2-6.7,3.1-10a1.1,1.1,0,0,0-1.7-.6c-3.2,2.1-7.2,5.2-6,9.6s4.2,4.2,7.2,3.2,5.2-5.8,4.9-9.7-.8-8-4.5-8-4.9,4-5.3,6.6.8,7.6,3.9,9.6,5.9.8,7.2-2.3-.5-9-3.5-12.1a1.1,1.1,0,0,0-1.9.7,14.8,14.8,0,0,0,2.3,9.2,1.2,1.2,0,0,0,2.1,0,21.3,21.3,0,0,0,3.7-11.7,1.1,1.1,0,0,0-2.2-.3c-.6,2.8-1.3,5.8-2.9,8.2a7.6,7.6,0,0,1-5.4,3.8c-3.7.5-8-1.3-4.9-7.6,1.9-4,7.1-6,10.7-3.6s4.9,8.1,5.3,11.4c.1,1.2,2,2.1,2.6.7,8.5-18.5,14.5-38.8,20.2-58.3a1.3,1.3,0,0,0-1.6-1.6c-13.8,3.5-27.3-2.5-39.4-8.8a1.4,1.4,0,0,0-1.7.5,129.4,129.4,0,0,0-11.1,38.1c-.1,1.1,1.8,1.4,2,.3Z" fill="#eeb41e"/><path d="M271.5,162.1c-.4-6.9-5.9-12-12.9-11.2s-11.4,8-12.4,14.7,1.8,11.4,8.1,9.5,10.8-10.4,11.6-17l-2.5.3a16.2,16.2,0,0,1,1.1,6.2c.5,3.3-1.2,4.6-5,3.8l-1-2.5a28,28,0,0,1-.9-5.8,14.5,14.5,0,0,1,.2-3.6l6.2.7c2.6,3.4-2.3,9.8-5.4,10.5s-4.2.3-5.6-.9c-1.6-4.1-1-6.3,2-6.4l3.5-.4h2.3c2.7-.6,3.6.6,2.7,3.5,1.2,2.6.5,3.9-2.1,4a8.7,8.7,0,0,1-3.6.1c-3.6-.5-7-4.3-3.6-7.8,1.3-1.4,3.6-1.9,5.3-2.4s4.5-1.6,6.3-.3,1.8,4.8,0,7.1-4.7,3.7-6.5.7-1.1-3.1,1.4-4.4c1.4,1.6,2.4,1.4,3.2-.5l-1.9-.2c1.6,1.6,1.4,3-.7,4.1a1,1,0,0,0-2,.5,2.9,2.9,0,0,0,4.5,1.7c2.9-1.6,1.4-5.2.3-7.5a1.2,1.2,0,0,0-1.9-.3c-2.2,2.1-4.1,6-1,8.3s5.5.6,6.7-1.7c3.7-7.1-9.2-10.4-11.9-2.6a5.1,5.1,0,0,0,3.5,6.8c3.5,1,7-1,8.8-4s2.6-8.2-.4-10.4-10,.5-12.9,2c-9.1,4.3-4,13.6,4.6,13.4,3.8-.1,8-2,8.4-6.2s-2.5-5.5-5.8-5.9-10.8-.1-12.8,3,.8,6.9,3.5,8.3c7.7,3.9,14.9-4.4,13-12-.7-3.1-3.7-6.8-7.3-5.1s-3.2,9.1-2.5,12.8,2.9,9.3,7.6,7.3,3.4-10.8,2.2-14.6a1.3,1.3,0,0,0-2.5.4,19.9,19.9,0,0,1-6.3,12.6c-2.8,2.4-7.3,3.7-8.5-1a13,13,0,0,1,.5-5.9c1.2-4.4,3.8-8.8,8.4-10.2,6.2-1.9,11.6,2.8,12.8,8.6.1.8,1.3.6,1.2-.1Z" fill="#eeb41e"/><path d="M274.5,136c5.2,7.4,13.5,10.7,22.1,12.5s19.9,3.3,29.1-1.3a1.1,1.1,0,0,0-.3-2,370.1,370.1,0,0,1-47.3-12.5,1.2,1.2,0,0,0-1,2.2A97.6,97.6,0,0,0,302,146.1c6.1,1.6,14.4,2.6,19.3-2.2s-.8-5.6-4.4-5c-5.6,1-11,2.6-16.7,3.2s-17.3,1.6-18.3-4.9l-2,1.6a64.8,64.8,0,0,0,41.2,3.7,1.4,1.4,0,0,0,.3-2.6c-6.9-3.2-14.4-4-21.8-5.5a138.3,138.3,0,0,1-25.1-8c-1.6-.7-3.1,1.7-1.4,2.4a167.7,167.7,0,0,0,20.5,7.5c6.9,2,13.7,3.8,20.9,2.7,1.7-.3,1-2.9-.7-2.6-7.2,1.2-14.4-1.1-21.2-3.2a163.9,163.9,0,0,1-18.1-6.8l-1.4,2.4a122.8,122.8,0,0,0,22.1,7.6c8.3,2,17,2.4,24.8,6l.3-2.6a61.5,61.5,0,0,1-39-3.4,1.4,1.4,0,0,0-2,1.6c.8,5.4,7.4,6.5,12,6.9,7.6.7,15.3-1,22.7-2.8,1.3-.3,7.9-2.7,4.1.9-1,1.1-4.5,1.6-5.8,1.7a30.9,30.9,0,0,1-10.9-1.5,89,89,0,0,1-23.1-10.4l-.9,2.3a323.3,323.3,0,0,0,47.4,12.2l-.2-2c-8.3,4.3-18.6,2.7-27.3.9s-16.1-4.4-21.1-11.2c-.8-1-2.5-.1-1.7,1Z" fill="#eeb41e"/><path d="M119.4,177.2a7,7,0,0,0-4.1,1.6c-.4.3-.5.8,0,1.1,12.5,8.3,26.4-4,33.8-13.3.7-1-.5-2.3-1.4-1.4-3.9,3.9-5.9,9.3-11,12s-12,2.7-18,1.4l-.2,1.6c10.2-.3,19.2-5.4,24-14.5a1,1,0,0,0-1.1-1.5l-24.7,7.9a1.1,1.1,0,0,0,.3,2.1,23.7,23.7,0,0,0,17.6-6.2c.6-.6-.1-1.8-.8-1.4a152.8,152.8,0,0,0-17.1,7.5c-1.1.5-.3,2,.8,1.8l16.6-2.9-.5-2a114.4,114.4,0,0,1-16.2,5.5c-1.4.4-.8,2.4.6,2.2a126.4,126.4,0,0,0,18.4-4.4c1.2-.4,1.1-2.5-.3-2.4-5.4.4-10.8,1-16.1,1.9l.6,2.3,18-5.8a1.1,1.1,0,0,0,0-2.2l-1.8-1a1.1,1.1,0,0,0-1.6,1.6,3.9,3.9,0,0,0,2.8,1.6v-2.2l-18,5.7a1.2,1.2,0,0,0,.6,2.3c5.1-.8,10.3-1.4,15.5-1.8l-.3-2.4a130.3,130.3,0,0,1-18.4,4.6l.6,2.2a139,139,0,0,0,16.4-5.8c1.1-.5.2-2.1-.8-1.9l-16.7,3,.8,1.8a164.2,164.2,0,0,1,16.5-7.6l-.8-1.4A20.8,20.8,0,0,1,117,172l.3,2.2,24.6-8-1.1-1.5a25.5,25.5,0,0,1-22.3,13.9c-1,0-1.2,1.4-.3,1.6,5.7,1.5,11.9,1.7,17.5-.4s8.3-8.6,13.4-13.2l-1.4-1.4c-3.8,4.4-7.7,8.9-12.7,11.9a22.7,22.7,0,0,1-8.7,3.1,17.3,17.3,0,0,1-6,0c-1.2-.3-6.3-1.8-.9-2.5.3-.1.2-.5,0-.5Z" fill="#eeb41e"/><path d="M455.6,94.4c1.8,12.4,3.4,24.8,4.4,37.3l2.8-1.2c-3.9-4.5-9.3-9.3-15.7-8.2s-11.6,8.5-13.1,14.9,3.9,5.8,7.8,4.4a33,33,0,0,0,16-12.8l-2.5-.7c.1,4.2-3.2,6-6.8,6.9s-4.3.1-3.8-3.9a6.1,6.1,0,0,1,5.8-3.1l-1-1.3c-.7,3.1-4.2,5.5-7.3,5.8l-1.3.4,4-5.9c3.6-.9,4.2,6.3,3.8,8a1.1,1.1,0,0,0,2.2.6l3.8-4,2.9-.3a11.5,11.5,0,0,0,1.7-.6,5.1,5.1,0,0,0,2-2.1c2.3-3.5,3-8.4,3.3-12.4a34,34,0,0,0-.3-7.8c-.3-1.9-1.4-4.2-1.5-6.1-.1-4.7,4.4-5.3,8-6.3l9.6-2.6a1.2,1.2,0,0,0-.3-2.4,58.9,58.9,0,0,0-20.4,4.1l.6,2.2,25.1-10.2c1.1-.4,1-2.1-.2-2.1a77.2,77.2,0,0,0-23.4,3c-1.1.4-.9,2.3.3,2.2l19.5-2.3-.7-2.2-19.2,9c-1.1.6-.6,2,.3,2.4,5.4,2.2,10.9,1.7,16.6,1l-.3-2.5a63.8,63.8,0,0,1-12.9,3.1l.4,2.6c5.7-1.8,11.4-3.9,17.1-5.9a1.4,1.4,0,0,0-.7-2.7c-5.6.8-11.2,1.8-16.7,3.1l.8,2.6a41.3,41.3,0,0,0,13.6-8.6c.8-.7.3-1.7-.5-2.1a16.8,16.8,0,0,0-14.2.6c-1.3.6-.2,2.5,1.1,1.9a13.9,13.9,0,0,1,12.1-.2l-.2-1.9a41.2,41.2,0,0,1-12.7,7.7,1.4,1.4,0,0,0,.8,2.6c5.5-1.2,11-2.2,16.6-3l-.7-2.7c-5.7,2-11.5,4-17.1,6.1a1.3,1.3,0,1,0,.7,2.5A76.9,76.9,0,0,0,479,98.1c1.2-.5,1.2-2.7-.4-2.6-5.4.7-10.7,1.2-15.9-.9L463,97l19.2-9.2c1-.5.6-2.5-.6-2.3L462.1,88l.3,2.2a70.2,70.2,0,0,1,22.8-3.1l-.3-2.1L459.7,95.1c-1.4.5-.8,2.7.6,2.2a63.2,63.2,0,0,1,19.8-3.8l-.4-2.5-11.4,3.4c-2,.6-4.6.9-6.4,2.2-3.5,2.5-.9,6.3-.1,9.6,1.4,6,2.2,19-3.9,22.5-3.9,2.2-7.2,1.5-9.2,6.3l2.2.6c.6-3.7-.6-8.1-4.4-9.7a6.9,6.9,0,0,0-8.9,4.1c-3,9,12.4,3.5,13.8-2.7a1.1,1.1,0,0,0-.9-1.3c-4.3.2-13.2,6.8-7.9,11.3,2.2,1.8,7.7.1,9.8-.9s5.6-4.5,5.5-8.3a1.3,1.3,0,0,0-2.4-.6,28.9,28.9,0,0,1-8.8,8.6c-1.7,1.1-4.3,3-6.3,3s-2.8.4-3.6-1.7a26.5,26.5,0,0,1,1.1-3c2.1-5,6.1-10.4,12.2-9.5,4.5.7,7.5,4.7,10.4,7.9a1.6,1.6,0,0,0,2.8-1.1c-1.4-12.7-3.2-25.3-5.8-37.8-.2-1.4-2.1-.8-1.9.5Z" fill="#eeb41e"/><path d="M469.5,192.7c-2.7,4.4-1.1,11.9-1,16.9s-1.2,13.4.8,19a.9.9,0,0,0,1.8,0c1.8-5.6.4-13.1.2-19s1.3-12.6-1.5-16.9Z" fill="#eeb41e"/><path d="M468.9,195.5c12.3-3.6,24.1-9,36.1-13.6l-1.2-1.6c-1.8,3.2-1.2,6.5-.9,10,.5,5.4.9,10.9,1.1,16.4.5,10.9.2,21.8-.3,32.8a1.5,1.5,0,0,0,2.4,1,6.1,6.1,0,0,0,1.1-8c-2.1-3.8-7-5-10.8-6.1s-7.4-3.2-9.8.1-4.1,11.3-3.7,15.8c.9,10.9,13.9,2.9,18-.9,2.5-2.3,6.8-6.7,5.9-10.6a3.9,3.9,0,0,0-5.7-2.5,1.3,1.3,0,0,0-.6,1.5c1.4,3.6,4.7,11.8,1.4,14.6-1.3,2-2.1,1.4-2.4-1.6a18.1,18.1,0,0,1-.9-3.1,26.5,26.5,0,0,1-.5-7.9c.2-1.4-1.7-1.6-2.3-.7a19.6,19.6,0,0,1-5.8,6,14.6,14.6,0,0,1-3.8,1.8c-2,1.1-2.5.1-1.5-2.7a9.8,9.8,0,0,1,4.8,0c-2.3,1-2.8.2-1.6-2.4s4.2-1.6,5.7,1.1c.5.9,3,6.1,2,7.3-3.1,3.6-3.1-4.3-3.1-5.2.2-2.5,2.2-10.4,4.4-4a18.4,18.4,0,0,1,.9,7.7l2.1-1.2-1.1-2.2c.1-1.4-2.2-1.7-2.5-.3s.2,3.9,2.2,4.9a1.4,1.4,0,0,0,2.1-1.2c.1-3.2-.5-13.1-5.2-13.5S489.8,237,490,240s2.2,10.2,6.5,6.8.9-11.2-1.5-14.5-6.3-6.9-8.8-2.1-2.5,10.7,2.1,13.1,7.5-.6,7-4.7-7.1-6.3-11.3-5-6.9,6.7-1.8,8.4,13.3-5.1,15.8-9.6l-2.4-.6c-.1,3.8-.1,18.7,6.6,17.7s2.4-16.6.9-20.4l-.6,1.5c1.3,2.8.9,5-1.2,6.7a23.9,23.9,0,0,1-2.2,2.3,27.3,27.3,0,0,1-4.7,3.5c-2,1.2-7.1,4.2-8.8.2-.9-2.2.3-5.7.8-8s.7-4.9,1.8-6.3,3.8-1.3,6-.7a36.4,36.4,0,0,1,4.7,1.4c1.5.5,12.3,4.3,5.5,8.6l2.1,1.2a254.9,254.9,0,0,0,.3-29q-.3-6.7-.9-13.5c-.3-4.5-2.5-11.4-.3-15.6.4-.7-.3-2-1.2-1.6-11.9,5-24.3,9.4-35.7,15.4-.2.1,0,.4.2.3Z" fill="#eeb41e"/><path d="M465.5,221.7a7.3,7.3,0,0,0-13,.8c-2.8,6-3.6,17.5,1.3,22.7s12.7.9,15.2-4.6,4.7-17.3-3.3-19.5a1.1,1.1,0,0,0-1.4,1.4,47.7,47.7,0,0,1,1.1,9.9,15.3,15.3,0,0,1-.1,3.7,2.5,2.5,0,0,1-1.7,2.6c-1.3,2.2-2,2.2-2-.2-2.4-4.7-1.8-12.6-1.4-17.7l-1.6.2c.7,4,3.4,16.1-2.3,18.3l1.4.8a57.5,57.5,0,0,1-1.8-18l-1.9.5a24.3,24.3,0,0,1,3.4,6.6c.3,1.2,1.7,5.2.9,5.8-2.8,2.1-2.5-4.7-2.1-5.2,3.4-3.5,4.1,5.4,4.2,6.7l2.5-.4a39.7,39.7,0,0,1-.5-11.4l-1.8.2a28.1,28.1,0,0,1,.5,10.8c-.2,1.6,2.5,1.6,2.6,0a30.8,30.8,0,0,0-1.4-11.3c-.3-1-1.6-.7-1.8.3a51.7,51.7,0,0,0-.1,11.8c.2,1.5,2.6,1.6,2.5,0s-1.6-11.4-5.7-11.1-3.5,9.2-2.4,11.8,4.1,4.7,5.8,1.1-1.9-13-4.8-16.7a1,1,0,0,0-1.9.5,72.8,72.8,0,0,0,1.6,18.6c.2.5.9,1,1.4.8,7.6-2.7,4.6-15.3,3.3-21-.2-.9-1.5-.6-1.6.3a76.1,76.1,0,0,0,.7,16.5c.5,2.3.8,6.7,4,6.8,7.8.4,4.2-18.2,3.3-22.2l-1.5,1.4c6,1.5,3.9,10.2,2.5,14.3s-9.3,11.5-13.2,4c-1.6-3.2-1.6-7.2-1.3-10.7a21.6,21.6,0,0,1,1-6.1c1.5-4.4,6.6-6.7,9.7-2.1.7,1.1,2.4.1,1.7-1Z" fill="#eeb41e"/><path d="M474.1,199c1.6-.6,3.1-.6,4.7-1.5l3.3-1.6,9.1-4.1c5.6-2.3,11.3-4.4,17.1-6.4l-1.1-2.5C496,188.2,485,194.1,474.1,200c-1.1.6-.4,2.6.8,2.1L505,190.3l-1-2.4a106.2,106.2,0,0,1-24.4,8.8l1.1,2.6c6.7-5,14.7-7.3,22.6-9.5l-.7-2.4c-10.5,3.3-21,6.5-31.4,9.9a1.3,1.3,0,1,0,.7,2.6,57.9,57.9,0,0,0,22.4-8c1-.7.7-2.7-.7-2.5A125.9,125.9,0,0,0,468,195a1.3,1.3,0,0,0,.7,2.6,86.6,86.6,0,0,0,22.9-9.5,1.3,1.3,0,0,0-1.3-2.3c-4.2,2.2-8.4,4.3-12.5,6.6-1.4.8-.2,2.7,1.2,2.1l12.6-6.4-1.3-2.3A75.1,75.1,0,0,1,468,195l.7,2.6a126,126,0,0,1,24.9-5.5l-.7-2.5a52.9,52.9,0,0,1-21.4,7.6l.4,2.7,31.4-10.1a1.3,1.3,0,1,0-.7-2.4c-8.2,2.3-16.1,4.7-23.3,9.5a1.4,1.4,0,0,0,1.1,2.6,109.8,109.8,0,0,0,24.9-9.3c1.2-.7.4-3-1-2.4l-30,12.1.9,2.1c11-5.8,22.3-11.2,33.4-16.7,1.4-.7.4-3.1-1.1-2.6-6.1,2.3-12.2,4.7-18.1,7.5-3.1,1.4-6.1,2.8-9.1,4.4s-5.4,2.3-7.1,4.4a.8.8,0,0,0,0,1.1l.2.3a1,1,0,0,0,1,.2l.3-.2c.8-.3.3-1.7-.6-1.4Z" fill="#eeb41e"/><path d="M497.7,242.2l-5.3-2.6.9-3a9.5,9.5,0,0,1,3.2-3.1l2.4-1.1,5.1,2c1.4,1.6.3,5-.3,6.5-1.6,3.7-10.7,11.8-11.7,4.1-.8-6,3.2-13.5,10.1-11.6,5.2,1.3,6.1,7.6,3.8,11.9-5.9,11.3-20.7,1-15.2-9.4a14.3,14.3,0,0,1,4.6-5.2c1.3-.8,1.7-1.5,2.4,0s0,2.6-.2,3.6a10,10,0,0,1-3.9,5.7c-2.2,1.6-2.7,2.3-2.9-1.2s-.5-3.2,1.3-2.3a9.1,9.1,0,0,1,4.3,1.4c1.1.4,2-1.1.9-1.6-3.2-1.3-7.3-3-10.4-.5s-2.9,4.4-1.3,6.4c4.8,6.3,13.2-3.2,14.1-7.9.4-1.7.8-5.7-1.1-6.7s-6.9,3-8.3,4.8c-4.7,5.8-4.2,14.5,2.5,18.7s14.2.1,16.3-6.9-2.1-14.2-9.6-13.2-12.4,11.1-8.9,18.2,13.5-3.2,15.3-7.4,1.4-7.9-2-10.3-7.7-.5-10.4,2.1-4.1,6-2.1,9a4.5,4.5,0,0,0,7.2.4c.5-.5-.3-1.3-.8-.8Z" fill="#eeb41e"/><path d="M462.4,232.2c-.2,2.3-1.1,6-3.1,7.4-3.6,2.5-4.9-3.1-4.4-5.4s4.3-8,8.1-8.3c5.7-.4,3.5,10.2,1.9,12.9-2.8,4.8-10.7,4.3-9.8-2.4.5-3.3,3.6-8.9,7.1-9.9,5.6-1.6,3,9.7.6,11.7s-2.6,2-3.9.5-.4-2.5-.5-3.2c-.3-2.4-.4-4.7.7-6.9s2.7-1,3.2,1.4a22.1,22.1,0,0,1,.2,7.7l1.9-.5a9.9,9.9,0,0,1-2.9-4c-.4-.8-1.8-.8-1.8.3A6.3,6.3,0,0,0,463,239a1.1,1.1,0,0,0,1.7-1,26.8,26.8,0,0,0-2.8-13.3.6.6,0,0,0-.9-.2c-4.9,2.8-5.7,9.6-4.5,14.7s7.2,2.5,9.3-.5a13.6,13.6,0,0,0,2.1-7.9c0-1.9.1-5.2-1.6-6.5-3.6-2.9-9.4,3.2-11.2,5.8s-4.3,10.1,0,13.4,9,.9,11.4-2.5,2.3-5.5,2.4-8.3.3-5.8-1.3-7.7c-3.1-3.8-9.3.1-11.7,2.7s-5.3,10.4-.8,13.8,8.5-5.5,8.6-9.3c.1-.9-1.2-.8-1.3,0Z" fill="#eeb41e"/><path d="M456.7,132c2.1-.2,1.3,5,1.1,5.7a6.6,6.6,0,0,1-3.5,4c-3.2,1.3-6.9.2-7.8-3.3s2.1-6.2,5.6-7,3.6,1.2,2.4,3.5a5.9,5.9,0,0,1-2.7,2.2,9,9,0,0,1-6.8.6c-3.3-1.3-4-5.8-1-7.7a12,12,0,0,1,3.6-1.3c.9-.2,2.9-.9,3.8-.5l3.2,3.4a5.5,5.5,0,0,1-1.2,2.4c-1.6,2.3-4.3,3.5-6.9,4.2s-2.7.8-4.4-.6-1.6-2.3-1.1-4.3,4.7-8,6.6-2.1c1.4,3.9-1.2,10.6-5.5,11.9s-3.2-8.1-.8-9.7,5.1-.8,7.3-.3,5,1.1,3.3,4l-5.3,2.2,1.5-4.3c2.1-1.4,4.3.7,2.9,3.3s-3.5,2.4-4.7,2.8a.7.7,0,0,0,.4,1.4c3.2-.5,10.2-4.2,7.6-8.4s-7.9-2.1-10,0-.7,7.9,3.1,8.6,7.9-3.7,6.9-7.7-7.2-4.7-10.7-4.2c-5.5.7-7.2,5.1-6.8,10.2s3.2,6.8,7.6,4.2,6.3-7.3,6.2-11.9-2.1-9.1-6.6-7.8-6.8,8-6,12.2c1.9,9.7,20.4.7,19.6-7.7s-22.5-3.8-18.5,6.1c1.7,4.3,7.3,5.6,11.4,4.6s8.7-4.8,7.9-9.2-9-2.8-11.7-.7a7.8,7.8,0,0,0-.1,12.5c3.9,2.9,9.8,1.4,12.2-2.9.9-1.8,1.9-10.6-2.2-9.1-.4.1-.4.8.1.7Z" fill="#eeb41e"/><path d="M294.8,185.5l-5.4,2.6-.8-3a7.2,7.2,0,0,1,1.5-5.3,6.5,6.5,0,0,1,3.4-2.7c1.4-.9,2.5-.4,3.4,1.4s2.5,1.3,2.3,2.7-.2,5.3-.9,7.6-1.9,6-3.6,6.8c-3.8,1.9-6.6-2.2-6.9-5.4a8.7,8.7,0,0,1,2.7-7.1c1.2-1.3,5.5-4.5,7.6-3.8s3.5,5.9,2.7,8.7c-1.4,4.9-6,8.6-11.3,7.5s-8-5.8-5.8-10.6a6.9,6.9,0,0,1,2.2-2.8c2.6-1.8,3.5-1.1,5.6,1.1s2.9,3.2,1.2,5.7a5.4,5.4,0,0,1-4.8,2.3c-4.3-.9-4.2-7-.4-8.2,1.7-.5,9.6.1,8.1,3.9-.4.9,1,1.3,1.5.6,4.2-5.7-9.5-7.9-13-4.7-5.3,4.9,1.6,13.2,7.7,10.3s4.8-15.7-3.7-14.1-9.6,11.2-4.6,16.1,16,2.9,19.1-4.5c1.3-3.3,1.9-8.6-.4-11.7s-7.1-1.6-10.1.2c-6.3,3.8-10.3,14.3-2.2,18.9s12.5-13.3,11.5-19-4.1-5.7-8-4.4a10.1,10.1,0,0,0-7.2,9.8c0,3.5,2.1,8.3,6.3,8s5-4.3,3.2-7.2c-.3-.5-1.1-.2-.9.3Z" fill="#eeb41e"/><path d="M153.9,107.5a45.3,45.3,0,0,0-2.8-14.1l-1,1.1c2.6,1,4.7.1,7.2-1.1,4.1-2.1,8.1-4.4,12.2-6.6,2.2-1.3,4.5-3,6.9-3.9s2.1-1.6,3.6.9c2.3,4,2.6,10.8,2.8,15.2l2.1-.6c-3.1-5.8-12.1-5.5-13.4,1.7-.3,1.9-.1,4.3,1.9,5s8.1-4.7,9.7-6.8l-1.6-1-1.1,2.6,1.4-.4-.3-4.6-1.1-.6c0,.5-1.8,8.8-3.9,7.2l-.3-2.5a8.3,8.3,0,0,1-3,2l1.1.8,1.8-2.5-1.1-.8-2,2.8c-.4.5.2,1.2.7.9a5,5,0,0,0,2.7-3.3c.3-.7-.6-1.1-1.1-.8a3.5,3.5,0,0,0-2.4,3.3c-.1.7.4,1.2,1,.9a10.6,10.6,0,0,0,5.2-6c.2-.5-.5-.9-.9-.7a5.8,5.8,0,0,0-3.3,7.3.9.9,0,0,0,.9.5,9.2,9.2,0,0,0,6.1-9.1.9.9,0,0,0-1.2-.7c-2.7,2-3,5.8,0,7.7a1.1,1.1,0,0,0,1.5-.4,6.5,6.5,0,0,0,1.2-3.1,1,1,0,0,0-1.8-.7c-.9,1.1-4.3,5.6-6,5.7-3.4-1-3.3-2.9.3-5.8,3.3-1.2,5.7-.3,7.1,2.6a1.1,1.1,0,0,0,2.1-.6,55,55,0,0,0-4.9-19.1.8.8,0,0,0-1.1-.3L166,86.7c-3.9,2.1-10.9,7.8-15.5,6.1a.9.9,0,0,0-1,1.1,51.5,51.5,0,0,1,2.9,13.6.8.8,0,0,0,1.5,0Z" fill="#eeb41e"/><path d="M152.4,107.1c-1.2-2.3-4.4-2-6.3-.7s-3.1,5.8-3.2,9a.8.8,0,0,0,.7.7,12.2,12.2,0,0,0,10.5-10.9h-1.4a4.4,4.4,0,0,1-.2,2,1.2,1.2,0,0,1-.5,1c-.5,1.2-1.2,1-2-.5l-1.1-.2a9.3,9.3,0,0,1,.4,1.3v1.7l-2.1-.2c-.1-.2.4-1.1.5-1.3s1-1.5,2-1.2,1,.1.8.8a1.5,1.5,0,0,1-.2,1.1,2.9,2.9,0,0,1-.7,1.2c-.4.4-.9,1-1.4,1.1s-1.4-.9-1.5-2a.4.4,0,1,0-.7,0,4.3,4.3,0,0,0,.8,3.3.9.9,0,0,0,.6.3,4.8,4.8,0,0,0,4.4-5.3c-.4-3-3.3-2-4.7-.3s-2.1,4.4.4,5a2.6,2.6,0,0,0,2.6-1.3c.9-1.4.3-3-.1-4.5s-.7-.6-1-.2a2.1,2.1,0,0,0,1.5,3.6c2.9.3,3.4-3.3,3.5-5.4a.7.7,0,0,0-1.4,0,10.8,10.8,0,0,1-9.3,9.5l.9.7c.1-2.4.1-5.1,1.6-7a4,4,0,0,1,5.8-.8c.4.3.9,0,.7-.5Z" fill="#eeb41e"/><path d="M152,91.8l21.8-11c1.3-.6.1-2.5-1.1-1.9L148.4,90.4c-1.2.6-.3,2.2.9,2a70.4,70.4,0,0,0,26.6-10.9c.9-.6.3-2.5-.9-2L152.3,89l.8,2.1,25.7-12.2c1.1-.5.3-2.3-.8-2-8,2.2-15.4,6.1-22.8,9.8-.8.4-.2,1.6.6,1.4A71.1,71.1,0,0,0,177,79.5c.9-.6.3-2.1-.7-1.8a102.4,102.4,0,0,0-21.3,9c-1.3.7-.1,2.7,1.2,1.9a129.8,129.8,0,0,1,20.6-9l-.8-1.8a60,60,0,0,1-20.6,8.9l.5,1.3a130.8,130.8,0,0,1,22.7-9l-.8-2L152,89.2c-1.1.5-.3,2.5.9,2l22.7-9.5-.9-2.1a69.9,69.9,0,0,1-26,10.7l.8,2,24.3-11.5-1.1-1.9L151.4,90.8c-.6.4,0,1.3.6,1Z" fill="#eeb41e"/><path d="M329.8,69.6a154.1,154.1,0,0,1-3.9,17.9l2-.5c-5.1-5.5-13.1-4-16.2,2.7a.6.6,0,0,0,.5.9,37.2,37.2,0,0,0,13.7-4.7c1-.5.1-2.1-.9-1.5-2.7,1.5-4.8,1.4-7.7,1l-.2,1.5c2.2-.2,4.5-.3,6.7-.3l-.6-1.1a8.3,8.3,0,0,1-3.1,3.6c-2.6-.6-2.8-1-.5-1.1l-1-.8c0-.1,3.6,1.8,3.9,2s1.5-.6.9-1.1-8.4-3.2-7.4.9a2,2,0,0,0,2,1.3c1.6-.1,2-1.8,2.2-3.1a.8.8,0,0,0-1-.7c-1.6.3-3.7-.1-4.2,1.8a2.8,2.8,0,0,0,1,2.6c3.2,2.7,7.2-2.4,8.4-4.7a.7.7,0,0,0-.6-1c-2.2.1-4.5.2-6.7.1a.8.8,0,0,0-.4,1.5c3,1.8,6.5,1.1,9.2-.9l-1.1-1.4c-3.6,3-8.1,4.3-12.6,4.9l.5.9c2.6-5.8,9.6-6.4,13.5-1.6.6.7,1.7.2,2-.6a70.6,70.6,0,0,0,3.5-18.2c0-1.1-1.7-1.4-1.9-.3Z" fill="#eeb41e"/><path d="M331.3,71.5l11.2-.5a.8.8,0,0,0,.2-1.5,23.7,23.7,0,0,0-13.7-.3.9.9,0,0,0,0,1.8,38.5,38.5,0,0,0,11.1,2.3l-.3-1.9L330,73.7l.7,1.6a16,16,0,0,1,8.6-1.9V71.5h-7.2c-1.2,0-1.1,1.7,0,1.8,3.3.4,6.9,1,10.2-.1a.6.6,0,0,0-.1-1.2c-3.4-.1-6.6.3-9.9-.5l-.2,1.8h7.2a1,1,0,0,0,0-1.9,25.4,25.4,0,0,0-9.5,2.2c-1,.5-.3,1.9.7,1.7,3.3-.7,6.6-1.3,9.9-2.1a1,1,0,0,0-.3-1.9,29.5,29.5,0,0,1-10.6-2.2V71a32.4,32.4,0,0,1,12.8,0V69.5l-11,1.6c-.3,0-.2.4,0,.4Z" fill="#eeb41e"/><path d="M246,250.2a.2.2,0,0,0,0-.3c-.1,0-.1.3,0,.3Z" fill="#eeb41e"/><path d="M244.4,250.1c.7,7,1.4,14,2.3,21,.2,1.3,2.3,1.2,2.6,0a19.2,19.2,0,0,0-.4-9.8c-.5-1.6-1.6-2.8-2.2-4.3a3.3,3.3,0,0,1-.2-4.3l1.9-.3c3.9-1.9,8.8-2.3,12.9-4a108.8,108.8,0,0,0,10.7-5.6l-1.7-1c.5,6.5,1.6,13.3,4.5,19.1.6,1.2,2.5.3,2.2-1-1.5-6.1-3.5-12-4.5-18.4a1.2,1.2,0,0,0-1.7-.7c-7.9,5.5-16.9,8.4-26.1,10.9a.7.7,0,0,0-.4.6c-.2,2.1.5,3.6,1.2,5.4,2,4.6,2.8,7.9,1.2,12.7h2.6c-1-6.8-2-13.5-2.9-20.3-.1-1.3-2.1-1.3-2,0Z" fill="#eeb41e"/><path d="M258.2,248.1a74.4,74.4,0,0,0,2.9,17.5l2.4-1c-2.7-4-9.2-3.4-9.2,2.1,0,1.5.8,3.6,2.6,3.9s4.9-4.1,6.1-5.7-.7-1.8-1.4-1.2l-1.4-1.5-1.1-.7a1.6,1.6,0,0,1-.6,2.2l-1.1.5.6.7a.7.7,0,0,0,1.4-.4c-.3-1-.3-1.1-1.3-1.6a.8.8,0,0,0-1.1.4,1.9,1.9,0,0,0,1.9,2.6c2.5,0,2.1-3,1.7-4.6a.8.8,0,0,0-1.3-.3c-3.5,2.7.4,7.1,3.6,4.1l-1.5-1.2a21,21,0,0,1-2.6,3.3c-2.1,2-1.3,1.5,2.4-1.3a1.3,1.3,0,0,0,2.4-1,118.6,118.6,0,0,1-3.2-16.8c-.2-1.3-2.3-1.4-2.2,0Z" fill="#eeb41e"/><path d="M279.4,256.4c-1.2-1.6-4-1.1-5.5-.3s-3.7,3.4-2.9,5.6,3,2.4,4.7,1.7,3.2-3.8,3.5-6.2a.9.9,0,0,0-1.1-1.1l-5.5,2.1,1.1.8a3.2,3.2,0,0,1,2.8-3.3l-.5-.2c.7,1.5-1,3.3-2.5,3.3l.8.6c-.4-1.2,1.6-2.7,2.1-1.2a1.7,1.7,0,0,1-.8,2,.8.8,0,0,0,.6,1.4c2.2-.5,2.6-3.7.8-5s-4.7,1-4.3,3.3c.1.3.5.5.8.6,3,.3,4.6-3.1,3.3-5.5-.1-.2-.4-.2-.6-.2a5.4,5.4,0,0,0-4.2,4,.9.9,0,0,0,1.1,1l5.5-2-1.1-1.1c-.2,1.6-.4,3.5-1.5,4.7s-3.5,1.2-3.4-.8a3.6,3.6,0,0,1,2.6-3.1c1.3-.5,2.4,0,3.7-.1s.9-.5.5-1Z" fill="#eeb41e"/><path d="M245.8,266.9c-2.5.4-5.1,1.8-6,4.3a4.8,4.8,0,0,0,2.2,5.7c4,1.9,9.9-5.5,6.5-8.7a.9.9,0,0,0-1.5.9,1.7,1.7,0,0,1-.9,2.1c-1.4.8-1.6-.6-.6-1.4l-1.1-.2a1.8,1.8,0,0,1-.7,2.6l1.1.3c-.5-.8-1.1-1.6-1.6-2.5l-.3,1c.5-.4,1.4-.8,1.6,0s-.1,1.3-.5.9a.7.7,0,0,0-1.2.7c.4,2.3,3.5,1.2,3.7-.8s-.1-2.3-1.1-2.7-2.5,0-3.4.7a1,1,0,0,0-.1.9c.6.9,1,1.8,1.5,2.6a.9.9,0,0,0,1.1.3,3.1,3.1,0,0,0,1.1-4.7.7.7,0,0,0-1-.1c-1.5,1.4-2,4.6.8,4.4a3.7,3.7,0,0,0,3.3-4.6l-1.4.8c1.6,1.6-2.8,7.2-4.9,5.4a2.9,2.9,0,0,1-.3-3.9,8.2,8.2,0,0,1,4-2.6c.9-.4.6-1.6-.3-1.4Z" fill="#eeb41e"/><path d="M247.9,257.2h-.3c-.2,0-.5.1-.5.4v.3c0,.3.1.7.4.8,3,.9,7.9-1.5,10.7-2.5a78.4,78.4,0,0,0,12.6-5.4c1.3-.6.4-2.2-.8-2-9.1,1.5-18.1,3.4-27.1,5.1a.9.9,0,0,0,.2,1.8c6.3-.3,12.3-1.9,18.3-3.7a1.1,1.1,0,0,0-.3-2.2,21.1,21.1,0,0,0-10.4,2.9,1,1,0,0,0,.5,1.9c7.1-.3,13.4-2.2,19-6.6.9-.7-.1-2-1.1-1.8a107.4,107.4,0,0,0-12.2,3.8l.7,1.6c4.9-3,10-5.7,14.8-8.7.8-.5.3-1.9-.6-1.5a32.6,32.6,0,0,0-10.1,5.3c-1,.8-.1,2.5,1,1.7a51.6,51.6,0,0,1,9.7-5.5l-.8-1.5a100.9,100.9,0,0,1-14.9,8.6c-.9.5-.2,1.9.7,1.7l12.3-3.4-1-1.8a22.7,22.7,0,0,1-17.5,6.1l.5,1.9a19.6,19.6,0,0,1,9.4-2.4l-.3-2.2c-5.8,1.9-11.5,3.6-17.7,4l.3,1.7c9-1.5,18.1-2.9,27.2-4.6l-.9-2.1a104,104,0,0,1-11.2,5.2c-3.3,1.3-7.2,2-10.3,3.9a.5.5,0,0,0-.2-.9Z" fill="#eeb41e"/></svg>